<?xml version="1.0" encoding="utf-8" standalone="no"?>
<!DOCTYPE svg PUBLIC "-//W3C//DTD SVG 1.1//EN"
  "http://www.w3.org/Graphics/SVG/1.1/DTD/svg11.dtd">
<svg xmlns:xlink="http://www.w3.org/1999/xlink" width="1481.188788pt" height="474.3755pt" viewBox="0 0 1481.188788 474.3755" xmlns="http://www.w3.org/2000/svg" version="1.1">
 <metadata>
  <rdf:RDF xmlns:dc="http://purl.org/dc/elements/1.1/" xmlns:cc="http://creativecommons.org/ns#" xmlns:rdf="http://www.w3.org/1999/02/22-rdf-syntax-ns#">
   <cc:Work>
    <dc:type rdf:resource="http://purl.org/dc/dcmitype/StillImage"/>
    <dc:date>2026-03-12T14:53:41.418917</dc:date>
    <dc:format>image/svg+xml</dc:format>
    <dc:creator>
     <cc:Agent>
      <dc:title>Matplotlib v3.10.0, https://matplotlib.org/</dc:title>
     </cc:Agent>
    </dc:creator>
   </cc:Work>
  </rdf:RDF>
 </metadata>
 <defs>
  <style type="text/css">*{stroke-linejoin: round; stroke-linecap: butt}</style>
 </defs>
 <g id="figure_1">
  <g id="patch_1">
   <path d="M 0 474.3755 
L 1481.188788 474.3755 
L 1481.188788 -0 
L 0 -0 
z
" style="fill: #ffffff"/>
  </g>
  <g id="axes_1">
   <g id="patch_2">
    <path d="M 75.9625 419.528 
L 334.295833 419.528 
L 334.295833 64.712 
L 75.9625 64.712 
z
" style="fill: #ffffff"/>
   </g>
   <g id="matplotlib.axis_1">
    <g id="xtick_1">
     <g id="line2d_1">
      <path d="M 93.576136 419.528 
L 93.576136 64.712 
" clip-path="url(#p6f2955ec97)" style="fill: none; stroke-dasharray: 5.55,2.4; stroke-dashoffset: 0; stroke: #cccccc; stroke-opacity: 0.35; stroke-width: 1.5"/>
     </g>
     <g id="text_1">
      <!-- -20 -->
      <g style="fill: #262626" transform="translate(82.014886 443.4805) scale(0.16 -0.16)">
       <defs>
        <path id="ArialMT-2d" d="M 203 1375 
L 203 1941 
L 1931 1941 
L 1931 1375 
L 203 1375 
z
" transform="scale(0.015625)"/>
        <path id="ArialMT-32" d="M 3222 541 
L 3222 0 
L 194 0 
Q 188 203 259 391 
Q 375 700 629 1000 
Q 884 1300 1366 1694 
Q 2113 2306 2375 2664 
Q 2638 3022 2638 3341 
Q 2638 3675 2398 3904 
Q 2159 4134 1775 4134 
Q 1369 4134 1125 3890 
Q 881 3647 878 3216 
L 300 3275 
Q 359 3922 746 4261 
Q 1134 4600 1788 4600 
Q 2447 4600 2831 4234 
Q 3216 3869 3216 3328 
Q 3216 3053 3103 2787 
Q 2991 2522 2730 2228 
Q 2469 1934 1863 1422 
Q 1356 997 1212 845 
Q 1069 694 975 541 
L 3222 541 
z
" transform="scale(0.015625)"/>
        <path id="ArialMT-30" d="M 266 2259 
Q 266 3072 433 3567 
Q 600 4063 929 4331 
Q 1259 4600 1759 4600 
Q 2128 4600 2406 4451 
Q 2684 4303 2865 4023 
Q 3047 3744 3150 3342 
Q 3253 2941 3253 2259 
Q 3253 1453 3087 958 
Q 2922 463 2592 192 
Q 2263 -78 1759 -78 
Q 1097 -78 719 397 
Q 266 969 266 2259 
z
M 844 2259 
Q 844 1131 1108 757 
Q 1372 384 1759 384 
Q 2147 384 2411 759 
Q 2675 1134 2675 2259 
Q 2675 3391 2411 3762 
Q 2147 4134 1753 4134 
Q 1366 4134 1134 3806 
Q 844 3388 844 2259 
z
" transform="scale(0.015625)"/>
       </defs>
       <use xlink:href="#ArialMT-2d"/>
       <use xlink:href="#ArialMT-32" transform="translate(33.300781 0)"/>
       <use xlink:href="#ArialMT-30" transform="translate(88.916016 0)"/>
      </g>
     </g>
    </g>
    <g id="xtick_2">
     <g id="line2d_2">
      <path d="M 152.288258 419.528 
L 152.288258 64.712 
" clip-path="url(#p6f2955ec97)" style="fill: none; stroke-dasharray: 5.55,2.4; stroke-dashoffset: 0; stroke: #cccccc; stroke-opacity: 0.35; stroke-width: 1.5"/>
     </g>
     <g id="text_2">
      <!-- -10 -->
      <g style="fill: #262626" transform="translate(140.727008 443.4805) scale(0.16 -0.16)">
       <defs>
        <path id="ArialMT-31" d="M 2384 0 
L 1822 0 
L 1822 3584 
Q 1619 3391 1289 3197 
Q 959 3003 697 2906 
L 697 3450 
Q 1169 3672 1522 3987 
Q 1875 4303 2022 4600 
L 2384 4600 
L 2384 0 
z
" transform="scale(0.015625)"/>
       </defs>
       <use xlink:href="#ArialMT-2d"/>
       <use xlink:href="#ArialMT-31" transform="translate(33.300781 0)"/>
       <use xlink:href="#ArialMT-30" transform="translate(88.916016 0)"/>
      </g>
     </g>
    </g>
    <g id="xtick_3">
     <g id="line2d_3">
      <path d="M 211.000379 419.528 
L 211.000379 64.712 
" clip-path="url(#p6f2955ec97)" style="fill: none; stroke-dasharray: 5.55,2.4; stroke-dashoffset: 0; stroke: #cccccc; stroke-opacity: 0.35; stroke-width: 1.5"/>
     </g>
     <g id="text_3">
      <!-- 0 -->
      <g style="fill: #262626" transform="translate(206.551629 443.4805) scale(0.16 -0.16)">
       <use xlink:href="#ArialMT-30"/>
      </g>
     </g>
    </g>
    <g id="xtick_4">
     <g id="line2d_4">
      <path d="M 269.7125 419.528 
L 269.7125 64.712 
" clip-path="url(#p6f2955ec97)" style="fill: none; stroke-dasharray: 5.55,2.4; stroke-dashoffset: 0; stroke: #cccccc; stroke-opacity: 0.35; stroke-width: 1.5"/>
     </g>
     <g id="text_4">
      <!-- 10 -->
      <g style="fill: #262626" transform="translate(260.815 443.4805) scale(0.16 -0.16)">
       <use xlink:href="#ArialMT-31"/>
       <use xlink:href="#ArialMT-30" transform="translate(55.615234 0)"/>
      </g>
     </g>
    </g>
    <g id="xtick_5">
     <g id="line2d_5">
      <path d="M 328.424621 419.528 
L 328.424621 64.712 
" clip-path="url(#p6f2955ec97)" style="fill: none; stroke-dasharray: 5.55,2.4; stroke-dashoffset: 0; stroke: #cccccc; stroke-opacity: 0.35; stroke-width: 1.5"/>
     </g>
     <g id="text_5">
      <!-- 20 -->
      <g style="fill: #262626" transform="translate(319.527121 443.4805) scale(0.16 -0.16)">
       <use xlink:href="#ArialMT-32"/>
       <use xlink:href="#ArialMT-30" transform="translate(55.615234 0)"/>
      </g>
     </g>
    </g>
    <g id="text_6">
     <!-- x [mm] -->
     <g style="fill: #262626" transform="translate(175.624635 463.544562) scale(0.18 -0.18)">
      <defs>
       <path id="Arial-BoldMT-78" d="M 38 0 
L 1234 1709 
L 88 3319 
L 1159 3319 
L 1747 2406 
L 2366 3319 
L 3397 3319 
L 2272 1747 
L 3500 0 
L 2422 0 
L 1747 1028 
L 1066 0 
L 38 0 
z
" transform="scale(0.015625)"/>
       <path id="Arial-BoldMT-20" transform="scale(0.015625)"/>
       <path id="Arial-BoldMT-5b" d="M 456 -1291 
L 456 4581 
L 2013 4581 
L 2013 3891 
L 1291 3891 
L 1291 -600 
L 2013 -600 
L 2013 -1291 
L 456 -1291 
z
" transform="scale(0.015625)"/>
       <path id="Arial-BoldMT-6d" d="M 394 3319 
L 1203 3319 
L 1203 2866 
Q 1638 3394 2238 3394 
Q 2556 3394 2790 3262 
Q 3025 3131 3175 2866 
Q 3394 3131 3647 3262 
Q 3900 3394 4188 3394 
Q 4553 3394 4806 3245 
Q 5059 3097 5184 2809 
Q 5275 2597 5275 2122 
L 5275 0 
L 4397 0 
L 4397 1897 
Q 4397 2391 4306 2534 
Q 4184 2722 3931 2722 
Q 3747 2722 3584 2609 
Q 3422 2497 3350 2280 
Q 3278 2063 3278 1594 
L 3278 0 
L 2400 0 
L 2400 1819 
Q 2400 2303 2353 2443 
Q 2306 2584 2207 2653 
Q 2109 2722 1941 2722 
Q 1738 2722 1575 2612 
Q 1413 2503 1342 2297 
Q 1272 2091 1272 1613 
L 1272 0 
L 394 0 
L 394 3319 
z
" transform="scale(0.015625)"/>
       <path id="Arial-BoldMT-5d" d="M 1675 4581 
L 1675 -1291 
L 119 -1291 
L 119 -600 
L 841 -600 
L 841 3897 
L 119 3897 
L 119 4581 
L 1675 4581 
z
" transform="scale(0.015625)"/>
      </defs>
      <use xlink:href="#Arial-BoldMT-78"/>
      <use xlink:href="#Arial-BoldMT-20" transform="translate(55.615234 0)"/>
      <use xlink:href="#Arial-BoldMT-5b" transform="translate(83.398438 0)"/>
      <use xlink:href="#Arial-BoldMT-6d" transform="translate(116.699219 0)"/>
      <use xlink:href="#Arial-BoldMT-6d" transform="translate(205.615234 0)"/>
      <use xlink:href="#Arial-BoldMT-5d" transform="translate(294.53125 0)"/>
     </g>
    </g>
   </g>
   <g id="matplotlib.axis_2">
    <g id="ytick_1">
     <g id="line2d_6">
      <path d="M 75.9625 403.4 
L 334.295833 403.4 
" clip-path="url(#p6f2955ec97)" style="fill: none; stroke-dasharray: 5.55,2.4; stroke-dashoffset: 0; stroke: #cccccc; stroke-opacity: 0.35; stroke-width: 1.5"/>
     </g>
     <g id="text_7">
      <!-- 0 -->
      <g style="fill: #262626" transform="translate(54.565 409.12625) scale(0.16 -0.16)">
       <use xlink:href="#ArialMT-30"/>
      </g>
     </g>
    </g>
    <g id="ytick_2">
     <g id="line2d_7">
      <path d="M 75.9625 343.756458 
L 334.295833 343.756458 
" clip-path="url(#p6f2955ec97)" style="fill: none; stroke-dasharray: 5.55,2.4; stroke-dashoffset: 0; stroke: #cccccc; stroke-opacity: 0.35; stroke-width: 1.5"/>
     </g>
     <g id="text_8">
      <!-- 1000 -->
      <g style="fill: #262626" transform="translate(27.8725 349.482708) scale(0.16 -0.16)">
       <use xlink:href="#ArialMT-31"/>
       <use xlink:href="#ArialMT-30" transform="translate(55.615234 0)"/>
       <use xlink:href="#ArialMT-30" transform="translate(111.230469 0)"/>
       <use xlink:href="#ArialMT-30" transform="translate(166.845703 0)"/>
      </g>
     </g>
    </g>
    <g id="ytick_3">
     <g id="line2d_8">
      <path d="M 75.9625 284.112915 
L 334.295833 284.112915 
" clip-path="url(#p6f2955ec97)" style="fill: none; stroke-dasharray: 5.55,2.4; stroke-dashoffset: 0; stroke: #cccccc; stroke-opacity: 0.35; stroke-width: 1.5"/>
     </g>
     <g id="text_9">
      <!-- 2000 -->
      <g style="fill: #262626" transform="translate(27.8725 289.839165) scale(0.16 -0.16)">
       <use xlink:href="#ArialMT-32"/>
       <use xlink:href="#ArialMT-30" transform="translate(55.615234 0)"/>
       <use xlink:href="#ArialMT-30" transform="translate(111.230469 0)"/>
       <use xlink:href="#ArialMT-30" transform="translate(166.845703 0)"/>
      </g>
     </g>
    </g>
    <g id="ytick_4">
     <g id="line2d_9">
      <path d="M 75.9625 224.469373 
L 334.295833 224.469373 
" clip-path="url(#p6f2955ec97)" style="fill: none; stroke-dasharray: 5.55,2.4; stroke-dashoffset: 0; stroke: #cccccc; stroke-opacity: 0.35; stroke-width: 1.5"/>
     </g>
     <g id="text_10">
      <!-- 3000 -->
      <g style="fill: #262626" transform="translate(27.8725 230.195623) scale(0.16 -0.16)">
       <defs>
        <path id="ArialMT-33" d="M 269 1209 
L 831 1284 
Q 928 806 1161 595 
Q 1394 384 1728 384 
Q 2125 384 2398 659 
Q 2672 934 2672 1341 
Q 2672 1728 2419 1979 
Q 2166 2231 1775 2231 
Q 1616 2231 1378 2169 
L 1441 2663 
Q 1497 2656 1531 2656 
Q 1891 2656 2178 2843 
Q 2466 3031 2466 3422 
Q 2466 3731 2256 3934 
Q 2047 4138 1716 4138 
Q 1388 4138 1169 3931 
Q 950 3725 888 3313 
L 325 3413 
Q 428 3978 793 4289 
Q 1159 4600 1703 4600 
Q 2078 4600 2393 4439 
Q 2709 4278 2876 4000 
Q 3044 3722 3044 3409 
Q 3044 3113 2884 2869 
Q 2725 2625 2413 2481 
Q 2819 2388 3044 2092 
Q 3269 1797 3269 1353 
Q 3269 753 2831 336 
Q 2394 -81 1725 -81 
Q 1122 -81 723 278 
Q 325 638 269 1209 
z
" transform="scale(0.015625)"/>
       </defs>
       <use xlink:href="#ArialMT-33"/>
       <use xlink:href="#ArialMT-30" transform="translate(55.615234 0)"/>
       <use xlink:href="#ArialMT-30" transform="translate(111.230469 0)"/>
       <use xlink:href="#ArialMT-30" transform="translate(166.845703 0)"/>
      </g>
     </g>
    </g>
    <g id="ytick_5">
     <g id="line2d_10">
      <path d="M 75.9625 164.82583 
L 334.295833 164.82583 
" clip-path="url(#p6f2955ec97)" style="fill: none; stroke-dasharray: 5.55,2.4; stroke-dashoffset: 0; stroke: #cccccc; stroke-opacity: 0.35; stroke-width: 1.5"/>
     </g>
     <g id="text_11">
      <!-- 4000 -->
      <g style="fill: #262626" transform="translate(27.8725 170.55208) scale(0.16 -0.16)">
       <defs>
        <path id="ArialMT-34" d="M 2069 0 
L 2069 1097 
L 81 1097 
L 81 1613 
L 2172 4581 
L 2631 4581 
L 2631 1613 
L 3250 1613 
L 3250 1097 
L 2631 1097 
L 2631 0 
L 2069 0 
z
M 2069 1613 
L 2069 3678 
L 634 1613 
L 2069 1613 
z
" transform="scale(0.015625)"/>
       </defs>
       <use xlink:href="#ArialMT-34"/>
       <use xlink:href="#ArialMT-30" transform="translate(55.615234 0)"/>
       <use xlink:href="#ArialMT-30" transform="translate(111.230469 0)"/>
       <use xlink:href="#ArialMT-30" transform="translate(166.845703 0)"/>
      </g>
     </g>
    </g>
    <g id="ytick_6">
     <g id="line2d_11">
      <path d="M 75.9625 105.182288 
L 334.295833 105.182288 
" clip-path="url(#p6f2955ec97)" style="fill: none; stroke-dasharray: 5.55,2.4; stroke-dashoffset: 0; stroke: #cccccc; stroke-opacity: 0.35; stroke-width: 1.5"/>
     </g>
     <g id="text_12">
      <!-- 5000 -->
      <g style="fill: #262626" transform="translate(27.8725 110.908538) scale(0.16 -0.16)">
       <defs>
        <path id="ArialMT-35" d="M 266 1200 
L 856 1250 
Q 922 819 1161 601 
Q 1400 384 1738 384 
Q 2144 384 2425 690 
Q 2706 997 2706 1503 
Q 2706 1984 2436 2262 
Q 2166 2541 1728 2541 
Q 1456 2541 1237 2417 
Q 1019 2294 894 2097 
L 366 2166 
L 809 4519 
L 3088 4519 
L 3088 3981 
L 1259 3981 
L 1013 2750 
Q 1425 3038 1878 3038 
Q 2478 3038 2890 2622 
Q 3303 2206 3303 1553 
Q 3303 931 2941 478 
Q 2500 -78 1738 -78 
Q 1113 -78 717 272 
Q 322 622 266 1200 
z
" transform="scale(0.015625)"/>
       </defs>
       <use xlink:href="#ArialMT-35"/>
       <use xlink:href="#ArialMT-30" transform="translate(55.615234 0)"/>
       <use xlink:href="#ArialMT-30" transform="translate(111.230469 0)"/>
       <use xlink:href="#ArialMT-30" transform="translate(166.845703 0)"/>
      </g>
     </g>
    </g>
    <g id="text_13">
     <!-- Neural drive weight [a.u.] -->
     <g style="fill: #262626" transform="translate(20.084063 349.132812) rotate(-90) scale(0.18 -0.18)">
      <defs>
       <path id="Arial-BoldMT-4e" d="M 475 0 
L 475 4581 
L 1375 4581 
L 3250 1522 
L 3250 4581 
L 4109 4581 
L 4109 0 
L 3181 0 
L 1334 2988 
L 1334 0 
L 475 0 
z
" transform="scale(0.015625)"/>
       <path id="Arial-BoldMT-65" d="M 2381 1056 
L 3256 909 
Q 3088 428 2723 176 
Q 2359 -75 1813 -75 
Q 947 -75 531 491 
Q 203 944 203 1634 
Q 203 2459 634 2926 
Q 1066 3394 1725 3394 
Q 2466 3394 2894 2905 
Q 3322 2416 3303 1406 
L 1103 1406 
Q 1113 1016 1316 798 
Q 1519 581 1822 581 
Q 2028 581 2168 693 
Q 2309 806 2381 1056 
z
M 2431 1944 
Q 2422 2325 2234 2523 
Q 2047 2722 1778 2722 
Q 1491 2722 1303 2513 
Q 1116 2303 1119 1944 
L 2431 1944 
z
" transform="scale(0.015625)"/>
       <path id="Arial-BoldMT-75" d="M 2644 0 
L 2644 497 
Q 2463 231 2167 78 
Q 1872 -75 1544 -75 
Q 1209 -75 943 72 
Q 678 219 559 484 
Q 441 750 441 1219 
L 441 3319 
L 1319 3319 
L 1319 1794 
Q 1319 1094 1367 936 
Q 1416 778 1544 686 
Q 1672 594 1869 594 
Q 2094 594 2272 717 
Q 2450 841 2515 1023 
Q 2581 1206 2581 1919 
L 2581 3319 
L 3459 3319 
L 3459 0 
L 2644 0 
z
" transform="scale(0.015625)"/>
       <path id="Arial-BoldMT-72" d="M 1300 0 
L 422 0 
L 422 3319 
L 1238 3319 
L 1238 2847 
Q 1447 3181 1614 3287 
Q 1781 3394 1994 3394 
Q 2294 3394 2572 3228 
L 2300 2463 
Q 2078 2606 1888 2606 
Q 1703 2606 1575 2504 
Q 1447 2403 1373 2137 
Q 1300 1872 1300 1025 
L 1300 0 
z
" transform="scale(0.015625)"/>
       <path id="Arial-BoldMT-61" d="M 1116 2306 
L 319 2450 
Q 453 2931 781 3162 
Q 1109 3394 1756 3394 
Q 2344 3394 2631 3255 
Q 2919 3116 3036 2902 
Q 3153 2688 3153 2116 
L 3144 1091 
Q 3144 653 3186 445 
Q 3228 238 3344 0 
L 2475 0 
Q 2441 88 2391 259 
Q 2369 338 2359 363 
Q 2134 144 1878 34 
Q 1622 -75 1331 -75 
Q 819 -75 523 203 
Q 228 481 228 906 
Q 228 1188 362 1408 
Q 497 1628 739 1745 
Q 981 1863 1438 1950 
Q 2053 2066 2291 2166 
L 2291 2253 
Q 2291 2506 2166 2614 
Q 2041 2722 1694 2722 
Q 1459 2722 1328 2630 
Q 1197 2538 1116 2306 
z
M 2291 1594 
Q 2122 1538 1756 1459 
Q 1391 1381 1278 1306 
Q 1106 1184 1106 997 
Q 1106 813 1243 678 
Q 1381 544 1594 544 
Q 1831 544 2047 700 
Q 2206 819 2256 991 
Q 2291 1103 2291 1419 
L 2291 1594 
z
" transform="scale(0.015625)"/>
       <path id="Arial-BoldMT-6c" d="M 459 0 
L 459 4581 
L 1338 4581 
L 1338 0 
L 459 0 
z
" transform="scale(0.015625)"/>
       <path id="Arial-BoldMT-64" d="M 3503 0 
L 2688 0 
L 2688 488 
Q 2484 203 2207 64 
Q 1931 -75 1650 -75 
Q 1078 -75 670 386 
Q 263 847 263 1672 
Q 263 2516 659 2955 
Q 1056 3394 1663 3394 
Q 2219 3394 2625 2931 
L 2625 4581 
L 3503 4581 
L 3503 0 
z
M 1159 1731 
Q 1159 1200 1306 963 
Q 1519 619 1900 619 
Q 2203 619 2415 876 
Q 2628 1134 2628 1647 
Q 2628 2219 2422 2470 
Q 2216 2722 1894 2722 
Q 1581 2722 1370 2473 
Q 1159 2225 1159 1731 
z
" transform="scale(0.015625)"/>
       <path id="Arial-BoldMT-69" d="M 459 3769 
L 459 4581 
L 1338 4581 
L 1338 3769 
L 459 3769 
z
M 459 0 
L 459 3319 
L 1338 3319 
L 1338 0 
L 459 0 
z
" transform="scale(0.015625)"/>
       <path id="Arial-BoldMT-76" d="M 1372 0 
L 34 3319 
L 956 3319 
L 1581 1625 
L 1763 1059 
Q 1834 1275 1853 1344 
Q 1897 1484 1947 1625 
L 2578 3319 
L 3481 3319 
L 2163 0 
L 1372 0 
z
" transform="scale(0.015625)"/>
       <path id="Arial-BoldMT-77" d="M 1078 0 
L 28 3319 
L 881 3319 
L 1503 1144 
L 2075 3319 
L 2922 3319 
L 3475 1144 
L 4109 3319 
L 4975 3319 
L 3909 0 
L 3066 0 
L 2494 2134 
L 1931 0 
L 1078 0 
z
" transform="scale(0.015625)"/>
       <path id="Arial-BoldMT-67" d="M 378 -219 
L 1381 -341 
Q 1406 -516 1497 -581 
Q 1622 -675 1891 -675 
Q 2234 -675 2406 -572 
Q 2522 -503 2581 -350 
Q 2622 -241 2622 53 
L 2622 538 
Q 2228 0 1628 0 
Q 959 0 569 566 
Q 263 1013 263 1678 
Q 263 2513 664 2953 
Q 1066 3394 1663 3394 
Q 2278 3394 2678 2853 
L 2678 3319 
L 3500 3319 
L 3500 341 
Q 3500 -247 3403 -537 
Q 3306 -828 3131 -993 
Q 2956 -1159 2664 -1253 
Q 2372 -1347 1925 -1347 
Q 1081 -1347 728 -1058 
Q 375 -769 375 -325 
Q 375 -281 378 -219 
z
M 1163 1728 
Q 1163 1200 1367 954 
Q 1572 709 1872 709 
Q 2194 709 2416 961 
Q 2638 1213 2638 1706 
Q 2638 2222 2425 2472 
Q 2213 2722 1888 2722 
Q 1572 2722 1367 2476 
Q 1163 2231 1163 1728 
z
" transform="scale(0.015625)"/>
       <path id="Arial-BoldMT-68" d="M 1334 4581 
L 1334 2897 
Q 1759 3394 2350 3394 
Q 2653 3394 2897 3281 
Q 3141 3169 3264 2994 
Q 3388 2819 3433 2606 
Q 3478 2394 3478 1947 
L 3478 0 
L 2600 0 
L 2600 1753 
Q 2600 2275 2550 2415 
Q 2500 2556 2373 2639 
Q 2247 2722 2056 2722 
Q 1838 2722 1666 2615 
Q 1494 2509 1414 2295 
Q 1334 2081 1334 1663 
L 1334 0 
L 456 0 
L 456 4581 
L 1334 4581 
z
" transform="scale(0.015625)"/>
       <path id="Arial-BoldMT-74" d="M 1981 3319 
L 1981 2619 
L 1381 2619 
L 1381 1281 
Q 1381 875 1398 808 
Q 1416 741 1477 697 
Q 1538 653 1625 653 
Q 1747 653 1978 738 
L 2053 56 
Q 1747 -75 1359 -75 
Q 1122 -75 931 4 
Q 741 84 652 211 
Q 563 338 528 553 
Q 500 706 500 1172 
L 500 2619 
L 97 2619 
L 97 3319 
L 500 3319 
L 500 3978 
L 1381 4491 
L 1381 3319 
L 1981 3319 
z
" transform="scale(0.015625)"/>
       <path id="Arial-BoldMT-2e" d="M 459 0 
L 459 878 
L 1338 878 
L 1338 0 
L 459 0 
z
" transform="scale(0.015625)"/>
      </defs>
      <use xlink:href="#Arial-BoldMT-4e"/>
      <use xlink:href="#Arial-BoldMT-65" transform="translate(72.216797 0)"/>
      <use xlink:href="#Arial-BoldMT-75" transform="translate(127.832031 0)"/>
      <use xlink:href="#Arial-BoldMT-72" transform="translate(188.916016 0)"/>
      <use xlink:href="#Arial-BoldMT-61" transform="translate(227.832031 0)"/>
      <use xlink:href="#Arial-BoldMT-6c" transform="translate(283.447266 0)"/>
      <use xlink:href="#Arial-BoldMT-20" transform="translate(311.230469 0)"/>
      <use xlink:href="#Arial-BoldMT-64" transform="translate(339.013672 0)"/>
      <use xlink:href="#Arial-BoldMT-72" transform="translate(400.097656 0)"/>
      <use xlink:href="#Arial-BoldMT-69" transform="translate(439.013672 0)"/>
      <use xlink:href="#Arial-BoldMT-76" transform="translate(466.796875 0)"/>
      <use xlink:href="#Arial-BoldMT-65" transform="translate(522.412109 0)"/>
      <use xlink:href="#Arial-BoldMT-20" transform="translate(578.027344 0)"/>
      <use xlink:href="#Arial-BoldMT-77" transform="translate(605.810547 0)"/>
      <use xlink:href="#Arial-BoldMT-65" transform="translate(683.59375 0)"/>
      <use xlink:href="#Arial-BoldMT-69" transform="translate(739.208984 0)"/>
      <use xlink:href="#Arial-BoldMT-67" transform="translate(766.992188 0)"/>
      <use xlink:href="#Arial-BoldMT-68" transform="translate(828.076172 0)"/>
      <use xlink:href="#Arial-BoldMT-74" transform="translate(889.160156 0)"/>
      <use xlink:href="#Arial-BoldMT-20" transform="translate(922.460938 0)"/>
      <use xlink:href="#Arial-BoldMT-5b" transform="translate(950.244141 0)"/>
      <use xlink:href="#Arial-BoldMT-61" transform="translate(983.544922 0)"/>
      <use xlink:href="#Arial-BoldMT-2e" transform="translate(1039.160156 0)"/>
      <use xlink:href="#Arial-BoldMT-75" transform="translate(1066.943359 0)"/>
      <use xlink:href="#Arial-BoldMT-2e" transform="translate(1128.027344 0)"/>
      <use xlink:href="#Arial-BoldMT-5d" transform="translate(1155.810547 0)"/>
     </g>
    </g>
   </g>
   <g id="FillBetweenPolyCollection_1">
    <defs>
     <path id="m3a3e61ea25" d="M 87.704924 -111.86564 
L 87.704924 -70.9755 
L 99.447348 -70.9755 
L 111.189773 -70.9755 
L 122.932197 -70.9755 
L 134.674621 -70.9755 
L 146.417045 -70.9755 
L 158.15947 -70.9755 
L 169.901894 -70.9755 
L 181.644318 -70.9755 
L 193.386742 -70.9755 
L 205.129167 -70.9755 
L 216.871591 -70.9755 
L 228.614015 -70.9755 
L 240.356439 -70.9755 
L 252.098864 -70.9755 
L 263.841288 -70.9755 
L 275.583712 -70.9755 
L 287.326136 -70.9755 
L 299.068561 -70.9755 
L 310.810985 -70.9755 
L 322.553409 -70.9755 
L 322.553409 -111.582401 
L 322.553409 -111.582401 
L 310.810985 -136.844305 
L 299.068561 -173.116151 
L 287.326136 -224.535103 
L 275.583712 -282.710052 
L 263.841288 -343.968443 
L 252.098864 -393.001101 
L 240.356439 -393.5355 
L 228.614015 -342.91798 
L 216.871591 -252.683758 
L 205.129167 -256.772702 
L 193.386742 -226.168458 
L 181.644318 -338.719039 
L 169.901894 -392.959563 
L 158.15947 -392.30387 
L 146.417045 -343.58403 
L 134.674621 -284.818337 
L 122.932197 -222.687858 
L 111.189773 -173.963161 
L 99.447348 -136.251865 
L 87.704924 -111.86564 
z
" style="stroke: #b2b2b2; stroke-opacity: 0.15; stroke-width: 1.5"/>
    </defs>
    <g clip-path="url(#p6f2955ec97)">
     <use xlink:href="#m3a3e61ea25" x="0" y="474.3755" style="fill: #b2b2b2; fill-opacity: 0.15; stroke: #b2b2b2; stroke-opacity: 0.15; stroke-width: 1.5"/>
    </g>
   </g>
   <g id="line2d_12">
    <path d="M 87.704924 391.45941 
L 99.447348 376.687573 
L 111.189773 380.138887 
L 122.932197 351.855636 
L 134.674621 367.139987 
L 146.417045 321.533911 
L 158.15947 355.681338 
L 169.901894 310.190131 
L 181.644318 325.964511 
L 193.386742 381.052655 
L 205.129167 403.37798 
L 216.871591 358.53452 
L 228.614015 363.63532 
L 240.356439 308.810164 
L 252.098864 354.272907 
L 263.841288 319.665932 
L 275.583712 334.844158 
L 287.326136 372.281828 
L 299.068561 363.92086 
L 310.810985 384.990793 
L 322.553409 385.20056 
" clip-path="url(#p6f2955ec97)" style="fill: none; stroke: #d55e00; stroke-width: 5; stroke-linecap: round"/>
   </g>
   <g id="line2d_13">
    <path d="M 87.704924 400.816933 
L 99.447348 395.335203 
L 111.189773 396.781443 
L 122.932197 380.562187 
L 134.674621 386.633696 
L 146.417045 345.777244 
L 158.15947 365.258638 
L 169.901894 286.501569 
L 181.644318 254.664576 
L 193.386742 325.518372 
L 205.129167 217.602798 
L 216.871591 221.691742 
L 228.614015 330.550321 
L 240.356439 270.175371 
L 252.098864 358.262285 
L 263.841288 332.892985 
L 275.583712 356.934767 
L 287.326136 390.042752 
L 299.068561 385.71784 
L 310.810985 398.206669 
L 322.553409 397.350974 
" clip-path="url(#p6f2955ec97)" style="fill: none; stroke: #009e73; stroke-width: 5; stroke-linecap: round"/>
   </g>
   <g id="line2d_14">
    <path d="M 87.704924 362.50986 
L 99.447348 338.123635 
L 111.189773 300.412339 
L 122.932197 251.687642 
L 134.674621 189.557163 
L 146.417045 130.79147 
L 158.15947 82.07163 
L 169.901894 81.415937 
L 181.644318 135.656461 
L 193.386742 248.207042 
L 205.129167 403.376185 
L 216.871591 250.016856 
L 228.614015 131.45752 
L 240.356439 80.84 
L 252.098864 81.374399 
L 263.841288 130.407057 
L 275.583712 191.665448 
L 287.326136 249.840397 
L 299.068561 301.259349 
L 310.810985 337.531195 
L 322.553409 362.793099 
" clip-path="url(#p6f2955ec97)" style="fill: none; stroke: #0072b2; stroke-width: 5; stroke-linecap: round"/>
   </g>
   <g id="line2d_15">
    <path d="M 87.704924 362.50986 
L 99.447348 338.123635 
L 111.189773 300.412339 
L 122.932197 251.687642 
L 134.674621 189.557163 
L 146.417045 130.79147 
L 158.15947 82.07163 
L 169.901894 81.415937 
L 181.644318 135.656461 
L 193.386742 248.207042 
L 205.129167 217.602798 
L 216.871591 221.691742 
L 228.614015 131.45752 
L 240.356439 80.84 
L 252.098864 81.374399 
L 263.841288 130.407057 
L 275.583712 191.665448 
L 287.326136 249.840397 
L 299.068561 301.259349 
L 310.810985 337.531195 
L 322.553409 362.793099 
" clip-path="url(#p6f2955ec97)" style="fill: none; stroke-dasharray: 18.5,8; stroke-dashoffset: 0; stroke: #000000; stroke-opacity: 0.8; stroke-width: 5"/>
   </g>
   <g id="patch_3">
    <path d="M 75.9625 419.528 
L 75.9625 64.712 
" style="fill: none; stroke: #262626; stroke-width: 1.875; stroke-linejoin: miter; stroke-linecap: square"/>
   </g>
   <g id="patch_4">
    <path d="M 334.295833 419.528 
L 334.295833 64.712 
" style="fill: none; stroke: #262626; stroke-width: 1.875; stroke-linejoin: miter; stroke-linecap: square"/>
   </g>
   <g id="patch_5">
    <path d="M 75.9625 419.528 
L 334.295833 419.528 
" style="fill: none; stroke: #262626; stroke-width: 1.875; stroke-linejoin: miter; stroke-linecap: square"/>
   </g>
   <g id="patch_6">
    <path d="M 75.9625 64.712 
L 334.295833 64.712 
" style="fill: none; stroke: #262626; stroke-width: 1.875; stroke-linejoin: miter; stroke-linecap: square"/>
   </g>
   <g id="text_14">
    <!-- Mach 0.2 -->
    <g style="fill: #262626" transform="translate(162.891667 58.712) scale(0.2 -0.2)">
     <defs>
      <path id="Arial-BoldMT-4d" d="M 453 0 
L 453 4581 
L 1838 4581 
L 2669 1456 
L 3491 4581 
L 4878 4581 
L 4878 0 
L 4019 0 
L 4019 3606 
L 3109 0 
L 2219 0 
L 1313 3606 
L 1313 0 
L 453 0 
z
" transform="scale(0.015625)"/>
      <path id="Arial-BoldMT-63" d="M 3353 2338 
L 2488 2181 
Q 2444 2441 2289 2572 
Q 2134 2703 1888 2703 
Q 1559 2703 1364 2476 
Q 1169 2250 1169 1719 
Q 1169 1128 1367 884 
Q 1566 641 1900 641 
Q 2150 641 2309 783 
Q 2469 925 2534 1272 
L 3397 1125 
Q 3263 531 2881 228 
Q 2500 -75 1859 -75 
Q 1131 -75 698 384 
Q 266 844 266 1656 
Q 266 2478 700 2936 
Q 1134 3394 1875 3394 
Q 2481 3394 2839 3133 
Q 3197 2872 3353 2338 
z
" transform="scale(0.015625)"/>
      <path id="Arial-BoldMT-30" d="M 1756 4600 
Q 2422 4600 2797 4125 
Q 3244 3563 3244 2259 
Q 3244 959 2794 391 
Q 2422 -78 1756 -78 
Q 1088 -78 678 436 
Q 269 950 269 2269 
Q 269 3563 719 4131 
Q 1091 4600 1756 4600 
z
M 1756 3872 
Q 1597 3872 1472 3770 
Q 1347 3669 1278 3406 
Q 1188 3066 1188 2259 
Q 1188 1453 1269 1151 
Q 1350 850 1473 750 
Q 1597 650 1756 650 
Q 1916 650 2041 751 
Q 2166 853 2234 1116 
Q 2325 1453 2325 2259 
Q 2325 3066 2244 3367 
Q 2163 3669 2039 3770 
Q 1916 3872 1756 3872 
z
" transform="scale(0.015625)"/>
      <path id="Arial-BoldMT-32" d="M 3238 816 
L 3238 0 
L 159 0 
Q 209 463 459 877 
Q 709 1291 1447 1975 
Q 2041 2528 2175 2725 
Q 2356 2997 2356 3263 
Q 2356 3556 2198 3714 
Q 2041 3872 1763 3872 
Q 1488 3872 1325 3706 
Q 1163 3541 1138 3156 
L 263 3244 
Q 341 3969 753 4284 
Q 1166 4600 1784 4600 
Q 2463 4600 2850 4234 
Q 3238 3869 3238 3325 
Q 3238 3016 3127 2736 
Q 3016 2456 2775 2150 
Q 2616 1947 2200 1565 
Q 1784 1184 1673 1059 
Q 1563 934 1494 816 
L 3238 816 
z
" transform="scale(0.015625)"/>
     </defs>
     <use xlink:href="#Arial-BoldMT-4d"/>
     <use xlink:href="#Arial-BoldMT-61" transform="translate(83.300781 0)"/>
     <use xlink:href="#Arial-BoldMT-63" transform="translate(138.916016 0)"/>
     <use xlink:href="#Arial-BoldMT-68" transform="translate(194.53125 0)"/>
     <use xlink:href="#Arial-BoldMT-20" transform="translate(255.615234 0)"/>
     <use xlink:href="#Arial-BoldMT-30" transform="translate(283.398438 0)"/>
     <use xlink:href="#Arial-BoldMT-2e" transform="translate(339.013672 0)"/>
     <use xlink:href="#Arial-BoldMT-32" transform="translate(366.796875 0)"/>
    </g>
   </g>
  </g>
  <g id="axes_2">
   <g id="patch_7">
    <path d="M 360.129167 419.528 
L 618.4625 419.528 
L 618.4625 64.712 
L 360.129167 64.712 
z
" style="fill: #ffffff"/>
   </g>
   <g id="matplotlib.axis_3">
    <g id="xtick_6">
     <g id="line2d_16">
      <path d="M 377.742803 419.528 
L 377.742803 64.712 
" clip-path="url(#pe834cfefbe)" style="fill: none; stroke-dasharray: 5.55,2.4; stroke-dashoffset: 0; stroke: #cccccc; stroke-opacity: 0.35; stroke-width: 1.5"/>
     </g>
     <g id="text_15">
      <!-- -20 -->
      <g style="fill: #262626" transform="translate(366.181553 443.4805) scale(0.16 -0.16)">
       <use xlink:href="#ArialMT-2d"/>
       <use xlink:href="#ArialMT-32" transform="translate(33.300781 0)"/>
       <use xlink:href="#ArialMT-30" transform="translate(88.916016 0)"/>
      </g>
     </g>
    </g>
    <g id="xtick_7">
     <g id="line2d_17">
      <path d="M 436.454924 419.528 
L 436.454924 64.712 
" clip-path="url(#pe834cfefbe)" style="fill: none; stroke-dasharray: 5.55,2.4; stroke-dashoffset: 0; stroke: #cccccc; stroke-opacity: 0.35; stroke-width: 1.5"/>
     </g>
     <g id="text_16">
      <!-- -10 -->
      <g style="fill: #262626" transform="translate(424.893674 443.4805) scale(0.16 -0.16)">
       <use xlink:href="#ArialMT-2d"/>
       <use xlink:href="#ArialMT-31" transform="translate(33.300781 0)"/>
       <use xlink:href="#ArialMT-30" transform="translate(88.916016 0)"/>
      </g>
     </g>
    </g>
    <g id="xtick_8">
     <g id="line2d_18">
      <path d="M 495.167045 419.528 
L 495.167045 64.712 
" clip-path="url(#pe834cfefbe)" style="fill: none; stroke-dasharray: 5.55,2.4; stroke-dashoffset: 0; stroke: #cccccc; stroke-opacity: 0.35; stroke-width: 1.5"/>
     </g>
     <g id="text_17">
      <!-- 0 -->
      <g style="fill: #262626" transform="translate(490.718295 443.4805) scale(0.16 -0.16)">
       <use xlink:href="#ArialMT-30"/>
      </g>
     </g>
    </g>
    <g id="xtick_9">
     <g id="line2d_19">
      <path d="M 553.879167 419.528 
L 553.879167 64.712 
" clip-path="url(#pe834cfefbe)" style="fill: none; stroke-dasharray: 5.55,2.4; stroke-dashoffset: 0; stroke: #cccccc; stroke-opacity: 0.35; stroke-width: 1.5"/>
     </g>
     <g id="text_18">
      <!-- 10 -->
      <g style="fill: #262626" transform="translate(544.981667 443.4805) scale(0.16 -0.16)">
       <use xlink:href="#ArialMT-31"/>
       <use xlink:href="#ArialMT-30" transform="translate(55.615234 0)"/>
      </g>
     </g>
    </g>
    <g id="xtick_10">
     <g id="line2d_20">
      <path d="M 612.591288 419.528 
L 612.591288 64.712 
" clip-path="url(#pe834cfefbe)" style="fill: none; stroke-dasharray: 5.55,2.4; stroke-dashoffset: 0; stroke: #cccccc; stroke-opacity: 0.35; stroke-width: 1.5"/>
     </g>
     <g id="text_19">
      <!-- 20 -->
      <g style="fill: #262626" transform="translate(603.693788 443.4805) scale(0.16 -0.16)">
       <use xlink:href="#ArialMT-32"/>
       <use xlink:href="#ArialMT-30" transform="translate(55.615234 0)"/>
      </g>
     </g>
    </g>
    <g id="text_20">
     <!-- x [mm] -->
     <g style="fill: #262626" transform="translate(459.791302 463.544562) scale(0.18 -0.18)">
      <use xlink:href="#Arial-BoldMT-78"/>
      <use xlink:href="#Arial-BoldMT-20" transform="translate(55.615234 0)"/>
      <use xlink:href="#Arial-BoldMT-5b" transform="translate(83.398438 0)"/>
      <use xlink:href="#Arial-BoldMT-6d" transform="translate(116.699219 0)"/>
      <use xlink:href="#Arial-BoldMT-6d" transform="translate(205.615234 0)"/>
      <use xlink:href="#Arial-BoldMT-5d" transform="translate(294.53125 0)"/>
     </g>
    </g>
   </g>
   <g id="matplotlib.axis_4">
    <g id="ytick_7">
     <g id="line2d_21">
      <path d="M 360.129167 403.4 
L 618.4625 403.4 
" clip-path="url(#pe834cfefbe)" style="fill: none; stroke-dasharray: 5.55,2.4; stroke-dashoffset: 0; stroke: #cccccc; stroke-opacity: 0.35; stroke-width: 1.5"/>
     </g>
    </g>
    <g id="ytick_8">
     <g id="line2d_22">
      <path d="M 360.129167 343.756458 
L 618.4625 343.756458 
" clip-path="url(#pe834cfefbe)" style="fill: none; stroke-dasharray: 5.55,2.4; stroke-dashoffset: 0; stroke: #cccccc; stroke-opacity: 0.35; stroke-width: 1.5"/>
     </g>
    </g>
    <g id="ytick_9">
     <g id="line2d_23">
      <path d="M 360.129167 284.112915 
L 618.4625 284.112915 
" clip-path="url(#pe834cfefbe)" style="fill: none; stroke-dasharray: 5.55,2.4; stroke-dashoffset: 0; stroke: #cccccc; stroke-opacity: 0.35; stroke-width: 1.5"/>
     </g>
    </g>
    <g id="ytick_10">
     <g id="line2d_24">
      <path d="M 360.129167 224.469373 
L 618.4625 224.469373 
" clip-path="url(#pe834cfefbe)" style="fill: none; stroke-dasharray: 5.55,2.4; stroke-dashoffset: 0; stroke: #cccccc; stroke-opacity: 0.35; stroke-width: 1.5"/>
     </g>
    </g>
    <g id="ytick_11">
     <g id="line2d_25">
      <path d="M 360.129167 164.82583 
L 618.4625 164.82583 
" clip-path="url(#pe834cfefbe)" style="fill: none; stroke-dasharray: 5.55,2.4; stroke-dashoffset: 0; stroke: #cccccc; stroke-opacity: 0.35; stroke-width: 1.5"/>
     </g>
    </g>
    <g id="ytick_12">
     <g id="line2d_26">
      <path d="M 360.129167 105.182288 
L 618.4625 105.182288 
" clip-path="url(#pe834cfefbe)" style="fill: none; stroke-dasharray: 5.55,2.4; stroke-dashoffset: 0; stroke: #cccccc; stroke-opacity: 0.35; stroke-width: 1.5"/>
     </g>
    </g>
   </g>
   <g id="FillBetweenPolyCollection_2">
    <defs>
     <path id="mc30246a30f" d="M 371.871591 -109.530593 
L 371.871591 -70.9755 
L 383.614015 -70.9755 
L 395.356439 -70.9755 
L 407.098864 -70.9755 
L 418.841288 -70.9755 
L 430.583712 -70.9755 
L 442.326136 -70.9755 
L 454.068561 -70.9755 
L 465.810985 -70.9755 
L 477.553409 -70.9755 
L 489.295833 -70.9755 
L 501.038258 -70.9755 
L 512.780682 -70.9755 
L 524.523106 -70.9755 
L 536.26553 -70.9755 
L 548.007955 -70.9755 
L 559.750379 -70.9755 
L 571.492803 -70.9755 
L 583.235227 -70.9755 
L 594.977652 -70.9755 
L 606.720076 -70.9755 
L 606.720076 -109.959327 
L 606.720076 -109.959327 
L 594.977652 -133.031136 
L 583.235227 -168.50551 
L 571.492803 -215.036512 
L 559.750379 -272.064735 
L 548.007955 -329.668614 
L 536.26553 -370.938914 
L 524.523106 -375.647084 
L 512.780682 -323.661007 
L 501.038258 -299.931581 
L 489.295833 -305.014359 
L 477.553409 -240.654628 
L 465.810985 -322.488367 
L 454.068561 -373.78124 
L 442.326136 -368.737334 
L 430.583712 -328.431809 
L 418.841288 -270.160633 
L 407.098864 -215.201342 
L 395.356439 -167.499982 
L 383.614015 -133.54518 
L 371.871591 -109.530593 
z
" style="stroke: #b2b2b2; stroke-opacity: 0.15; stroke-width: 1.5"/>
    </defs>
    <g clip-path="url(#pe834cfefbe)">
     <use xlink:href="#mc30246a30f" x="0" y="474.3755" style="fill: #b2b2b2; fill-opacity: 0.15; stroke: #b2b2b2; stroke-opacity: 0.15; stroke-width: 1.5"/>
    </g>
   </g>
   <g id="line2d_27">
    <path d="M 371.871591 375.25406 
L 383.614015 354.958421 
L 395.356439 349.283252 
L 407.098864 318.56275 
L 418.841288 320.97056 
L 430.583712 280.255459 
L 442.326136 297.540299 
L 454.068561 270.769179 
L 465.810985 294.922624 
L 477.553409 354.748135 
L 489.295833 403.384406 
L 501.038258 340.301208 
L 512.780682 316.271439 
L 524.523106 266.812337 
L 536.26553 294.082006 
L 548.007955 275.328017 
L 559.750379 294.115242 
L 571.492803 331.668192 
L 583.235227 334.03312 
L 594.977652 360.248233 
L 606.720076 369.050399 
" clip-path="url(#pe834cfefbe)" style="fill: none; stroke: #d55e00; stroke-width: 5; stroke-linecap: round"/>
   </g>
   <g id="line2d_28">
    <path d="M 371.871591 397.32738 
L 383.614015 391.165644 
L 395.356439 388.217053 
L 407.098864 372.1747 
L 418.841288 365.931805 
L 430.583712 328.508329 
L 442.326136 319.531155 
L 454.068561 254.669799 
L 465.810985 215.22918 
L 477.553409 233.720872 
L 489.295833 169.361141 
L 501.038258 174.443919 
L 512.780682 244.577272 
L 524.523106 234.42356 
L 536.26553 304.405128 
L 548.007955 312.367096 
L 559.750379 342.430956 
L 571.492803 373.37539 
L 583.235227 378.681228 
L 594.977652 391.414438 
L 606.720076 394.173479 
" clip-path="url(#pe834cfefbe)" style="fill: none; stroke: #009e73; stroke-width: 5; stroke-linecap: round"/>
   </g>
   <g id="line2d_29">
    <path d="M 371.871591 364.844907 
L 383.614015 340.83032 
L 395.356439 306.875518 
L 407.098864 259.174158 
L 418.841288 204.214867 
L 430.583712 145.943691 
L 442.326136 105.638166 
L 454.068561 100.59426 
L 465.810985 151.887133 
L 477.553409 260.003288 
L 489.295833 403.377991 
L 501.038258 258.709742 
L 512.780682 150.714493 
L 524.523106 98.728416 
L 536.26553 103.436586 
L 548.007955 144.706886 
L 559.750379 202.310765 
L 571.492803 259.338988 
L 583.235227 305.86999 
L 594.977652 341.344364 
L 606.720076 364.416173 
" clip-path="url(#pe834cfefbe)" style="fill: none; stroke: #0072b2; stroke-width: 5; stroke-linecap: round"/>
   </g>
   <g id="line2d_30">
    <path d="M 371.871591 364.844907 
L 383.614015 340.83032 
L 395.356439 306.875518 
L 407.098864 259.174158 
L 418.841288 204.214867 
L 430.583712 145.943691 
L 442.326136 105.638166 
L 454.068561 100.59426 
L 465.810985 151.887133 
L 477.553409 233.720872 
L 489.295833 169.361141 
L 501.038258 174.443919 
L 512.780682 150.714493 
L 524.523106 98.728416 
L 536.26553 103.436586 
L 548.007955 144.706886 
L 559.750379 202.310765 
L 571.492803 259.338988 
L 583.235227 305.86999 
L 594.977652 341.344364 
L 606.720076 364.416173 
" clip-path="url(#pe834cfefbe)" style="fill: none; stroke-dasharray: 18.5,8; stroke-dashoffset: 0; stroke: #000000; stroke-opacity: 0.8; stroke-width: 5"/>
   </g>
   <g id="patch_8">
    <path d="M 360.129167 419.528 
L 360.129167 64.712 
" style="fill: none; stroke: #262626; stroke-width: 1.875; stroke-linejoin: miter; stroke-linecap: square"/>
   </g>
   <g id="patch_9">
    <path d="M 618.4625 419.528 
L 618.4625 64.712 
" style="fill: none; stroke: #262626; stroke-width: 1.875; stroke-linejoin: miter; stroke-linecap: square"/>
   </g>
   <g id="patch_10">
    <path d="M 360.129167 419.528 
L 618.4625 419.528 
" style="fill: none; stroke: #262626; stroke-width: 1.875; stroke-linejoin: miter; stroke-linecap: square"/>
   </g>
   <g id="patch_11">
    <path d="M 360.129167 64.712 
L 618.4625 64.712 
" style="fill: none; stroke: #262626; stroke-width: 1.875; stroke-linejoin: miter; stroke-linecap: square"/>
   </g>
   <g id="text_21">
    <!-- Mach 0.5 -->
    <g style="fill: #262626" transform="translate(447.058333 58.712) scale(0.2 -0.2)">
     <defs>
      <path id="Arial-BoldMT-35" d="M 284 1178 
L 1159 1269 
Q 1197 972 1381 798 
Q 1566 625 1806 625 
Q 2081 625 2272 848 
Q 2463 1072 2463 1522 
Q 2463 1944 2273 2155 
Q 2084 2366 1781 2366 
Q 1403 2366 1103 2031 
L 391 2134 
L 841 4519 
L 3163 4519 
L 3163 3697 
L 1506 3697 
L 1369 2919 
Q 1663 3066 1969 3066 
Q 2553 3066 2959 2641 
Q 3366 2216 3366 1538 
Q 3366 972 3038 528 
Q 2591 -78 1797 -78 
Q 1163 -78 763 262 
Q 363 603 284 1178 
z
" transform="scale(0.015625)"/>
     </defs>
     <use xlink:href="#Arial-BoldMT-4d"/>
     <use xlink:href="#Arial-BoldMT-61" transform="translate(83.300781 0)"/>
     <use xlink:href="#Arial-BoldMT-63" transform="translate(138.916016 0)"/>
     <use xlink:href="#Arial-BoldMT-68" transform="translate(194.53125 0)"/>
     <use xlink:href="#Arial-BoldMT-20" transform="translate(255.615234 0)"/>
     <use xlink:href="#Arial-BoldMT-30" transform="translate(283.398438 0)"/>
     <use xlink:href="#Arial-BoldMT-2e" transform="translate(339.013672 0)"/>
     <use xlink:href="#Arial-BoldMT-35" transform="translate(366.796875 0)"/>
    </g>
   </g>
  </g>
  <g id="axes_3">
   <g id="patch_12">
    <path d="M 644.295833 419.528 
L 902.629167 419.528 
L 902.629167 64.712 
L 644.295833 64.712 
z
" style="fill: #ffffff"/>
   </g>
   <g id="matplotlib.axis_5">
    <g id="xtick_11">
     <g id="line2d_31">
      <path d="M 661.90947 419.528 
L 661.90947 64.712 
" clip-path="url(#p1ccddd18ea)" style="fill: none; stroke-dasharray: 5.55,2.4; stroke-dashoffset: 0; stroke: #cccccc; stroke-opacity: 0.35; stroke-width: 1.5"/>
     </g>
     <g id="text_22">
      <!-- -20 -->
      <g style="fill: #262626" transform="translate(650.34822 443.4805) scale(0.16 -0.16)">
       <use xlink:href="#ArialMT-2d"/>
       <use xlink:href="#ArialMT-32" transform="translate(33.300781 0)"/>
       <use xlink:href="#ArialMT-30" transform="translate(88.916016 0)"/>
      </g>
     </g>
    </g>
    <g id="xtick_12">
     <g id="line2d_32">
      <path d="M 720.621591 419.528 
L 720.621591 64.712 
" clip-path="url(#p1ccddd18ea)" style="fill: none; stroke-dasharray: 5.55,2.4; stroke-dashoffset: 0; stroke: #cccccc; stroke-opacity: 0.35; stroke-width: 1.5"/>
     </g>
     <g id="text_23">
      <!-- -10 -->
      <g style="fill: #262626" transform="translate(709.060341 443.4805) scale(0.16 -0.16)">
       <use xlink:href="#ArialMT-2d"/>
       <use xlink:href="#ArialMT-31" transform="translate(33.300781 0)"/>
       <use xlink:href="#ArialMT-30" transform="translate(88.916016 0)"/>
      </g>
     </g>
    </g>
    <g id="xtick_13">
     <g id="line2d_33">
      <path d="M 779.333712 419.528 
L 779.333712 64.712 
" clip-path="url(#p1ccddd18ea)" style="fill: none; stroke-dasharray: 5.55,2.4; stroke-dashoffset: 0; stroke: #cccccc; stroke-opacity: 0.35; stroke-width: 1.5"/>
     </g>
     <g id="text_24">
      <!-- 0 -->
      <g style="fill: #262626" transform="translate(774.884962 443.4805) scale(0.16 -0.16)">
       <use xlink:href="#ArialMT-30"/>
      </g>
     </g>
    </g>
    <g id="xtick_14">
     <g id="line2d_34">
      <path d="M 838.045833 419.528 
L 838.045833 64.712 
" clip-path="url(#p1ccddd18ea)" style="fill: none; stroke-dasharray: 5.55,2.4; stroke-dashoffset: 0; stroke: #cccccc; stroke-opacity: 0.35; stroke-width: 1.5"/>
     </g>
     <g id="text_25">
      <!-- 10 -->
      <g style="fill: #262626" transform="translate(829.148333 443.4805) scale(0.16 -0.16)">
       <use xlink:href="#ArialMT-31"/>
       <use xlink:href="#ArialMT-30" transform="translate(55.615234 0)"/>
      </g>
     </g>
    </g>
    <g id="xtick_15">
     <g id="line2d_35">
      <path d="M 896.757955 419.528 
L 896.757955 64.712 
" clip-path="url(#p1ccddd18ea)" style="fill: none; stroke-dasharray: 5.55,2.4; stroke-dashoffset: 0; stroke: #cccccc; stroke-opacity: 0.35; stroke-width: 1.5"/>
     </g>
     <g id="text_26">
      <!-- 20 -->
      <g style="fill: #262626" transform="translate(887.860455 443.4805) scale(0.16 -0.16)">
       <use xlink:href="#ArialMT-32"/>
       <use xlink:href="#ArialMT-30" transform="translate(55.615234 0)"/>
      </g>
     </g>
    </g>
    <g id="text_27">
     <!-- x [mm] -->
     <g style="fill: #262626" transform="translate(743.957969 463.544562) scale(0.18 -0.18)">
      <use xlink:href="#Arial-BoldMT-78"/>
      <use xlink:href="#Arial-BoldMT-20" transform="translate(55.615234 0)"/>
      <use xlink:href="#Arial-BoldMT-5b" transform="translate(83.398438 0)"/>
      <use xlink:href="#Arial-BoldMT-6d" transform="translate(116.699219 0)"/>
      <use xlink:href="#Arial-BoldMT-6d" transform="translate(205.615234 0)"/>
      <use xlink:href="#Arial-BoldMT-5d" transform="translate(294.53125 0)"/>
     </g>
    </g>
   </g>
   <g id="matplotlib.axis_6">
    <g id="ytick_13">
     <g id="line2d_36">
      <path d="M 644.295833 403.4 
L 902.629167 403.4 
" clip-path="url(#p1ccddd18ea)" style="fill: none; stroke-dasharray: 5.55,2.4; stroke-dashoffset: 0; stroke: #cccccc; stroke-opacity: 0.35; stroke-width: 1.5"/>
     </g>
    </g>
    <g id="ytick_14">
     <g id="line2d_37">
      <path d="M 644.295833 343.756458 
L 902.629167 343.756458 
" clip-path="url(#p1ccddd18ea)" style="fill: none; stroke-dasharray: 5.55,2.4; stroke-dashoffset: 0; stroke: #cccccc; stroke-opacity: 0.35; stroke-width: 1.5"/>
     </g>
    </g>
    <g id="ytick_15">
     <g id="line2d_38">
      <path d="M 644.295833 284.112915 
L 902.629167 284.112915 
" clip-path="url(#p1ccddd18ea)" style="fill: none; stroke-dasharray: 5.55,2.4; stroke-dashoffset: 0; stroke: #cccccc; stroke-opacity: 0.35; stroke-width: 1.5"/>
     </g>
    </g>
    <g id="ytick_16">
     <g id="line2d_39">
      <path d="M 644.295833 224.469373 
L 902.629167 224.469373 
" clip-path="url(#p1ccddd18ea)" style="fill: none; stroke-dasharray: 5.55,2.4; stroke-dashoffset: 0; stroke: #cccccc; stroke-opacity: 0.35; stroke-width: 1.5"/>
     </g>
    </g>
    <g id="ytick_17">
     <g id="line2d_40">
      <path d="M 644.295833 164.82583 
L 902.629167 164.82583 
" clip-path="url(#p1ccddd18ea)" style="fill: none; stroke-dasharray: 5.55,2.4; stroke-dashoffset: 0; stroke: #cccccc; stroke-opacity: 0.35; stroke-width: 1.5"/>
     </g>
    </g>
    <g id="ytick_18">
     <g id="line2d_41">
      <path d="M 644.295833 105.182288 
L 902.629167 105.182288 
" clip-path="url(#p1ccddd18ea)" style="fill: none; stroke-dasharray: 5.55,2.4; stroke-dashoffset: 0; stroke: #cccccc; stroke-opacity: 0.35; stroke-width: 1.5"/>
     </g>
    </g>
   </g>
   <g id="FillBetweenPolyCollection_3">
    <defs>
     <path id="mf07fbb502a" d="M 656.038258 -117.231863 
L 656.038258 -70.9755 
L 667.780682 -70.9755 
L 679.523106 -70.9755 
L 691.26553 -70.9755 
L 703.007955 -70.9755 
L 714.750379 -70.9755 
L 726.492803 -70.9755 
L 738.235227 -70.9755 
L 749.977652 -70.9755 
L 761.720076 -70.9755 
L 773.4625 -70.9755 
L 785.204924 -70.9755 
L 796.947348 -70.9755 
L 808.689773 -70.9755 
L 820.432197 -70.9755 
L 832.174621 -70.9755 
L 843.917045 -70.9755 
L 855.65947 -70.9755 
L 867.401894 -70.9755 
L 879.144318 -70.9755 
L 890.886742 -70.9755 
L 890.886742 -124.173474 
L 890.886742 -124.173474 
L 879.144318 -140.678867 
L 867.401894 -172.659406 
L 855.65947 -196.410886 
L 843.917045 -246.284583 
L 832.174621 -295.246434 
L 820.432197 -327.533515 
L 808.689773 -333.255328 
L 796.947348 -286.024817 
L 785.204924 -322.640428 
L 773.4625 -328.016166 
L 761.720076 -290.46916 
L 749.977652 -284.791018 
L 738.235227 -328.970383 
L 726.492803 -322.608301 
L 714.750379 -292.307057 
L 703.007955 -241.446577 
L 691.26553 -197.017386 
L 679.523106 -156.668004 
L 667.780682 -144.202185 
L 656.038258 -117.231863 
z
" style="stroke: #b2b2b2; stroke-opacity: 0.15; stroke-width: 1.5"/>
    </defs>
    <g clip-path="url(#p1ccddd18ea)">
     <use xlink:href="#mf07fbb502a" x="0" y="474.3755" style="fill: #b2b2b2; fill-opacity: 0.15; stroke: #b2b2b2; stroke-opacity: 0.15; stroke-width: 1.5"/>
    </g>
   </g>
   <g id="line2d_42">
    <path d="M 656.038258 357.143637 
L 667.780682 330.173315 
L 679.523106 317.707496 
L 691.26553 284.882835 
L 703.007955 281.175154 
L 714.750379 246.719069 
L 726.492803 256.983772 
L 738.235227 245.824635 
L 749.977652 277.175516 
L 761.720076 339.698978 
L 773.4625 403.3907 
L 785.204924 329.805601 
L 796.947348 287.011981 
L 808.689773 238.753624 
L 820.432197 250.944684 
L 832.174621 238.359377 
L 843.917045 256.321604 
L 855.65947 292.871186 
L 867.401894 301.716094 
L 879.144318 333.696633 
L 890.886742 350.202026 
" clip-path="url(#p1ccddd18ea)" style="fill: none; stroke: #d55e00; stroke-width: 5; stroke-linecap: round"/>
   </g>
   <g id="line2d_43">
    <path d="M 656.038258 393.414516 
L 667.780682 385.585091 
L 679.523106 380.298562 
L 691.26553 363.325071 
L 703.007955 350.967946 
L 714.750379 315.49929 
L 726.492803 291.712386 
L 738.235227 236.552349 
L 749.977652 194.795306 
L 761.720076 183.90634 
L 773.4625 146.359334 
L 785.204924 151.735072 
L 796.947348 197.509839 
L 808.689773 215.109492 
L 820.432197 272.604079 
L 832.174621 298.05986 
L 843.917045 330.498913 
L 855.65947 360.572959 
L 867.401894 370.712859 
L 879.144318 384.814314 
L 890.886742 389.830934 
" clip-path="url(#p1ccddd18ea)" style="fill: none; stroke: #009e73; stroke-width: 5; stroke-linecap: round"/>
   </g>
   <g id="line2d_44">
    <path d="M 656.038258 369.086604 
L 667.780682 347.485368 
L 679.523106 319.174168 
L 691.26553 277.358114 
L 703.007955 232.928923 
L 714.750379 182.068443 
L 726.492803 151.767199 
L 738.235227 145.405117 
L 749.977652 189.584482 
L 761.720076 283.026885 
L 773.4625 403.380442 
L 785.204924 279.174101 
L 796.947348 188.350683 
L 808.689773 141.120172 
L 820.432197 146.841985 
L 832.174621 179.129066 
L 843.917045 228.090917 
L 855.65947 277.964614 
L 867.401894 317.069341 
L 879.144318 348.547278 
L 890.886742 368.363268 
" clip-path="url(#p1ccddd18ea)" style="fill: none; stroke: #0072b2; stroke-width: 5; stroke-linecap: round"/>
   </g>
   <g id="line2d_45">
    <path d="M 656.038258 357.143637 
L 667.780682 330.173315 
L 679.523106 317.707496 
L 691.26553 277.358114 
L 703.007955 232.928923 
L 714.750379 182.068443 
L 726.492803 151.767199 
L 738.235227 145.405117 
L 749.977652 189.584482 
L 761.720076 183.90634 
L 773.4625 146.359334 
L 785.204924 151.735072 
L 796.947348 188.350683 
L 808.689773 141.120172 
L 820.432197 146.841985 
L 832.174621 179.129066 
L 843.917045 228.090917 
L 855.65947 277.964614 
L 867.401894 301.716094 
L 879.144318 333.696633 
L 890.886742 350.202026 
" clip-path="url(#p1ccddd18ea)" style="fill: none; stroke-dasharray: 18.5,8; stroke-dashoffset: 0; stroke: #000000; stroke-opacity: 0.8; stroke-width: 5"/>
   </g>
   <g id="patch_13">
    <path d="M 644.295833 419.528 
L 644.295833 64.712 
" style="fill: none; stroke: #262626; stroke-width: 1.875; stroke-linejoin: miter; stroke-linecap: square"/>
   </g>
   <g id="patch_14">
    <path d="M 902.629167 419.528 
L 902.629167 64.712 
" style="fill: none; stroke: #262626; stroke-width: 1.875; stroke-linejoin: miter; stroke-linecap: square"/>
   </g>
   <g id="patch_15">
    <path d="M 644.295833 419.528 
L 902.629167 419.528 
" style="fill: none; stroke: #262626; stroke-width: 1.875; stroke-linejoin: miter; stroke-linecap: square"/>
   </g>
   <g id="patch_16">
    <path d="M 644.295833 64.712 
L 902.629167 64.712 
" style="fill: none; stroke: #262626; stroke-width: 1.875; stroke-linejoin: miter; stroke-linecap: square"/>
   </g>
   <g id="text_28">
    <!-- Mach 1.0 -->
    <g style="fill: #262626" transform="translate(731.225 58.712) scale(0.2 -0.2)">
     <defs>
      <path id="Arial-BoldMT-31" d="M 2519 0 
L 1641 0 
L 1641 3309 
Q 1159 2859 506 2644 
L 506 3441 
Q 850 3553 1253 3867 
Q 1656 4181 1806 4600 
L 2519 4600 
L 2519 0 
z
" transform="scale(0.015625)"/>
     </defs>
     <use xlink:href="#Arial-BoldMT-4d"/>
     <use xlink:href="#Arial-BoldMT-61" transform="translate(83.300781 0)"/>
     <use xlink:href="#Arial-BoldMT-63" transform="translate(138.916016 0)"/>
     <use xlink:href="#Arial-BoldMT-68" transform="translate(194.53125 0)"/>
     <use xlink:href="#Arial-BoldMT-20" transform="translate(255.615234 0)"/>
     <use xlink:href="#Arial-BoldMT-31" transform="translate(283.398438 0)"/>
     <use xlink:href="#Arial-BoldMT-2e" transform="translate(339.013672 0)"/>
     <use xlink:href="#Arial-BoldMT-30" transform="translate(366.796875 0)"/>
    </g>
   </g>
  </g>
  <g id="axes_4">
   <g id="patch_17">
    <path d="M 928.4625 419.528 
L 1186.795833 419.528 
L 1186.795833 64.712 
L 928.4625 64.712 
z
" style="fill: #ffffff"/>
   </g>
   <g id="matplotlib.axis_7">
    <g id="xtick_16">
     <g id="line2d_46">
      <path d="M 946.076136 419.528 
L 946.076136 64.712 
" clip-path="url(#pe301680dd6)" style="fill: none; stroke-dasharray: 5.55,2.4; stroke-dashoffset: 0; stroke: #cccccc; stroke-opacity: 0.35; stroke-width: 1.5"/>
     </g>
     <g id="text_29">
      <!-- -20 -->
      <g style="fill: #262626" transform="translate(934.514886 443.4805) scale(0.16 -0.16)">
       <use xlink:href="#ArialMT-2d"/>
       <use xlink:href="#ArialMT-32" transform="translate(33.300781 0)"/>
       <use xlink:href="#ArialMT-30" transform="translate(88.916016 0)"/>
      </g>
     </g>
    </g>
    <g id="xtick_17">
     <g id="line2d_47">
      <path d="M 1004.788258 419.528 
L 1004.788258 64.712 
" clip-path="url(#pe301680dd6)" style="fill: none; stroke-dasharray: 5.55,2.4; stroke-dashoffset: 0; stroke: #cccccc; stroke-opacity: 0.35; stroke-width: 1.5"/>
     </g>
     <g id="text_30">
      <!-- -10 -->
      <g style="fill: #262626" transform="translate(993.227008 443.4805) scale(0.16 -0.16)">
       <use xlink:href="#ArialMT-2d"/>
       <use xlink:href="#ArialMT-31" transform="translate(33.300781 0)"/>
       <use xlink:href="#ArialMT-30" transform="translate(88.916016 0)"/>
      </g>
     </g>
    </g>
    <g id="xtick_18">
     <g id="line2d_48">
      <path d="M 1063.500379 419.528 
L 1063.500379 64.712 
" clip-path="url(#pe301680dd6)" style="fill: none; stroke-dasharray: 5.55,2.4; stroke-dashoffset: 0; stroke: #cccccc; stroke-opacity: 0.35; stroke-width: 1.5"/>
     </g>
     <g id="text_31">
      <!-- 0 -->
      <g style="fill: #262626" transform="translate(1059.051629 443.4805) scale(0.16 -0.16)">
       <use xlink:href="#ArialMT-30"/>
      </g>
     </g>
    </g>
    <g id="xtick_19">
     <g id="line2d_49">
      <path d="M 1122.2125 419.528 
L 1122.2125 64.712 
" clip-path="url(#pe301680dd6)" style="fill: none; stroke-dasharray: 5.55,2.4; stroke-dashoffset: 0; stroke: #cccccc; stroke-opacity: 0.35; stroke-width: 1.5"/>
     </g>
     <g id="text_32">
      <!-- 10 -->
      <g style="fill: #262626" transform="translate(1113.315 443.4805) scale(0.16 -0.16)">
       <use xlink:href="#ArialMT-31"/>
       <use xlink:href="#ArialMT-30" transform="translate(55.615234 0)"/>
      </g>
     </g>
    </g>
    <g id="xtick_20">
     <g id="line2d_50">
      <path d="M 1180.924621 419.528 
L 1180.924621 64.712 
" clip-path="url(#pe301680dd6)" style="fill: none; stroke-dasharray: 5.55,2.4; stroke-dashoffset: 0; stroke: #cccccc; stroke-opacity: 0.35; stroke-width: 1.5"/>
     </g>
     <g id="text_33">
      <!-- 20 -->
      <g style="fill: #262626" transform="translate(1172.027121 443.4805) scale(0.16 -0.16)">
       <use xlink:href="#ArialMT-32"/>
       <use xlink:href="#ArialMT-30" transform="translate(55.615234 0)"/>
      </g>
     </g>
    </g>
    <g id="text_34">
     <!-- x [mm] -->
     <g style="fill: #262626" transform="translate(1028.124635 463.544562) scale(0.18 -0.18)">
      <use xlink:href="#Arial-BoldMT-78"/>
      <use xlink:href="#Arial-BoldMT-20" transform="translate(55.615234 0)"/>
      <use xlink:href="#Arial-BoldMT-5b" transform="translate(83.398438 0)"/>
      <use xlink:href="#Arial-BoldMT-6d" transform="translate(116.699219 0)"/>
      <use xlink:href="#Arial-BoldMT-6d" transform="translate(205.615234 0)"/>
      <use xlink:href="#Arial-BoldMT-5d" transform="translate(294.53125 0)"/>
     </g>
    </g>
   </g>
   <g id="matplotlib.axis_8">
    <g id="ytick_19">
     <g id="line2d_51">
      <path d="M 928.4625 403.4 
L 1186.795833 403.4 
" clip-path="url(#pe301680dd6)" style="fill: none; stroke-dasharray: 5.55,2.4; stroke-dashoffset: 0; stroke: #cccccc; stroke-opacity: 0.35; stroke-width: 1.5"/>
     </g>
    </g>
    <g id="ytick_20">
     <g id="line2d_52">
      <path d="M 928.4625 343.756458 
L 1186.795833 343.756458 
" clip-path="url(#pe301680dd6)" style="fill: none; stroke-dasharray: 5.55,2.4; stroke-dashoffset: 0; stroke: #cccccc; stroke-opacity: 0.35; stroke-width: 1.5"/>
     </g>
    </g>
    <g id="ytick_21">
     <g id="line2d_53">
      <path d="M 928.4625 284.112915 
L 1186.795833 284.112915 
" clip-path="url(#pe301680dd6)" style="fill: none; stroke-dasharray: 5.55,2.4; stroke-dashoffset: 0; stroke: #cccccc; stroke-opacity: 0.35; stroke-width: 1.5"/>
     </g>
    </g>
    <g id="ytick_22">
     <g id="line2d_54">
      <path d="M 928.4625 224.469373 
L 1186.795833 224.469373 
" clip-path="url(#pe301680dd6)" style="fill: none; stroke-dasharray: 5.55,2.4; stroke-dashoffset: 0; stroke: #cccccc; stroke-opacity: 0.35; stroke-width: 1.5"/>
     </g>
    </g>
    <g id="ytick_23">
     <g id="line2d_55">
      <path d="M 928.4625 164.82583 
L 1186.795833 164.82583 
" clip-path="url(#pe301680dd6)" style="fill: none; stroke-dasharray: 5.55,2.4; stroke-dashoffset: 0; stroke: #cccccc; stroke-opacity: 0.35; stroke-width: 1.5"/>
     </g>
    </g>
    <g id="ytick_24">
     <g id="line2d_56">
      <path d="M 928.4625 105.182288 
L 1186.795833 105.182288 
" clip-path="url(#pe301680dd6)" style="fill: none; stroke-dasharray: 5.55,2.4; stroke-dashoffset: 0; stroke: #cccccc; stroke-opacity: 0.35; stroke-width: 1.5"/>
     </g>
    </g>
   </g>
   <g id="FillBetweenPolyCollection_4">
    <defs>
     <path id="mfb72d87845" d="M 940.204924 -120.881041 
L 940.204924 -70.9755 
L 951.947348 -70.9755 
L 963.689773 -70.9755 
L 975.432197 -70.9755 
L 987.174621 -70.9755 
L 998.917045 -70.9755 
L 1010.65947 -70.9755 
L 1022.401894 -70.9755 
L 1034.144318 -70.9755 
L 1045.886742 -70.9755 
L 1057.629167 -70.9755 
L 1069.371591 -70.9755 
L 1081.114015 -70.9755 
L 1092.856439 -70.9755 
L 1104.598864 -70.9755 
L 1116.341288 -70.9755 
L 1128.083712 -70.9755 
L 1139.826136 -70.9755 
L 1151.568561 -70.9755 
L 1163.310985 -70.9755 
L 1175.053409 -70.9755 
L 1175.053409 -127.67171 
L 1175.053409 -127.67171 
L 1163.310985 -145.531662 
L 1151.568561 -177.19718 
L 1139.826136 -189.151173 
L 1128.083712 -236.175475 
L 1116.341288 -281.853783 
L 1104.598864 -311.923702 
L 1092.856439 -317.289511 
L 1081.114015 -272.863492 
L 1069.371591 -307.184711 
L 1057.629167 -312.139623 
L 1045.886742 -282.260786 
L 1034.144318 -271.074201 
L 1022.401894 -312.464069 
L 1010.65947 -306.425057 
L 998.917045 -278.537241 
L 987.174621 -230.854245 
L 975.432197 -192.933181 
L 963.689773 -161.858845 
L 951.947348 -148.476518 
L 940.204924 -120.881041 
z
" style="stroke: #b2b2b2; stroke-opacity: 0.15; stroke-width: 1.5"/>
    </defs>
    <g clip-path="url(#pe301680dd6)">
     <use xlink:href="#mfb72d87845" x="0" y="474.3755" style="fill: #b2b2b2; fill-opacity: 0.15; stroke: #b2b2b2; stroke-opacity: 0.15; stroke-width: 1.5"/>
    </g>
   </g>
   <g id="line2d_57">
    <path d="M 940.204924 353.494459 
L 951.947348 325.898982 
L 963.689773 312.516655 
L 975.432197 281.442319 
L 987.174621 277.533502 
L 998.917045 247.838758 
L 1010.65947 257.281326 
L 1022.401894 251.21019 
L 1034.144318 282.508342 
L 1045.886742 341.376053 
L 1057.629167 403.389025 
L 1069.371591 332.97461 
L 1081.114015 289.066952 
L 1092.856439 243.787932 
L 1104.598864 250.728109 
L 1116.341288 239.108194 
L 1128.083712 254.485969 
L 1139.826136 287.651691 
L 1151.568561 297.17832 
L 1163.310985 328.843838 
L 1175.053409 346.70379 
" clip-path="url(#pe301680dd6)" style="fill: none; stroke: #d55e00; stroke-width: 5; stroke-linecap: round"/>
   </g>
   <g id="line2d_58">
    <path d="M 940.204924 392.572107 
L 951.947348 384.472323 
L 963.689773 379.298238 
L 975.432197 363.056756 
L 987.174621 350.96989 
L 998.917045 318.442436 
L 1010.65947 294.375502 
L 1022.401894 245.402856 
L 1034.144318 206.879426 
L 1045.886742 192.114714 
L 1057.629167 162.235877 
L 1069.371591 167.190789 
L 1081.114015 204.995096 
L 1092.856439 225.614674 
L 1104.598864 276.20194 
L 1116.341288 302.249678 
L 1128.083712 332.327531 
L 1139.826136 360.156306 
L 1151.568561 370.056051 
L 1163.310985 383.8301 
L 1175.053409 388.926612 
" clip-path="url(#pe301680dd6)" style="fill: none; stroke: #009e73; stroke-width: 5; stroke-linecap: round"/>
   </g>
   <g id="line2d_59">
    <path d="M 940.204924 370.662105 
L 951.947348 349.992679 
L 963.689773 323.886593 
L 975.432197 284.356222 
L 987.174621 243.521255 
L 998.917045 195.838259 
L 1010.65947 167.950443 
L 1022.401894 161.911431 
L 1034.144318 203.301299 
L 1045.886742 290.862489 
L 1057.629167 403.380305 
L 1069.371591 286.730342 
L 1081.114015 201.512008 
L 1092.856439 157.085989 
L 1104.598864 162.451798 
L 1116.341288 192.521717 
L 1128.083712 238.200025 
L 1139.826136 285.224327 
L 1151.568561 321.395498 
L 1163.310985 351.336252 
L 1175.053409 369.846637 
" clip-path="url(#pe301680dd6)" style="fill: none; stroke: #0072b2; stroke-width: 5; stroke-linecap: round"/>
   </g>
   <g id="line2d_60">
    <path d="M 940.204924 353.494459 
L 951.947348 325.898982 
L 963.689773 312.516655 
L 975.432197 281.442319 
L 987.174621 243.521255 
L 998.917045 195.838259 
L 1010.65947 167.950443 
L 1022.401894 161.911431 
L 1034.144318 203.301299 
L 1045.886742 192.114714 
L 1057.629167 162.235877 
L 1069.371591 167.190789 
L 1081.114015 201.512008 
L 1092.856439 157.085989 
L 1104.598864 162.451798 
L 1116.341288 192.521717 
L 1128.083712 238.200025 
L 1139.826136 285.224327 
L 1151.568561 297.17832 
L 1163.310985 328.843838 
L 1175.053409 346.70379 
" clip-path="url(#pe301680dd6)" style="fill: none; stroke-dasharray: 18.5,8; stroke-dashoffset: 0; stroke: #000000; stroke-opacity: 0.8; stroke-width: 5"/>
   </g>
   <g id="patch_18">
    <path d="M 928.4625 419.528 
L 928.4625 64.712 
" style="fill: none; stroke: #262626; stroke-width: 1.875; stroke-linejoin: miter; stroke-linecap: square"/>
   </g>
   <g id="patch_19">
    <path d="M 1186.795833 419.528 
L 1186.795833 64.712 
" style="fill: none; stroke: #262626; stroke-width: 1.875; stroke-linejoin: miter; stroke-linecap: square"/>
   </g>
   <g id="patch_20">
    <path d="M 928.4625 419.528 
L 1186.795833 419.528 
" style="fill: none; stroke: #262626; stroke-width: 1.875; stroke-linejoin: miter; stroke-linecap: square"/>
   </g>
   <g id="patch_21">
    <path d="M 928.4625 64.712 
L 1186.795833 64.712 
" style="fill: none; stroke: #262626; stroke-width: 1.875; stroke-linejoin: miter; stroke-linecap: square"/>
   </g>
   <g id="text_35">
    <!-- Mach 1.2 -->
    <g style="fill: #262626" transform="translate(1015.391667 58.712) scale(0.2 -0.2)">
     <use xlink:href="#Arial-BoldMT-4d"/>
     <use xlink:href="#Arial-BoldMT-61" transform="translate(83.300781 0)"/>
     <use xlink:href="#Arial-BoldMT-63" transform="translate(138.916016 0)"/>
     <use xlink:href="#Arial-BoldMT-68" transform="translate(194.53125 0)"/>
     <use xlink:href="#Arial-BoldMT-20" transform="translate(255.615234 0)"/>
     <use xlink:href="#Arial-BoldMT-31" transform="translate(283.398438 0)"/>
     <use xlink:href="#Arial-BoldMT-2e" transform="translate(339.013672 0)"/>
     <use xlink:href="#Arial-BoldMT-32" transform="translate(366.796875 0)"/>
    </g>
   </g>
  </g>
  <g id="axes_5">
   <g id="patch_22">
    <path d="M 1212.629167 419.528 
L 1470.9625 419.528 
L 1470.9625 64.712 
L 1212.629167 64.712 
z
" style="fill: #ffffff"/>
   </g>
   <g id="matplotlib.axis_9">
    <g id="xtick_21">
     <g id="line2d_61">
      <path d="M 1230.242803 419.528 
L 1230.242803 64.712 
" clip-path="url(#pf8bbdc5cad)" style="fill: none; stroke-dasharray: 5.55,2.4; stroke-dashoffset: 0; stroke: #cccccc; stroke-opacity: 0.35; stroke-width: 1.5"/>
     </g>
     <g id="text_36">
      <!-- -20 -->
      <g style="fill: #262626" transform="translate(1218.681553 443.4805) scale(0.16 -0.16)">
       <use xlink:href="#ArialMT-2d"/>
       <use xlink:href="#ArialMT-32" transform="translate(33.300781 0)"/>
       <use xlink:href="#ArialMT-30" transform="translate(88.916016 0)"/>
      </g>
     </g>
    </g>
    <g id="xtick_22">
     <g id="line2d_62">
      <path d="M 1288.954924 419.528 
L 1288.954924 64.712 
" clip-path="url(#pf8bbdc5cad)" style="fill: none; stroke-dasharray: 5.55,2.4; stroke-dashoffset: 0; stroke: #cccccc; stroke-opacity: 0.35; stroke-width: 1.5"/>
     </g>
     <g id="text_37">
      <!-- -10 -->
      <g style="fill: #262626" transform="translate(1277.393674 443.4805) scale(0.16 -0.16)">
       <use xlink:href="#ArialMT-2d"/>
       <use xlink:href="#ArialMT-31" transform="translate(33.300781 0)"/>
       <use xlink:href="#ArialMT-30" transform="translate(88.916016 0)"/>
      </g>
     </g>
    </g>
    <g id="xtick_23">
     <g id="line2d_63">
      <path d="M 1347.667045 419.528 
L 1347.667045 64.712 
" clip-path="url(#pf8bbdc5cad)" style="fill: none; stroke-dasharray: 5.55,2.4; stroke-dashoffset: 0; stroke: #cccccc; stroke-opacity: 0.35; stroke-width: 1.5"/>
     </g>
     <g id="text_38">
      <!-- 0 -->
      <g style="fill: #262626" transform="translate(1343.218295 443.4805) scale(0.16 -0.16)">
       <use xlink:href="#ArialMT-30"/>
      </g>
     </g>
    </g>
    <g id="xtick_24">
     <g id="line2d_64">
      <path d="M 1406.379167 419.528 
L 1406.379167 64.712 
" clip-path="url(#pf8bbdc5cad)" style="fill: none; stroke-dasharray: 5.55,2.4; stroke-dashoffset: 0; stroke: #cccccc; stroke-opacity: 0.35; stroke-width: 1.5"/>
     </g>
     <g id="text_39">
      <!-- 10 -->
      <g style="fill: #262626" transform="translate(1397.481667 443.4805) scale(0.16 -0.16)">
       <use xlink:href="#ArialMT-31"/>
       <use xlink:href="#ArialMT-30" transform="translate(55.615234 0)"/>
      </g>
     </g>
    </g>
    <g id="xtick_25">
     <g id="line2d_65">
      <path d="M 1465.091288 419.528 
L 1465.091288 64.712 
" clip-path="url(#pf8bbdc5cad)" style="fill: none; stroke-dasharray: 5.55,2.4; stroke-dashoffset: 0; stroke: #cccccc; stroke-opacity: 0.35; stroke-width: 1.5"/>
     </g>
     <g id="text_40">
      <!-- 20 -->
      <g style="fill: #262626" transform="translate(1456.193788 443.4805) scale(0.16 -0.16)">
       <use xlink:href="#ArialMT-32"/>
       <use xlink:href="#ArialMT-30" transform="translate(55.615234 0)"/>
      </g>
     </g>
    </g>
    <g id="text_41">
     <!-- x [mm] -->
     <g style="fill: #262626" transform="translate(1312.291302 463.544562) scale(0.18 -0.18)">
      <use xlink:href="#Arial-BoldMT-78"/>
      <use xlink:href="#Arial-BoldMT-20" transform="translate(55.615234 0)"/>
      <use xlink:href="#Arial-BoldMT-5b" transform="translate(83.398438 0)"/>
      <use xlink:href="#Arial-BoldMT-6d" transform="translate(116.699219 0)"/>
      <use xlink:href="#Arial-BoldMT-6d" transform="translate(205.615234 0)"/>
      <use xlink:href="#Arial-BoldMT-5d" transform="translate(294.53125 0)"/>
     </g>
    </g>
   </g>
   <g id="matplotlib.axis_10">
    <g id="ytick_25">
     <g id="line2d_66">
      <path d="M 1212.629167 403.4 
L 1470.9625 403.4 
" clip-path="url(#pf8bbdc5cad)" style="fill: none; stroke-dasharray: 5.55,2.4; stroke-dashoffset: 0; stroke: #cccccc; stroke-opacity: 0.35; stroke-width: 1.5"/>
     </g>
    </g>
    <g id="ytick_26">
     <g id="line2d_67">
      <path d="M 1212.629167 343.756458 
L 1470.9625 343.756458 
" clip-path="url(#pf8bbdc5cad)" style="fill: none; stroke-dasharray: 5.55,2.4; stroke-dashoffset: 0; stroke: #cccccc; stroke-opacity: 0.35; stroke-width: 1.5"/>
     </g>
    </g>
    <g id="ytick_27">
     <g id="line2d_68">
      <path d="M 1212.629167 284.112915 
L 1470.9625 284.112915 
" clip-path="url(#pf8bbdc5cad)" style="fill: none; stroke-dasharray: 5.55,2.4; stroke-dashoffset: 0; stroke: #cccccc; stroke-opacity: 0.35; stroke-width: 1.5"/>
     </g>
    </g>
    <g id="ytick_28">
     <g id="line2d_69">
      <path d="M 1212.629167 224.469373 
L 1470.9625 224.469373 
" clip-path="url(#pf8bbdc5cad)" style="fill: none; stroke-dasharray: 5.55,2.4; stroke-dashoffset: 0; stroke: #cccccc; stroke-opacity: 0.35; stroke-width: 1.5"/>
     </g>
    </g>
    <g id="ytick_29">
     <g id="line2d_70">
      <path d="M 1212.629167 164.82583 
L 1470.9625 164.82583 
" clip-path="url(#pf8bbdc5cad)" style="fill: none; stroke-dasharray: 5.55,2.4; stroke-dashoffset: 0; stroke: #cccccc; stroke-opacity: 0.35; stroke-width: 1.5"/>
     </g>
    </g>
    <g id="ytick_30">
     <g id="line2d_71">
      <path d="M 1212.629167 105.182288 
L 1470.9625 105.182288 
" clip-path="url(#pf8bbdc5cad)" style="fill: none; stroke-dasharray: 5.55,2.4; stroke-dashoffset: 0; stroke: #cccccc; stroke-opacity: 0.35; stroke-width: 1.5"/>
     </g>
    </g>
   </g>
   <g id="FillBetweenPolyCollection_5">
    <defs>
     <path id="m3fcbeb4258" d="M 1224.371591 -120.396227 
L 1224.371591 -70.9755 
L 1236.114015 -70.9755 
L 1247.856439 -70.9755 
L 1259.598864 -70.9755 
L 1271.341288 -70.9755 
L 1283.083712 -70.9755 
L 1294.826136 -70.9755 
L 1306.568561 -70.9755 
L 1318.310985 -70.9755 
L 1330.053409 -70.9755 
L 1341.795833 -70.9755 
L 1353.538258 -70.9755 
L 1365.280682 -70.9755 
L 1377.023106 -70.9755 
L 1388.76553 -70.9755 
L 1400.507955 -70.9755 
L 1412.250379 -70.9755 
L 1423.992803 -70.9755 
L 1435.735227 -70.9755 
L 1447.477652 -70.9755 
L 1459.220076 -70.9755 
L 1459.220076 -124.304293 
L 1459.220076 -124.304293 
L 1447.477652 -142.061624 
L 1435.735227 -163.67068 
L 1423.992803 -172.766414 
L 1412.250379 -204.051868 
L 1400.507955 -238.365731 
L 1388.76553 -261.52928 
L 1377.023106 -263.509105 
L 1365.280682 -229.202821 
L 1353.538258 -215.360133 
L 1341.795833 -218.248226 
L 1330.053409 -206.664502 
L 1318.310985 -225.902198 
L 1306.568561 -258.686966 
L 1294.826136 -256.232938 
L 1283.083712 -235.156978 
L 1271.341288 -200.153401 
L 1259.598864 -172.354384 
L 1247.856439 -155.045047 
L 1236.114015 -142.377912 
L 1224.371591 -120.396227 
z
" style="stroke: #b2b2b2; stroke-opacity: 0.15; stroke-width: 1.5"/>
    </defs>
    <g clip-path="url(#pf8bbdc5cad)">
     <use xlink:href="#m3fcbeb4258" x="0" y="474.3755" style="fill: #b2b2b2; fill-opacity: 0.15; stroke: #b2b2b2; stroke-opacity: 0.15; stroke-width: 1.5"/>
    </g>
   </g>
   <g id="line2d_72">
    <path d="M 1224.371591 353.979273 
L 1236.114015 331.997588 
L 1247.856439 319.330453 
L 1259.598864 302.021116 
L 1271.341288 298.938831 
L 1283.083712 289.200162 
L 1294.826136 295.15091 
L 1306.568561 301.566277 
L 1318.310985 324.603317 
L 1330.053409 361.12595 
L 1341.795833 403.386662 
L 1353.538258 357.789754 
L 1365.280682 323.220646 
L 1377.023106 295.807382 
L 1388.76553 289.143966 
L 1400.507955 282.444645 
L 1412.250379 287.206141 
L 1423.992803 301.609086 
L 1435.735227 310.70482 
L 1447.477652 332.313876 
L 1459.220076 350.071207 
" clip-path="url(#pf8bbdc5cad)" style="fill: none; stroke: #d55e00; stroke-width: 5; stroke-linecap: round"/>
   </g>
   <g id="line2d_73">
    <path d="M 1224.371591 392.065084 
L 1236.114015 384.841305 
L 1247.856439 381.880397 
L 1259.598864 371.384437 
L 1271.341288 364.710331 
L 1283.083712 346.224304 
L 1294.826136 330.287772 
L 1306.568561 304.317073 
L 1318.310985 282.026749 
L 1330.053409 267.710998 
L 1341.795833 256.127274 
L 1353.538258 259.015367 
L 1365.280682 275.605748 
L 1377.023106 292.900365 
L 1388.76553 319.161098 
L 1400.507955 336.915822 
L 1412.250379 353.926753 
L 1423.992803 370.05672 
L 1435.735227 375.435205 
L 1447.477652 385.229307 
L 1459.220076 389.026292 
" clip-path="url(#pf8bbdc5cad)" style="fill: none; stroke: #009e73; stroke-width: 5; stroke-linecap: round"/>
   </g>
   <g id="line2d_74">
    <path d="M 1224.371591 373.501303 
L 1236.114015 356.022678 
L 1247.856439 335.4081 
L 1259.598864 305.255978 
L 1271.341288 274.222099 
L 1283.083712 239.218522 
L 1294.826136 218.142562 
L 1306.568561 215.688534 
L 1318.310985 248.473302 
L 1330.053409 315.949578 
L 1341.795833 403.383861 
L 1353.538258 312.675926 
L 1365.280682 245.172679 
L 1377.023106 210.866395 
L 1388.76553 212.84622 
L 1400.507955 236.009769 
L 1412.250379 270.323632 
L 1423.992803 305.673134 
L 1435.735227 333.676337 
L 1447.477652 357.56295 
L 1459.220076 372.989368 
" clip-path="url(#pf8bbdc5cad)" style="fill: none; stroke: #0072b2; stroke-width: 5; stroke-linecap: round"/>
   </g>
   <g id="line2d_75">
    <path d="M 1224.371591 353.979273 
L 1236.114015 331.997588 
L 1247.856439 319.330453 
L 1259.598864 302.021116 
L 1271.341288 274.222099 
L 1283.083712 239.218522 
L 1294.826136 218.142562 
L 1306.568561 215.688534 
L 1318.310985 248.473302 
L 1330.053409 267.710998 
L 1341.795833 256.127274 
L 1353.538258 259.015367 
L 1365.280682 245.172679 
L 1377.023106 210.866395 
L 1388.76553 212.84622 
L 1400.507955 236.009769 
L 1412.250379 270.323632 
L 1423.992803 301.609086 
L 1435.735227 310.70482 
L 1447.477652 332.313876 
L 1459.220076 350.071207 
" clip-path="url(#pf8bbdc5cad)" style="fill: none; stroke-dasharray: 18.5,8; stroke-dashoffset: 0; stroke: #000000; stroke-opacity: 0.8; stroke-width: 5"/>
   </g>
   <g id="patch_23">
    <path d="M 1212.629167 419.528 
L 1212.629167 64.712 
" style="fill: none; stroke: #262626; stroke-width: 1.875; stroke-linejoin: miter; stroke-linecap: square"/>
   </g>
   <g id="patch_24">
    <path d="M 1470.9625 419.528 
L 1470.9625 64.712 
" style="fill: none; stroke: #262626; stroke-width: 1.875; stroke-linejoin: miter; stroke-linecap: square"/>
   </g>
   <g id="patch_25">
    <path d="M 1212.629167 419.528 
L 1470.9625 419.528 
" style="fill: none; stroke: #262626; stroke-width: 1.875; stroke-linejoin: miter; stroke-linecap: square"/>
   </g>
   <g id="patch_26">
    <path d="M 1212.629167 64.712 
L 1470.9625 64.712 
" style="fill: none; stroke: #262626; stroke-width: 1.875; stroke-linejoin: miter; stroke-linecap: square"/>
   </g>
   <g id="text_42">
    <!-- Mach 2.0 -->
    <g style="fill: #262626" transform="translate(1299.558333 58.712) scale(0.2 -0.2)">
     <use xlink:href="#Arial-BoldMT-4d"/>
     <use xlink:href="#Arial-BoldMT-61" transform="translate(83.300781 0)"/>
     <use xlink:href="#Arial-BoldMT-63" transform="translate(138.916016 0)"/>
     <use xlink:href="#Arial-BoldMT-68" transform="translate(194.53125 0)"/>
     <use xlink:href="#Arial-BoldMT-20" transform="translate(255.615234 0)"/>
     <use xlink:href="#Arial-BoldMT-32" transform="translate(283.398438 0)"/>
     <use xlink:href="#Arial-BoldMT-2e" transform="translate(339.013672 0)"/>
     <use xlink:href="#Arial-BoldMT-30" transform="translate(366.796875 0)"/>
    </g>
   </g>
  </g>
  <g id="legend_1">
   <g id="patch_27">
    <path d="M 532.050625 31.3675 
L 969.874375 31.3675 
Q 972.674375 31.3675 972.674375 28.5675 
L 972.674375 10 
Q 972.674375 7.2 969.874375 7.2 
L 532.050625 7.2 
Q 529.250625 7.2 529.250625 10 
L 529.250625 28.5675 
Q 529.250625 31.3675 532.050625 31.3675 
z
" style="fill: #ffffff; opacity: 0.8; stroke: #cccccc; stroke-width: 1.5; stroke-linejoin: miter"/>
   </g>
   <g id="line2d_76">
    <path d="M 534.850625 17.920937 
L 548.850625 17.920937 
L 562.850625 17.920937 
" style="fill: none; stroke: #d55e00; stroke-width: 3.2; stroke-linecap: round"/>
   </g>
   <g id="text_43">
    <!-- XY -->
    <g style="fill: #262626" transform="translate(574.050625 22.820937) scale(0.14 -0.14)">
     <defs>
      <path id="ArialMT-58" d="M 28 0 
L 1800 2388 
L 238 4581 
L 959 4581 
L 1791 3406 
Q 2050 3041 2159 2844 
Q 2313 3094 2522 3366 
L 3444 4581 
L 4103 4581 
L 2494 2422 
L 4228 0 
L 3478 0 
L 2325 1634 
Q 2228 1775 2125 1941 
Q 1972 1691 1906 1597 
L 756 0 
L 28 0 
z
" transform="scale(0.015625)"/>
      <path id="ArialMT-59" d="M 1784 0 
L 1784 1941 
L 19 4581 
L 756 4581 
L 1659 3200 
Q 1909 2813 2125 2425 
Q 2331 2784 2625 3234 
L 3513 4581 
L 4219 4581 
L 2391 1941 
L 2391 0 
L 1784 0 
z
" transform="scale(0.015625)"/>
     </defs>
     <use xlink:href="#ArialMT-58"/>
     <use xlink:href="#ArialMT-59" transform="translate(66.699219 0)"/>
    </g>
   </g>
   <g id="line2d_77">
    <path d="M 620.7275 17.920937 
L 634.7275 17.920937 
L 648.7275 17.920937 
" style="fill: none; stroke: #009e73; stroke-width: 3.2; stroke-linecap: round"/>
   </g>
   <g id="text_44">
    <!-- XZ -->
    <g style="fill: #262626" transform="translate(659.9275 22.820937) scale(0.14 -0.14)">
     <defs>
      <path id="ArialMT-5a" d="M 128 0 
L 128 563 
L 2475 3497 
Q 2725 3809 2950 4041 
L 394 4041 
L 394 4581 
L 3675 4581 
L 3675 4041 
L 1103 863 
L 825 541 
L 3750 541 
L 3750 0 
L 128 0 
z
" transform="scale(0.015625)"/>
     </defs>
     <use xlink:href="#ArialMT-58"/>
     <use xlink:href="#ArialMT-5a" transform="translate(66.699219 0)"/>
    </g>
   </g>
   <g id="line2d_78">
    <path d="M 705.816875 17.920937 
L 719.816875 17.920937 
L 733.816875 17.920937 
" style="fill: none; stroke: #0072b2; stroke-width: 3.2; stroke-linecap: round"/>
   </g>
   <g id="text_45">
    <!-- YZ -->
    <g style="fill: #262626" transform="translate(745.016875 22.820937) scale(0.14 -0.14)">
     <use xlink:href="#ArialMT-59"/>
     <use xlink:href="#ArialMT-5a" transform="translate(66.699219 0)"/>
    </g>
   </g>
   <g id="line2d_79">
    <path d="M 790.90625 17.920937 
L 804.90625 17.920937 
L 818.90625 17.920937 
" style="fill: none; stroke-dasharray: 11.1,4.8; stroke-dashoffset: 0; stroke: #000000; stroke-width: 3"/>
   </g>
   <g id="text_46">
    <!-- Max-pooling envelope -->
    <g style="fill: #262626" transform="translate(830.10625 22.820937) scale(0.14 -0.14)">
     <defs>
      <path id="ArialMT-4d" d="M 475 0 
L 475 4581 
L 1388 4581 
L 2472 1338 
Q 2622 884 2691 659 
Q 2769 909 2934 1394 
L 4031 4581 
L 4847 4581 
L 4847 0 
L 4263 0 
L 4263 3834 
L 2931 0 
L 2384 0 
L 1059 3900 
L 1059 0 
L 475 0 
z
" transform="scale(0.015625)"/>
      <path id="ArialMT-61" d="M 2588 409 
Q 2275 144 1986 34 
Q 1697 -75 1366 -75 
Q 819 -75 525 192 
Q 231 459 231 875 
Q 231 1119 342 1320 
Q 453 1522 633 1644 
Q 813 1766 1038 1828 
Q 1203 1872 1538 1913 
Q 2219 1994 2541 2106 
Q 2544 2222 2544 2253 
Q 2544 2597 2384 2738 
Q 2169 2928 1744 2928 
Q 1347 2928 1158 2789 
Q 969 2650 878 2297 
L 328 2372 
Q 403 2725 575 2942 
Q 747 3159 1072 3276 
Q 1397 3394 1825 3394 
Q 2250 3394 2515 3294 
Q 2781 3194 2906 3042 
Q 3031 2891 3081 2659 
Q 3109 2516 3109 2141 
L 3109 1391 
Q 3109 606 3145 398 
Q 3181 191 3288 0 
L 2700 0 
Q 2613 175 2588 409 
z
M 2541 1666 
Q 2234 1541 1622 1453 
Q 1275 1403 1131 1340 
Q 988 1278 909 1158 
Q 831 1038 831 891 
Q 831 666 1001 516 
Q 1172 366 1500 366 
Q 1825 366 2078 508 
Q 2331 650 2450 897 
Q 2541 1088 2541 1459 
L 2541 1666 
z
" transform="scale(0.015625)"/>
      <path id="ArialMT-78" d="M 47 0 
L 1259 1725 
L 138 3319 
L 841 3319 
L 1350 2541 
Q 1494 2319 1581 2169 
Q 1719 2375 1834 2534 
L 2394 3319 
L 3066 3319 
L 1919 1756 
L 3153 0 
L 2463 0 
L 1781 1031 
L 1600 1309 
L 728 0 
L 47 0 
z
" transform="scale(0.015625)"/>
      <path id="ArialMT-70" d="M 422 -1272 
L 422 3319 
L 934 3319 
L 934 2888 
Q 1116 3141 1344 3267 
Q 1572 3394 1897 3394 
Q 2322 3394 2647 3175 
Q 2972 2956 3137 2557 
Q 3303 2159 3303 1684 
Q 3303 1175 3120 767 
Q 2938 359 2589 142 
Q 2241 -75 1856 -75 
Q 1575 -75 1351 44 
Q 1128 163 984 344 
L 984 -1272 
L 422 -1272 
z
M 931 1641 
Q 931 1000 1190 694 
Q 1450 388 1819 388 
Q 2194 388 2461 705 
Q 2728 1022 2728 1688 
Q 2728 2322 2467 2637 
Q 2206 2953 1844 2953 
Q 1484 2953 1207 2617 
Q 931 2281 931 1641 
z
" transform="scale(0.015625)"/>
      <path id="ArialMT-6f" d="M 213 1659 
Q 213 2581 725 3025 
Q 1153 3394 1769 3394 
Q 2453 3394 2887 2945 
Q 3322 2497 3322 1706 
Q 3322 1066 3130 698 
Q 2938 331 2570 128 
Q 2203 -75 1769 -75 
Q 1072 -75 642 372 
Q 213 819 213 1659 
z
M 791 1659 
Q 791 1022 1069 705 
Q 1347 388 1769 388 
Q 2188 388 2466 706 
Q 2744 1025 2744 1678 
Q 2744 2294 2464 2611 
Q 2184 2928 1769 2928 
Q 1347 2928 1069 2612 
Q 791 2297 791 1659 
z
" transform="scale(0.015625)"/>
      <path id="ArialMT-6c" d="M 409 0 
L 409 4581 
L 972 4581 
L 972 0 
L 409 0 
z
" transform="scale(0.015625)"/>
      <path id="ArialMT-69" d="M 425 3934 
L 425 4581 
L 988 4581 
L 988 3934 
L 425 3934 
z
M 425 0 
L 425 3319 
L 988 3319 
L 988 0 
L 425 0 
z
" transform="scale(0.015625)"/>
      <path id="ArialMT-6e" d="M 422 0 
L 422 3319 
L 928 3319 
L 928 2847 
Q 1294 3394 1984 3394 
Q 2284 3394 2536 3286 
Q 2788 3178 2913 3003 
Q 3038 2828 3088 2588 
Q 3119 2431 3119 2041 
L 3119 0 
L 2556 0 
L 2556 2019 
Q 2556 2363 2490 2533 
Q 2425 2703 2258 2804 
Q 2091 2906 1866 2906 
Q 1506 2906 1245 2678 
Q 984 2450 984 1813 
L 984 0 
L 422 0 
z
" transform="scale(0.015625)"/>
      <path id="ArialMT-67" d="M 319 -275 
L 866 -356 
Q 900 -609 1056 -725 
Q 1266 -881 1628 -881 
Q 2019 -881 2231 -725 
Q 2444 -569 2519 -288 
Q 2563 -116 2559 434 
Q 2191 0 1641 0 
Q 956 0 581 494 
Q 206 988 206 1678 
Q 206 2153 378 2554 
Q 550 2956 876 3175 
Q 1203 3394 1644 3394 
Q 2231 3394 2613 2919 
L 2613 3319 
L 3131 3319 
L 3131 450 
Q 3131 -325 2973 -648 
Q 2816 -972 2473 -1159 
Q 2131 -1347 1631 -1347 
Q 1038 -1347 672 -1080 
Q 306 -813 319 -275 
z
M 784 1719 
Q 784 1066 1043 766 
Q 1303 466 1694 466 
Q 2081 466 2343 764 
Q 2606 1063 2606 1700 
Q 2606 2309 2336 2618 
Q 2066 2928 1684 2928 
Q 1309 2928 1046 2623 
Q 784 2319 784 1719 
z
" transform="scale(0.015625)"/>
      <path id="ArialMT-20" transform="scale(0.015625)"/>
      <path id="ArialMT-65" d="M 2694 1069 
L 3275 997 
Q 3138 488 2766 206 
Q 2394 -75 1816 -75 
Q 1088 -75 661 373 
Q 234 822 234 1631 
Q 234 2469 665 2931 
Q 1097 3394 1784 3394 
Q 2450 3394 2872 2941 
Q 3294 2488 3294 1666 
Q 3294 1616 3291 1516 
L 816 1516 
Q 847 969 1125 678 
Q 1403 388 1819 388 
Q 2128 388 2347 550 
Q 2566 713 2694 1069 
z
M 847 1978 
L 2700 1978 
Q 2663 2397 2488 2606 
Q 2219 2931 1791 2931 
Q 1403 2931 1139 2672 
Q 875 2413 847 1978 
z
" transform="scale(0.015625)"/>
      <path id="ArialMT-76" d="M 1344 0 
L 81 3319 
L 675 3319 
L 1388 1331 
Q 1503 1009 1600 663 
Q 1675 925 1809 1294 
L 2547 3319 
L 3125 3319 
L 1869 0 
L 1344 0 
z
" transform="scale(0.015625)"/>
     </defs>
     <use xlink:href="#ArialMT-4d"/>
     <use xlink:href="#ArialMT-61" transform="translate(83.300781 0)"/>
     <use xlink:href="#ArialMT-78" transform="translate(138.916016 0)"/>
     <use xlink:href="#ArialMT-2d" transform="translate(188.916016 0)"/>
     <use xlink:href="#ArialMT-70" transform="translate(222.216797 0)"/>
     <use xlink:href="#ArialMT-6f" transform="translate(277.832031 0)"/>
     <use xlink:href="#ArialMT-6f" transform="translate(333.447266 0)"/>
     <use xlink:href="#ArialMT-6c" transform="translate(389.0625 0)"/>
     <use xlink:href="#ArialMT-69" transform="translate(411.279297 0)"/>
     <use xlink:href="#ArialMT-6e" transform="translate(433.496094 0)"/>
     <use xlink:href="#ArialMT-67" transform="translate(489.111328 0)"/>
     <use xlink:href="#ArialMT-20" transform="translate(544.726562 0)"/>
     <use xlink:href="#ArialMT-65" transform="translate(572.509766 0)"/>
     <use xlink:href="#ArialMT-6e" transform="translate(628.125 0)"/>
     <use xlink:href="#ArialMT-76" transform="translate(683.740234 0)"/>
     <use xlink:href="#ArialMT-65" transform="translate(733.740234 0)"/>
     <use xlink:href="#ArialMT-6c" transform="translate(789.355469 0)"/>
     <use xlink:href="#ArialMT-6f" transform="translate(811.572266 0)"/>
     <use xlink:href="#ArialMT-70" transform="translate(867.1875 0)"/>
     <use xlink:href="#ArialMT-65" transform="translate(922.802734 0)"/>
    </g>
   </g>
  </g>
 </g>
 <defs>
  <clipPath id="p6f2955ec97">
   <rect x="75.9625" y="64.712" width="258.333333" height="354.816"/>
  </clipPath>
  <clipPath id="pe834cfefbe">
   <rect x="360.129167" y="64.712" width="258.333333" height="354.816"/>
  </clipPath>
  <clipPath id="p1ccddd18ea">
   <rect x="644.295833" y="64.712" width="258.333333" height="354.816"/>
  </clipPath>
  <clipPath id="pe301680dd6">
   <rect x="928.4625" y="64.712" width="258.333333" height="354.816"/>
  </clipPath>
  <clipPath id="pf8bbdc5cad">
   <rect x="1212.629167" y="64.712" width="258.333333" height="354.816"/>
  </clipPath>
 </defs>
</svg>
