<?xml version="1.0" encoding="utf-8" standalone="no"?>
<!DOCTYPE svg PUBLIC "-//W3C//DTD SVG 1.1//EN"
  "http://www.w3.org/Graphics/SVG/1.1/DTD/svg11.dtd">
<svg xmlns:xlink="http://www.w3.org/1999/xlink" width="613.354375pt" height="437.649937pt" viewBox="0 0 613.354375 437.649937" xmlns="http://www.w3.org/2000/svg" version="1.1">
 <metadata>
  <rdf:RDF xmlns:dc="http://purl.org/dc/elements/1.1/" xmlns:cc="http://creativecommons.org/ns#" xmlns:rdf="http://www.w3.org/1999/02/22-rdf-syntax-ns#">
   <cc:Work>
    <dc:type rdf:resource="http://purl.org/dc/dcmitype/StillImage"/>
    <dc:date>2026-03-13T17:13:04.432117</dc:date>
    <dc:format>image/svg+xml</dc:format>
    <dc:creator>
     <cc:Agent>
      <dc:title>Matplotlib v3.10.0, https://matplotlib.org/</dc:title>
     </cc:Agent>
    </dc:creator>
   </cc:Work>
  </rdf:RDF>
 </metadata>
 <defs>
  <style type="text/css">*{stroke-linejoin: round; stroke-linecap: butt}</style>
 </defs>
 <g id="figure_1">
  <g id="patch_1">
   <path d="M 0 437.649937 
L 613.354375 437.649937 
L 613.354375 0 
L 0 0 
z
" style="fill: #ffffff"/>
  </g>
  <g id="axes_1">
   <g id="patch_2">
    <path d="M 55.039375 385.884 
L 606.154375 385.884 
L 606.154375 7.2 
L 55.039375 7.2 
z
" style="fill: #ffffff"/>
   </g>
   <g id="matplotlib.axis_1">
    <g id="xtick_1">
     <g id="text_1">
      <!-- $\mathregular{ULM}_{\mathregular{L}}$ -->
      <g style="fill: #262626" transform="translate(92.370875 405.404937) scale(0.14 -0.14)">
       <defs>
        <path id="ArialMT-55" d="M 3500 4581 
L 4106 4581 
L 4106 1934 
Q 4106 1244 3950 837 
Q 3794 431 3386 176 
Q 2978 -78 2316 -78 
Q 1672 -78 1262 144 
Q 853 366 678 786 
Q 503 1206 503 1934 
L 503 4581 
L 1109 4581 
L 1109 1938 
Q 1109 1341 1220 1058 
Q 1331 775 1601 622 
Q 1872 469 2263 469 
Q 2931 469 3215 772 
Q 3500 1075 3500 1938 
L 3500 4581 
z
" transform="scale(0.015625)"/>
        <path id="ArialMT-4c" d="M 469 0 
L 469 4581 
L 1075 4581 
L 1075 541 
L 3331 541 
L 3331 0 
L 469 0 
z
" transform="scale(0.015625)"/>
        <path id="ArialMT-4d" d="M 475 0 
L 475 4581 
L 1388 4581 
L 2472 1338 
Q 2622 884 2691 659 
Q 2769 909 2934 1394 
L 4031 4581 
L 4847 4581 
L 4847 0 
L 4263 0 
L 4263 3834 
L 2931 0 
L 2384 0 
L 1059 3900 
L 1059 0 
L 475 0 
z
" transform="scale(0.015625)"/>
       </defs>
       <use xlink:href="#ArialMT-55" transform="translate(0 0.421875)"/>
       <use xlink:href="#ArialMT-4c" transform="translate(72.216797 0.421875)"/>
       <use xlink:href="#ArialMT-4d" transform="translate(127.832031 0.421875)"/>
       <use xlink:href="#ArialMT-4c" transform="translate(212.089844 -15.984375) scale(0.7)"/>
      </g>
     </g>
    </g>
    <g id="xtick_2">
     <g id="text_2">
      <!-- $\mathregular{DLM}_{\mathregular{2}}$ -->
      <g style="fill: #262626" transform="translate(202.593875 405.404937) scale(0.14 -0.14)">
       <defs>
        <path id="ArialMT-44" d="M 494 0 
L 494 4581 
L 2072 4581 
Q 2606 4581 2888 4516 
Q 3281 4425 3559 4188 
Q 3922 3881 4101 3404 
Q 4281 2928 4281 2316 
Q 4281 1794 4159 1391 
Q 4038 988 3847 723 
Q 3656 459 3429 307 
Q 3203 156 2883 78 
Q 2563 0 2147 0 
L 494 0 
z
M 1100 541 
L 2078 541 
Q 2531 541 2789 625 
Q 3047 709 3200 863 
Q 3416 1078 3536 1442 
Q 3656 1806 3656 2325 
Q 3656 3044 3420 3430 
Q 3184 3816 2847 3947 
Q 2603 4041 2063 4041 
L 1100 4041 
L 1100 541 
z
" transform="scale(0.015625)"/>
        <path id="ArialMT-32" d="M 3222 541 
L 3222 0 
L 194 0 
Q 188 203 259 391 
Q 375 700 629 1000 
Q 884 1300 1366 1694 
Q 2113 2306 2375 2664 
Q 2638 3022 2638 3341 
Q 2638 3675 2398 3904 
Q 2159 4134 1775 4134 
Q 1369 4134 1125 3890 
Q 881 3647 878 3216 
L 300 3275 
Q 359 3922 746 4261 
Q 1134 4600 1788 4600 
Q 2447 4600 2831 4234 
Q 3216 3869 3216 3328 
Q 3216 3053 3103 2787 
Q 2991 2522 2730 2228 
Q 2469 1934 1863 1422 
Q 1356 997 1212 845 
Q 1069 694 975 541 
L 3222 541 
z
" transform="scale(0.015625)"/>
       </defs>
       <use xlink:href="#ArialMT-44" transform="translate(0 0.421875)"/>
       <use xlink:href="#ArialMT-4c" transform="translate(72.216797 0.421875)"/>
       <use xlink:href="#ArialMT-4d" transform="translate(127.832031 0.421875)"/>
       <use xlink:href="#ArialMT-32" transform="translate(212.089844 -15.984375) scale(0.7)"/>
      </g>
     </g>
    </g>
    <g id="xtick_3">
     <g id="text_3">
      <!-- $\mathregular{DLM}_{\mathregular{3}}$ -->
      <g style="fill: #262626" transform="translate(312.816875 405.404937) scale(0.14 -0.14)">
       <defs>
        <path id="ArialMT-33" d="M 269 1209 
L 831 1284 
Q 928 806 1161 595 
Q 1394 384 1728 384 
Q 2125 384 2398 659 
Q 2672 934 2672 1341 
Q 2672 1728 2419 1979 
Q 2166 2231 1775 2231 
Q 1616 2231 1378 2169 
L 1441 2663 
Q 1497 2656 1531 2656 
Q 1891 2656 2178 2843 
Q 2466 3031 2466 3422 
Q 2466 3731 2256 3934 
Q 2047 4138 1716 4138 
Q 1388 4138 1169 3931 
Q 950 3725 888 3313 
L 325 3413 
Q 428 3978 793 4289 
Q 1159 4600 1703 4600 
Q 2078 4600 2393 4439 
Q 2709 4278 2876 4000 
Q 3044 3722 3044 3409 
Q 3044 3113 2884 2869 
Q 2725 2625 2413 2481 
Q 2819 2388 3044 2092 
Q 3269 1797 3269 1353 
Q 3269 753 2831 336 
Q 2394 -81 1725 -81 
Q 1122 -81 723 278 
Q 325 638 269 1209 
z
" transform="scale(0.015625)"/>
       </defs>
       <use xlink:href="#ArialMT-44" transform="translate(0 0.421875)"/>
       <use xlink:href="#ArialMT-4c" transform="translate(72.216797 0.421875)"/>
       <use xlink:href="#ArialMT-4d" transform="translate(127.832031 0.421875)"/>
       <use xlink:href="#ArialMT-33" transform="translate(212.089844 -15.984375) scale(0.7)"/>
      </g>
     </g>
    </g>
    <g id="xtick_4">
     <g id="text_4">
      <!-- $\mathregular{LM}_{\mathregular{C}}$ -->
      <g style="fill: #262626" transform="translate(427.239875 405.404937) scale(0.14 -0.14)">
       <defs>
        <path id="ArialMT-43" d="M 3763 1606 
L 4369 1453 
Q 4178 706 3683 314 
Q 3188 -78 2472 -78 
Q 1731 -78 1267 223 
Q 803 525 561 1097 
Q 319 1669 319 2325 
Q 319 3041 592 3573 
Q 866 4106 1370 4382 
Q 1875 4659 2481 4659 
Q 3169 4659 3637 4309 
Q 4106 3959 4291 3325 
L 3694 3184 
Q 3534 3684 3231 3912 
Q 2928 4141 2469 4141 
Q 1941 4141 1586 3887 
Q 1231 3634 1087 3207 
Q 944 2781 944 2328 
Q 944 1744 1114 1308 
Q 1284 872 1643 656 
Q 2003 441 2422 441 
Q 2931 441 3284 734 
Q 3638 1028 3763 1606 
z
" transform="scale(0.015625)"/>
       </defs>
       <use xlink:href="#ArialMT-4c" transform="translate(0 0.421875)"/>
       <use xlink:href="#ArialMT-4d" transform="translate(55.615234 0.421875)"/>
       <use xlink:href="#ArialMT-43" transform="translate(139.873047 -15.984375) scale(0.7)"/>
      </g>
     </g>
    </g>
    <g id="xtick_5">
     <g id="text_5">
      <!-- $\mathregular{LM}_{\mathregular{L}}$ -->
      <g style="fill: #262626" transform="translate(538.302875 405.404937) scale(0.14 -0.14)">
       <use xlink:href="#ArialMT-4c" transform="translate(0 0.421875)"/>
       <use xlink:href="#ArialMT-4d" transform="translate(55.615234 0.421875)"/>
       <use xlink:href="#ArialMT-4c" transform="translate(139.873047 -15.984375) scale(0.7)"/>
      </g>
     </g>
    </g>
    <g id="text_6">
     <!-- Modulation Method -->
     <g style="fill: #262626" transform="translate(238.959375 426.503062) scale(0.2 -0.2)">
      <defs>
       <path id="Arial-BoldMT-4d" d="M 453 0 
L 453 4581 
L 1838 4581 
L 2669 1456 
L 3491 4581 
L 4878 4581 
L 4878 0 
L 4019 0 
L 4019 3606 
L 3109 0 
L 2219 0 
L 1313 3606 
L 1313 0 
L 453 0 
z
" transform="scale(0.015625)"/>
       <path id="Arial-BoldMT-6f" d="M 256 1706 
Q 256 2144 472 2553 
Q 688 2963 1083 3178 
Q 1478 3394 1966 3394 
Q 2719 3394 3200 2905 
Q 3681 2416 3681 1669 
Q 3681 916 3195 420 
Q 2709 -75 1972 -75 
Q 1516 -75 1102 131 
Q 688 338 472 736 
Q 256 1134 256 1706 
z
M 1156 1659 
Q 1156 1166 1390 903 
Q 1625 641 1969 641 
Q 2313 641 2545 903 
Q 2778 1166 2778 1666 
Q 2778 2153 2545 2415 
Q 2313 2678 1969 2678 
Q 1625 2678 1390 2415 
Q 1156 2153 1156 1659 
z
" transform="scale(0.015625)"/>
       <path id="Arial-BoldMT-64" d="M 3503 0 
L 2688 0 
L 2688 488 
Q 2484 203 2207 64 
Q 1931 -75 1650 -75 
Q 1078 -75 670 386 
Q 263 847 263 1672 
Q 263 2516 659 2955 
Q 1056 3394 1663 3394 
Q 2219 3394 2625 2931 
L 2625 4581 
L 3503 4581 
L 3503 0 
z
M 1159 1731 
Q 1159 1200 1306 963 
Q 1519 619 1900 619 
Q 2203 619 2415 876 
Q 2628 1134 2628 1647 
Q 2628 2219 2422 2470 
Q 2216 2722 1894 2722 
Q 1581 2722 1370 2473 
Q 1159 2225 1159 1731 
z
" transform="scale(0.015625)"/>
       <path id="Arial-BoldMT-75" d="M 2644 0 
L 2644 497 
Q 2463 231 2167 78 
Q 1872 -75 1544 -75 
Q 1209 -75 943 72 
Q 678 219 559 484 
Q 441 750 441 1219 
L 441 3319 
L 1319 3319 
L 1319 1794 
Q 1319 1094 1367 936 
Q 1416 778 1544 686 
Q 1672 594 1869 594 
Q 2094 594 2272 717 
Q 2450 841 2515 1023 
Q 2581 1206 2581 1919 
L 2581 3319 
L 3459 3319 
L 3459 0 
L 2644 0 
z
" transform="scale(0.015625)"/>
       <path id="Arial-BoldMT-6c" d="M 459 0 
L 459 4581 
L 1338 4581 
L 1338 0 
L 459 0 
z
" transform="scale(0.015625)"/>
       <path id="Arial-BoldMT-61" d="M 1116 2306 
L 319 2450 
Q 453 2931 781 3162 
Q 1109 3394 1756 3394 
Q 2344 3394 2631 3255 
Q 2919 3116 3036 2902 
Q 3153 2688 3153 2116 
L 3144 1091 
Q 3144 653 3186 445 
Q 3228 238 3344 0 
L 2475 0 
Q 2441 88 2391 259 
Q 2369 338 2359 363 
Q 2134 144 1878 34 
Q 1622 -75 1331 -75 
Q 819 -75 523 203 
Q 228 481 228 906 
Q 228 1188 362 1408 
Q 497 1628 739 1745 
Q 981 1863 1438 1950 
Q 2053 2066 2291 2166 
L 2291 2253 
Q 2291 2506 2166 2614 
Q 2041 2722 1694 2722 
Q 1459 2722 1328 2630 
Q 1197 2538 1116 2306 
z
M 2291 1594 
Q 2122 1538 1756 1459 
Q 1391 1381 1278 1306 
Q 1106 1184 1106 997 
Q 1106 813 1243 678 
Q 1381 544 1594 544 
Q 1831 544 2047 700 
Q 2206 819 2256 991 
Q 2291 1103 2291 1419 
L 2291 1594 
z
" transform="scale(0.015625)"/>
       <path id="Arial-BoldMT-74" d="M 1981 3319 
L 1981 2619 
L 1381 2619 
L 1381 1281 
Q 1381 875 1398 808 
Q 1416 741 1477 697 
Q 1538 653 1625 653 
Q 1747 653 1978 738 
L 2053 56 
Q 1747 -75 1359 -75 
Q 1122 -75 931 4 
Q 741 84 652 211 
Q 563 338 528 553 
Q 500 706 500 1172 
L 500 2619 
L 97 2619 
L 97 3319 
L 500 3319 
L 500 3978 
L 1381 4491 
L 1381 3319 
L 1981 3319 
z
" transform="scale(0.015625)"/>
       <path id="Arial-BoldMT-69" d="M 459 3769 
L 459 4581 
L 1338 4581 
L 1338 3769 
L 459 3769 
z
M 459 0 
L 459 3319 
L 1338 3319 
L 1338 0 
L 459 0 
z
" transform="scale(0.015625)"/>
       <path id="Arial-BoldMT-6e" d="M 3478 0 
L 2600 0 
L 2600 1694 
Q 2600 2231 2544 2389 
Q 2488 2547 2361 2634 
Q 2234 2722 2056 2722 
Q 1828 2722 1647 2597 
Q 1466 2472 1398 2265 
Q 1331 2059 1331 1503 
L 1331 0 
L 453 0 
L 453 3319 
L 1269 3319 
L 1269 2831 
Q 1703 3394 2363 3394 
Q 2653 3394 2893 3289 
Q 3134 3184 3257 3021 
Q 3381 2859 3429 2653 
Q 3478 2447 3478 2063 
L 3478 0 
z
" transform="scale(0.015625)"/>
       <path id="Arial-BoldMT-20" transform="scale(0.015625)"/>
       <path id="Arial-BoldMT-65" d="M 2381 1056 
L 3256 909 
Q 3088 428 2723 176 
Q 2359 -75 1813 -75 
Q 947 -75 531 491 
Q 203 944 203 1634 
Q 203 2459 634 2926 
Q 1066 3394 1725 3394 
Q 2466 3394 2894 2905 
Q 3322 2416 3303 1406 
L 1103 1406 
Q 1113 1016 1316 798 
Q 1519 581 1822 581 
Q 2028 581 2168 693 
Q 2309 806 2381 1056 
z
M 2431 1944 
Q 2422 2325 2234 2523 
Q 2047 2722 1778 2722 
Q 1491 2722 1303 2513 
Q 1116 2303 1119 1944 
L 2431 1944 
z
" transform="scale(0.015625)"/>
       <path id="Arial-BoldMT-68" d="M 1334 4581 
L 1334 2897 
Q 1759 3394 2350 3394 
Q 2653 3394 2897 3281 
Q 3141 3169 3264 2994 
Q 3388 2819 3433 2606 
Q 3478 2394 3478 1947 
L 3478 0 
L 2600 0 
L 2600 1753 
Q 2600 2275 2550 2415 
Q 2500 2556 2373 2639 
Q 2247 2722 2056 2722 
Q 1838 2722 1666 2615 
Q 1494 2509 1414 2295 
Q 1334 2081 1334 1663 
L 1334 0 
L 456 0 
L 456 4581 
L 1334 4581 
z
" transform="scale(0.015625)"/>
      </defs>
      <use xlink:href="#Arial-BoldMT-4d"/>
      <use xlink:href="#Arial-BoldMT-6f" transform="translate(83.300781 0)"/>
      <use xlink:href="#Arial-BoldMT-64" transform="translate(144.384766 0)"/>
      <use xlink:href="#Arial-BoldMT-75" transform="translate(205.46875 0)"/>
      <use xlink:href="#Arial-BoldMT-6c" transform="translate(266.552734 0)"/>
      <use xlink:href="#Arial-BoldMT-61" transform="translate(294.335938 0)"/>
      <use xlink:href="#Arial-BoldMT-74" transform="translate(349.951172 0)"/>
      <use xlink:href="#Arial-BoldMT-69" transform="translate(383.251953 0)"/>
      <use xlink:href="#Arial-BoldMT-6f" transform="translate(411.035156 0)"/>
      <use xlink:href="#Arial-BoldMT-6e" transform="translate(472.119141 0)"/>
      <use xlink:href="#Arial-BoldMT-20" transform="translate(533.203125 0)"/>
      <use xlink:href="#Arial-BoldMT-4d" transform="translate(560.986328 0)"/>
      <use xlink:href="#Arial-BoldMT-65" transform="translate(644.287109 0)"/>
      <use xlink:href="#Arial-BoldMT-74" transform="translate(699.902344 0)"/>
      <use xlink:href="#Arial-BoldMT-68" transform="translate(733.203125 0)"/>
      <use xlink:href="#Arial-BoldMT-6f" transform="translate(794.287109 0)"/>
      <use xlink:href="#Arial-BoldMT-64" transform="translate(855.371094 0)"/>
     </g>
    </g>
   </g>
   <g id="matplotlib.axis_2">
    <g id="ytick_1">
     <g id="line2d_1">
      <path d="M 55.039375 375.897639 
L 606.154375 375.897639 
" clip-path="url(#p5599e4cef1)" style="fill: none; stroke-dasharray: 3.7,1.6; stroke-dashoffset: 0; stroke: #cccccc; stroke-opacity: 0.65"/>
     </g>
     <g id="text_7">
      <!-- 0 -->
      <g style="fill: #262626" transform="translate(37.754063 380.908107) scale(0.14 -0.14)">
       <defs>
        <path id="ArialMT-30" d="M 266 2259 
Q 266 3072 433 3567 
Q 600 4063 929 4331 
Q 1259 4600 1759 4600 
Q 2128 4600 2406 4451 
Q 2684 4303 2865 4023 
Q 3047 3744 3150 3342 
Q 3253 2941 3253 2259 
Q 3253 1453 3087 958 
Q 2922 463 2592 192 
Q 2263 -78 1759 -78 
Q 1097 -78 719 397 
Q 266 969 266 2259 
z
M 844 2259 
Q 844 1131 1108 757 
Q 1372 384 1759 384 
Q 2147 384 2411 759 
Q 2675 1134 2675 2259 
Q 2675 3391 2411 3762 
Q 2147 4134 1753 4134 
Q 1366 4134 1134 3806 
Q 844 3388 844 2259 
z
" transform="scale(0.015625)"/>
       </defs>
       <use xlink:href="#ArialMT-30"/>
      </g>
     </g>
    </g>
    <g id="ytick_2">
     <g id="line2d_2">
      <path d="M 55.039375 304.27501 
L 606.154375 304.27501 
" clip-path="url(#p5599e4cef1)" style="fill: none; stroke-dasharray: 3.7,1.6; stroke-dashoffset: 0; stroke: #cccccc; stroke-opacity: 0.65"/>
     </g>
     <g id="text_8">
      <!-- 2 -->
      <g style="fill: #262626" transform="translate(37.754063 309.285479) scale(0.14 -0.14)">
       <use xlink:href="#ArialMT-32"/>
      </g>
     </g>
    </g>
    <g id="ytick_3">
     <g id="line2d_3">
      <path d="M 55.039375 232.652382 
L 606.154375 232.652382 
" clip-path="url(#p5599e4cef1)" style="fill: none; stroke-dasharray: 3.7,1.6; stroke-dashoffset: 0; stroke: #cccccc; stroke-opacity: 0.65"/>
     </g>
     <g id="text_9">
      <!-- 4 -->
      <g style="fill: #262626" transform="translate(37.754063 237.662851) scale(0.14 -0.14)">
       <defs>
        <path id="ArialMT-34" d="M 2069 0 
L 2069 1097 
L 81 1097 
L 81 1613 
L 2172 4581 
L 2631 4581 
L 2631 1613 
L 3250 1613 
L 3250 1097 
L 2631 1097 
L 2631 0 
L 2069 0 
z
M 2069 1613 
L 2069 3678 
L 634 1613 
L 2069 1613 
z
" transform="scale(0.015625)"/>
       </defs>
       <use xlink:href="#ArialMT-34"/>
      </g>
     </g>
    </g>
    <g id="ytick_4">
     <g id="line2d_4">
      <path d="M 55.039375 161.029753 
L 606.154375 161.029753 
" clip-path="url(#p5599e4cef1)" style="fill: none; stroke-dasharray: 3.7,1.6; stroke-dashoffset: 0; stroke: #cccccc; stroke-opacity: 0.65"/>
     </g>
     <g id="text_10">
      <!-- 6 -->
      <g style="fill: #262626" transform="translate(37.754063 166.040222) scale(0.14 -0.14)">
       <defs>
        <path id="ArialMT-36" d="M 3184 3459 
L 2625 3416 
Q 2550 3747 2413 3897 
Q 2184 4138 1850 4138 
Q 1581 4138 1378 3988 
Q 1113 3794 959 3422 
Q 806 3050 800 2363 
Q 1003 2672 1297 2822 
Q 1591 2972 1913 2972 
Q 2475 2972 2870 2558 
Q 3266 2144 3266 1488 
Q 3266 1056 3080 686 
Q 2894 316 2569 119 
Q 2244 -78 1831 -78 
Q 1128 -78 684 439 
Q 241 956 241 2144 
Q 241 3472 731 4075 
Q 1159 4600 1884 4600 
Q 2425 4600 2770 4297 
Q 3116 3994 3184 3459 
z
M 888 1484 
Q 888 1194 1011 928 
Q 1134 663 1356 523 
Q 1578 384 1822 384 
Q 2178 384 2434 671 
Q 2691 959 2691 1453 
Q 2691 1928 2437 2201 
Q 2184 2475 1800 2475 
Q 1419 2475 1153 2201 
Q 888 1928 888 1484 
z
" transform="scale(0.015625)"/>
       </defs>
       <use xlink:href="#ArialMT-36"/>
      </g>
     </g>
    </g>
    <g id="ytick_5">
     <g id="line2d_5">
      <path d="M 55.039375 89.407125 
L 606.154375 89.407125 
" clip-path="url(#p5599e4cef1)" style="fill: none; stroke-dasharray: 3.7,1.6; stroke-dashoffset: 0; stroke: #cccccc; stroke-opacity: 0.65"/>
     </g>
     <g id="text_11">
      <!-- 8 -->
      <g style="fill: #262626" transform="translate(37.754063 94.417594) scale(0.14 -0.14)">
       <defs>
        <path id="ArialMT-38" d="M 1131 2484 
Q 781 2613 612 2850 
Q 444 3088 444 3419 
Q 444 3919 803 4259 
Q 1163 4600 1759 4600 
Q 2359 4600 2725 4251 
Q 3091 3903 3091 3403 
Q 3091 3084 2923 2848 
Q 2756 2613 2416 2484 
Q 2838 2347 3058 2040 
Q 3278 1734 3278 1309 
Q 3278 722 2862 322 
Q 2447 -78 1769 -78 
Q 1091 -78 675 323 
Q 259 725 259 1325 
Q 259 1772 486 2073 
Q 713 2375 1131 2484 
z
M 1019 3438 
Q 1019 3113 1228 2906 
Q 1438 2700 1772 2700 
Q 2097 2700 2305 2904 
Q 2513 3109 2513 3406 
Q 2513 3716 2298 3927 
Q 2084 4138 1766 4138 
Q 1444 4138 1231 3931 
Q 1019 3725 1019 3438 
z
M 838 1322 
Q 838 1081 952 856 
Q 1066 631 1291 507 
Q 1516 384 1775 384 
Q 2178 384 2440 643 
Q 2703 903 2703 1303 
Q 2703 1709 2433 1975 
Q 2163 2241 1756 2241 
Q 1359 2241 1098 1978 
Q 838 1716 838 1322 
z
" transform="scale(0.015625)"/>
       </defs>
       <use xlink:href="#ArialMT-38"/>
      </g>
     </g>
    </g>
    <g id="ytick_6">
     <g id="line2d_6">
      <path d="M 55.039375 17.784497 
L 606.154375 17.784497 
" clip-path="url(#p5599e4cef1)" style="fill: none; stroke-dasharray: 3.7,1.6; stroke-dashoffset: 0; stroke: #cccccc; stroke-opacity: 0.65"/>
     </g>
     <g id="text_12">
      <!-- 10 -->
      <g style="fill: #262626" transform="translate(29.96875 22.794965) scale(0.14 -0.14)">
       <defs>
        <path id="ArialMT-31" d="M 2384 0 
L 1822 0 
L 1822 3584 
Q 1619 3391 1289 3197 
Q 959 3003 697 2906 
L 697 3450 
Q 1169 3672 1522 3987 
Q 1875 4303 2022 4600 
L 2384 4600 
L 2384 0 
z
" transform="scale(0.015625)"/>
       </defs>
       <use xlink:href="#ArialMT-31"/>
       <use xlink:href="#ArialMT-30" transform="translate(55.615234 0)"/>
      </g>
     </g>
    </g>
    <g id="text_13">
     <!-- Reaction Time (s) -->
     <g style="fill: #262626" transform="translate(21.759375 279.71075) rotate(-90) scale(0.2 -0.2)">
      <defs>
       <path id="Arial-BoldMT-52" d="M 469 0 
L 469 4581 
L 2416 4581 
Q 3150 4581 3483 4457 
Q 3816 4334 4016 4018 
Q 4216 3703 4216 3297 
Q 4216 2781 3912 2445 
Q 3609 2109 3006 2022 
Q 3306 1847 3501 1637 
Q 3697 1428 4028 894 
L 4588 0 
L 3481 0 
L 2813 997 
Q 2456 1531 2325 1670 
Q 2194 1809 2047 1861 
Q 1900 1913 1581 1913 
L 1394 1913 
L 1394 0 
L 469 0 
z
M 1394 2644 
L 2078 2644 
Q 2744 2644 2909 2700 
Q 3075 2756 3169 2893 
Q 3263 3031 3263 3238 
Q 3263 3469 3139 3611 
Q 3016 3753 2791 3791 
Q 2678 3806 2116 3806 
L 1394 3806 
L 1394 2644 
z
" transform="scale(0.015625)"/>
       <path id="Arial-BoldMT-63" d="M 3353 2338 
L 2488 2181 
Q 2444 2441 2289 2572 
Q 2134 2703 1888 2703 
Q 1559 2703 1364 2476 
Q 1169 2250 1169 1719 
Q 1169 1128 1367 884 
Q 1566 641 1900 641 
Q 2150 641 2309 783 
Q 2469 925 2534 1272 
L 3397 1125 
Q 3263 531 2881 228 
Q 2500 -75 1859 -75 
Q 1131 -75 698 384 
Q 266 844 266 1656 
Q 266 2478 700 2936 
Q 1134 3394 1875 3394 
Q 2481 3394 2839 3133 
Q 3197 2872 3353 2338 
z
" transform="scale(0.015625)"/>
       <path id="Arial-BoldMT-54" d="M 1497 0 
L 1497 3806 
L 138 3806 
L 138 4581 
L 3778 4581 
L 3778 3806 
L 2422 3806 
L 2422 0 
L 1497 0 
z
" transform="scale(0.015625)"/>
       <path id="Arial-BoldMT-6d" d="M 394 3319 
L 1203 3319 
L 1203 2866 
Q 1638 3394 2238 3394 
Q 2556 3394 2790 3262 
Q 3025 3131 3175 2866 
Q 3394 3131 3647 3262 
Q 3900 3394 4188 3394 
Q 4553 3394 4806 3245 
Q 5059 3097 5184 2809 
Q 5275 2597 5275 2122 
L 5275 0 
L 4397 0 
L 4397 1897 
Q 4397 2391 4306 2534 
Q 4184 2722 3931 2722 
Q 3747 2722 3584 2609 
Q 3422 2497 3350 2280 
Q 3278 2063 3278 1594 
L 3278 0 
L 2400 0 
L 2400 1819 
Q 2400 2303 2353 2443 
Q 2306 2584 2207 2653 
Q 2109 2722 1941 2722 
Q 1738 2722 1575 2612 
Q 1413 2503 1342 2297 
Q 1272 2091 1272 1613 
L 1272 0 
L 394 0 
L 394 3319 
z
" transform="scale(0.015625)"/>
       <path id="Arial-BoldMT-28" d="M 1916 -1347 
L 1313 -1347 
Q 834 -625 584 153 
Q 334 931 334 1659 
Q 334 2563 644 3369 
Q 913 4069 1325 4659 
L 1925 4659 
Q 1497 3713 1336 3048 
Q 1175 2384 1175 1641 
Q 1175 1128 1270 590 
Q 1366 53 1531 -431 
Q 1641 -750 1916 -1347 
z
" transform="scale(0.015625)"/>
       <path id="Arial-BoldMT-73" d="M 150 947 
L 1031 1081 
Q 1088 825 1259 692 
Q 1431 559 1741 559 
Q 2081 559 2253 684 
Q 2369 772 2369 919 
Q 2369 1019 2306 1084 
Q 2241 1147 2013 1200 
Q 950 1434 666 1628 
Q 272 1897 272 2375 
Q 272 2806 612 3100 
Q 953 3394 1669 3394 
Q 2350 3394 2681 3172 
Q 3013 2950 3138 2516 
L 2309 2363 
Q 2256 2556 2107 2659 
Q 1959 2763 1684 2763 
Q 1338 2763 1188 2666 
Q 1088 2597 1088 2488 
Q 1088 2394 1175 2328 
Q 1294 2241 1995 2081 
Q 2697 1922 2975 1691 
Q 3250 1456 3250 1038 
Q 3250 581 2869 253 
Q 2488 -75 1741 -75 
Q 1063 -75 667 200 
Q 272 475 150 947 
z
" transform="scale(0.015625)"/>
       <path id="Arial-BoldMT-29" d="M 216 -1347 
Q 475 -791 581 -494 
Q 688 -197 778 190 
Q 869 578 912 926 
Q 956 1275 956 1641 
Q 956 2384 797 3048 
Q 638 3713 209 4659 
L 806 4659 
Q 1278 3988 1539 3234 
Q 1800 2481 1800 1706 
Q 1800 1053 1594 306 
Q 1359 -531 822 -1347 
L 216 -1347 
z
" transform="scale(0.015625)"/>
      </defs>
      <use xlink:href="#Arial-BoldMT-52"/>
      <use xlink:href="#Arial-BoldMT-65" transform="translate(72.216797 0)"/>
      <use xlink:href="#Arial-BoldMT-61" transform="translate(127.832031 0)"/>
      <use xlink:href="#Arial-BoldMT-63" transform="translate(183.447266 0)"/>
      <use xlink:href="#Arial-BoldMT-74" transform="translate(239.0625 0)"/>
      <use xlink:href="#Arial-BoldMT-69" transform="translate(272.363281 0)"/>
      <use xlink:href="#Arial-BoldMT-6f" transform="translate(300.146484 0)"/>
      <use xlink:href="#Arial-BoldMT-6e" transform="translate(361.230469 0)"/>
      <use xlink:href="#Arial-BoldMT-20" transform="translate(422.314453 0)"/>
      <use xlink:href="#Arial-BoldMT-54" transform="translate(450.097656 0)"/>
      <use xlink:href="#Arial-BoldMT-69" transform="translate(509.431641 0)"/>
      <use xlink:href="#Arial-BoldMT-6d" transform="translate(537.214844 0)"/>
      <use xlink:href="#Arial-BoldMT-65" transform="translate(626.130859 0)"/>
      <use xlink:href="#Arial-BoldMT-20" transform="translate(681.746094 0)"/>
      <use xlink:href="#Arial-BoldMT-28" transform="translate(709.529297 0)"/>
      <use xlink:href="#Arial-BoldMT-73" transform="translate(742.830078 0)"/>
      <use xlink:href="#Arial-BoldMT-29" transform="translate(798.445312 0)"/>
     </g>
    </g>
   </g>
   <g id="FillBetweenPolyCollection_1">
    <defs>
     <path id="mc2840098c7" d="M 130.180369 -69.04009 
L 90.121381 -69.04009 
L 85.802443 -72.424161 
L 83.172743 -75.808233 
L 82.595125 -79.192304 
L 83.812934 -82.576375 
L 86.146287 -85.960446 
L 88.833661 -89.344517 
L 91.304192 -92.728588 
L 93.27418 -96.112659 
L 94.700129 -99.49673 
L 95.67953 -102.880802 
L 96.365716 -106.264873 
L 96.914767 -109.648944 
L 97.456111 -113.033015 
L 98.076916 -116.417086 
L 98.816169 -119.801157 
L 99.667403 -123.185228 
L 100.589787 -126.569299 
L 101.526546 -129.953371 
L 102.425978 -133.337442 
L 103.256545 -136.721513 
L 104.009539 -140.105584 
L 104.690849 -143.489655 
L 105.309736 -146.873726 
L 105.871777 -150.257797 
L 106.377676 -153.641868 
L 106.825582 -157.02594 
L 107.214274 -160.410011 
L 107.545904 -163.794082 
L 107.82742 -167.178153 
L 108.069332 -170.562224 
L 108.281309 -173.946295 
L 108.466939 -177.330366 
L 108.621988 -180.714437 
L 108.738739 -184.098509 
L 108.814238 -187.48258 
L 108.856734 -190.866651 
L 108.885616 -194.250722 
L 108.924623 -197.634793 
L 108.992407 -201.018864 
L 109.095627 -204.402935 
L 109.227503 -207.787006 
L 109.371477 -211.171078 
L 109.507646 -214.555149 
L 109.619528 -217.93922 
L 109.699051 -221.323291 
L 109.747978 -224.707362 
L 109.774972 -228.091433 
L 109.789965 -231.475504 
L 109.799665 -234.859575 
L 109.807285 -238.243647 
L 109.815583 -241.627718 
L 109.829131 -245.011789 
L 109.852904 -248.39586 
L 109.888582 -251.779931 
L 109.932311 -255.164002 
L 109.97587 -258.548073 
L 110.010067 -261.932144 
L 110.028092 -265.316216 
L 110.027634 -268.700287 
L 110.011545 -272.084358 
L 109.98696 -275.468429 
L 109.962947 -278.8525 
L 109.947474 -282.236571 
L 109.944957 -285.620642 
L 109.955341 -289.004714 
L 109.974845 -292.388785 
L 109.997934 -295.772856 
L 110.019564 -299.156927 
L 110.036583 -302.540998 
L 110.04774 -305.925069 
L 110.052903 -309.30914 
L 110.052651 -312.693211 
L 110.048603 -316.077283 
L 110.043729 -319.461354 
L 110.041781 -322.845425 
L 110.04585 -326.229496 
L 110.056908 -329.613567 
L 110.073223 -332.997638 
L 110.090942 -336.381709 
L 110.105546 -339.76578 
L 110.113537 -343.149852 
L 110.113731 -346.533923 
L 110.107746 -349.917994 
L 110.099477 -353.302065 
L 110.093578 -356.686136 
L 110.093481 -360.070207 
L 110.099946 -363.454278 
L 110.111018 -366.838349 
L 110.123356 -370.222421 
L 110.133944 -373.606492 
L 110.141075 -376.990563 
L 110.144241 -380.374634 
L 110.143438 -383.758705 
L 110.138654 -387.142776 
L 110.130008 -390.526847 
L 110.11843 -393.910918 
L 110.106218 -397.29499 
L 110.096751 -400.679061 
L 110.093166 -404.063132 
L 110.208584 -404.063132 
L 110.208584 -404.063132 
L 110.204999 -400.679061 
L 110.195532 -397.29499 
L 110.18332 -393.910918 
L 110.171742 -390.526847 
L 110.163096 -387.142776 
L 110.158312 -383.758705 
L 110.157509 -380.374634 
L 110.160675 -376.990563 
L 110.167806 -373.606492 
L 110.178394 -370.222421 
L 110.190732 -366.838349 
L 110.201804 -363.454278 
L 110.208269 -360.070207 
L 110.208172 -356.686136 
L 110.202273 -353.302065 
L 110.194004 -349.917994 
L 110.188019 -346.533923 
L 110.188213 -343.149852 
L 110.196204 -339.76578 
L 110.210808 -336.381709 
L 110.228527 -332.997638 
L 110.244842 -329.613567 
L 110.2559 -326.229496 
L 110.259969 -322.845425 
L 110.258021 -319.461354 
L 110.253147 -316.077283 
L 110.249099 -312.693211 
L 110.248847 -309.30914 
L 110.25401 -305.925069 
L 110.265167 -302.540998 
L 110.282186 -299.156927 
L 110.303816 -295.772856 
L 110.326905 -292.388785 
L 110.346409 -289.004714 
L 110.356793 -285.620642 
L 110.354276 -282.236571 
L 110.338803 -278.8525 
L 110.31479 -275.468429 
L 110.290205 -272.084358 
L 110.274116 -268.700287 
L 110.273658 -265.316216 
L 110.291683 -261.932144 
L 110.32588 -258.548073 
L 110.369439 -255.164002 
L 110.413168 -251.779931 
L 110.448846 -248.39586 
L 110.472619 -245.011789 
L 110.486167 -241.627718 
L 110.494465 -238.243647 
L 110.502085 -234.859575 
L 110.511785 -231.475504 
L 110.526778 -228.091433 
L 110.553772 -224.707362 
L 110.602699 -221.323291 
L 110.682222 -217.93922 
L 110.794104 -214.555149 
L 110.930273 -211.171078 
L 111.074247 -207.787006 
L 111.206123 -204.402935 
L 111.309343 -201.018864 
L 111.377127 -197.634793 
L 111.416134 -194.250722 
L 111.445016 -190.866651 
L 111.487512 -187.48258 
L 111.563011 -184.098509 
L 111.679762 -180.714437 
L 111.834811 -177.330366 
L 112.020441 -173.946295 
L 112.232418 -170.562224 
L 112.47433 -167.178153 
L 112.755846 -163.794082 
L 113.087476 -160.410011 
L 113.476168 -157.02594 
L 113.924074 -153.641868 
L 114.429973 -150.257797 
L 114.992014 -146.873726 
L 115.610901 -143.489655 
L 116.292211 -140.105584 
L 117.045205 -136.721513 
L 117.875772 -133.337442 
L 118.775204 -129.953371 
L 119.711963 -126.569299 
L 120.634347 -123.185228 
L 121.485581 -119.801157 
L 122.224834 -116.417086 
L 122.845639 -113.033015 
L 123.386983 -109.648944 
L 123.936034 -106.264873 
L 124.62222 -102.880802 
L 125.601621 -99.49673 
L 127.02757 -96.112659 
L 128.997558 -92.728588 
L 131.468089 -89.344517 
L 134.155463 -85.960446 
L 136.488816 -82.576375 
L 137.706625 -79.192304 
L 137.129007 -75.808233 
L 134.499307 -72.424161 
L 130.180369 -69.04009 
z
" style="stroke: #353535; stroke-width: 1.1"/>
    </defs>
    <g clip-path="url(#p5599e4cef1)">
     <use xlink:href="#mc2840098c7" x="0" y="437.649937" style="fill: #3d6682; stroke: #353535; stroke-width: 1.1"/>
    </g>
   </g>
   <g id="FillBetweenPolyCollection_2">
    <defs>
     <path id="m6f8beffa26" d="M 240.901654 -69.44261 
L 199.846096 -69.44261 
L 196.278663 -72.252028 
L 193.854322 -75.061446 
L 192.818125 -77.870864 
L 193.106255 -80.680282 
L 194.40255 -83.4897 
L 196.271344 -86.299117 
L 198.297672 -89.108535 
L 200.178684 -91.917953 
L 201.748943 -94.727371 
L 202.957612 -97.536789 
L 203.828622 -100.346207 
L 204.427164 -103.155625 
L 204.839953 -105.965043 
L 205.164704 -108.774461 
L 205.500675 -111.583879 
L 205.935342 -114.393297 
L 206.5283 -117.202715 
L 207.298326 -120.012133 
L 208.220437 -122.821551 
L 209.236075 -125.630969 
L 210.273157 -128.440387 
L 211.267617 -131.249805 
L 212.17763 -134.059223 
L 212.98634 -136.868641 
L 213.695408 -139.678059 
L 214.315694 -142.487477 
L 214.860677 -145.296895 
L 215.344193 -148.106313 
L 215.78043 -150.915731 
L 216.183368 -153.725149 
L 216.564718 -156.534567 
L 216.93151 -159.343985 
L 217.284965 -162.153403 
L 217.621232 -164.962821 
L 217.933505 -167.772239 
L 218.214763 -170.581657 
L 218.460472 -173.391075 
L 218.670537 -176.200493 
L 218.849628 -179.009911 
L 219.005381 -181.819329 
L 219.145165 -184.628747 
L 219.273087 -187.438165 
L 219.388893 -190.247583 
L 219.489232 -193.057001 
L 219.570357 -195.866419 
L 219.630685 -198.675836 
L 219.672071 -201.485254 
L 219.699555 -204.294672 
L 219.720018 -207.10409 
L 219.740357 -209.913508 
L 219.765702 -212.722926 
L 219.79806 -215.532344 
L 219.835758 -218.341762 
L 219.873946 -221.15118 
L 219.906153 -223.960598 
L 219.926483 -226.770016 
L 219.931734 -229.579434 
L 219.922745 -232.388852 
L 219.904543 -235.19827 
L 219.885305 -238.007688 
L 219.874435 -240.817106 
L 219.880218 -243.626524 
L 219.907598 -246.435942 
L 219.956713 -249.24536 
L 220.022741 -252.054778 
L 220.097281 -254.864196 
L 220.170839 -257.673614 
L 220.235457 -260.483032 
L 220.286462 -263.29245 
L 220.322804 -266.101868 
L 220.346178 -268.911286 
L 220.359559 -271.720704 
L 220.365847 -274.530122 
L 220.366979 -277.33954 
L 220.363565 -280.148958 
L 220.35495 -282.958376 
L 220.339623 -285.767794 
L 220.315952 -288.577212 
L 220.283161 -291.38663 
L 220.242306 -294.196048 
L 220.196836 -297.005466 
L 220.152366 -299.814884 
L 220.115565 -302.624302 
L 220.092487 -305.43372 
L 220.086902 -308.243138 
L 220.099216 -311.052556 
L 220.126245 -313.861973 
L 220.161903 -316.671391 
L 220.198578 -319.480809 
L 220.228898 -322.290227 
L 220.247467 -325.099645 
L 220.252122 -327.909063 
L 220.244352 -330.718481 
L 220.228745 -333.527899 
L 220.21161 -336.337317 
L 220.199202 -339.146735 
L 220.196091 -341.956153 
L 220.204149 -344.765571 
L 220.222412 -347.574989 
L 220.525338 -347.574989 
L 220.525338 -347.574989 
L 220.543601 -344.765571 
L 220.551659 -341.956153 
L 220.548548 -339.146735 
L 220.53614 -336.337317 
L 220.519005 -333.527899 
L 220.503398 -330.718481 
L 220.495628 -327.909063 
L 220.500283 -325.099645 
L 220.518852 -322.290227 
L 220.549172 -319.480809 
L 220.585847 -316.671391 
L 220.621505 -313.861973 
L 220.648534 -311.052556 
L 220.660848 -308.243138 
L 220.655263 -305.43372 
L 220.632185 -302.624302 
L 220.595384 -299.814884 
L 220.550914 -297.005466 
L 220.505444 -294.196048 
L 220.464589 -291.38663 
L 220.431798 -288.577212 
L 220.408127 -285.767794 
L 220.3928 -282.958376 
L 220.384185 -280.148958 
L 220.380771 -277.33954 
L 220.381903 -274.530122 
L 220.388191 -271.720704 
L 220.401572 -268.911286 
L 220.424946 -266.101868 
L 220.461288 -263.29245 
L 220.512293 -260.483032 
L 220.576911 -257.673614 
L 220.650469 -254.864196 
L 220.725009 -252.054778 
L 220.791037 -249.24536 
L 220.840152 -246.435942 
L 220.867532 -243.626524 
L 220.873315 -240.817106 
L 220.862445 -238.007688 
L 220.843207 -235.19827 
L 220.825005 -232.388852 
L 220.816016 -229.579434 
L 220.821267 -226.770016 
L 220.841597 -223.960598 
L 220.873804 -221.15118 
L 220.911992 -218.341762 
L 220.94969 -215.532344 
L 220.982048 -212.722926 
L 221.007393 -209.913508 
L 221.027732 -207.10409 
L 221.048195 -204.294672 
L 221.075679 -201.485254 
L 221.117065 -198.675836 
L 221.177393 -195.866419 
L 221.258518 -193.057001 
L 221.358857 -190.247583 
L 221.474663 -187.438165 
L 221.602585 -184.628747 
L 221.742369 -181.819329 
L 221.898122 -179.009911 
L 222.077213 -176.200493 
L 222.287278 -173.391075 
L 222.532987 -170.581657 
L 222.814245 -167.772239 
L 223.126518 -164.962821 
L 223.462785 -162.153403 
L 223.81624 -159.343985 
L 224.183032 -156.534567 
L 224.564382 -153.725149 
L 224.96732 -150.915731 
L 225.403557 -148.106313 
L 225.887073 -145.296895 
L 226.432056 -142.487477 
L 227.052342 -139.678059 
L 227.76141 -136.868641 
L 228.57012 -134.059223 
L 229.480133 -131.249805 
L 230.474593 -128.440387 
L 231.511675 -125.630969 
L 232.527313 -122.821551 
L 233.449424 -120.012133 
L 234.21945 -117.202715 
L 234.812408 -114.393297 
L 235.247075 -111.583879 
L 235.583046 -108.774461 
L 235.907797 -105.965043 
L 236.320586 -103.155625 
L 236.919128 -100.346207 
L 237.790138 -97.536789 
L 238.998807 -94.727371 
L 240.569066 -91.917953 
L 242.450078 -89.108535 
L 244.476406 -86.299117 
L 246.3452 -83.4897 
L 247.641495 -80.680282 
L 247.929625 -77.870864 
L 246.893428 -75.061446 
L 244.469087 -72.252028 
L 240.901654 -69.44261 
z
" style="stroke: #353535; stroke-width: 1.1"/>
    </defs>
    <g clip-path="url(#p5599e4cef1)">
     <use xlink:href="#m6f8beffa26" x="0" y="437.649937" style="fill: #45a778; stroke: #353535; stroke-width: 1.1"/>
    </g>
   </g>
   <g id="FillBetweenPolyCollection_3">
    <defs>
     <path id="m8ef90619e4" d="M 352.305903 -69.761857 
L 308.887847 -69.761857 
L 305.338304 -73.071351 
L 303.336121 -76.380844 
L 303.041125 -79.690338 
L 304.184563 -82.999832 
L 306.230906 -86.309325 
L 308.608918 -89.618819 
L 310.886205 -92.928313 
L 312.827835 -96.237806 
L 314.361791 -99.5473 
L 315.512668 -102.856794 
L 316.351269 -106.166287 
L 316.971387 -109.475781 
L 317.479323 -112.785275 
L 317.979274 -116.094768 
L 318.551201 -119.404262 
L 319.231249 -122.713755 
L 320.007274 -126.023249 
L 320.833265 -129.332743 
L 321.654732 -132.642236 
L 322.431507 -135.95173 
L 323.148015 -139.261224 
L 323.810002 -142.570717 
L 324.433898 -145.880211 
L 325.035919 -149.189705 
L 325.624444 -152.499198 
L 326.195998 -155.808692 
L 326.735107 -159.118186 
L 327.218817 -162.427679 
L 327.624985 -165.737173 
L 327.940637 -169.046667 
L 328.166446 -172.35616 
L 328.316295 -175.665654 
L 328.413791 -178.975147 
L 328.487603 -182.284641 
L 328.565868 -185.594135 
L 328.669616 -188.903628 
L 328.806922 -192.213122 
L 328.970932 -195.522616 
L 329.143826 -198.832109 
L 329.305568 -202.141603 
L 329.443241 -205.451097 
L 329.556144 -208.76059 
L 329.654208 -212.070084 
L 329.751046 -215.379578 
L 329.855919 -218.689071 
L 329.969186 -221.998565 
L 330.083256 -225.308059 
L 330.187574 -228.617552 
L 330.274012 -231.927046 
L 330.339535 -235.23654 
L 330.385475 -238.546033 
L 330.415009 -241.855527 
L 330.430988 -245.16502 
L 330.435188 -248.474514 
L 330.428747 -251.784008 
L 330.412987 -255.093501 
L 330.390105 -258.402995 
L 330.363546 -261.712489 
L 330.337916 -265.021982 
L 330.318273 -268.331476 
L 330.308827 -271.64097 
L 330.31149 -274.950463 
L 330.325087 -278.259957 
L 330.345885 -281.569451 
L 330.369384 -284.878944 
L 330.392426 -288.188438 
L 330.414315 -291.497932 
L 330.436222 -294.807425 
L 330.459356 -298.116919 
L 330.483189 -301.426412 
L 330.504922 -304.735906 
L 330.52046 -308.0454 
L 330.526293 -311.354893 
L 330.52131 -314.664387 
L 330.507755 -317.973881 
L 330.490887 -321.283374 
L 330.477331 -324.592868 
L 330.472641 -327.902362 
L 330.479151 -331.211855 
L 330.495139 -334.521349 
L 330.515743 -337.830843 
L 330.535068 -341.140336 
L 330.548377 -344.44983 
L 330.5535 -347.759324 
L 330.551153 -351.068817 
L 330.544357 -354.378311 
L 330.537238 -357.687804 
L 330.533525 -360.997298 
L 330.535188 -364.306792 
L 330.541722 -367.616285 
L 330.550376 -370.925779 
L 330.557168 -374.235273 
L 330.558236 -377.544766 
L 330.551092 -380.85426 
L 330.535579 -384.163754 
L 330.514371 -387.473247 
L 330.492656 -390.782741 
L 330.47671 -394.092235 
L 330.471632 -397.401728 
L 330.722118 -397.401728 
L 330.722118 -397.401728 
L 330.71704 -394.092235 
L 330.701094 -390.782741 
L 330.679379 -387.473247 
L 330.658171 -384.163754 
L 330.642658 -380.85426 
L 330.635514 -377.544766 
L 330.636582 -374.235273 
L 330.643374 -370.925779 
L 330.652028 -367.616285 
L 330.658562 -364.306792 
L 330.660225 -360.997298 
L 330.656512 -357.687804 
L 330.649393 -354.378311 
L 330.642597 -351.068817 
L 330.64025 -347.759324 
L 330.645373 -344.44983 
L 330.658682 -341.140336 
L 330.678007 -337.830843 
L 330.698611 -334.521349 
L 330.714599 -331.211855 
L 330.721109 -327.902362 
L 330.716419 -324.592868 
L 330.702863 -321.283374 
L 330.685995 -317.973881 
L 330.67244 -314.664387 
L 330.667457 -311.354893 
L 330.67329 -308.0454 
L 330.688828 -304.735906 
L 330.710561 -301.426412 
L 330.734394 -298.116919 
L 330.757528 -294.807425 
L 330.779435 -291.497932 
L 330.801324 -288.188438 
L 330.824366 -284.878944 
L 330.847865 -281.569451 
L 330.868663 -278.259957 
L 330.88226 -274.950463 
L 330.884923 -271.64097 
L 330.875477 -268.331476 
L 330.855834 -265.021982 
L 330.830204 -261.712489 
L 330.803645 -258.402995 
L 330.780763 -255.093501 
L 330.765003 -251.784008 
L 330.758562 -248.474514 
L 330.762762 -245.16502 
L 330.778741 -241.855527 
L 330.808275 -238.546033 
L 330.854215 -235.23654 
L 330.919738 -231.927046 
L 331.006176 -228.617552 
L 331.110494 -225.308059 
L 331.224564 -221.998565 
L 331.337831 -218.689071 
L 331.442704 -215.379578 
L 331.539542 -212.070084 
L 331.637606 -208.76059 
L 331.750509 -205.451097 
L 331.888182 -202.141603 
L 332.049924 -198.832109 
L 332.222818 -195.522616 
L 332.386828 -192.213122 
L 332.524134 -188.903628 
L 332.627882 -185.594135 
L 332.706147 -182.284641 
L 332.779959 -178.975147 
L 332.877455 -175.665654 
L 333.027304 -172.35616 
L 333.253113 -169.046667 
L 333.568765 -165.737173 
L 333.974933 -162.427679 
L 334.458643 -159.118186 
L 334.997752 -155.808692 
L 335.569306 -152.499198 
L 336.157831 -149.189705 
L 336.759852 -145.880211 
L 337.383748 -142.570717 
L 338.045735 -139.261224 
L 338.762243 -135.95173 
L 339.539018 -132.642236 
L 340.360485 -129.332743 
L 341.186476 -126.023249 
L 341.962501 -122.713755 
L 342.642549 -119.404262 
L 343.214476 -116.094768 
L 343.714427 -112.785275 
L 344.222363 -109.475781 
L 344.842481 -106.166287 
L 345.681082 -102.856794 
L 346.831959 -99.5473 
L 348.365915 -96.237806 
L 350.307545 -92.928313 
L 352.584832 -89.618819 
L 354.962844 -86.309325 
L 357.009187 -82.999832 
L 358.152625 -79.690338 
L 357.857629 -76.380844 
L 355.855446 -73.071351 
L 352.305903 -69.761857 
z
" style="stroke: #353535; stroke-width: 1.1"/>
    </defs>
    <g clip-path="url(#p5599e4cef1)">
     <use xlink:href="#m8ef90619e4" x="0" y="437.649937" style="fill: #4b427a; stroke: #353535; stroke-width: 1.1"/>
    </g>
   </g>
   <g id="FillBetweenPolyCollection_4">
    <defs>
     <path id="m2228220094" d="M 460.629222 -68.978847 
L 421.010528 -68.978847 
L 417.155665 -71.742713 
L 414.467574 -74.50658 
L 413.264125 -77.270446 
L 413.505168 -80.034313 
L 414.846815 -82.79818 
L 416.79884 -85.562046 
L 418.897853 -88.325913 
L 420.820949 -91.08978 
L 422.414576 -93.853646 
L 423.66048 -96.617513 
L 424.618832 -99.381379 
L 425.379538 -102.145246 
L 426.033215 -104.909113 
L 426.658323 -107.672979 
L 427.315806 -110.436846 
L 428.04501 -113.200712 
L 428.859772 -115.964579 
L 429.747164 -118.728446 
L 430.671544 -121.492312 
L 431.58423 -124.256179 
L 432.436346 -127.020045 
L 433.191003 -129.783912 
L 433.831167 -132.547779 
L 434.36109 -135.311645 
L 434.801472 -138.075512 
L 435.180893 -140.839379 
L 435.527177 -143.603245 
L 435.861719 -146.367112 
L 436.197648 -149.130978 
L 436.540753 -151.894845 
L 436.891294 -154.658712 
L 437.245341 -157.422578 
L 437.595408 -160.186445 
L 437.931033 -162.950311 
L 438.240108 -165.714178 
L 438.511179 -168.478045 
L 438.736213 -171.241911 
L 438.912863 -174.005778 
L 439.045444 -176.769645 
L 439.14416 -179.533511 
L 439.222688 -182.297378 
L 439.29471 -185.061244 
L 439.370431 -187.825111 
L 439.454244 -190.588978 
L 439.544372 -193.352844 
L 439.634635 -196.116711 
L 439.717726 -198.880577 
L 439.788781 -201.644444 
L 439.847739 -204.408311 
L 439.899348 -207.172177 
L 439.950747 -209.936044 
L 440.007806 -212.699911 
L 440.072134 -215.463777 
L 440.140243 -218.227644 
L 440.20512 -220.99151 
L 440.259268 -223.755377 
L 440.297789 -226.519244 
L 440.320328 -229.28311 
L 440.331337 -232.046977 
L 440.338675 -234.810843 
L 440.351076 -237.57471 
L 440.375296 -240.338577 
L 440.413944 -243.102443 
L 440.464807 -245.86631 
L 440.521974 -248.630177 
L 440.578264 -251.394043 
L 440.627886 -254.15791 
L 440.668136 -256.921776 
L 440.699484 -259.685643 
L 440.724304 -262.44951 
L 440.745147 -265.213376 
L 440.763526 -267.977243 
L 440.779694 -270.741109 
L 440.793176 -273.504976 
L 440.803507 -276.268843 
L 440.810674 -279.032709 
L 440.81515 -281.796576 
L 440.817663 -284.560443 
L 440.818932 -287.324309 
L 440.819509 -290.088176 
L 440.819744 -292.852042 
L 440.819824 -295.615909 
L 440.819828 -298.379776 
L 440.819758 -301.143642 
L 440.819542 -303.907509 
L 440.818991 -306.671375 
L 440.817723 -309.435242 
L 440.815081 -312.199109 
L 440.810086 -314.962975 
L 440.801513 -317.726842 
L 440.788162 -320.490709 
L 440.769323 -323.254575 
L 440.745334 -326.018442 
L 440.718007 -328.782308 
L 440.690684 -331.546175 
L 440.667755 -334.310042 
L 440.653631 -337.073908 
L 440.651451 -339.837775 
L 440.661973 -342.601641 
L 440.977777 -342.601641 
L 440.977777 -342.601641 
L 440.988299 -339.837775 
L 440.986119 -337.073908 
L 440.971995 -334.310042 
L 440.949066 -331.546175 
L 440.921743 -328.782308 
L 440.894416 -326.018442 
L 440.870427 -323.254575 
L 440.851588 -320.490709 
L 440.838237 -317.726842 
L 440.829664 -314.962975 
L 440.824669 -312.199109 
L 440.822027 -309.435242 
L 440.820759 -306.671375 
L 440.820208 -303.907509 
L 440.819992 -301.143642 
L 440.819922 -298.379776 
L 440.819926 -295.615909 
L 440.820006 -292.852042 
L 440.820241 -290.088176 
L 440.820818 -287.324309 
L 440.822087 -284.560443 
L 440.8246 -281.796576 
L 440.829076 -279.032709 
L 440.836243 -276.268843 
L 440.846574 -273.504976 
L 440.860056 -270.741109 
L 440.876224 -267.977243 
L 440.894603 -265.213376 
L 440.915446 -262.44951 
L 440.940266 -259.685643 
L 440.971614 -256.921776 
L 441.011864 -254.15791 
L 441.061486 -251.394043 
L 441.117776 -248.630177 
L 441.174943 -245.86631 
L 441.225806 -243.102443 
L 441.264454 -240.338577 
L 441.288674 -237.57471 
L 441.301075 -234.810843 
L 441.308413 -232.046977 
L 441.319422 -229.28311 
L 441.341961 -226.519244 
L 441.380482 -223.755377 
L 441.43463 -220.99151 
L 441.499507 -218.227644 
L 441.567616 -215.463777 
L 441.631944 -212.699911 
L 441.689003 -209.936044 
L 441.740402 -207.172177 
L 441.792011 -204.408311 
L 441.850969 -201.644444 
L 441.922024 -198.880577 
L 442.005115 -196.116711 
L 442.095378 -193.352844 
L 442.185506 -190.588978 
L 442.269319 -187.825111 
L 442.34504 -185.061244 
L 442.417062 -182.297378 
L 442.49559 -179.533511 
L 442.594306 -176.769645 
L 442.726887 -174.005778 
L 442.903537 -171.241911 
L 443.128571 -168.478045 
L 443.399642 -165.714178 
L 443.708717 -162.950311 
L 444.044342 -160.186445 
L 444.394409 -157.422578 
L 444.748456 -154.658712 
L 445.098997 -151.894845 
L 445.442102 -149.130978 
L 445.778031 -146.367112 
L 446.112573 -143.603245 
L 446.458857 -140.839379 
L 446.838278 -138.075512 
L 447.27866 -135.311645 
L 447.808583 -132.547779 
L 448.448747 -129.783912 
L 449.203404 -127.020045 
L 450.05552 -124.256179 
L 450.968206 -121.492312 
L 451.892586 -118.728446 
L 452.779978 -115.964579 
L 453.59474 -113.200712 
L 454.323944 -110.436846 
L 454.981427 -107.672979 
L 455.606535 -104.909113 
L 456.260212 -102.145246 
L 457.020918 -99.381379 
L 457.97927 -96.617513 
L 459.225174 -93.853646 
L 460.818801 -91.08978 
L 462.741897 -88.325913 
L 464.84091 -85.562046 
L 466.792935 -82.79818 
L 468.134582 -80.034313 
L 468.375625 -77.270446 
L 467.172176 -74.50658 
L 464.484085 -71.742713 
L 460.629222 -68.978847 
z
" style="stroke: #353535; stroke-width: 1.1"/>
    </defs>
    <g clip-path="url(#p5599e4cef1)">
     <use xlink:href="#m2228220094" x="0" y="437.649937" style="fill: #2f837f; stroke: #353535; stroke-width: 1.1"/>
    </g>
   </g>
   <g id="FillBetweenPolyCollection_5">
    <defs>
     <path id="mabf54a21e0" d="M 572.534124 -69.643545 
L 529.551626 -69.643545 
L 526.100309 -73.114186 
L 524.024135 -76.584827 
L 523.487125 -80.055469 
L 524.287078 -83.52611 
L 525.97214 -86.996751 
L 528.024858 -90.467392 
L 530.021315 -93.938034 
L 531.711107 -97.408675 
L 533.017626 -100.879316 
L 533.990146 -104.349957 
L 534.742046 -107.820599 
L 535.397431 -111.29124 
L 536.056278 -114.761881 
L 536.779976 -118.232522 
L 537.593301 -121.703164 
L 538.494703 -125.173805 
L 539.466472 -128.644446 
L 540.480453 -132.115087 
L 541.500771 -135.585729 
L 542.487869 -139.05637 
L 543.405931 -142.527011 
L 544.231165 -145.997652 
L 544.956222 -149.468294 
L 545.588493 -152.938935 
L 546.14432 -156.409576 
L 546.64299 -159.880217 
L 547.10259 -163.350859 
L 547.537099 -166.8215 
L 547.953662 -170.292141 
L 548.350704 -173.762782 
L 548.71871 -177.233424 
L 549.044484 -180.704065 
L 549.317366 -184.174706 
L 549.534381 -187.645347 
L 549.701829 -191.115989 
L 549.832679 -194.58663 
L 549.941345 -198.057271 
L 550.038626 -201.527912 
L 550.129346 -204.998554 
L 550.213392 -208.469195 
L 550.288674 -211.939836 
L 550.353584 -215.410477 
L 550.407596 -218.881119 
L 550.450562 -222.35176 
L 550.482344 -225.822401 
L 550.50366 -229.293042 
L 550.517421 -232.763684 
L 550.528968 -236.234325 
L 550.544318 -239.704966 
L 550.567278 -243.175607 
L 550.597466 -246.646249 
L 550.630902 -250.11689 
L 550.662954 -253.587531 
L 550.691636 -257.058172 
L 550.718903 -260.528813 
L 550.74905 -263.999455 
L 550.785377 -267.470096 
L 550.827401 -270.940737 
L 550.870255 -274.411378 
L 550.906347 -277.88202 
L 550.928118 -281.352661 
L 550.930545 -284.823302 
L 550.912684 -288.293943 
L 550.878136 -291.764585 
L 550.834483 -295.235226 
L 550.791667 -298.705867 
L 550.759366 -302.176508 
L 550.744023 -305.64715 
L 550.746627 -309.117791 
L 550.762434 -312.588432 
L 550.783031 -316.059073 
L 550.799961 -319.529715 
L 550.808197 -323.000356 
L 550.807747 -326.470997 
L 550.802714 -329.941638 
L 550.798614 -333.41228 
L 550.79971 -336.882921 
L 550.80776 -340.353562 
L 550.822387 -343.824203 
L 550.842126 -347.294845 
L 550.865063 -350.765486 
L 550.888817 -354.236127 
L 550.910413 -357.706768 
L 550.926736 -361.17741 
L 550.9356 -364.648051 
L 550.936786 -368.118692 
L 550.932286 -371.589333 
L 550.925505 -375.059975 
L 550.919832 -378.530616 
L 550.917296 -382.001257 
L 550.917974 -385.471898 
L 550.92035 -388.94254 
L 550.922389 -392.413181 
L 550.92277 -395.883822 
L 550.921663 -399.354463 
L 550.920709 -402.825105 
L 550.922269 -406.295746 
L 550.928362 -409.766387 
L 550.939788 -413.237028 
L 551.145962 -413.237028 
L 551.145962 -413.237028 
L 551.157388 -409.766387 
L 551.163481 -406.295746 
L 551.165041 -402.825105 
L 551.164087 -399.354463 
L 551.16298 -395.883822 
L 551.163361 -392.413181 
L 551.1654 -388.94254 
L 551.167776 -385.471898 
L 551.168454 -382.001257 
L 551.165918 -378.530616 
L 551.160245 -375.059975 
L 551.153464 -371.589333 
L 551.148964 -368.118692 
L 551.15015 -364.648051 
L 551.159014 -361.17741 
L 551.175337 -357.706768 
L 551.196933 -354.236127 
L 551.220687 -350.765486 
L 551.243624 -347.294845 
L 551.263363 -343.824203 
L 551.27799 -340.353562 
L 551.28604 -336.882921 
L 551.287136 -333.41228 
L 551.283036 -329.941638 
L 551.278003 -326.470997 
L 551.277553 -323.000356 
L 551.285789 -319.529715 
L 551.302719 -316.059073 
L 551.323316 -312.588432 
L 551.339123 -309.117791 
L 551.341727 -305.64715 
L 551.326384 -302.176508 
L 551.294083 -298.705867 
L 551.251267 -295.235226 
L 551.207614 -291.764585 
L 551.173066 -288.293943 
L 551.155205 -284.823302 
L 551.157632 -281.352661 
L 551.179403 -277.88202 
L 551.215495 -274.411378 
L 551.258349 -270.940737 
L 551.300373 -267.470096 
L 551.3367 -263.999455 
L 551.366847 -260.528813 
L 551.394114 -257.058172 
L 551.422796 -253.587531 
L 551.454848 -250.11689 
L 551.488284 -246.646249 
L 551.518472 -243.175607 
L 551.541432 -239.704966 
L 551.556782 -236.234325 
L 551.568329 -232.763684 
L 551.58209 -229.293042 
L 551.603406 -225.822401 
L 551.635188 -222.35176 
L 551.678154 -218.881119 
L 551.732166 -215.410477 
L 551.797076 -211.939836 
L 551.872358 -208.469195 
L 551.956404 -204.998554 
L 552.047124 -201.527912 
L 552.144405 -198.057271 
L 552.253071 -194.58663 
L 552.383921 -191.115989 
L 552.551369 -187.645347 
L 552.768384 -184.174706 
L 553.041266 -180.704065 
L 553.36704 -177.233424 
L 553.735046 -173.762782 
L 554.132088 -170.292141 
L 554.548651 -166.8215 
L 554.98316 -163.350859 
L 555.44276 -159.880217 
L 555.94143 -156.409576 
L 556.497257 -152.938935 
L 557.129528 -149.468294 
L 557.854585 -145.997652 
L 558.679819 -142.527011 
L 559.597881 -139.05637 
L 560.584979 -135.585729 
L 561.605297 -132.115087 
L 562.619278 -128.644446 
L 563.591047 -125.173805 
L 564.492449 -121.703164 
L 565.305774 -118.232522 
L 566.029472 -114.761881 
L 566.688319 -111.29124 
L 567.343704 -107.820599 
L 568.095604 -104.349957 
L 569.068124 -100.879316 
L 570.374643 -97.408675 
L 572.064435 -93.938034 
L 574.060892 -90.467392 
L 576.11361 -86.996751 
L 577.798672 -83.52611 
L 578.598625 -80.055469 
L 578.061615 -76.584827 
L 575.985441 -73.114186 
L 572.534124 -69.643545 
z
" style="stroke: #353535; stroke-width: 1.1"/>
    </defs>
    <g clip-path="url(#p5599e4cef1)">
     <use xlink:href="#mabf54a21e0" x="0" y="437.649937" style="fill: #8fc555; stroke: #353535; stroke-width: 1.1"/>
    </g>
   </g>
   <g id="line2d_7">
    <path d="M 110.150875 368.609847 
L 110.150875 257.278091 
" clip-path="url(#p5599e4cef1)" style="fill: none; stroke: #353535; stroke-width: 1.65; stroke-linecap: round"/>
   </g>
   <g id="line2d_8">
    <path d="M 110.150875 360.938201 
L 110.150875 318.795113 
" clip-path="url(#p5599e4cef1)" style="fill: none; stroke: #353535; stroke-width: 4.95; stroke-linecap: round"/>
   </g>
   <g id="line2d_9">
    <path d="M 110.150875 345.417162 
" clip-path="url(#p5599e4cef1)" style="fill: none; stroke: #353535; stroke-width: 1.5; stroke-linecap: round"/>
    <defs>
     <path id="m368323edb1" d="M 2.0625 0 
L -2.0625 -0 
" style="stroke: #ffffff; stroke-width: 0.99"/>
    </defs>
    <g clip-path="url(#p5599e4cef1)">
     <use xlink:href="#m368323edb1" x="110.150875" y="345.417162" style="fill: #ffffff; stroke: #ffffff; stroke-width: 0.99"/>
    </g>
   </g>
   <g id="line2d_10">
    <path d="M 220.373875 368.207328 
L 220.373875 255.718098 
" clip-path="url(#p5599e4cef1)" style="fill: none; stroke: #353535; stroke-width: 1.65; stroke-linecap: round"/>
   </g>
   <g id="line2d_11">
    <path d="M 220.373875 360.705491 
L 220.373875 318.632323 
" clip-path="url(#p5599e4cef1)" style="fill: none; stroke: #353535; stroke-width: 4.95; stroke-linecap: round"/>
   </g>
   <g id="line2d_12">
    <path d="M 220.373875 343.673826 
" clip-path="url(#p5599e4cef1)" style="fill: none; stroke: #353535; stroke-width: 1.5; stroke-linecap: round"/>
    <g clip-path="url(#p5599e4cef1)">
     <use xlink:href="#m368323edb1" x="220.373875" y="343.673826" style="fill: #ffffff; stroke: #ffffff; stroke-width: 0.99"/>
    </g>
   </g>
   <g id="line2d_13">
    <path d="M 330.596875 367.88808 
L 330.596875 248.327644 
" clip-path="url(#p5599e4cef1)" style="fill: none; stroke: #353535; stroke-width: 1.65; stroke-linecap: round"/>
   </g>
   <g id="line2d_14">
    <path d="M 330.596875 361.504455 
L 330.596875 316.20763 
" clip-path="url(#p5599e4cef1)" style="fill: none; stroke: #353535; stroke-width: 4.95; stroke-linecap: round"/>
   </g>
   <g id="line2d_15">
    <path d="M 330.596875 344.198846 
" clip-path="url(#p5599e4cef1)" style="fill: none; stroke: #353535; stroke-width: 1.5; stroke-linecap: round"/>
    <g clip-path="url(#p5599e4cef1)">
     <use xlink:href="#m368323edb1" x="330.596875" y="344.198846" style="fill: #ffffff; stroke: #ffffff; stroke-width: 0.99"/>
    </g>
   </g>
   <g id="line2d_16">
    <path d="M 440.819875 368.671091 
L 440.819875 259.054831 
" clip-path="url(#p5599e4cef1)" style="fill: none; stroke: #353535; stroke-width: 1.65; stroke-linecap: round"/>
   </g>
   <g id="line2d_17">
    <path d="M 440.819875 361.098277 
L 440.819875 320.190982 
" clip-path="url(#p5599e4cef1)" style="fill: none; stroke: #353535; stroke-width: 4.95; stroke-linecap: round"/>
   </g>
   <g id="line2d_18">
    <path d="M 440.819875 345.137411 
" clip-path="url(#p5599e4cef1)" style="fill: none; stroke: #353535; stroke-width: 1.5; stroke-linecap: round"/>
    <g clip-path="url(#p5599e4cef1)">
     <use xlink:href="#m368323edb1" x="440.819875" y="345.137411" style="fill: #ffffff; stroke: #ffffff; stroke-width: 0.99"/>
    </g>
   </g>
   <g id="line2d_19">
    <path d="M 551.042875 368.006393 
L 551.042875 244.437771 
" clip-path="url(#p5599e4cef1)" style="fill: none; stroke: #353535; stroke-width: 1.65; stroke-linecap: round"/>
   </g>
   <g id="line2d_20">
    <path d="M 551.042875 360.744023 
L 551.042875 314.045552 
" clip-path="url(#p5599e4cef1)" style="fill: none; stroke: #353535; stroke-width: 4.95; stroke-linecap: round"/>
   </g>
   <g id="line2d_21">
    <path d="M 551.042875 342.626114 
" clip-path="url(#p5599e4cef1)" style="fill: none; stroke: #353535; stroke-width: 1.5; stroke-linecap: round"/>
    <g clip-path="url(#p5599e4cef1)">
     <use xlink:href="#m368323edb1" x="551.042875" y="342.626114" style="fill: #ffffff; stroke: #ffffff; stroke-width: 0.99"/>
    </g>
   </g>
   <g id="patch_3">
    <path d="M 55.039375 385.884 
L 55.039375 7.2 
" style="fill: none; stroke: #cccccc; stroke-width: 1.25; stroke-linejoin: miter; stroke-linecap: square"/>
   </g>
   <g id="patch_4">
    <path d="M 606.154375 385.884 
L 606.154375 7.2 
" style="fill: none; stroke: #cccccc; stroke-width: 1.25; stroke-linejoin: miter; stroke-linecap: square"/>
   </g>
   <g id="patch_5">
    <path d="M 55.039375 385.884 
L 606.154375 385.884 
" style="fill: none; stroke: #cccccc; stroke-width: 1.25; stroke-linejoin: miter; stroke-linecap: square"/>
   </g>
   <g id="patch_6">
    <path d="M 55.039375 7.2 
L 606.154375 7.2 
" style="fill: none; stroke: #cccccc; stroke-width: 1.25; stroke-linejoin: miter; stroke-linecap: square"/>
   </g>
  </g>
 </g>
 <defs>
  <clipPath id="p5599e4cef1">
   <rect x="55.039375" y="7.2" width="551.115" height="378.684"/>
  </clipPath>
 </defs>
</svg>
