<?xml version="1.0" encoding="utf-8" standalone="no"?>
<!DOCTYPE svg PUBLIC "-//W3C//DTD SVG 1.1//EN"
  "http://www.w3.org/Graphics/SVG/1.1/DTD/svg11.dtd">
<svg xmlns:xlink="http://www.w3.org/1999/xlink" width="559.623437pt" height="414.482344pt" viewBox="0 0 559.623437 414.482344" xmlns="http://www.w3.org/2000/svg" version="1.1">
 <metadata>
  <rdf:RDF xmlns:dc="http://purl.org/dc/elements/1.1/" xmlns:cc="http://creativecommons.org/ns#" xmlns:rdf="http://www.w3.org/1999/02/22-rdf-syntax-ns#">
   <cc:Work>
    <dc:type rdf:resource="http://purl.org/dc/dcmitype/StillImage"/>
    <dc:date>2026-03-13T16:19:10.936396</dc:date>
    <dc:format>image/svg+xml</dc:format>
    <dc:creator>
     <cc:Agent>
      <dc:title>Matplotlib v3.10.0, https://matplotlib.org/</dc:title>
     </cc:Agent>
    </dc:creator>
   </cc:Work>
  </rdf:RDF>
 </metadata>
 <defs>
  <style type="text/css">*{stroke-linejoin: round; stroke-linecap: butt}</style>
 </defs>
 <g id="figure_1">
  <g id="patch_1">
   <path d="M 0 414.482344 
L 559.623437 414.482344 
L 559.623437 0 
L 0 0 
z
" style="fill: #ffffff"/>
  </g>
  <g id="axes_1">
   <g id="patch_2">
    <path d="M 54.723438 365.94 
L 552.423437 365.94 
L 552.423437 7.2 
L 54.723438 7.2 
z
" style="fill: #ffffff"/>
   </g>
   <g id="matplotlib.axis_1">
    <g id="xtick_1">
     <g id="line2d_1">
      <path d="M 54.723438 365.94 
L 54.723438 7.2 
" clip-path="url(#p72a9b2dc38)" style="fill: none; stroke-dasharray: 3.7,1.6; stroke-dashoffset: 0; stroke: #cccccc; stroke-opacity: 0.6"/>
     </g>
     <g id="text_1">
      <!-- 0 -->
      <g style="fill: #262626" transform="translate(51.108828 384.745156) scale(0.13 -0.13)">
       <defs>
        <path id="ArialMT-30" d="M 266 2259 
Q 266 3072 433 3567 
Q 600 4063 929 4331 
Q 1259 4600 1759 4600 
Q 2128 4600 2406 4451 
Q 2684 4303 2865 4023 
Q 3047 3744 3150 3342 
Q 3253 2941 3253 2259 
Q 3253 1453 3087 958 
Q 2922 463 2592 192 
Q 2263 -78 1759 -78 
Q 1097 -78 719 397 
Q 266 969 266 2259 
z
M 844 2259 
Q 844 1131 1108 757 
Q 1372 384 1759 384 
Q 2147 384 2411 759 
Q 2675 1134 2675 2259 
Q 2675 3391 2411 3762 
Q 2147 4134 1753 4134 
Q 1366 4134 1134 3806 
Q 844 3388 844 2259 
z
" transform="scale(0.015625)"/>
       </defs>
       <use xlink:href="#ArialMT-30"/>
      </g>
     </g>
    </g>
    <g id="xtick_2">
     <g id="line2d_2">
      <path d="M 139.432084 365.94 
L 139.432084 7.2 
" clip-path="url(#p72a9b2dc38)" style="fill: none; stroke-dasharray: 3.7,1.6; stroke-dashoffset: 0; stroke: #cccccc; stroke-opacity: 0.6"/>
     </g>
     <g id="text_2">
      <!-- 1 -->
      <g style="fill: #262626" transform="translate(135.817474 384.745156) scale(0.13 -0.13)">
       <defs>
        <path id="ArialMT-31" d="M 2384 0 
L 1822 0 
L 1822 3584 
Q 1619 3391 1289 3197 
Q 959 3003 697 2906 
L 697 3450 
Q 1169 3672 1522 3987 
Q 1875 4303 2022 4600 
L 2384 4600 
L 2384 0 
z
" transform="scale(0.015625)"/>
       </defs>
       <use xlink:href="#ArialMT-31"/>
      </g>
     </g>
    </g>
    <g id="xtick_3">
     <g id="line2d_3">
      <path d="M 224.14073 365.94 
L 224.14073 7.2 
" clip-path="url(#p72a9b2dc38)" style="fill: none; stroke-dasharray: 3.7,1.6; stroke-dashoffset: 0; stroke: #cccccc; stroke-opacity: 0.6"/>
     </g>
     <g id="text_3">
      <!-- 2 -->
      <g style="fill: #262626" transform="translate(220.526121 384.745156) scale(0.13 -0.13)">
       <defs>
        <path id="ArialMT-32" d="M 3222 541 
L 3222 0 
L 194 0 
Q 188 203 259 391 
Q 375 700 629 1000 
Q 884 1300 1366 1694 
Q 2113 2306 2375 2664 
Q 2638 3022 2638 3341 
Q 2638 3675 2398 3904 
Q 2159 4134 1775 4134 
Q 1369 4134 1125 3890 
Q 881 3647 878 3216 
L 300 3275 
Q 359 3922 746 4261 
Q 1134 4600 1788 4600 
Q 2447 4600 2831 4234 
Q 3216 3869 3216 3328 
Q 3216 3053 3103 2787 
Q 2991 2522 2730 2228 
Q 2469 1934 1863 1422 
Q 1356 997 1212 845 
Q 1069 694 975 541 
L 3222 541 
z
" transform="scale(0.015625)"/>
       </defs>
       <use xlink:href="#ArialMT-32"/>
      </g>
     </g>
    </g>
    <g id="xtick_4">
     <g id="line2d_4">
      <path d="M 308.849376 365.94 
L 308.849376 7.2 
" clip-path="url(#p72a9b2dc38)" style="fill: none; stroke-dasharray: 3.7,1.6; stroke-dashoffset: 0; stroke: #cccccc; stroke-opacity: 0.6"/>
     </g>
     <g id="text_4">
      <!-- 3 -->
      <g style="fill: #262626" transform="translate(305.234767 384.745156) scale(0.13 -0.13)">
       <defs>
        <path id="ArialMT-33" d="M 269 1209 
L 831 1284 
Q 928 806 1161 595 
Q 1394 384 1728 384 
Q 2125 384 2398 659 
Q 2672 934 2672 1341 
Q 2672 1728 2419 1979 
Q 2166 2231 1775 2231 
Q 1616 2231 1378 2169 
L 1441 2663 
Q 1497 2656 1531 2656 
Q 1891 2656 2178 2843 
Q 2466 3031 2466 3422 
Q 2466 3731 2256 3934 
Q 2047 4138 1716 4138 
Q 1388 4138 1169 3931 
Q 950 3725 888 3313 
L 325 3413 
Q 428 3978 793 4289 
Q 1159 4600 1703 4600 
Q 2078 4600 2393 4439 
Q 2709 4278 2876 4000 
Q 3044 3722 3044 3409 
Q 3044 3113 2884 2869 
Q 2725 2625 2413 2481 
Q 2819 2388 3044 2092 
Q 3269 1797 3269 1353 
Q 3269 753 2831 336 
Q 2394 -81 1725 -81 
Q 1122 -81 723 278 
Q 325 638 269 1209 
z
" transform="scale(0.015625)"/>
       </defs>
       <use xlink:href="#ArialMT-33"/>
      </g>
     </g>
    </g>
    <g id="xtick_5">
     <g id="line2d_5">
      <path d="M 393.558022 365.94 
L 393.558022 7.2 
" clip-path="url(#p72a9b2dc38)" style="fill: none; stroke-dasharray: 3.7,1.6; stroke-dashoffset: 0; stroke: #cccccc; stroke-opacity: 0.6"/>
     </g>
     <g id="text_5">
      <!-- 4 -->
      <g style="fill: #262626" transform="translate(389.943413 384.745156) scale(0.13 -0.13)">
       <defs>
        <path id="ArialMT-34" d="M 2069 0 
L 2069 1097 
L 81 1097 
L 81 1613 
L 2172 4581 
L 2631 4581 
L 2631 1613 
L 3250 1613 
L 3250 1097 
L 2631 1097 
L 2631 0 
L 2069 0 
z
M 2069 1613 
L 2069 3678 
L 634 1613 
L 2069 1613 
z
" transform="scale(0.015625)"/>
       </defs>
       <use xlink:href="#ArialMT-34"/>
      </g>
     </g>
    </g>
    <g id="xtick_6">
     <g id="line2d_6">
      <path d="M 478.266669 365.94 
L 478.266669 7.2 
" clip-path="url(#p72a9b2dc38)" style="fill: none; stroke-dasharray: 3.7,1.6; stroke-dashoffset: 0; stroke: #cccccc; stroke-opacity: 0.6"/>
     </g>
     <g id="text_6">
      <!-- 5 -->
      <g style="fill: #262626" transform="translate(474.652059 384.745156) scale(0.13 -0.13)">
       <defs>
        <path id="ArialMT-35" d="M 266 1200 
L 856 1250 
Q 922 819 1161 601 
Q 1400 384 1738 384 
Q 2144 384 2425 690 
Q 2706 997 2706 1503 
Q 2706 1984 2436 2262 
Q 2166 2541 1728 2541 
Q 1456 2541 1237 2417 
Q 1019 2294 894 2097 
L 366 2166 
L 809 4519 
L 3088 4519 
L 3088 3981 
L 1259 3981 
L 1013 2750 
Q 1425 3038 1878 3038 
Q 2478 3038 2890 2622 
Q 3303 2206 3303 1553 
Q 3303 931 2941 478 
Q 2500 -78 1738 -78 
Q 1113 -78 717 272 
Q 322 622 266 1200 
z
" transform="scale(0.015625)"/>
       </defs>
       <use xlink:href="#ArialMT-35"/>
      </g>
     </g>
    </g>
    <g id="text_7">
     <!-- Reaction Time (s) -->
     <g style="fill: #262626" transform="translate(232.88 403.704375) scale(0.17 -0.17)">
      <defs>
       <path id="Arial-BoldMT-52" d="M 469 0 
L 469 4581 
L 2416 4581 
Q 3150 4581 3483 4457 
Q 3816 4334 4016 4018 
Q 4216 3703 4216 3297 
Q 4216 2781 3912 2445 
Q 3609 2109 3006 2022 
Q 3306 1847 3501 1637 
Q 3697 1428 4028 894 
L 4588 0 
L 3481 0 
L 2813 997 
Q 2456 1531 2325 1670 
Q 2194 1809 2047 1861 
Q 1900 1913 1581 1913 
L 1394 1913 
L 1394 0 
L 469 0 
z
M 1394 2644 
L 2078 2644 
Q 2744 2644 2909 2700 
Q 3075 2756 3169 2893 
Q 3263 3031 3263 3238 
Q 3263 3469 3139 3611 
Q 3016 3753 2791 3791 
Q 2678 3806 2116 3806 
L 1394 3806 
L 1394 2644 
z
" transform="scale(0.015625)"/>
       <path id="Arial-BoldMT-65" d="M 2381 1056 
L 3256 909 
Q 3088 428 2723 176 
Q 2359 -75 1813 -75 
Q 947 -75 531 491 
Q 203 944 203 1634 
Q 203 2459 634 2926 
Q 1066 3394 1725 3394 
Q 2466 3394 2894 2905 
Q 3322 2416 3303 1406 
L 1103 1406 
Q 1113 1016 1316 798 
Q 1519 581 1822 581 
Q 2028 581 2168 693 
Q 2309 806 2381 1056 
z
M 2431 1944 
Q 2422 2325 2234 2523 
Q 2047 2722 1778 2722 
Q 1491 2722 1303 2513 
Q 1116 2303 1119 1944 
L 2431 1944 
z
" transform="scale(0.015625)"/>
       <path id="Arial-BoldMT-61" d="M 1116 2306 
L 319 2450 
Q 453 2931 781 3162 
Q 1109 3394 1756 3394 
Q 2344 3394 2631 3255 
Q 2919 3116 3036 2902 
Q 3153 2688 3153 2116 
L 3144 1091 
Q 3144 653 3186 445 
Q 3228 238 3344 0 
L 2475 0 
Q 2441 88 2391 259 
Q 2369 338 2359 363 
Q 2134 144 1878 34 
Q 1622 -75 1331 -75 
Q 819 -75 523 203 
Q 228 481 228 906 
Q 228 1188 362 1408 
Q 497 1628 739 1745 
Q 981 1863 1438 1950 
Q 2053 2066 2291 2166 
L 2291 2253 
Q 2291 2506 2166 2614 
Q 2041 2722 1694 2722 
Q 1459 2722 1328 2630 
Q 1197 2538 1116 2306 
z
M 2291 1594 
Q 2122 1538 1756 1459 
Q 1391 1381 1278 1306 
Q 1106 1184 1106 997 
Q 1106 813 1243 678 
Q 1381 544 1594 544 
Q 1831 544 2047 700 
Q 2206 819 2256 991 
Q 2291 1103 2291 1419 
L 2291 1594 
z
" transform="scale(0.015625)"/>
       <path id="Arial-BoldMT-63" d="M 3353 2338 
L 2488 2181 
Q 2444 2441 2289 2572 
Q 2134 2703 1888 2703 
Q 1559 2703 1364 2476 
Q 1169 2250 1169 1719 
Q 1169 1128 1367 884 
Q 1566 641 1900 641 
Q 2150 641 2309 783 
Q 2469 925 2534 1272 
L 3397 1125 
Q 3263 531 2881 228 
Q 2500 -75 1859 -75 
Q 1131 -75 698 384 
Q 266 844 266 1656 
Q 266 2478 700 2936 
Q 1134 3394 1875 3394 
Q 2481 3394 2839 3133 
Q 3197 2872 3353 2338 
z
" transform="scale(0.015625)"/>
       <path id="Arial-BoldMT-74" d="M 1981 3319 
L 1981 2619 
L 1381 2619 
L 1381 1281 
Q 1381 875 1398 808 
Q 1416 741 1477 697 
Q 1538 653 1625 653 
Q 1747 653 1978 738 
L 2053 56 
Q 1747 -75 1359 -75 
Q 1122 -75 931 4 
Q 741 84 652 211 
Q 563 338 528 553 
Q 500 706 500 1172 
L 500 2619 
L 97 2619 
L 97 3319 
L 500 3319 
L 500 3978 
L 1381 4491 
L 1381 3319 
L 1981 3319 
z
" transform="scale(0.015625)"/>
       <path id="Arial-BoldMT-69" d="M 459 3769 
L 459 4581 
L 1338 4581 
L 1338 3769 
L 459 3769 
z
M 459 0 
L 459 3319 
L 1338 3319 
L 1338 0 
L 459 0 
z
" transform="scale(0.015625)"/>
       <path id="Arial-BoldMT-6f" d="M 256 1706 
Q 256 2144 472 2553 
Q 688 2963 1083 3178 
Q 1478 3394 1966 3394 
Q 2719 3394 3200 2905 
Q 3681 2416 3681 1669 
Q 3681 916 3195 420 
Q 2709 -75 1972 -75 
Q 1516 -75 1102 131 
Q 688 338 472 736 
Q 256 1134 256 1706 
z
M 1156 1659 
Q 1156 1166 1390 903 
Q 1625 641 1969 641 
Q 2313 641 2545 903 
Q 2778 1166 2778 1666 
Q 2778 2153 2545 2415 
Q 2313 2678 1969 2678 
Q 1625 2678 1390 2415 
Q 1156 2153 1156 1659 
z
" transform="scale(0.015625)"/>
       <path id="Arial-BoldMT-6e" d="M 3478 0 
L 2600 0 
L 2600 1694 
Q 2600 2231 2544 2389 
Q 2488 2547 2361 2634 
Q 2234 2722 2056 2722 
Q 1828 2722 1647 2597 
Q 1466 2472 1398 2265 
Q 1331 2059 1331 1503 
L 1331 0 
L 453 0 
L 453 3319 
L 1269 3319 
L 1269 2831 
Q 1703 3394 2363 3394 
Q 2653 3394 2893 3289 
Q 3134 3184 3257 3021 
Q 3381 2859 3429 2653 
Q 3478 2447 3478 2063 
L 3478 0 
z
" transform="scale(0.015625)"/>
       <path id="Arial-BoldMT-20" transform="scale(0.015625)"/>
       <path id="Arial-BoldMT-54" d="M 1497 0 
L 1497 3806 
L 138 3806 
L 138 4581 
L 3778 4581 
L 3778 3806 
L 2422 3806 
L 2422 0 
L 1497 0 
z
" transform="scale(0.015625)"/>
       <path id="Arial-BoldMT-6d" d="M 394 3319 
L 1203 3319 
L 1203 2866 
Q 1638 3394 2238 3394 
Q 2556 3394 2790 3262 
Q 3025 3131 3175 2866 
Q 3394 3131 3647 3262 
Q 3900 3394 4188 3394 
Q 4553 3394 4806 3245 
Q 5059 3097 5184 2809 
Q 5275 2597 5275 2122 
L 5275 0 
L 4397 0 
L 4397 1897 
Q 4397 2391 4306 2534 
Q 4184 2722 3931 2722 
Q 3747 2722 3584 2609 
Q 3422 2497 3350 2280 
Q 3278 2063 3278 1594 
L 3278 0 
L 2400 0 
L 2400 1819 
Q 2400 2303 2353 2443 
Q 2306 2584 2207 2653 
Q 2109 2722 1941 2722 
Q 1738 2722 1575 2612 
Q 1413 2503 1342 2297 
Q 1272 2091 1272 1613 
L 1272 0 
L 394 0 
L 394 3319 
z
" transform="scale(0.015625)"/>
       <path id="Arial-BoldMT-28" d="M 1916 -1347 
L 1313 -1347 
Q 834 -625 584 153 
Q 334 931 334 1659 
Q 334 2563 644 3369 
Q 913 4069 1325 4659 
L 1925 4659 
Q 1497 3713 1336 3048 
Q 1175 2384 1175 1641 
Q 1175 1128 1270 590 
Q 1366 53 1531 -431 
Q 1641 -750 1916 -1347 
z
" transform="scale(0.015625)"/>
       <path id="Arial-BoldMT-73" d="M 150 947 
L 1031 1081 
Q 1088 825 1259 692 
Q 1431 559 1741 559 
Q 2081 559 2253 684 
Q 2369 772 2369 919 
Q 2369 1019 2306 1084 
Q 2241 1147 2013 1200 
Q 950 1434 666 1628 
Q 272 1897 272 2375 
Q 272 2806 612 3100 
Q 953 3394 1669 3394 
Q 2350 3394 2681 3172 
Q 3013 2950 3138 2516 
L 2309 2363 
Q 2256 2556 2107 2659 
Q 1959 2763 1684 2763 
Q 1338 2763 1188 2666 
Q 1088 2597 1088 2488 
Q 1088 2394 1175 2328 
Q 1294 2241 1995 2081 
Q 2697 1922 2975 1691 
Q 3250 1456 3250 1038 
Q 3250 581 2869 253 
Q 2488 -75 1741 -75 
Q 1063 -75 667 200 
Q 272 475 150 947 
z
" transform="scale(0.015625)"/>
       <path id="Arial-BoldMT-29" d="M 216 -1347 
Q 475 -791 581 -494 
Q 688 -197 778 190 
Q 869 578 912 926 
Q 956 1275 956 1641 
Q 956 2384 797 3048 
Q 638 3713 209 4659 
L 806 4659 
Q 1278 3988 1539 3234 
Q 1800 2481 1800 1706 
Q 1800 1053 1594 306 
Q 1359 -531 822 -1347 
L 216 -1347 
z
" transform="scale(0.015625)"/>
      </defs>
      <use xlink:href="#Arial-BoldMT-52"/>
      <use xlink:href="#Arial-BoldMT-65" transform="translate(72.216797 0)"/>
      <use xlink:href="#Arial-BoldMT-61" transform="translate(127.832031 0)"/>
      <use xlink:href="#Arial-BoldMT-63" transform="translate(183.447266 0)"/>
      <use xlink:href="#Arial-BoldMT-74" transform="translate(239.0625 0)"/>
      <use xlink:href="#Arial-BoldMT-69" transform="translate(272.363281 0)"/>
      <use xlink:href="#Arial-BoldMT-6f" transform="translate(300.146484 0)"/>
      <use xlink:href="#Arial-BoldMT-6e" transform="translate(361.230469 0)"/>
      <use xlink:href="#Arial-BoldMT-20" transform="translate(422.314453 0)"/>
      <use xlink:href="#Arial-BoldMT-54" transform="translate(450.097656 0)"/>
      <use xlink:href="#Arial-BoldMT-69" transform="translate(509.431641 0)"/>
      <use xlink:href="#Arial-BoldMT-6d" transform="translate(537.214844 0)"/>
      <use xlink:href="#Arial-BoldMT-65" transform="translate(626.130859 0)"/>
      <use xlink:href="#Arial-BoldMT-20" transform="translate(681.746094 0)"/>
      <use xlink:href="#Arial-BoldMT-28" transform="translate(709.529297 0)"/>
      <use xlink:href="#Arial-BoldMT-73" transform="translate(742.830078 0)"/>
      <use xlink:href="#Arial-BoldMT-29" transform="translate(798.445312 0)"/>
     </g>
    </g>
   </g>
   <g id="matplotlib.axis_2">
    <g id="ytick_1">
     <g id="line2d_7">
      <path d="M 54.723438 349.932288 
L 552.423437 349.932288 
" clip-path="url(#p72a9b2dc38)" style="fill: none; stroke-dasharray: 3.7,1.6; stroke-dashoffset: 0; stroke: #cccccc; stroke-opacity: 0.6"/>
     </g>
     <g id="text_8">
      <!-- 0.0 -->
      <g style="fill: #262626" transform="translate(27.153438 354.584866) scale(0.13 -0.13)">
       <defs>
        <path id="ArialMT-2e" d="M 581 0 
L 581 641 
L 1222 641 
L 1222 0 
L 581 0 
z
" transform="scale(0.015625)"/>
       </defs>
       <use xlink:href="#ArialMT-30"/>
       <use xlink:href="#ArialMT-2e" transform="translate(55.615234 0)"/>
       <use xlink:href="#ArialMT-30" transform="translate(83.398438 0)"/>
      </g>
     </g>
    </g>
    <g id="ytick_2">
     <g id="line2d_8">
      <path d="M 54.723438 284.647103 
L 552.423437 284.647103 
" clip-path="url(#p72a9b2dc38)" style="fill: none; stroke-dasharray: 3.7,1.6; stroke-dashoffset: 0; stroke: #cccccc; stroke-opacity: 0.6"/>
     </g>
     <g id="text_9">
      <!-- 0.2 -->
      <g style="fill: #262626" transform="translate(27.153438 289.299681) scale(0.13 -0.13)">
       <use xlink:href="#ArialMT-30"/>
       <use xlink:href="#ArialMT-2e" transform="translate(55.615234 0)"/>
       <use xlink:href="#ArialMT-32" transform="translate(83.398438 0)"/>
      </g>
     </g>
    </g>
    <g id="ytick_3">
     <g id="line2d_9">
      <path d="M 54.723438 219.361918 
L 552.423437 219.361918 
" clip-path="url(#p72a9b2dc38)" style="fill: none; stroke-dasharray: 3.7,1.6; stroke-dashoffset: 0; stroke: #cccccc; stroke-opacity: 0.6"/>
     </g>
     <g id="text_10">
      <!-- 0.4 -->
      <g style="fill: #262626" transform="translate(27.153438 224.014496) scale(0.13 -0.13)">
       <use xlink:href="#ArialMT-30"/>
       <use xlink:href="#ArialMT-2e" transform="translate(55.615234 0)"/>
       <use xlink:href="#ArialMT-34" transform="translate(83.398438 0)"/>
      </g>
     </g>
    </g>
    <g id="ytick_4">
     <g id="line2d_10">
      <path d="M 54.723438 154.076733 
L 552.423437 154.076733 
" clip-path="url(#p72a9b2dc38)" style="fill: none; stroke-dasharray: 3.7,1.6; stroke-dashoffset: 0; stroke: #cccccc; stroke-opacity: 0.6"/>
     </g>
     <g id="text_11">
      <!-- 0.6 -->
      <g style="fill: #262626" transform="translate(27.153438 158.729311) scale(0.13 -0.13)">
       <defs>
        <path id="ArialMT-36" d="M 3184 3459 
L 2625 3416 
Q 2550 3747 2413 3897 
Q 2184 4138 1850 4138 
Q 1581 4138 1378 3988 
Q 1113 3794 959 3422 
Q 806 3050 800 2363 
Q 1003 2672 1297 2822 
Q 1591 2972 1913 2972 
Q 2475 2972 2870 2558 
Q 3266 2144 3266 1488 
Q 3266 1056 3080 686 
Q 2894 316 2569 119 
Q 2244 -78 1831 -78 
Q 1128 -78 684 439 
Q 241 956 241 2144 
Q 241 3472 731 4075 
Q 1159 4600 1884 4600 
Q 2425 4600 2770 4297 
Q 3116 3994 3184 3459 
z
M 888 1484 
Q 888 1194 1011 928 
Q 1134 663 1356 523 
Q 1578 384 1822 384 
Q 2178 384 2434 671 
Q 2691 959 2691 1453 
Q 2691 1928 2437 2201 
Q 2184 2475 1800 2475 
Q 1419 2475 1153 2201 
Q 888 1928 888 1484 
z
" transform="scale(0.015625)"/>
       </defs>
       <use xlink:href="#ArialMT-30"/>
       <use xlink:href="#ArialMT-2e" transform="translate(55.615234 0)"/>
       <use xlink:href="#ArialMT-36" transform="translate(83.398438 0)"/>
      </g>
     </g>
    </g>
    <g id="ytick_5">
     <g id="line2d_11">
      <path d="M 54.723438 88.791548 
L 552.423437 88.791548 
" clip-path="url(#p72a9b2dc38)" style="fill: none; stroke-dasharray: 3.7,1.6; stroke-dashoffset: 0; stroke: #cccccc; stroke-opacity: 0.6"/>
     </g>
     <g id="text_12">
      <!-- 0.8 -->
      <g style="fill: #262626" transform="translate(27.153438 93.444127) scale(0.13 -0.13)">
       <defs>
        <path id="ArialMT-38" d="M 1131 2484 
Q 781 2613 612 2850 
Q 444 3088 444 3419 
Q 444 3919 803 4259 
Q 1163 4600 1759 4600 
Q 2359 4600 2725 4251 
Q 3091 3903 3091 3403 
Q 3091 3084 2923 2848 
Q 2756 2613 2416 2484 
Q 2838 2347 3058 2040 
Q 3278 1734 3278 1309 
Q 3278 722 2862 322 
Q 2447 -78 1769 -78 
Q 1091 -78 675 323 
Q 259 725 259 1325 
Q 259 1772 486 2073 
Q 713 2375 1131 2484 
z
M 1019 3438 
Q 1019 3113 1228 2906 
Q 1438 2700 1772 2700 
Q 2097 2700 2305 2904 
Q 2513 3109 2513 3406 
Q 2513 3716 2298 3927 
Q 2084 4138 1766 4138 
Q 1444 4138 1231 3931 
Q 1019 3725 1019 3438 
z
M 838 1322 
Q 838 1081 952 856 
Q 1066 631 1291 507 
Q 1516 384 1775 384 
Q 2178 384 2440 643 
Q 2703 903 2703 1303 
Q 2703 1709 2433 1975 
Q 2163 2241 1756 2241 
Q 1359 2241 1098 1978 
Q 838 1716 838 1322 
z
" transform="scale(0.015625)"/>
       </defs>
       <use xlink:href="#ArialMT-30"/>
       <use xlink:href="#ArialMT-2e" transform="translate(55.615234 0)"/>
       <use xlink:href="#ArialMT-38" transform="translate(83.398438 0)"/>
      </g>
     </g>
    </g>
    <g id="ytick_6">
     <g id="line2d_12">
      <path d="M 54.723438 23.506364 
L 552.423437 23.506364 
" clip-path="url(#p72a9b2dc38)" style="fill: none; stroke-dasharray: 3.7,1.6; stroke-dashoffset: 0; stroke: #cccccc; stroke-opacity: 0.6"/>
     </g>
     <g id="text_13">
      <!-- 1.0 -->
      <g style="fill: #262626" transform="translate(27.153438 28.158942) scale(0.13 -0.13)">
       <use xlink:href="#ArialMT-31"/>
       <use xlink:href="#ArialMT-2e" transform="translate(55.615234 0)"/>
       <use xlink:href="#ArialMT-30" transform="translate(83.398438 0)"/>
      </g>
     </g>
    </g>
    <g id="text_14">
     <!-- Cumulative Probability -->
     <g style="fill: #262626" transform="translate(19.575469 278.666172) rotate(-90) scale(0.17 -0.17)">
      <defs>
       <path id="Arial-BoldMT-43" d="M 3397 1684 
L 4294 1400 
Q 4088 650 3608 286 
Q 3128 -78 2391 -78 
Q 1478 -78 890 545 
Q 303 1169 303 2250 
Q 303 3394 893 4026 
Q 1484 4659 2447 4659 
Q 3288 4659 3813 4163 
Q 4125 3869 4281 3319 
L 3366 3100 
Q 3284 3456 3026 3662 
Q 2769 3869 2400 3869 
Q 1891 3869 1573 3503 
Q 1256 3138 1256 2319 
Q 1256 1450 1568 1081 
Q 1881 713 2381 713 
Q 2750 713 3015 947 
Q 3281 1181 3397 1684 
z
" transform="scale(0.015625)"/>
       <path id="Arial-BoldMT-75" d="M 2644 0 
L 2644 497 
Q 2463 231 2167 78 
Q 1872 -75 1544 -75 
Q 1209 -75 943 72 
Q 678 219 559 484 
Q 441 750 441 1219 
L 441 3319 
L 1319 3319 
L 1319 1794 
Q 1319 1094 1367 936 
Q 1416 778 1544 686 
Q 1672 594 1869 594 
Q 2094 594 2272 717 
Q 2450 841 2515 1023 
Q 2581 1206 2581 1919 
L 2581 3319 
L 3459 3319 
L 3459 0 
L 2644 0 
z
" transform="scale(0.015625)"/>
       <path id="Arial-BoldMT-6c" d="M 459 0 
L 459 4581 
L 1338 4581 
L 1338 0 
L 459 0 
z
" transform="scale(0.015625)"/>
       <path id="Arial-BoldMT-76" d="M 1372 0 
L 34 3319 
L 956 3319 
L 1581 1625 
L 1763 1059 
Q 1834 1275 1853 1344 
Q 1897 1484 1947 1625 
L 2578 3319 
L 3481 3319 
L 2163 0 
L 1372 0 
z
" transform="scale(0.015625)"/>
       <path id="Arial-BoldMT-50" d="M 466 0 
L 466 4581 
L 1950 4581 
Q 2794 4581 3050 4513 
Q 3444 4409 3709 4064 
Q 3975 3719 3975 3172 
Q 3975 2750 3822 2462 
Q 3669 2175 3433 2011 
Q 3197 1847 2953 1794 
Q 2622 1728 1994 1728 
L 1391 1728 
L 1391 0 
L 466 0 
z
M 1391 3806 
L 1391 2506 
L 1897 2506 
Q 2444 2506 2628 2578 
Q 2813 2650 2917 2803 
Q 3022 2956 3022 3159 
Q 3022 3409 2875 3571 
Q 2728 3734 2503 3775 
Q 2338 3806 1838 3806 
L 1391 3806 
z
" transform="scale(0.015625)"/>
       <path id="Arial-BoldMT-72" d="M 1300 0 
L 422 0 
L 422 3319 
L 1238 3319 
L 1238 2847 
Q 1447 3181 1614 3287 
Q 1781 3394 1994 3394 
Q 2294 3394 2572 3228 
L 2300 2463 
Q 2078 2606 1888 2606 
Q 1703 2606 1575 2504 
Q 1447 2403 1373 2137 
Q 1300 1872 1300 1025 
L 1300 0 
z
" transform="scale(0.015625)"/>
       <path id="Arial-BoldMT-62" d="M 422 0 
L 422 4581 
L 1300 4581 
L 1300 2931 
Q 1706 3394 2263 3394 
Q 2869 3394 3266 2955 
Q 3663 2516 3663 1694 
Q 3663 844 3258 384 
Q 2853 -75 2275 -75 
Q 1991 -75 1714 67 
Q 1438 209 1238 488 
L 1238 0 
L 422 0 
z
M 1294 1731 
Q 1294 1216 1456 969 
Q 1684 619 2063 619 
Q 2353 619 2558 867 
Q 2763 1116 2763 1650 
Q 2763 2219 2556 2470 
Q 2350 2722 2028 2722 
Q 1713 2722 1503 2476 
Q 1294 2231 1294 1731 
z
" transform="scale(0.015625)"/>
       <path id="Arial-BoldMT-79" d="M 44 3319 
L 978 3319 
L 1772 963 
L 2547 3319 
L 3456 3319 
L 2284 125 
L 2075 -453 
Q 1959 -744 1854 -897 
Q 1750 -1050 1614 -1145 
Q 1478 -1241 1279 -1294 
Q 1081 -1347 831 -1347 
Q 578 -1347 334 -1294 
L 256 -606 
Q 463 -647 628 -647 
Q 934 -647 1081 -467 
Q 1228 -288 1306 -9 
L 44 3319 
z
" transform="scale(0.015625)"/>
      </defs>
      <use xlink:href="#Arial-BoldMT-43"/>
      <use xlink:href="#Arial-BoldMT-75" transform="translate(72.216797 0)"/>
      <use xlink:href="#Arial-BoldMT-6d" transform="translate(133.300781 0)"/>
      <use xlink:href="#Arial-BoldMT-75" transform="translate(222.216797 0)"/>
      <use xlink:href="#Arial-BoldMT-6c" transform="translate(283.300781 0)"/>
      <use xlink:href="#Arial-BoldMT-61" transform="translate(311.083984 0)"/>
      <use xlink:href="#Arial-BoldMT-74" transform="translate(366.699219 0)"/>
      <use xlink:href="#Arial-BoldMT-69" transform="translate(400 0)"/>
      <use xlink:href="#Arial-BoldMT-76" transform="translate(427.783203 0)"/>
      <use xlink:href="#Arial-BoldMT-65" transform="translate(483.398438 0)"/>
      <use xlink:href="#Arial-BoldMT-20" transform="translate(539.013672 0)"/>
      <use xlink:href="#Arial-BoldMT-50" transform="translate(566.796875 0)"/>
      <use xlink:href="#Arial-BoldMT-72" transform="translate(633.496094 0)"/>
      <use xlink:href="#Arial-BoldMT-6f" transform="translate(672.412109 0)"/>
      <use xlink:href="#Arial-BoldMT-62" transform="translate(733.496094 0)"/>
      <use xlink:href="#Arial-BoldMT-61" transform="translate(794.580078 0)"/>
      <use xlink:href="#Arial-BoldMT-62" transform="translate(850.195312 0)"/>
      <use xlink:href="#Arial-BoldMT-69" transform="translate(911.279297 0)"/>
      <use xlink:href="#Arial-BoldMT-6c" transform="translate(939.0625 0)"/>
      <use xlink:href="#Arial-BoldMT-69" transform="translate(966.845703 0)"/>
      <use xlink:href="#Arial-BoldMT-74" transform="translate(994.628906 0)"/>
      <use xlink:href="#Arial-BoldMT-79" transform="translate(1027.929688 0)"/>
     </g>
    </g>
   </g>
   <g id="line2d_13">
    <path d="M 71.962094 349.633636 
L 72.212627 349.334985 
L 75.722328 348.439031 
L 75.730891 348.14038 
L 75.959572 347.543077 
L 76.033853 346.647123 
L 76.270572 345.153866 
L 76.630002 344.257912 
L 76.693499 343.959261 
L 76.986059 343.660609 
L 78.070692 338.882188 
L 78.202451 335.895674 
L 78.326334 335.298372 
L 78.698084 332.013207 
L 78.888453 331.714555 
L 79.057979 329.922647 
L 79.227505 329.325345 
L 79.51948 326.338831 
L 79.784635 322.456364 
L 80.044398 320.963107 
L 80.126878 320.067153 
L 80.611181 318.275245 
L 80.799853 317.379291 
L 80.933976 316.781988 
L 81.038895 315.587383 
L 81.331819 312.89952 
L 81.559187 310.211658 
L 81.687513 309.913007 
L 81.814809 309.017053 
L 82.878054 301.252118 
L 83.076784 300.057512 
L 83.3256 297.668302 
L 83.642174 294.681788 
L 83.775387 294.084486 
L 84.285137 291.993926 
L 84.444586 290.500669 
L 84.605832 288.41011 
L 85.145472 286.31955 
L 85.356642 285.722248 
L 85.592977 283.333037 
L 85.824001 283.034386 
L 86.251451 281.83978 
L 86.49954 281.242478 
L 86.763382 279.450569 
L 87.026437 278.255964 
L 87.053722 277.957313 
L 87.56947 277.061359 
L 87.615638 275.866753 
L 87.773269 275.568102 
L 88.071869 275.269451 
L 88.208071 274.672148 
L 88.531674 273.178891 
L 88.722931 272.88024 
L 88.744278 272.581588 
L 88.990832 272.282937 
L 89.141616 271.386983 
L 89.827759 269.296424 
L 89.971475 268.997772 
L 90.146939 267.803167 
L 90.58784 265.413956 
L 90.950845 264.816653 
L 91.07386 263.920699 
L 91.295249 263.622048 
L 91.311285 263.024745 
L 91.564968 262.726094 
L 91.738534 262.128791 
L 92.901931 257.649021 
L 93.050938 257.35037 
L 93.065055 257.051718 
L 93.598293 255.558462 
L 93.711977 254.662507 
L 93.985493 254.363856 
L 94.521296 252.571948 
L 94.528445 252.273297 
L 94.758742 251.974645 
L 94.905507 251.078691 
L 95.149052 250.78004 
L 95.160745 250.481389 
L 95.472917 249.585435 
L 95.800599 248.092178 
L 95.817059 247.793526 
L 96.633749 246.001618 
L 97.075701 245.702967 
L 97.199907 244.508362 
L 97.536677 243.911059 
L 97.709879 243.015105 
L 97.98499 241.8205 
L 98.409371 240.028591 
L 98.607657 239.72994 
L 98.705648 239.132637 
L 99.452662 238.535335 
L 99.467809 238.236683 
L 99.706022 237.938032 
L 99.884314 237.042078 
L 100.228274 236.146124 
L 100.704781 235.25017 
L 100.707346 234.652867 
L 100.848981 234.354216 
L 100.860493 234.055564 
L 101.272171 233.458262 
L 101.337889 232.860959 
L 101.786283 231.367702 
L 102.19172 230.7704 
L 102.54699 230.173097 
L 103.062819 228.082537 
L 103.131162 227.186583 
L 103.470982 226.589281 
L 103.664279 225.991978 
L 105.117269 225.394675 
L 105.195872 224.797373 
L 105.532299 224.498721 
L 105.703097 223.901419 
L 105.801897 223.602767 
L 106.358724 223.304116 
L 106.612649 222.10951 
L 106.763191 221.810859 
L 107.153017 221.512208 
L 107.368206 220.914905 
L 107.654022 220.616254 
L 107.782166 219.421648 
L 108.179565 218.824346 
L 108.396007 217.62974 
L 108.697232 217.032438 
L 109.034487 216.733786 
L 109.311759 216.136484 
L 109.32525 215.837832 
L 110.074021 215.240529 
L 110.112798 214.941878 
L 110.616549 214.643227 
L 110.927792 213.747273 
L 111.008556 212.851319 
L 111.448104 211.955365 
L 111.475975 211.656713 
L 111.666566 211.358062 
L 111.978596 209.864805 
L 112.186838 208.968851 
L 112.2221 208.371548 
L 112.575532 208.072897 
L 112.640281 207.774246 
L 113.096875 207.475594 
L 113.326626 206.878292 
L 113.693145 206.57964 
L 113.840778 205.982338 
L 113.952604 205.385035 
L 114.05924 205.086384 
L 114.787734 204.787732 
L 115.19303 203.891778 
L 115.252467 203.294476 
L 116.35362 202.398521 
L 116.900732 200.009311 
L 117.311582 199.710659 
L 117.587905 198.814705 
L 117.850677 198.516054 
L 118.182721 197.022797 
L 118.858806 196.425495 
L 118.923918 196.126843 
L 119.563368 195.230889 
L 119.83032 194.633586 
L 119.851728 194.334935 
L 119.985164 194.036284 
L 120.507354 193.737632 
L 120.885931 192.841678 
L 121.419371 192.543027 
L 121.461621 192.244376 
L 122.172544 191.945724 
L 123.252875 191.647073 
L 123.673358 191.348422 
L 123.73229 190.452468 
L 124.169637 190.153816 
L 124.315736 189.855165 
L 124.619183 189.556513 
L 124.70439 189.257862 
L 124.906089 188.959211 
L 125.669098 188.660559 
L 125.706198 188.361908 
L 126.065648 188.063257 
L 126.069304 187.764605 
L 126.765888 186.868651 
L 126.822437 186.57 
L 127.22121 185.972697 
L 127.259037 185.674046 
L 128.131307 185.076743 
L 128.462281 184.778092 
L 128.540763 184.479441 
L 129.091976 184.180789 
L 129.630323 182.687532 
L 129.684429 182.388881 
L 130.074476 181.791578 
L 130.126077 181.194276 
L 130.39002 180.895624 
L 130.476743 180.596973 
L 131.044758 180.298322 
L 131.066853 179.99967 
L 132.547571 177.013157 
L 133.079901 176.415854 
L 133.193686 176.117203 
L 133.527992 175.818551 
L 133.605848 175.221249 
L 133.75229 174.922597 
L 134.103117 174.623946 
L 134.19816 174.026643 
L 134.695327 173.727992 
L 135.065461 173.130689 
L 135.07041 172.832038 
L 135.572303 172.234735 
L 136.119133 171.04013 
L 136.771104 170.741479 
L 136.955434 170.144176 
L 137.242562 169.845524 
L 137.441918 168.650919 
L 137.964452 168.352268 
L 138.851102 167.456314 
L 139.227093 167.157662 
L 139.358994 166.859011 
L 139.830392 166.56036 
L 140.557553 166.261708 
L 141.477324 165.067103 
L 142.078987 164.768452 
L 142.276363 164.171149 
L 142.994658 163.275195 
L 143.244141 162.379241 
L 143.868645 162.080589 
L 144.029608 161.483287 
L 144.575186 161.184635 
L 145.46636 159.99003 
L 145.722891 159.691379 
L 145.802524 159.392727 
L 146.2284 158.795425 
L 146.233024 158.496773 
L 146.467865 158.198122 
L 147.409771 157.600819 
L 147.511903 157.302168 
L 148.413761 157.003516 
L 148.419617 156.704865 
L 149.182586 156.107562 
L 150.910485 154.614306 
L 150.948373 154.315654 
L 151.326364 154.017003 
L 151.425486 153.718352 
L 151.802103 153.4197 
L 152.932157 151.627792 
L 153.27545 151.329141 
L 153.430132 150.731838 
L 153.773991 150.433187 
L 153.778071 150.134535 
L 154.255951 149.537233 
L 154.506626 149.238581 
L 154.656218 148.641279 
L 155.642314 147.446673 
L 156.605204 147.148022 
L 156.930907 145.953417 
L 157.000381 145.654765 
L 157.69636 144.758811 
L 158.301112 144.46016 
L 158.526319 143.862857 
L 158.540194 143.564206 
L 158.829543 142.966903 
L 159.840076 142.3696 
L 159.902361 142.070949 
L 160.76631 141.473646 
L 160.821304 141.174995 
L 161.024477 140.876344 
L 161.050147 140.577692 
L 161.192368 140.279041 
L 161.928233 139.383087 
L 162.810299 139.084436 
L 163.123561 138.487133 
L 163.582639 138.188482 
L 163.59102 137.88983 
L 164.114705 137.292527 
L 164.309678 136.695225 
L 165.240154 136.396573 
L 165.533341 135.799271 
L 166.327937 135.201968 
L 166.376327 134.604665 
L 167.734253 134.007363 
L 167.804697 133.708711 
L 168.897327 133.41006 
L 169.205883 132.812757 
L 169.31991 131.916803 
L 169.707494 131.3195 
L 170.10871 130.124895 
L 170.609251 129.826244 
L 170.889674 128.93029 
L 171.250195 128.631638 
L 171.454054 128.034336 
L 172.030471 126.83973 
L 172.334181 126.541079 
L 172.484096 125.943776 
L 172.606545 125.346474 
L 172.977528 125.047822 
L 173.055546 124.749171 
L 173.781757 124.151868 
L 173.897077 123.853217 
L 174.199898 123.554565 
L 174.363648 122.957263 
L 175.275866 121.464006 
L 175.655371 121.165355 
L 175.792624 120.269401 
L 176.23912 119.970749 
L 176.247521 119.672098 
L 177.759887 118.477493 
L 178.520937 118.178841 
L 179.065384 117.581538 
L 179.077906 117.282887 
L 180.087974 116.984236 
L 180.390068 116.685584 
L 180.398146 116.386933 
L 181.141706 116.088282 
L 181.405932 115.78963 
L 181.432106 115.490979 
L 181.808279 115.192328 
L 181.891588 114.893676 
L 182.316474 114.595025 
L 182.782419 113.40042 
L 183.30877 113.101768 
L 184.412588 112.803117 
L 185.367461 112.205814 
L 185.399573 111.608511 
L 185.80402 111.30986 
L 185.943555 110.712557 
L 186.341802 110.413906 
L 186.488911 109.816603 
L 186.940758 109.517952 
L 186.954391 109.219301 
L 187.304935 108.920649 
L 187.731719 107.726044 
L 188.118232 107.427393 
L 188.720016 106.232787 
L 188.922401 105.934136 
L 189.477815 105.635485 
L 189.794651 105.038182 
L 190.667224 104.73953 
L 191.120264 104.440879 
L 192.469081 102.648971 
L 192.888211 102.35032 
L 193.843387 102.051668 
L 193.918314 101.753017 
L 194.538113 101.454366 
L 194.821181 100.857063 
L 194.844003 100.558412 
L 195.313785 99.961109 
L 196.062576 99.662458 
L 196.144875 99.363806 
L 196.752617 99.065155 
L 197.086883 98.467852 
L 198.123771 98.169201 
L 198.367639 97.571898 
L 198.412556 97.273247 
L 199.214907 96.078641 
L 200.244384 95.481339 
L 200.264883 95.182687 
L 200.60963 94.884036 
L 200.767827 94.585385 
L 200.820195 93.988082 
L 201.634119 92.196174 
L 202.169498 91.897522 
L 202.218493 91.598871 
L 202.500471 91.30022 
L 202.628272 90.702917 
L 202.673189 90.105614 
L 202.765667 89.508312 
L 203.431028 89.20966 
L 203.503269 88.911009 
L 204.69894 88.313706 
L 205.005295 88.015055 
L 205.669888 87.716404 
L 205.83071 87.417752 
L 206.576492 87.119101 
L 207.732033 86.82045 
L 208.14062 86.223147 
L 208.53913 85.924496 
L 208.677453 85.327193 
L 209.32072 85.028541 
L 209.335099 84.72989 
L 210.38459 84.431239 
L 210.783524 84.132587 
L 210.919909 83.236633 
L 211.765015 82.937982 
L 212.170634 82.639331 
L 212.252044 82.340679 
L 213.215965 82.042028 
L 213.35039 81.743377 
L 213.777477 81.444725 
L 214.009975 81.146074 
L 216.174352 80.847423 
L 216.262347 80.548771 
L 217.097456 79.951469 
L 217.124418 79.652817 
L 218.742591 79.354166 
L 219.112382 79.055514 
L 219.768958 78.756863 
L 220.210505 78.15956 
L 220.272245 77.562258 
L 221.980776 77.263606 
L 222.096095 76.666304 
L 222.991672 76.367652 
L 223.161663 76.069001 
L 224.129259 75.77035 
L 224.631516 75.173047 
L 224.730517 74.874396 
L 225.851886 74.575744 
L 226.513632 73.978442 
L 226.712382 73.381139 
L 227.785583 72.783836 
L 228.169128 72.186533 
L 228.487398 71.589231 
L 229.787483 70.693277 
L 231.010681 70.095974 
L 232.363538 69.797323 
L 232.619786 69.20002 
L 232.942884 68.901369 
L 233.479151 68.602717 
L 233.58203 68.304066 
L 235.214846 68.005415 
L 235.86714 67.408112 
L 236.719416 67.109461 
L 239.615155 65.018901 
L 240.249596 64.72025 
L 240.333511 64.421598 
L 240.705584 64.122947 
L 242.629284 63.824296 
L 242.6495 63.525644 
L 244.902962 63.226993 
L 245.841254 62.62969 
L 246.79655 62.331039 
L 247.911335 61.136434 
L 247.935005 60.837782 
L 249.252418 60.539131 
L 249.289942 60.24048 
L 250.131615 59.941828 
L 250.657118 59.344525 
L 251.282713 59.045874 
L 251.812861 58.448571 
L 254.000787 58.14992 
L 254.655646 57.851269 
L 256.090459 57.552617 
L 256.466935 57.253966 
L 258.493453 56.656663 
L 258.683176 56.358012 
L 260.289554 55.760709 
L 260.528676 55.462058 
L 260.594475 55.163407 
L 261.209912 54.864755 
L 262.67823 54.566104 
L 263.42383 53.968801 
L 266.698953 53.371499 
L 268.48334 52.475544 
L 269.58413 52.176893 
L 269.860776 51.878242 
L 269.925767 51.57959 
L 271.044026 51.280939 
L 271.727119 50.982288 
L 273.672773 50.384985 
L 275.383262 50.086334 
L 278.105961 49.787682 
L 278.610602 49.489031 
L 279.695799 49.19038 
L 283.207197 48.593077 
L 283.774829 48.294426 
L 283.98602 47.995774 
L 286.39687 47.398472 
L 286.771306 47.09982 
L 287.727431 46.801169 
L 288.199757 46.502517 
L 288.21343 46.203866 
L 288.904582 45.905215 
L 289.97645 45.606563 
L 291.877106 45.307912 
L 292.620929 45.009261 
L 296.215434 44.710609 
L 297.758255 44.411958 
L 302.390335 44.113307 
L 303.13945 43.814655 
L 304.056818 43.217353 
L 306.550675 42.918701 
L 307.459076 42.62005 
L 309.606084 42.321399 
L 310.392077 42.022747 
L 318.511359 40.828142 
L 318.744685 40.529491 
L 320.094189 40.230839 
L 320.800831 39.932188 
L 323.146186 39.633536 
L 324.386147 39.334885 
L 326.274827 39.036234 
L 326.7767 38.737582 
L 327.614637 38.438931 
L 334.140204 38.14028 
L 335.307983 37.542977 
L 343.208138 37.244326 
L 343.462771 36.945674 
L 349.852599 36.348372 
L 353.625012 36.04972 
L 355.895277 35.751069 
L 360.371645 35.452418 
L 360.682019 35.153766 
L 366.525704 34.556464 
L 373.410903 34.257812 
L 373.468422 33.959161 
L 374.190574 33.660509 
L 377.379945 33.361858 
L 377.811313 33.063207 
L 380.291194 32.465904 
L 380.369252 32.167253 
L 382.985154 31.868601 
L 387.531906 31.56995 
L 394.866448 31.271299 
L 397.151396 30.972647 
L 397.600255 30.673996 
L 398.348299 30.375345 
L 401.477808 30.076693 
L 407.137466 29.778042 
L 408.690345 29.479391 
L 422.795736 29.180739 
L 425.837796 28.882088 
L 450.082101 28.583437 
L 453.222456 28.284785 
L 454.069966 27.986134 
L 457.663077 27.687483 
L 486.34047 27.388831 
L 493.978963 26.791528 
L 495.004583 26.492877 
L 518.879319 26.194226 
L 560.623437 25.937415 
L 560.623437 25.937415 
" clip-path="url(#p72a9b2dc38)" style="fill: none; stroke: #443983; stroke-opacity: 0.85; stroke-width: 2.5; stroke-linecap: round"/>
   </g>
   <g id="line2d_14">
    <path d="M 72.91422 349.610369 
L 73.644794 349.28845 
L 74.687439 348.966531 
L 74.777433 348.644611 
L 75.166248 348.322692 
L 75.365382 347.678854 
L 75.854633 346.391178 
L 75.869901 346.069259 
L 76.077598 345.74734 
L 76.571938 345.425421 
L 76.575755 345.103502 
L 77.137046 343.493907 
L 77.168935 342.850068 
L 77.55662 342.528149 
L 77.94489 341.562392 
L 78.231029 338.021283 
L 78.350206 337.377444 
L 78.387427 337.055525 
L 78.538414 336.733606 
L 78.671506 335.767849 
L 78.973781 334.158254 
L 79.081709 332.22674 
L 79.294374 330.939063 
L 79.485127 329.651387 
L 79.719806 329.329468 
L 79.867338 327.076035 
L 80.06322 326.110277 
L 80.259668 323.213006 
L 80.375594 322.247249 
L 80.635396 319.993815 
L 80.709334 319.349977 
L 80.913234 315.16503 
L 81.262102 313.555434 
L 81.444251 312.911596 
L 81.910175 310.336244 
L 82.044439 309.692406 
L 82.211198 309.048567 
L 82.314966 307.760891 
L 82.519351 305.507458 
L 82.673528 304.219782 
L 82.830371 302.610186 
L 82.871005 301.966348 
L 83.049236 301.644429 
L 83.078945 301.32251 
L 83.274322 301.000591 
L 83.483735 298.103319 
L 83.666833 297.137562 
L 83.84672 296.815643 
L 83.930191 295.849886 
L 84.457713 292.952615 
L 84.460359 292.630696 
L 84.859959 291.664938 
L 84.889688 291.0211 
L 85.094638 290.699181 
L 85.178129 289.733424 
L 85.329176 288.767667 
L 85.659826 288.123829 
L 86.064516 285.870395 
L 86.343303 284.904638 
L 86.620293 283.938881 
L 86.873391 282.651205 
L 87.038635 281.041609 
L 87.260611 280.71969 
L 87.48293 280.075852 
L 87.901131 279.432014 
L 87.930718 279.110095 
L 88.131952 278.788176 
L 88.173657 278.144338 
L 88.308587 277.5005 
L 88.34599 276.856662 
L 88.686436 276.212824 
L 88.877572 275.568985 
L 89.092762 274.925147 
L 89.112453 274.603228 
L 89.345537 274.281309 
L 89.507126 272.993633 
L 89.616508 272.349795 
L 89.680045 272.027876 
L 89.902283 271.705957 
L 90.448204 269.130604 
L 90.556718 268.486766 
L 90.583639 268.164847 
L 90.885813 267.842928 
L 91.118554 265.911414 
L 91.412387 265.267576 
L 91.665242 264.945657 
L 92.166086 263.014142 
L 93.023714 261.404547 
L 93.198955 260.116871 
L 93.752692 259.794952 
L 93.841313 258.829195 
L 94.116041 258.185356 
L 94.349568 257.219599 
L 94.567404 255.610004 
L 95.30844 253.034651 
L 95.724924 252.068894 
L 95.89134 251.425056 
L 96.305905 251.103137 
L 96.471049 250.781218 
L 96.843324 250.459299 
L 96.993826 249.493542 
L 97.176782 248.527785 
L 97.675929 248.205866 
L 97.872841 247.240108 
L 98.325436 246.918189 
L 98.37112 246.274351 
L 98.820584 244.986675 
L 99.165595 244.664756 
L 99.452238 244.020918 
L 99.911397 243.37708 
L 100.326508 242.089404 
L 100.348319 241.767484 
L 101.069947 240.801727 
L 101.178905 240.157889 
L 101.364063 239.83597 
L 101.763138 239.514051 
L 101.83029 239.192132 
L 102.149268 238.870213 
L 102.60673 237.260618 
L 102.995566 235.651022 
L 103.135747 235.329103 
L 103.470053 235.007184 
L 103.637035 234.685265 
L 103.858909 233.397589 
L 104.212361 233.07567 
L 104.539841 232.431832 
L 105.545446 231.787994 
L 105.916025 231.466075 
L 105.962638 230.822237 
L 106.817781 228.246884 
L 107.27177 227.603046 
L 107.30574 227.281127 
L 107.699301 226.637289 
L 107.726566 226.31537 
L 107.910997 225.993451 
L 107.923357 225.671532 
L 108.285696 225.027693 
L 108.492766 224.061936 
L 108.835797 223.740017 
L 109.133953 222.77426 
L 109.364592 222.452341 
L 109.914835 222.130422 
L 109.952986 221.808503 
L 110.493434 220.842746 
L 110.930942 219.23315 
L 111.347386 218.589312 
L 111.460283 217.623555 
L 112.626426 217.301636 
L 113.055473 216.979717 
L 113.076133 216.657798 
L 113.298937 216.335879 
L 113.55468 215.370122 
L 114.700971 214.404365 
L 114.927713 213.438607 
L 114.979738 213.116688 
L 115.157484 212.794769 
L 115.584289 212.47285 
L 115.690844 212.150931 
L 116.41237 211.507093 
L 116.415904 211.185174 
L 116.712949 210.863255 
L 117.022434 209.897498 
L 117.060948 209.25366 
L 117.254225 208.609822 
L 117.879719 207.965983 
L 118.06835 207.322145 
L 118.229657 207.000226 
L 119.403273 205.71255 
L 119.920193 204.102955 
L 120.216106 203.781036 
L 120.256822 203.137198 
L 120.690776 202.815279 
L 120.817062 202.17144 
L 121.205029 201.849521 
L 121.597662 201.205683 
L 122.420977 200.883764 
L 122.795877 200.561845 
L 123.05366 199.918007 
L 123.232356 198.95225 
L 124.234467 198.630331 
L 124.406457 197.664574 
L 124.943754 196.698816 
L 125.367348 195.733059 
L 125.711025 195.089221 
L 125.885842 194.123464 
L 126.18426 193.801545 
L 126.801191 193.479626 
L 127.097306 192.513869 
L 127.120613 192.19195 
L 127.545276 191.870031 
L 127.742815 191.226192 
L 128.204235 190.582354 
L 128.494453 190.260435 
L 128.569987 189.294678 
L 129.359473 188.972759 
L 129.412347 188.65084 
L 129.590517 188.328921 
L 129.630748 188.007002 
L 131.834224 185.753569 
L 132.375723 185.431649 
L 132.787178 184.465892 
L 133.233916 183.822054 
L 133.685481 181.89054 
L 133.706324 181.568621 
L 134.179115 181.246702 
L 134.321679 180.924783 
L 134.808244 180.602864 
L 134.859744 180.280945 
L 135.490267 179.637106 
L 135.714201 178.671349 
L 135.926826 178.027511 
L 135.979497 177.705592 
L 136.436636 177.383673 
L 136.65639 177.061754 
L 137.246864 176.739835 
L 137.330011 176.417916 
L 139.750536 175.452159 
L 139.992546 174.486401 
L 140.068746 173.842563 
L 140.616344 173.520644 
L 140.727119 172.876806 
L 140.9002 172.554887 
L 141.560108 172.232968 
L 141.581274 171.911049 
L 142.347696 171.58913 
L 142.478203 171.267211 
L 142.772723 170.945292 
L 142.881843 170.623373 
L 143.669532 170.301454 
L 143.776611 169.979535 
L 144.563977 169.013778 
L 144.630382 168.04802 
L 145.042888 167.726101 
L 145.2192 167.082263 
L 145.246242 166.760344 
L 146.040192 165.472668 
L 146.041868 165.150749 
L 146.421091 164.82883 
L 146.859952 164.184992 
L 147.42403 163.863073 
L 147.612641 163.541154 
L 148.906425 162.897315 
L 149.495222 161.28772 
L 150.321647 160.643882 
L 150.400331 159.678125 
L 150.621862 159.356206 
L 150.679381 159.034287 
L 151.445056 158.712368 
L 151.87693 158.390449 
L 152.086545 158.06853 
L 153.305139 157.746611 
L 153.313601 157.424691 
L 153.900601 156.780853 
L 154.551845 156.458934 
L 154.658723 155.815096 
L 155.976822 151.952067 
L 156.698894 151.630148 
L 157.48937 150.342472 
L 158.098444 150.020553 
L 158.270151 149.698634 
L 158.914771 149.054796 
L 158.961909 148.732877 
L 160.141382 148.089039 
L 160.423098 146.801363 
L 160.441597 146.157524 
L 160.864625 145.835605 
L 161.000121 145.191767 
L 161.301144 144.869848 
L 161.84036 144.547929 
L 161.858718 144.22601 
L 162.640409 143.260253 
L 164.294976 142.938334 
L 164.505096 142.294496 
L 165.496241 141.650658 
L 166.377882 141.328739 
L 166.840817 140.362981 
L 167.051604 139.397224 
L 167.74326 139.075305 
L 167.750369 138.753386 
L 168.406258 138.431467 
L 168.563909 137.46571 
L 169.007315 137.143791 
L 169.013031 136.821872 
L 169.579653 136.499953 
L 169.636 136.178034 
L 170.209368 135.212277 
L 170.388951 134.568438 
L 170.937579 134.246519 
L 171.225636 133.602681 
L 171.662296 132.636924 
L 172.139531 132.315005 
L 172.421105 131.027329 
L 172.436696 130.70541 
L 172.645888 130.383491 
L 173.063604 130.061572 
L 173.12092 129.739653 
L 173.463507 129.417733 
L 173.670436 128.451976 
L 174.253296 128.130057 
L 174.605779 127.808138 
L 174.930169 126.842381 
L 175.531771 126.520462 
L 176.023849 125.876624 
L 176.462267 125.232786 
L 176.710194 124.910867 
L 176.736792 124.588948 
L 177.17632 123.94511 
L 177.35138 123.301271 
L 178.034877 122.979352 
L 178.122145 122.657433 
L 178.509749 122.335514 
L 179.734562 121.691676 
L 179.967525 121.369757 
L 179.971422 121.047838 
L 181.362167 119.438243 
L 182.050289 119.116324 
L 182.211777 118.794405 
L 183.191188 118.150566 
L 183.558293 116.86289 
L 183.793032 116.540971 
L 183.973363 115.575214 
L 184.186917 115.253295 
L 184.70216 114.931376 
L 185.11606 113.6437 
L 185.125653 113.321781 
L 185.366491 112.677943 
L 186.013736 112.356023 
L 186.041971 112.034104 
L 186.71543 111.068347 
L 186.788419 110.746428 
L 187.310448 110.10259 
L 187.628961 109.780671 
L 187.844272 109.136833 
L 188.035933 108.492995 
L 188.346287 108.171076 
L 188.392233 107.849157 
L 188.86567 107.205319 
L 188.939103 106.883399 
L 189.352538 106.56148 
L 189.412884 106.239561 
L 189.978072 105.917642 
L 190.191626 104.951885 
L 191.25788 104.629966 
L 191.920999 104.308047 
L 192.161878 103.020371 
L 192.246177 102.376533 
L 192.903237 102.054614 
L 193.140138 101.732695 
L 193.210036 101.088856 
L 193.466022 100.766937 
L 193.677758 100.123099 
L 193.782738 99.80118 
L 194.298365 99.479261 
L 194.569275 99.157342 
L 195.347432 98.835423 
L 195.365729 98.513504 
L 196.215178 97.547747 
L 196.219318 97.225828 
L 196.335264 96.903909 
L 196.569478 96.58199 
L 197.338405 96.260071 
L 197.521119 95.938152 
L 197.896989 95.616232 
L 197.992416 95.294313 
L 199.088459 94.328556 
L 199.326935 94.006637 
L 199.3378 93.684718 
L 199.610468 93.04088 
L 199.903211 92.718961 
L 200.352312 92.397042 
L 200.490817 92.075123 
L 201.548204 91.431285 
L 201.570077 91.109366 
L 201.910179 90.787447 
L 202.613307 90.465528 
L 202.749934 89.821689 
L 203.173002 89.177851 
L 204.833123 88.855932 
L 205.408207 88.534013 
L 205.678451 88.212094 
L 205.714865 87.890175 
L 205.994056 87.568256 
L 206.295422 86.28058 
L 206.657155 85.958661 
L 206.791924 85.636742 
L 208.188647 84.992904 
L 208.355527 84.670985 
L 210.0684 83.705227 
L 210.178045 83.383308 
L 210.654471 83.061389 
L 210.985748 82.417551 
L 212.005107 82.095632 
L 213.261567 81.451794 
L 213.345624 81.129875 
L 214.08666 80.807956 
L 214.239201 80.486037 
L 214.848013 80.164118 
L 215.432468 79.52028 
L 215.722565 79.198361 
L 216.79617 78.554522 
L 218.17403 78.232603 
L 218.400449 77.910684 
L 218.453928 77.588765 
L 220.315747 77.266846 
L 221.050583 76.944927 
L 221.497422 76.623008 
L 223.330724 76.301089 
L 223.723539 75.657251 
L 224.570564 75.335332 
L 224.991653 75.013413 
L 225.117656 74.047656 
L 226.453266 73.403818 
L 226.623539 73.081898 
L 227.050909 72.759979 
L 227.13436 72.43806 
L 227.379662 72.116141 
L 227.601253 71.472303 
L 227.979123 70.828465 
L 228.144165 70.506546 
L 228.71925 70.184627 
L 228.726217 69.862708 
L 229.264707 69.540789 
L 229.41846 69.21887 
L 230.323326 68.896951 
L 230.573657 68.575032 
L 231.555168 68.253113 
L 231.925464 67.931194 
L 233.121821 67.287355 
L 234.127769 66.965436 
L 235.463217 66.321598 
L 237.209838 65.999679 
L 238.639218 65.355841 
L 239.156178 65.033922 
L 239.427291 64.712003 
L 241.586114 63.746246 
L 241.614166 63.102408 
L 242.382831 62.780489 
L 242.791519 62.136651 
L 243.801547 61.814731 
L 244.132985 61.492812 
L 244.28686 61.170893 
L 244.729518 60.848974 
L 244.966015 60.527055 
L 245.730377 60.205136 
L 245.801225 59.883217 
L 247.462093 59.561298 
L 247.607303 59.239379 
L 248.472323 58.91746 
L 248.848576 58.595541 
L 250.220862 58.273622 
L 250.23405 57.951703 
L 252.288924 57.629784 
L 252.451099 57.307865 
L 252.962161 56.985946 
L 254.109503 56.664027 
L 256.946532 56.342107 
L 257.110767 56.020188 
L 257.965769 55.698269 
L 258.631171 55.054431 
L 260.84418 54.410593 
L 263.533979 54.088674 
L 263.914818 53.766755 
L 266.550714 53.444836 
L 266.606374 53.122917 
L 267.953576 52.800998 
L 267.957918 52.479079 
L 268.945932 52.15716 
L 269.914639 51.513322 
L 270.015377 51.191403 
L 271.217248 50.547564 
L 271.525279 49.581807 
L 271.708539 49.259888 
L 273.498601 48.937969 
L 273.592998 48.61605 
L 274.409608 48.294131 
L 276.385111 47.972212 
L 276.897264 47.650293 
L 276.972474 47.328374 
L 277.473661 47.006455 
L 278.610925 46.684536 
L 280.699324 46.362617 
L 281.547622 45.718779 
L 285.601305 44.753021 
L 287.385793 44.431102 
L 294.079695 44.109183 
L 295.792729 43.787264 
L 296.692204 43.143426 
L 297.579338 42.177669 
L 298.36224 41.85575 
L 298.742513 41.533831 
L 300.483499 40.889993 
L 301.798387 40.568074 
L 304.108399 40.246155 
L 306.601225 39.602317 
L 307.082075 39.280397 
L 313.265338 38.958478 
L 314.577984 38.636559 
L 324.842518 37.348883 
L 327.956921 37.026964 
L 329.973281 36.705045 
L 335.708311 36.383126 
L 338.998016 36.061207 
L 340.24662 35.417369 
L 342.720705 34.773531 
L 347.571367 34.129693 
L 357.111608 33.807773 
L 357.353618 33.485854 
L 357.802053 33.163935 
L 372.054916 32.842016 
L 376.222384 32.520097 
L 378.30115 32.198178 
L 406.287614 30.910502 
L 408.705775 30.588583 
L 409.446246 30.266664 
L 420.84255 29.944745 
L 425.573813 29.622826 
L 425.899091 29.300907 
L 467.116818 28.335149 
L 468.518064 28.01323 
L 479.804785 27.691311 
L 481.256683 27.369392 
L 492.771296 27.047473 
L 493.673295 26.725554 
L 500.99471 26.081716 
L 560.623437 25.922683 
L 560.623437 25.922683 
" clip-path="url(#p72a9b2dc38)" style="fill: none; stroke: #31688e; stroke-opacity: 0.85; stroke-width: 2.5; stroke-linecap: round"/>
   </g>
   <g id="line2d_15">
    <path d="M 73.669373 349.608773 
L 74.125865 348.961745 
L 75.0501 348.638231 
L 75.298533 347.991202 
L 75.300734 347.667688 
L 75.451034 347.344173 
L 75.905749 347.020659 
L 76.225373 346.37363 
L 76.416408 345.726602 
L 76.570464 344.756059 
L 76.799589 344.10903 
L 76.934135 343.462002 
L 77.037459 342.491459 
L 77.281205 341.84443 
L 77.371785 341.197402 
L 77.812141 338.932802 
L 77.899146 337.962259 
L 77.952585 337.31523 
L 78.189102 336.344687 
L 78.266796 335.374144 
L 78.473766 334.727116 
L 78.915334 329.874401 
L 79.058807 329.227373 
L 79.173985 328.580344 
L 79.353044 325.668716 
L 79.438837 324.698173 
L 79.697146 322.433573 
L 79.895249 321.786544 
L 80.031472 320.816001 
L 80.236887 318.874915 
L 80.85921 315.639772 
L 81.005712 314.992744 
L 81.261294 313.051658 
L 81.315178 311.757601 
L 81.428377 310.463544 
L 82.707134 301.081629 
L 82.761179 300.758115 
L 82.932321 300.434601 
L 83.409292 296.875943 
L 83.5357 296.552429 
L 83.622523 294.611343 
L 83.751677 293.964315 
L 83.940026 292.670257 
L 84.094264 291.699715 
L 84.417139 288.464572 
L 84.598036 287.817543 
L 84.758938 287.170514 
L 85.06186 284.5824 
L 85.341253 284.258886 
L 85.421411 283.288343 
L 85.58086 282.641314 
L 85.680669 281.670771 
L 85.865564 280.700228 
L 86.143645 280.376714 
L 86.253895 279.729686 
L 86.376304 278.759143 
L 86.453614 278.435628 
L 86.873916 277.7886 
L 86.967505 277.465086 
L 87.235689 277.141571 
L 87.35832 275.847514 
L 88.202477 272.935885 
L 88.929416 267.436142 
L 89.061296 267.112628 
L 89.388958 266.789114 
L 89.89687 264.200999 
L 90.545307 263.553971 
L 90.594545 262.906942 
L 91.006768 262.259914 
L 91.075536 261.936399 
L 91.266228 261.612885 
L 91.321646 261.289371 
L 91.515589 260.965856 
L 91.535724 260.642342 
L 91.697637 260.318828 
L 91.783187 258.701256 
L 92.322181 258.377742 
L 92.586064 257.083685 
L 92.860448 256.436656 
L 92.923359 256.113142 
L 93.175649 255.466113 
L 93.284607 254.172056 
L 93.71224 253.525028 
L 93.979333 253.201513 
L 94.160795 252.23097 
L 94.412802 251.260428 
L 95.394758 250.613399 
L 95.65347 249.319342 
L 96.020191 248.995828 
L 96.031743 248.672313 
L 96.346762 247.70177 
L 96.529678 246.731227 
L 96.729297 246.084199 
L 96.820523 245.43717 
L 97.585087 242.849056 
L 97.616775 242.525542 
L 97.908043 242.202027 
L 97.992887 241.878513 
L 98.427507 241.554999 
L 98.902096 239.613913 
L 99.006631 238.64337 
L 99.098543 238.319856 
L 99.518926 237.996341 
L 99.701822 237.349313 
L 99.715333 237.025799 
L 100.25055 236.702284 
L 101.278997 234.437684 
L 101.63356 234.11417 
L 102.522956 233.790656 
L 102.652434 233.467141 
L 102.753131 232.820113 
L 103.616051 231.526056 
L 103.823849 231.202541 
L 103.829221 230.879027 
L 104.053862 230.555513 
L 104.4614 230.231998 
L 104.549172 229.908484 
L 105.035555 229.261456 
L 105.124458 228.937941 
L 105.360854 228.614427 
L 105.457028 227.967398 
L 105.810318 227.32037 
L 105.979582 226.996855 
L 106.096336 226.349827 
L 106.48707 225.379284 
L 106.938332 223.761712 
L 107.145807 223.438198 
L 107.230226 222.79117 
L 107.939756 221.173598 
L 108.124632 220.850084 
L 108.150321 220.52657 
L 108.550628 220.203055 
L 109.102467 218.261969 
L 109.740139 217.291427 
L 110.326049 216.320884 
L 112.24468 215.350341 
L 112.733264 214.379798 
L 113.150273 214.056284 
L 113.331412 213.409255 
L 113.679452 213.085741 
L 113.692236 212.762226 
L 113.943456 212.438712 
L 114.707414 211.791684 
L 114.901458 210.821141 
L 115.032349 210.174112 
L 115.661095 208.880055 
L 115.666386 208.556541 
L 115.970358 207.909512 
L 116.634749 206.291941 
L 117.128847 205.968426 
L 117.340785 205.321398 
L 118.164181 204.350855 
L 118.18569 204.02734 
L 118.456378 203.703826 
L 119.357065 203.380312 
L 119.855888 202.409769 
L 120.171877 202.086255 
L 120.250197 201.439226 
L 120.491622 201.115712 
L 120.622392 200.145169 
L 121.186429 199.821655 
L 121.401053 199.49814 
L 121.469901 198.851112 
L 121.622947 198.527597 
L 122.27407 197.880569 
L 122.311049 197.557055 
L 122.670843 197.23354 
L 123.102151 195.939483 
L 123.430197 195.615969 
L 124.213544 193.998397 
L 124.914854 193.351369 
L 125.145332 193.027854 
L 125.487313 191.410283 
L 125.672491 190.763254 
L 126.651457 190.43974 
L 126.81862 190.116226 
L 126.842573 189.792711 
L 127.613963 188.822169 
L 127.846845 188.498654 
L 128.248788 188.17514 
L 128.877937 187.851626 
L 129.282667 187.204597 
L 129.704261 186.557569 
L 129.714844 186.234054 
L 130.636615 185.587026 
L 130.656771 185.263511 
L 131.255747 184.939997 
L 131.577714 183.322426 
L 131.838748 182.998911 
L 131.985917 182.351883 
L 132.272601 181.704854 
L 132.460567 181.057826 
L 132.538645 180.734311 
L 133.185728 180.087283 
L 133.824026 178.793225 
L 134.436595 178.469711 
L 135.087758 177.822683 
L 135.700326 175.558082 
L 136.978458 174.264025 
L 138.521582 173.940511 
L 139.03622 172.969968 
L 139.923031 172.32294 
L 140.259922 171.675911 
L 140.277029 171.352397 
L 141.116864 171.028882 
L 141.209887 170.705368 
L 141.666037 170.058339 
L 141.693241 169.734825 
L 142.310454 168.764282 
L 142.440436 168.440768 
L 142.72195 168.117254 
L 143.292935 167.793739 
L 143.586788 167.470225 
L 144.113018 167.146711 
L 144.19354 166.499682 
L 144.673561 166.176168 
L 145.016693 164.558596 
L 145.678803 163.911568 
L 146.167246 163.264539 
L 146.620467 162.941025 
L 146.752145 162.293996 
L 147.640754 161.970482 
L 148.04813 161.646968 
L 148.332512 160.999939 
L 148.388859 160.676425 
L 148.91628 160.352911 
L 148.997449 159.705882 
L 149.398523 159.382368 
L 150.165753 158.088311 
L 150.559618 157.764796 
L 150.581228 157.441282 
L 151.107256 157.117768 
L 151.220193 156.794253 
L 151.723964 156.470739 
L 152.286689 155.500196 
L 152.624186 155.176682 
L 152.714927 154.529653 
L 154.084244 153.55911 
L 154.214166 152.912082 
L 154.594782 152.588568 
L 154.625318 152.265053 
L 155.033744 151.941539 
L 155.234595 151.618025 
L 155.292679 151.29451 
L 156.861735 150.647482 
L 157.503891 150.323967 
L 158.398457 150.000453 
L 158.812579 149.353425 
L 158.914044 148.706396 
L 159.289247 148.382882 
L 159.309262 148.059367 
L 159.501428 147.735853 
L 160.240565 147.412339 
L 160.875046 146.118282 
L 161.550707 145.794767 
L 161.866251 145.471253 
L 162.229761 144.824224 
L 164.080129 144.50071 
L 164.0998 143.853682 
L 164.392927 143.206653 
L 165.261966 142.883139 
L 165.617397 142.559624 
L 166.280395 142.23611 
L 166.31079 141.912596 
L 167.009293 140.295024 
L 167.505431 139.97151 
L 167.681056 139.647996 
L 167.999529 139.324481 
L 168.046808 139.000967 
L 168.354011 138.353939 
L 169.064753 138.030424 
L 170.31774 137.059881 
L 170.39081 136.412853 
L 170.695629 136.089338 
L 170.698295 135.765824 
L 171.71521 135.44231 
L 171.979678 134.795281 
L 173.009094 134.471767 
L 173.074065 134.148253 
L 173.271826 133.824738 
L 174.056142 133.501224 
L 174.303342 133.17771 
L 174.333111 132.854195 
L 175.04866 132.530681 
L 175.073319 132.207167 
L 175.325266 131.883653 
L 175.395669 131.560138 
L 175.618473 131.236624 
L 175.631944 130.91311 
L 177.739065 130.266081 
L 178.597743 129.942567 
L 178.95166 129.619053 
L 179.192377 128.972024 
L 179.781013 128.64851 
L 179.929152 128.001481 
L 180.3378 126.707424 
L 180.491917 126.060395 
L 180.907633 125.413367 
L 181.271709 125.089852 
L 181.428693 124.766338 
L 181.453777 124.442824 
L 182.945644 123.795795 
L 183.204154 122.501738 
L 183.688053 122.178224 
L 183.716226 121.854709 
L 183.887792 121.531195 
L 183.914249 121.207681 
L 184.184009 120.884167 
L 184.263905 120.560652 
L 184.639512 120.237138 
L 184.828628 119.913624 
L 185.220857 119.590109 
L 185.306024 119.266595 
L 185.604543 118.943081 
L 185.621548 118.619566 
L 185.868567 118.296052 
L 186.846988 117.972538 
L 187.237985 117.649024 
L 187.37447 117.325509 
L 187.466867 116.031452 
L 188.132046 115.060909 
L 188.536999 113.766852 
L 188.811121 113.443338 
L 188.962087 112.796309 
L 190.034945 112.472795 
L 190.592721 111.825766 
L 191.414521 111.502252 
L 191.436454 110.855223 
L 191.903812 110.208195 
L 192.034219 109.237652 
L 192.07968 108.914138 
L 193.285428 107.943595 
L 193.825008 107.62008 
L 193.903005 107.296566 
L 194.504951 106.973052 
L 195.25865 105.678995 
L 195.344624 105.35548 
L 196.645335 104.708452 
L 196.673307 104.384937 
L 196.898029 104.061423 
L 198.836916 103.737909 
L 199.103263 103.414395 
L 200.747469 103.09088 
L 200.829647 102.443852 
L 201.556505 102.120337 
L 201.694081 101.473309 
L 202.691406 101.149795 
L 203.253362 100.82628 
L 203.726376 100.179252 
L 204.32515 99.855737 
L 204.366593 99.532223 
L 204.871334 98.56168 
L 205.197622 98.238166 
L 205.36735 97.267623 
L 206.390465 96.944109 
L 206.416195 96.620594 
L 206.98924 95.650052 
L 207.531324 95.326537 
L 207.802174 94.679509 
L 208.304088 94.355994 
L 208.687147 93.708966 
L 209.476593 93.385451 
L 209.541564 92.738423 
L 209.686209 92.414909 
L 210.072177 92.091394 
L 210.265433 91.444366 
L 210.709526 91.120851 
L 212.733984 90.797337 
L 213.130252 90.473823 
L 213.208371 90.150308 
L 213.567478 89.826794 
L 213.711476 89.50328 
L 214.190346 89.179766 
L 214.372697 88.856251 
L 214.378392 88.532737 
L 214.757433 88.209223 
L 215.736581 87.885708 
L 215.927455 87.23868 
L 216.460592 86.915166 
L 218.743056 86.268137 
L 218.755456 85.944623 
L 219.653295 84.003537 
L 219.758314 83.356508 
L 220.766929 83.032994 
L 221.275527 82.385965 
L 223.354212 81.738937 
L 224.015676 81.415423 
L 225.0418 81.091908 
L 227.784089 80.768394 
L 229.458852 80.121365 
L 230.694652 79.474337 
L 230.944296 79.150822 
L 231.983184 78.827308 
L 232.59852 78.503794 
L 232.901017 78.18028 
L 234.038765 77.856765 
L 234.525532 77.209737 
L 235.393924 76.886222 
L 235.782175 76.562708 
L 236.001868 75.592165 
L 236.710731 75.268651 
L 236.987479 74.945137 
L 238.062881 74.621622 
L 238.266176 74.298108 
L 238.620314 73.974594 
L 238.636976 73.651079 
L 239.281959 73.327565 
L 239.798717 72.680537 
L 239.988823 71.709994 
L 240.813855 71.386479 
L 241.11298 71.062965 
L 241.510136 70.092422 
L 241.669302 69.768908 
L 241.960287 69.445394 
L 241.963802 69.121879 
L 242.92241 68.798365 
L 244.314225 68.151336 
L 244.396242 67.827822 
L 244.890602 67.504308 
L 245.03458 67.180794 
L 245.349761 66.857279 
L 247.299656 66.533765 
L 247.611443 66.210251 
L 248.081689 65.886736 
L 249.499538 65.563222 
L 251.801612 64.269165 
L 255.928486 63.945651 
L 256.317504 63.622136 
L 256.697776 62.975108 
L 258.540854 62.004565 
L 260.517185 61.357536 
L 261.332764 61.034022 
L 261.573522 60.710508 
L 261.990471 60.386993 
L 262.050575 60.063479 
L 265.067168 59.41645 
L 266.37111 58.769422 
L 267.235988 58.445908 
L 267.237159 58.122393 
L 268.150751 57.798879 
L 268.304867 57.475365 
L 269.358095 57.15185 
L 270.0177 56.828336 
L 270.02287 56.504822 
L 270.725715 56.181307 
L 271.080864 55.857793 
L 271.708337 55.534279 
L 274.487161 54.88725 
L 276.472641 54.240222 
L 276.674986 53.916707 
L 278.223907 53.269679 
L 280.637221 52.946165 
L 280.926227 51.652107 
L 281.394495 50.681564 
L 283.413581 50.034536 
L 284.933662 49.387507 
L 285.207339 49.063993 
L 288.473071 48.416964 
L 299.877414 48.09345 
L 301.088817 47.769936 
L 303.896966 47.446421 
L 304.154103 47.122907 
L 304.575495 46.799393 
L 307.135817 46.475879 
L 307.45851 46.152364 
L 307.982014 45.82885 
L 309.747982 45.505336 
L 310.003786 45.181821 
L 310.866786 44.858307 
L 313.394653 44.211279 
L 313.659101 43.887764 
L 319.931227 43.240736 
L 319.979859 42.917221 
L 322.121132 42.593707 
L 331.957508 41.946678 
L 332.185442 41.623164 
L 334.797062 40.976136 
L 339.76773 40.652621 
L 339.948627 40.329107 
L 340.405846 40.005593 
L 342.973661 39.358564 
L 347.442031 39.03505 
L 349.197094 38.711536 
L 349.47061 38.388021 
L 350.13486 38.064507 
L 351.286988 37.740993 
L 351.367086 37.417478 
L 351.830768 37.093964 
L 356.47951 36.77045 
L 357.203642 36.446935 
L 357.607039 36.123421 
L 363.285278 35.799907 
L 363.963948 35.476393 
L 364.008561 34.829364 
L 366.383766 34.50585 
L 370.300701 34.182335 
L 372.33853 33.858821 
L 372.862882 33.535307 
L 379.714717 32.888278 
L 380.1991 32.564764 
L 391.494343 32.24125 
L 394.063471 31.917735 
L 405.439902 31.270707 
L 408.033447 30.947192 
L 411.548782 30.623678 
L 412.125826 30.300164 
L 417.421247 29.97665 
L 430.579258 28.682592 
L 431.994279 28.359078 
L 459.402588 28.035564 
L 472.589096 27.712049 
L 530.199242 27.065021 
L 552.774055 26.417992 
L 552.774055 26.417992 
" clip-path="url(#p72a9b2dc38)" style="fill: none; stroke: #21918c; stroke-opacity: 0.85; stroke-width: 2.5; stroke-linecap: round"/>
   </g>
   <g id="line2d_16">
    <path d="M 71.817227 349.622879 
L 72.356908 349.004062 
L 73.522325 348.694654 
L 73.618216 348.385245 
L 74.253364 347.766429 
L 74.983534 347.45702 
L 75.366493 346.838203 
L 75.516368 346.219386 
L 76.161735 345.291161 
L 76.222182 344.981752 
L 76.62465 344.362935 
L 76.769214 342.506485 
L 78.253588 335.699499 
L 78.311631 334.771273 
L 78.454862 334.152456 
L 78.490226 333.533639 
L 78.939125 331.677189 
L 79.353044 328.892513 
L 79.561569 327.964287 
L 79.83559 324.870203 
L 79.943437 323.941977 
L 80.20013 321.776118 
L 80.316096 320.229076 
L 80.431961 319.30085 
L 80.74185 317.4444 
L 81.334748 312.493864 
L 81.432052 311.875047 
L 81.734651 310.328005 
L 81.858413 309.090371 
L 82.006511 308.780963 
L 82.184095 307.23392 
L 82.295255 305.686878 
L 82.386157 304.139836 
L 82.388399 303.830427 
L 82.511353 303.21161 
L 82.756716 301.045751 
L 83.186873 299.1893 
L 83.314876 298.261075 
L 83.572942 297.33285 
L 83.709467 296.095216 
L 83.749173 295.476399 
L 83.903956 295.16699 
L 84.084974 293.619948 
L 84.16695 292.691723 
L 84.285137 291.454089 
L 84.554432 291.144681 
L 84.779619 290.216455 
L 85.403073 286.194145 
L 85.712942 284.956511 
L 85.719082 284.647103 
L 85.840885 284.337694 
L 86.120601 284.028286 
L 86.202799 283.409469 
L 86.440952 281.862427 
L 86.827222 280.005976 
L 87.088782 279.077751 
L 87.116249 278.458934 
L 87.293369 278.149525 
L 87.445446 277.530708 
L 87.590434 275.983666 
L 87.834322 275.674258 
L 88.616699 271.961356 
L 88.888014 271.651948 
L 89.038859 270.414314 
L 89.110817 270.104905 
L 89.57145 269.486088 
L 89.676672 268.248455 
L 89.918298 267.320229 
L 89.983976 266.701412 
L 90.499846 264.844962 
L 90.662929 264.535553 
L 91.198429 264.226145 
L 91.452759 263.916736 
L 91.551982 262.679102 
L 91.792619 262.060285 
L 92.105174 261.750877 
L 92.26228 261.13206 
L 92.403915 260.513243 
L 93.027773 255.872116 
L 93.038235 255.562708 
L 93.195461 255.253299 
L 93.23234 254.634482 
L 93.387062 254.325074 
L 93.668273 254.015665 
L 93.914322 253.08744 
L 94.218758 252.778032 
L 94.748704 250.921581 
L 94.904962 250.302764 
L 94.992916 249.374539 
L 95.471826 248.755722 
L 95.502585 248.446313 
L 95.758187 248.136905 
L 96.191878 247.827496 
L 96.253012 247.518088 
L 96.568112 246.899271 
L 96.706475 245.971046 
L 97.119647 245.04282 
L 97.321205 243.495778 
L 97.6729 243.186369 
L 97.7821 242.258144 
L 97.865046 241.948736 
L 98.277713 241.639327 
L 98.582573 240.401693 
L 98.597498 240.092285 
L 98.805256 239.782876 
L 98.91797 239.164059 
L 99.260779 238.854651 
L 99.400193 238.235834 
L 99.645232 237.926426 
L 100.044752 237.617017 
L 100.065634 237.307609 
L 100.6223 236.379383 
L 100.974419 236.069975 
L 101.022668 235.451158 
L 101.51616 235.141749 
L 101.615161 234.522933 
L 102.509284 233.594707 
L 102.770056 232.357073 
L 103.274272 232.047665 
L 103.414352 230.500623 
L 103.807066 229.881806 
L 104.131739 229.572397 
L 104.329761 228.334763 
L 104.994678 227.715946 
L 104.996859 227.406538 
L 106.069233 225.240679 
L 106.104051 224.621862 
L 106.34495 224.312453 
L 106.569147 223.693637 
L 107.106323 223.384228 
L 107.281565 222.456003 
L 107.963749 222.146594 
L 107.978674 221.837186 
L 108.404166 221.527777 
L 108.512054 220.90896 
L 108.692708 220.599552 
L 108.764707 219.980735 
L 109.321554 219.05251 
L 109.734787 218.743101 
L 109.851743 218.124284 
L 110.315021 216.577242 
L 111.442995 215.958425 
L 111.861398 213.792566 
L 111.879069 213.483157 
L 112.145113 212.86434 
L 113.205187 212.554932 
L 113.355749 211.626707 
L 113.939416 211.00789 
L 114.084041 210.698481 
L 114.478774 210.389073 
L 114.685905 210.079664 
L 114.747382 209.460847 
L 115.086859 209.151439 
L 115.132845 208.84203 
L 115.304391 208.532622 
L 115.349731 207.913805 
L 115.463476 207.604397 
L 115.721481 207.294988 
L 116.042034 206.366763 
L 116.594983 206.057354 
L 116.614755 205.747946 
L 116.781919 205.438537 
L 116.905701 204.200904 
L 117.220841 203.891495 
L 117.393477 203.272678 
L 117.436838 202.653861 
L 117.821917 202.344453 
L 117.923766 201.725636 
L 118.180621 201.416227 
L 118.357741 200.797411 
L 118.875387 199.869185 
L 119.177198 199.250368 
L 119.646293 198.94096 
L 119.935017 197.703326 
L 121.443869 196.156284 
L 121.728573 195.228058 
L 122.123367 194.91865 
L 122.18343 194.609241 
L 122.423824 193.990424 
L 122.936846 193.681016 
L 123.161851 193.371608 
L 123.173161 193.062199 
L 123.603782 192.443382 
L 123.836462 191.824565 
L 124.303436 191.515157 
L 125.099224 191.205748 
L 125.302094 190.586931 
L 125.651729 190.277523 
L 126.159157 189.349298 
L 126.689204 189.039889 
L 126.726566 188.730481 
L 127.097549 188.111664 
L 127.104072 187.802255 
L 127.354161 187.492847 
L 127.454172 186.87403 
L 127.496099 186.255213 
L 127.91531 185.945805 
L 128.338439 185.017579 
L 128.738604 184.708171 
L 129.307307 183.779945 
L 129.732839 183.470537 
L 129.766465 182.85172 
L 130.211568 182.542311 
L 131.028985 182.232903 
L 131.369189 181.614086 
L 131.496222 180.995269 
L 131.996924 180.685861 
L 132.258424 180.376452 
L 132.278923 180.067044 
L 133.269663 177.901185 
L 133.845354 177.591776 
L 133.853674 177.282368 
L 134.315842 176.663551 
L 134.726328 176.044734 
L 135.08174 175.735325 
L 135.390134 174.497692 
L 136.11061 173.878875 
L 136.22486 173.260058 
L 137.27116 172.950649 
L 137.470698 172.641241 
L 137.534174 172.331832 
L 138.115257 172.022424 
L 138.125839 171.713015 
L 138.392024 171.403607 
L 138.401355 171.094199 
L 138.555855 170.475382 
L 138.619069 170.165973 
L 139.211421 169.547156 
L 139.238847 169.237748 
L 139.593289 168.928339 
L 139.601347 168.618931 
L 140.054063 168.309522 
L 140.320632 167.071889 
L 140.562884 166.76248 
L 140.63654 166.143663 
L 141.251451 165.834255 
L 141.330054 165.524846 
L 141.56338 165.215438 
L 141.577578 164.906029 
L 141.949085 164.596621 
L 141.992769 164.287212 
L 142.444698 163.977804 
L 143.715276 163.358987 
L 144.132669 161.811945 
L 144.721103 161.193128 
L 145.083098 160.264902 
L 145.718306 159.646086 
L 146.173426 159.027269 
L 146.583851 158.71786 
L 146.931224 158.099043 
L 147.080332 157.480226 
L 147.379336 157.170818 
L 147.429624 156.552001 
L 147.943615 156.242592 
L 148.173669 155.314367 
L 148.529323 155.004959 
L 149.204741 154.69555 
L 150.196977 153.767325 
L 150.2756 153.148508 
L 150.51763 152.839099 
L 150.540937 152.529691 
L 150.956451 151.910874 
L 151.388103 151.292057 
L 151.988453 150.982649 
L 151.989422 150.67324 
L 152.548673 149.435606 
L 152.618168 149.126198 
L 152.930884 148.816789 
L 153.040812 148.197973 
L 153.055878 147.888564 
L 153.343652 147.269747 
L 153.897814 146.960339 
L 153.911103 146.65093 
L 154.266433 146.341522 
L 154.437494 146.032113 
L 155.177864 145.722705 
L 155.406746 145.413296 
L 155.409796 145.103888 
L 156.259386 144.485071 
L 156.379714 144.175663 
L 156.63057 143.866254 
L 156.710466 143.556846 
L 157.307827 142.938029 
L 157.407313 142.319212 
L 157.694643 142.009803 
L 158.811347 141.700395 
L 159.294761 141.390986 
L 159.356844 140.462761 
L 160.147017 139.843944 
L 160.386704 139.534536 
L 161.032899 138.915719 
L 161.063092 138.60631 
L 161.521544 138.296902 
L 161.678145 137.987493 
L 162.31925 137.678085 
L 162.446728 137.059268 
L 162.870463 136.74986 
L 163.369368 135.821634 
L 163.394148 135.512226 
L 163.929487 135.202817 
L 164.11214 134.893409 
L 164.795759 134.274592 
L 164.848026 133.965183 
L 165.468814 133.655775 
L 165.729809 132.72755 
L 165.738291 132.418141 
L 166.395998 132.108733 
L 166.407065 131.799324 
L 167.194471 131.180507 
L 167.542915 129.324057 
L 168.225867 128.70524 
L 168.26636 128.395831 
L 168.949191 127.777014 
L 169.123463 127.158197 
L 169.474795 126.848789 
L 170.147608 126.53938 
L 170.264725 125.920564 
L 170.43411 124.992338 
L 170.714917 124.68293 
L 170.758843 124.373521 
L 171.372805 123.445296 
L 171.438887 123.135887 
L 172.477472 122.207662 
L 173.19092 121.898254 
L 173.559156 121.279437 
L 174.06113 120.970028 
L 174.491348 120.351211 
L 175.176663 120.041803 
L 175.480493 118.804169 
L 176.294982 118.494761 
L 176.477838 117.566535 
L 176.583827 117.257127 
L 177.136958 116.63831 
L 178.296902 115.710084 
L 178.546041 115.400676 
L 178.863686 114.472451 
L 179.570954 114.163042 
L 180.165386 113.544225 
L 180.230478 113.234817 
L 180.5232 112.925408 
L 180.588919 111.997183 
L 181.131103 111.687774 
L 181.185633 111.378366 
L 181.760495 111.068957 
L 182.403782 110.140732 
L 182.947078 109.831324 
L 182.988803 109.521915 
L 183.402177 108.59369 
L 183.854368 108.284281 
L 184.740533 106.737239 
L 185.651923 106.118422 
L 185.961085 105.809014 
L 186.029934 105.499605 
L 186.469967 105.190197 
L 186.515711 104.880788 
L 187.187898 103.952563 
L 187.51146 103.024338 
L 188.014768 102.714929 
L 188.025007 102.405521 
L 188.211538 101.786704 
L 189.073286 101.167887 
L 190.454398 100.858478 
L 191.312834 100.54907 
L 191.334706 99.930253 
L 191.670991 99.311436 
L 192.01788 99.002028 
L 192.092484 98.692619 
L 193.625269 98.073802 
L 194.983376 96.836168 
L 195.404344 96.217351 
L 195.43169 95.907943 
L 196.538922 94.979718 
L 196.577133 94.670309 
L 197.427652 94.360901 
L 197.749861 94.051492 
L 198.776752 93.432675 
L 198.976674 93.123267 
L 198.980289 92.813858 
L 199.878168 92.195041 
L 200.728787 91.885633 
L 200.831465 91.576225 
L 201.141111 91.266816 
L 201.903212 90.957408 
L 202.181837 90.647999 
L 202.725194 90.338591 
L 202.908918 90.029182 
L 203.599181 89.410365 
L 203.624809 89.100957 
L 204.758942 88.48214 
L 205.659669 88.172732 
L 205.902709 87.244506 
L 206.20044 86.625689 
L 206.778352 86.316281 
L 206.814119 86.006872 
L 207.624408 85.697464 
L 207.630992 85.388055 
L 209.280388 83.841013 
L 210.158838 83.222196 
L 210.24758 82.912788 
L 211.004975 82.293971 
L 211.878275 81.984562 
L 214.417876 81.675154 
L 214.693331 80.746929 
L 217.493219 79.818703 
L 217.759121 78.890478 
L 218.678024 78.581069 
L 218.723344 78.271661 
L 220.8484 77.652844 
L 220.897981 77.343435 
L 222.898063 77.034027 
L 222.996943 76.724619 
L 223.442368 76.41521 
L 224.482266 76.105802 
L 225.398403 75.486985 
L 225.990734 74.868168 
L 226.033025 74.558759 
L 226.63188 74.249351 
L 228.901601 73.939942 
L 229.414016 73.630534 
L 229.610403 73.321126 
L 230.820817 73.011717 
L 230.876276 72.702309 
L 231.512756 72.083492 
L 232.449775 71.464675 
L 233.672892 71.155266 
L 233.965958 70.536449 
L 234.663229 70.227041 
L 234.911843 69.608224 
L 235.435872 69.298816 
L 235.752426 68.679999 
L 236.522887 68.37059 
L 238.088874 68.061182 
L 238.162994 67.442365 
L 238.955368 67.132956 
L 239.081351 66.514139 
L 240.136215 65.895322 
L 240.181757 65.585914 
L 240.500734 65.276506 
L 241.468633 64.967097 
L 243.068852 64.657689 
L 243.504038 64.34828 
L 244.397817 64.038872 
L 244.788289 63.729463 
L 251.6356 62.182421 
L 251.777175 61.873013 
L 252.09082 61.563604 
L 252.99702 60.944787 
L 253.02584 60.635379 
L 253.320016 60.32597 
L 254.263902 60.016562 
L 254.526714 59.707153 
L 255.010916 59.397745 
L 255.085116 59.088336 
L 256.725748 58.778928 
L 257.307941 58.160111 
L 257.858669 57.850703 
L 257.981664 57.541294 
L 258.771736 57.231886 
L 259.237478 56.613069 
L 261.053028 56.30366 
L 261.382689 55.994252 
L 264.701658 55.066026 
L 265.241925 54.137801 
L 267.581685 53.518984 
L 268.881184 53.209576 
L 269.263072 52.900167 
L 270.462701 52.28135 
L 270.60672 51.971942 
L 274.596947 51.662533 
L 274.719113 51.353125 
L 275.010482 51.043716 
L 278.72368 50.734308 
L 279.426646 49.806083 
L 279.843069 49.496674 
L 279.947443 49.187266 
L 281.213477 48.568449 
L 281.268673 48.25904 
L 281.597324 47.949632 
L 282.137772 47.640223 
L 284.796712 47.330815 
L 285.519289 47.021407 
L 285.743546 46.711998 
L 289.232203 46.093181 
L 292.060386 45.783773 
L 293.748054 45.474364 
L 294.837251 44.855547 
L 294.957802 44.546139 
L 295.630514 44.23673 
L 295.715055 43.927322 
L 296.01735 43.617913 
L 296.928074 43.308505 
L 298.597343 42.999097 
L 302.414692 42.689688 
L 309.920174 42.38028 
L 311.123903 42.070871 
L 311.141777 41.761463 
L 311.763635 41.142646 
L 312.414516 40.833237 
L 316.179314 39.905012 
L 321.941508 39.595603 
L 323.961725 38.976787 
L 331.105253 38.667378 
L 334.501209 38.35797 
L 335.018412 38.048561 
L 337.281245 37.429744 
L 340.356366 36.810927 
L 340.481622 36.501519 
L 343.276785 36.19211 
L 347.501287 35.882702 
L 349.895233 35.573294 
L 350.114866 35.263885 
L 354.771727 34.954477 
L 354.965912 34.33566 
L 357.997188 34.026251 
L 363.917336 33.716843 
L 364.095809 33.407434 
L 365.286955 33.098026 
L 367.808137 32.788617 
L 372.811442 32.479209 
L 374.234137 32.1698 
L 375.092674 31.860392 
L 383.469053 31.550984 
L 384.212957 31.241575 
L 388.381597 30.932167 
L 399.452218 30.622758 
L 400.887859 30.003941 
L 404.274061 29.694533 
L 405.898374 29.385124 
L 410.273781 29.075716 
L 410.81431 28.766307 
L 417.506333 28.456899 
L 420.452482 28.147491 
L 427.738271 27.838082 
L 431.563839 27.528674 
L 461.398086 26.600448 
L 463.608046 26.29104 
L 479.074453 25.672223 
L 483.215787 25.053406 
L 495.759837 24.743997 
L 527.142277 24.434589 
L 560.623437 24.373321 
L 560.623437 24.373321 
" clip-path="url(#p72a9b2dc38)" style="fill: none; stroke: #35b779; stroke-opacity: 0.85; stroke-width: 2.5; stroke-linecap: round"/>
   </g>
   <g id="line2d_17">
    <path d="M 73.389515 349.610686 
L 74.493152 348.967482 
L 74.779392 348.64588 
L 75.283911 348.324278 
L 75.964277 346.073065 
L 76.037832 345.751463 
L 76.302663 345.429861 
L 76.314438 345.108259 
L 76.586298 344.143454 
L 76.966893 342.535444 
L 77.366877 340.284231 
L 77.754057 338.997823 
L 77.866529 338.033018 
L 78.17555 337.711416 
L 78.242864 336.74661 
L 78.396576 336.103406 
L 78.604818 334.816999 
L 78.793087 332.244183 
L 78.978952 330.314572 
L 79.093262 329.349766 
L 79.591843 326.455349 
L 79.792047 326.133747 
L 79.880405 324.84734 
L 80.023939 324.204136 
L 80.139521 323.23933 
L 80.298101 321.631321 
L 80.425417 319.380108 
L 80.462821 319.058506 
L 80.74599 318.415302 
L 80.941489 316.807292 
L 81.062989 316.164089 
L 81.182853 315.199283 
L 81.330466 313.912875 
L 81.579706 311.983264 
L 81.70161 311.34006 
L 81.735762 310.696856 
L 81.915446 310.053653 
L 82.203241 307.802439 
L 82.359054 306.19443 
L 82.555946 305.229624 
L 82.647657 303.943217 
L 83.249279 301.370401 
L 83.313502 300.405596 
L 83.556462 299.762392 
L 83.670731 299.119188 
L 83.880993 298.797586 
L 83.965817 298.154383 
L 84.216188 296.224771 
L 84.21748 295.903169 
L 84.582828 294.938364 
L 85.151753 291.722345 
L 85.369467 291.400743 
L 86.450524 286.255112 
L 86.571701 284.647103 
L 86.772289 283.360695 
L 86.887427 282.717492 
L 86.982531 280.78788 
L 87.236133 278.536667 
L 87.485495 278.215065 
L 87.596432 277.571861 
L 87.715145 276.928657 
L 87.974382 274.999046 
L 88.151037 274.355842 
L 88.411163 273.712638 
L 88.616174 271.783027 
L 89.178171 270.818221 
L 89.212323 270.496619 
L 89.693899 270.175018 
L 89.802353 269.853416 
L 90.216373 269.531814 
L 90.37055 268.567008 
L 90.658264 267.923804 
L 90.872969 267.602202 
L 90.922772 266.958999 
L 91.140163 266.637397 
L 91.203902 265.994193 
L 91.57135 265.350989 
L 92.080878 262.456572 
L 92.710957 261.170165 
L 93.014686 260.848563 
L 93.116252 260.205359 
L 93.343418 259.883757 
L 93.395746 259.240553 
L 93.593184 258.918951 
L 93.701839 257.954146 
L 93.984261 257.632544 
L 94.220152 256.346136 
L 94.713684 255.702932 
L 95.144831 255.38133 
L 95.3435 254.094923 
L 95.949182 253.451719 
L 96.040831 252.808515 
L 96.528043 251.522108 
L 97.476816 250.2357 
L 98.176409 247.662885 
L 98.574192 247.341283 
L 98.710516 247.019681 
L 99.245248 246.698079 
L 99.62855 245.733274 
L 99.698691 245.09007 
L 100.449765 244.768468 
L 100.84268 244.125264 
L 100.876589 243.803662 
L 101.1228 243.160458 
L 101.152044 242.838856 
L 101.398194 242.195653 
L 101.557138 241.874051 
L 101.660421 241.230847 
L 101.819122 240.909245 
L 102.28955 240.266041 
L 103.124942 239.944439 
L 103.281018 239.622838 
L 103.311049 238.979634 
L 104.122105 238.658032 
L 104.151086 237.693226 
L 104.304112 237.050022 
L 104.318189 236.72842 
L 104.552343 236.406819 
L 104.603399 236.085217 
L 105.058498 235.763615 
L 105.16683 235.442013 
L 105.406618 235.120411 
L 105.413081 234.798809 
L 105.964536 234.155605 
L 105.969625 233.834003 
L 106.242556 233.512401 
L 106.308052 233.1908 
L 106.620304 232.869198 
L 106.805946 231.904392 
L 107.299156 230.939586 
L 107.35421 230.296383 
L 107.443255 229.974781 
L 107.913239 229.653179 
L 107.998386 229.009975 
L 108.464754 228.366771 
L 108.904808 227.401965 
L 109.300147 227.080364 
L 109.408781 226.758762 
L 110.251525 226.43716 
L 110.483497 226.115558 
L 110.521527 225.793956 
L 110.972526 225.150752 
L 111.949412 223.542743 
L 112.050979 222.899539 
L 112.433695 222.256335 
L 112.594173 221.291529 
L 112.924259 220.648326 
L 113.1407 219.361918 
L 113.481389 218.397112 
L 114.21376 218.07551 
L 114.475017 217.432307 
L 114.83475 217.110705 
L 115.196523 214.859492 
L 115.205248 214.53789 
L 115.602526 214.216288 
L 115.630053 213.573084 
L 116.083799 213.251482 
L 116.314479 212.92988 
L 116.727389 212.608278 
L 116.862703 211.965074 
L 116.969783 211.643473 
L 117.248671 211.321871 
L 118.470112 210.678667 
L 118.545908 210.357065 
L 118.998462 209.713861 
L 119.092617 209.392259 
L 119.443464 209.070657 
L 120.392883 208.749056 
L 120.624472 208.427454 
L 120.661471 207.78425 
L 121.027526 207.462648 
L 121.135797 206.497842 
L 121.584171 205.533037 
L 122.09796 204.889833 
L 122.195164 204.568231 
L 122.457633 204.246629 
L 122.65923 203.281823 
L 123.429409 202.63862 
L 123.544689 201.995416 
L 123.711024 201.352212 
L 123.797443 201.03061 
L 124.145988 200.709008 
L 124.288572 200.065804 
L 124.993518 199.744202 
L 125.042917 199.422601 
L 125.266529 199.100999 
L 126.062054 198.779397 
L 126.465976 198.457795 
L 127.069113 198.136193 
L 127.241547 197.171387 
L 127.402147 196.528183 
L 127.637835 195.563378 
L 128.104022 195.241776 
L 128.254806 194.27697 
L 129.204811 193.955368 
L 129.359958 193.312165 
L 129.378761 192.990563 
L 129.672049 192.347359 
L 129.717995 192.025757 
L 130.099681 191.382553 
L 131.077395 190.739349 
L 131.366725 190.096146 
L 131.90376 189.13134 
L 132.034832 188.488136 
L 132.518509 188.166534 
L 132.637606 187.52333 
L 132.955089 186.880127 
L 133.424426 186.558525 
L 133.950394 185.272117 
L 135.526317 184.950515 
L 136.075712 184.628913 
L 136.296374 183.98571 
L 136.505243 183.664108 
L 136.534224 183.342506 
L 136.754402 183.020904 
L 136.83246 182.699302 
L 137.11254 182.056098 
L 137.727814 181.734496 
L 138.059818 181.091293 
L 138.389762 180.769691 
L 138.684181 179.804885 
L 138.913912 179.483283 
L 138.97959 179.161681 
L 139.32046 178.840079 
L 141.107654 178.196875 
L 141.304264 177.875274 
L 141.42847 177.23207 
L 142.69309 176.267264 
L 142.699532 175.945662 
L 143.172445 175.302458 
L 143.436509 174.659255 
L 144.442619 174.337653 
L 144.470186 173.694449 
L 145.304629 173.372847 
L 145.854105 172.408041 
L 145.859417 171.764838 
L 146.456797 171.121634 
L 147.441116 170.800032 
L 147.867234 170.156828 
L 147.879957 169.835226 
L 148.658477 169.192022 
L 148.849391 168.87042 
L 150.750067 168.227217 
L 150.986362 167.905615 
L 151.754461 167.262411 
L 151.913141 166.619207 
L 152.833115 165.976003 
L 153.350863 165.654402 
L 153.375421 165.3328 
L 153.85316 165.011198 
L 153.937822 164.689596 
L 154.53488 164.367994 
L 154.76243 163.72479 
L 154.943912 163.403188 
L 155.003066 162.759984 
L 155.250509 162.438383 
L 155.614584 160.830373 
L 156.126576 160.187169 
L 156.162889 159.543965 
L 156.757301 158.900762 
L 156.939652 158.257558 
L 158.017114 157.935956 
L 158.200535 157.292752 
L 158.965039 156.97115 
L 159.04443 156.649548 
L 159.481676 156.327947 
L 159.571973 155.684743 
L 159.575729 155.363141 
L 159.971129 154.719937 
L 160.02887 153.755131 
L 160.398014 153.433529 
L 160.611931 152.790326 
L 161.313302 152.147122 
L 161.425734 151.503918 
L 162.278353 151.182316 
L 162.32846 150.860714 
L 162.641803 150.539112 
L 162.75791 149.895909 
L 163.095367 149.574307 
L 163.278061 148.609501 
L 164.028508 148.287899 
L 164.317838 147.644695 
L 164.75264 147.323093 
L 164.768231 147.001492 
L 165.292381 146.67989 
L 165.365693 146.358288 
L 165.978867 146.036686 
L 166.519537 145.393482 
L 166.672422 145.07188 
L 167.452517 144.107075 
L 167.5517 143.785473 
L 168.985342 142.499065 
L 169.010183 142.177463 
L 169.37339 141.855861 
L 169.385932 141.534259 
L 169.830004 141.212657 
L 169.919917 140.569454 
L 172.409674 139.283046 
L 172.809779 138.31824 
L 173.830006 136.388629 
L 174.067048 136.067027 
L 175.313996 135.745425 
L 175.391913 135.102221 
L 176.142562 134.78062 
L 176.441848 134.459018 
L 176.486037 134.137416 
L 177.065989 133.815814 
L 177.287096 133.17261 
L 177.321147 132.851008 
L 177.492632 132.529406 
L 177.574749 131.564601 
L 177.839076 131.242999 
L 178.219389 129.956591 
L 178.39459 129.313387 
L 178.500701 128.670184 
L 179.166708 128.348582 
L 179.643195 127.383776 
L 180.501631 127.062174 
L 181.359097 126.41897 
L 181.578649 125.775766 
L 181.782691 125.454165 
L 181.799514 125.132563 
L 182.121602 124.489359 
L 182.847531 124.167757 
L 182.858255 123.846155 
L 183.790831 123.524553 
L 183.983562 123.202951 
L 184.447427 122.881349 
L 184.63416 121.916544 
L 184.836222 121.594942 
L 186.628951 120.951738 
L 187.09229 120.630136 
L 187.811958 119.343729 
L 187.985705 119.022127 
L 188.341218 118.700525 
L 188.375753 118.378923 
L 189.765084 117.414117 
L 189.867377 116.770913 
L 190.394799 116.12771 
L 190.531163 115.484506 
L 190.997996 115.162904 
L 191.248206 114.841302 
L 191.922211 114.5197 
L 192.024121 113.876496 
L 192.475282 113.233293 
L 193.425186 112.911691 
L 193.490056 112.590089 
L 193.771488 111.946885 
L 193.958323 111.303681 
L 194.59961 110.660477 
L 194.649817 110.017274 
L 194.947609 109.052468 
L 195.888829 108.409264 
L 196.763139 108.087662 
L 196.886739 107.76606 
L 197.557513 107.444458 
L 197.78074 107.122857 
L 197.827494 106.801255 
L 198.145422 106.479653 
L 198.807309 106.158051 
L 200.12151 105.836449 
L 200.126963 105.514847 
L 201.256068 104.871643 
L 201.552042 104.550041 
L 201.750469 103.906838 
L 202.031296 103.585236 
L 202.188946 102.942032 
L 204.103679 101.977226 
L 204.24895 101.334022 
L 204.635484 101.01242 
L 205.264532 100.690819 
L 205.968064 99.404411 
L 206.014656 98.761207 
L 206.749512 98.439605 
L 207.045446 98.118003 
L 207.079516 97.796402 
L 207.362605 97.4748 
L 207.43624 97.153198 
L 208.203026 96.831596 
L 208.49999 96.509994 
L 208.50827 96.188392 
L 210.344138 95.86679 
L 211.243107 95.545188 
L 211.498608 95.223586 
L 211.995473 94.901984 
L 212.452511 94.258781 
L 213.047933 93.937179 
L 213.26696 93.615577 
L 213.480291 92.972373 
L 213.719696 92.650771 
L 214.379907 92.329169 
L 214.759594 92.007567 
L 214.925041 91.685966 
L 214.94041 91.364364 
L 215.147622 91.042762 
L 215.558088 90.72116 
L 215.658968 90.077956 
L 215.953689 89.756354 
L 216.743277 89.434752 
L 216.889901 89.11315 
L 217.759182 88.469947 
L 217.807854 88.148345 
L 218.022075 87.826743 
L 218.03706 87.505141 
L 218.906745 87.183539 
L 218.99894 86.861937 
L 219.653577 86.540335 
L 219.878643 86.218733 
L 220.829254 85.575529 
L 220.934395 85.253928 
L 221.297056 84.932326 
L 221.450466 84.610724 
L 222.966508 83.96752 
L 223.237802 83.645918 
L 223.732183 83.324316 
L 223.89155 83.002714 
L 225.127068 82.681112 
L 225.175276 82.037909 
L 226.10666 81.716307 
L 226.975537 80.751501 
L 227.106247 80.429899 
L 227.612483 80.108297 
L 227.638435 79.465093 
L 227.937761 79.143492 
L 228.077458 78.500288 
L 228.288911 78.178686 
L 228.973256 77.857084 
L 229.256971 77.21388 
L 231.152538 76.570676 
L 231.719928 76.249075 
L 232.484311 75.284269 
L 232.625643 74.962667 
L 233.09908 74.319463 
L 233.108431 73.997861 
L 234.306424 73.354657 
L 235.322551 73.033056 
L 235.599258 72.711454 
L 235.645487 72.389852 
L 236.021963 72.06825 
L 237.756405 71.746648 
L 238.546679 71.425046 
L 238.939252 71.103444 
L 242.231279 70.781842 
L 243.03569 69.817037 
L 244.563102 69.495435 
L 245.143619 69.173833 
L 245.49382 68.852231 
L 247.356063 68.530629 
L 247.794723 68.209027 
L 248.502476 67.887425 
L 248.761208 67.565823 
L 248.787968 66.92262 
L 250.423712 66.601018 
L 250.822666 66.279416 
L 251.61704 65.957814 
L 251.893969 65.636212 
L 253.089296 65.31461 
L 253.670581 64.993008 
L 255.044078 64.671406 
L 256.407578 64.028202 
L 256.418706 63.706601 
L 257.650811 63.384999 
L 258.30672 63.063397 
L 258.411598 62.741795 
L 259.772655 62.420193 
L 260.259664 62.098591 
L 261.148132 61.776989 
L 261.674988 61.455387 
L 261.912353 61.133785 
L 262.630163 60.812184 
L 262.648057 60.490582 
L 263.903225 60.16898 
L 264.921352 59.525776 
L 267.047881 58.882572 
L 267.656007 58.56097 
L 267.739316 58.239368 
L 268.457166 57.917766 
L 268.726522 57.274563 
L 269.920233 56.631359 
L 270.064353 56.309757 
L 270.483079 55.988155 
L 271.321177 55.666553 
L 271.428358 55.344951 
L 271.874611 55.023349 
L 272.084267 54.701748 
L 274.847702 54.380146 
L 275.799646 54.058544 
L 279.510157 53.41534 
L 281.079577 52.772136 
L 282.099097 52.450534 
L 285.82118 52.128932 
L 286.057879 51.80733 
L 287.596742 51.485729 
L 288.626986 50.842525 
L 291.315109 50.199321 
L 291.349867 49.877719 
L 292.85373 49.556117 
L 294.38815 48.912913 
L 296.782682 48.26971 
L 297.180061 47.948108 
L 298.159471 47.626506 
L 298.256918 47.304904 
L 299.396746 46.983302 
L 299.871678 46.6617 
L 304.30731 46.340098 
L 306.237756 46.018496 
L 307.174815 45.696894 
L 309.190327 44.410487 
L 312.7054 43.445681 
L 314.646348 43.124079 
L 314.781945 42.802477 
L 316.254565 42.480875 
L 316.36633 42.159274 
L 317.071639 41.51607 
L 320.234472 41.194468 
L 320.463273 40.872866 
L 325.566569 40.551264 
L 333.245637 40.229662 
L 335.26438 39.90806 
L 338.283416 39.586458 
L 339.28682 39.264857 
L 339.754279 38.943255 
L 340.608696 38.621653 
L 346.511637 38.300051 
L 346.840874 37.978449 
L 348.292672 37.656847 
L 354.023925 37.335245 
L 365.680679 37.013643 
L 368.612205 36.692041 
L 373.817612 36.370439 
L 375.666749 35.727236 
L 376.089857 35.084032 
L 380.907539 34.76243 
L 383.781224 34.440828 
L 391.259301 34.119226 
L 392.383639 33.797624 
L 408.703897 33.476022 
L 421.031545 32.511217 
L 430.2046 32.189615 
L 430.816522 31.868013 
L 439.346655 31.546411 
L 459.620545 31.224809 
L 460.459249 30.903207 
L 473.509837 30.581605 
L 480.493836 30.260003 
L 482.024701 29.938402 
L 487.62161 29.6168 
L 488.837962 29.295198 
L 523.237297 28.973596 
L 527.405836 28.651994 
L 537.457463 28.330392 
L 542.152494 28.00879 
L 560.623437 27.928422 
L 560.623437 27.928422 
" clip-path="url(#p72a9b2dc38)" style="fill: none; stroke: #90d743; stroke-opacity: 0.85; stroke-width: 2.5; stroke-linecap: round"/>
   </g>
   <g id="patch_3">
    <path d="M 54.723438 365.94 
L 54.723438 7.2 
" style="fill: none; stroke: #cccccc; stroke-width: 1.25; stroke-linejoin: miter; stroke-linecap: square"/>
   </g>
   <g id="patch_4">
    <path d="M 552.423437 365.94 
L 552.423437 7.2 
" style="fill: none; stroke: #cccccc; stroke-width: 1.25; stroke-linejoin: miter; stroke-linecap: square"/>
   </g>
   <g id="patch_5">
    <path d="M 54.723438 365.94 
L 552.423437 365.94 
" style="fill: none; stroke: #cccccc; stroke-width: 1.25; stroke-linejoin: miter; stroke-linecap: square"/>
   </g>
   <g id="patch_6">
    <path d="M 54.723438 7.2 
L 552.423437 7.2 
" style="fill: none; stroke: #cccccc; stroke-width: 1.25; stroke-linejoin: miter; stroke-linecap: square"/>
   </g>
   <g id="legend_1">
    <g id="patch_7">
     <path d="M 63.123438 101.671875 
L 132.003438 101.671875 
Q 134.403438 101.671875 134.403438 99.271875 
L 134.403438 15.6 
Q 134.403438 13.2 132.003438 13.2 
L 63.123438 13.2 
Q 60.723438 13.2 60.723438 15.6 
L 60.723438 99.271875 
Q 60.723438 101.671875 63.123438 101.671875 
z
" style="fill: #ffffff; opacity: 0.8; stroke: #cccccc; stroke-linejoin: miter"/>
    </g>
    <g id="line2d_18">
     <path d="M 65.523438 22.389375 
L 77.523438 22.389375 
L 89.523438 22.389375 
" style="fill: none; stroke: #443983; stroke-opacity: 0.85; stroke-width: 2.5; stroke-linecap: round"/>
    </g>
    <g id="text_15">
     <!-- $\mathregular{ULM}_{\mathregular{L}}$ -->
     <g style="fill: #262626" transform="translate(99.123438 26.589375) scale(0.12 -0.12)">
      <defs>
       <path id="ArialMT-55" d="M 3500 4581 
L 4106 4581 
L 4106 1934 
Q 4106 1244 3950 837 
Q 3794 431 3386 176 
Q 2978 -78 2316 -78 
Q 1672 -78 1262 144 
Q 853 366 678 786 
Q 503 1206 503 1934 
L 503 4581 
L 1109 4581 
L 1109 1938 
Q 1109 1341 1220 1058 
Q 1331 775 1601 622 
Q 1872 469 2263 469 
Q 2931 469 3215 772 
Q 3500 1075 3500 1938 
L 3500 4581 
z
" transform="scale(0.015625)"/>
       <path id="ArialMT-4c" d="M 469 0 
L 469 4581 
L 1075 4581 
L 1075 541 
L 3331 541 
L 3331 0 
L 469 0 
z
" transform="scale(0.015625)"/>
       <path id="ArialMT-4d" d="M 475 0 
L 475 4581 
L 1388 4581 
L 2472 1338 
Q 2622 884 2691 659 
Q 2769 909 2934 1394 
L 4031 4581 
L 4847 4581 
L 4847 0 
L 4263 0 
L 4263 3834 
L 2931 0 
L 2384 0 
L 1059 3900 
L 1059 0 
L 475 0 
z
" transform="scale(0.015625)"/>
      </defs>
      <use xlink:href="#ArialMT-55" transform="translate(0 0.421875)"/>
      <use xlink:href="#ArialMT-4c" transform="translate(72.216797 0.421875)"/>
      <use xlink:href="#ArialMT-4d" transform="translate(127.832031 0.421875)"/>
      <use xlink:href="#ArialMT-4c" transform="translate(212.089844 -15.984375) scale(0.7)"/>
     </g>
    </g>
    <g id="line2d_19">
     <path d="M 65.523438 39.36375 
L 77.523438 39.36375 
L 89.523438 39.36375 
" style="fill: none; stroke: #31688e; stroke-opacity: 0.85; stroke-width: 2.5; stroke-linecap: round"/>
    </g>
    <g id="text_16">
     <!-- $\mathregular{DLM}_{\mathregular{2}}$ -->
     <g style="fill: #262626" transform="translate(99.123438 43.56375) scale(0.12 -0.12)">
      <defs>
       <path id="ArialMT-44" d="M 494 0 
L 494 4581 
L 2072 4581 
Q 2606 4581 2888 4516 
Q 3281 4425 3559 4188 
Q 3922 3881 4101 3404 
Q 4281 2928 4281 2316 
Q 4281 1794 4159 1391 
Q 4038 988 3847 723 
Q 3656 459 3429 307 
Q 3203 156 2883 78 
Q 2563 0 2147 0 
L 494 0 
z
M 1100 541 
L 2078 541 
Q 2531 541 2789 625 
Q 3047 709 3200 863 
Q 3416 1078 3536 1442 
Q 3656 1806 3656 2325 
Q 3656 3044 3420 3430 
Q 3184 3816 2847 3947 
Q 2603 4041 2063 4041 
L 1100 4041 
L 1100 541 
z
" transform="scale(0.015625)"/>
      </defs>
      <use xlink:href="#ArialMT-44" transform="translate(0 0.421875)"/>
      <use xlink:href="#ArialMT-4c" transform="translate(72.216797 0.421875)"/>
      <use xlink:href="#ArialMT-4d" transform="translate(127.832031 0.421875)"/>
      <use xlink:href="#ArialMT-32" transform="translate(212.089844 -15.984375) scale(0.7)"/>
     </g>
    </g>
    <g id="line2d_20">
     <path d="M 65.523438 56.338125 
L 77.523438 56.338125 
L 89.523438 56.338125 
" style="fill: none; stroke: #21918c; stroke-opacity: 0.85; stroke-width: 2.5; stroke-linecap: round"/>
    </g>
    <g id="text_17">
     <!-- $\mathregular{DLM}_{\mathregular{3}}$ -->
     <g style="fill: #262626" transform="translate(99.123438 60.538125) scale(0.12 -0.12)">
      <use xlink:href="#ArialMT-44" transform="translate(0 0.421875)"/>
      <use xlink:href="#ArialMT-4c" transform="translate(72.216797 0.421875)"/>
      <use xlink:href="#ArialMT-4d" transform="translate(127.832031 0.421875)"/>
      <use xlink:href="#ArialMT-33" transform="translate(212.089844 -15.984375) scale(0.7)"/>
     </g>
    </g>
    <g id="line2d_21">
     <path d="M 65.523438 73.3125 
L 77.523438 73.3125 
L 89.523438 73.3125 
" style="fill: none; stroke: #35b779; stroke-opacity: 0.85; stroke-width: 2.5; stroke-linecap: round"/>
    </g>
    <g id="text_18">
     <!-- $\mathregular{LM}_{\mathregular{C}}$ -->
     <g style="fill: #262626" transform="translate(99.123438 77.5125) scale(0.12 -0.12)">
      <defs>
       <path id="ArialMT-43" d="M 3763 1606 
L 4369 1453 
Q 4178 706 3683 314 
Q 3188 -78 2472 -78 
Q 1731 -78 1267 223 
Q 803 525 561 1097 
Q 319 1669 319 2325 
Q 319 3041 592 3573 
Q 866 4106 1370 4382 
Q 1875 4659 2481 4659 
Q 3169 4659 3637 4309 
Q 4106 3959 4291 3325 
L 3694 3184 
Q 3534 3684 3231 3912 
Q 2928 4141 2469 4141 
Q 1941 4141 1586 3887 
Q 1231 3634 1087 3207 
Q 944 2781 944 2328 
Q 944 1744 1114 1308 
Q 1284 872 1643 656 
Q 2003 441 2422 441 
Q 2931 441 3284 734 
Q 3638 1028 3763 1606 
z
" transform="scale(0.015625)"/>
      </defs>
      <use xlink:href="#ArialMT-4c" transform="translate(0 0.421875)"/>
      <use xlink:href="#ArialMT-4d" transform="translate(55.615234 0.421875)"/>
      <use xlink:href="#ArialMT-43" transform="translate(139.873047 -15.984375) scale(0.7)"/>
     </g>
    </g>
    <g id="line2d_22">
     <path d="M 65.523438 90.286875 
L 77.523438 90.286875 
L 89.523438 90.286875 
" style="fill: none; stroke: #90d743; stroke-opacity: 0.85; stroke-width: 2.5; stroke-linecap: round"/>
    </g>
    <g id="text_19">
     <!-- $\mathregular{LM}_{\mathregular{L}}$ -->
     <g style="fill: #262626" transform="translate(99.123438 94.486875) scale(0.12 -0.12)">
      <use xlink:href="#ArialMT-4c" transform="translate(0 0.421875)"/>
      <use xlink:href="#ArialMT-4d" transform="translate(55.615234 0.421875)"/>
      <use xlink:href="#ArialMT-4c" transform="translate(139.873047 -15.984375) scale(0.7)"/>
     </g>
    </g>
   </g>
  </g>
 </g>
 <defs>
  <clipPath id="p72a9b2dc38">
   <rect x="54.723438" y="7.2" width="497.7" height="358.74"/>
  </clipPath>
 </defs>
</svg>
