<?xml version="1.0" encoding="utf-8" standalone="no"?>
<!DOCTYPE svg PUBLIC "-//W3C//DTD SVG 1.1//EN"
  "http://www.w3.org/Graphics/SVG/1.1/DTD/svg11.dtd">
<svg xmlns:xlink="http://www.w3.org/1999/xlink" width="411.38625pt" height="411.597187pt" viewBox="0 0 411.38625 411.597187" xmlns="http://www.w3.org/2000/svg" version="1.1">
 <metadata>
  <rdf:RDF xmlns:dc="http://purl.org/dc/elements/1.1/" xmlns:cc="http://creativecommons.org/ns#" xmlns:rdf="http://www.w3.org/1999/02/22-rdf-syntax-ns#">
   <cc:Work>
    <dc:type rdf:resource="http://purl.org/dc/dcmitype/StillImage"/>
    <dc:date>2026-03-13T17:13:02.695980</dc:date>
    <dc:format>image/svg+xml</dc:format>
    <dc:creator>
     <cc:Agent>
      <dc:title>Matplotlib v3.10.0, https://matplotlib.org/</dc:title>
     </cc:Agent>
    </dc:creator>
   </cc:Work>
  </rdf:RDF>
 </metadata>
 <defs>
  <style type="text/css">*{stroke-linejoin: round; stroke-linecap: butt}</style>
 </defs>
 <g id="figure_1">
  <g id="patch_1">
   <path d="M 0 411.597187 
L 411.38625 411.597187 
L 411.38625 0 
L 0 0 
z
" style="fill: #ffffff"/>
  </g>
  <g id="axes_1">
   <g id="patch_2">
    <path d="M 58.66625 359.325 
L 394.45625 359.325 
L 394.45625 7.2 
L 58.66625 7.2 
z
" style="fill: #ffffff"/>
   </g>
   <g id="matplotlib.axis_1">
    <g id="xtick_1">
     <g id="line2d_1">
      <path d="M 89.192614 359.325 
L 89.192614 7.2 
" clip-path="url(#p4966136895)" style="fill: none; stroke-dasharray: 3.7,1.6; stroke-dashoffset: 0; stroke: #cccccc; stroke-opacity: 0.6"/>
     </g>
     <g id="text_1">
      <!-- 0.0 -->
      <g style="fill: #262626" transform="translate(79.462614 378.845937) scale(0.14 -0.14)">
       <defs>
        <path id="ArialMT-30" d="M 266 2259 
Q 266 3072 433 3567 
Q 600 4063 929 4331 
Q 1259 4600 1759 4600 
Q 2128 4600 2406 4451 
Q 2684 4303 2865 4023 
Q 3047 3744 3150 3342 
Q 3253 2941 3253 2259 
Q 3253 1453 3087 958 
Q 2922 463 2592 192 
Q 2263 -78 1759 -78 
Q 1097 -78 719 397 
Q 266 969 266 2259 
z
M 844 2259 
Q 844 1131 1108 757 
Q 1372 384 1759 384 
Q 2147 384 2411 759 
Q 2675 1134 2675 2259 
Q 2675 3391 2411 3762 
Q 2147 4134 1753 4134 
Q 1366 4134 1134 3806 
Q 844 3388 844 2259 
z
" transform="scale(0.015625)"/>
        <path id="ArialMT-2e" d="M 581 0 
L 581 641 
L 1222 641 
L 1222 0 
L 581 0 
z
" transform="scale(0.015625)"/>
       </defs>
       <use xlink:href="#ArialMT-30"/>
       <use xlink:href="#ArialMT-2e" transform="translate(55.615234 0)"/>
       <use xlink:href="#ArialMT-30" transform="translate(83.398438 0)"/>
      </g>
     </g>
    </g>
    <g id="xtick_2">
     <g id="line2d_2">
      <path d="M 150.245341 359.325 
L 150.245341 7.2 
" clip-path="url(#p4966136895)" style="fill: none; stroke-dasharray: 3.7,1.6; stroke-dashoffset: 0; stroke: #cccccc; stroke-opacity: 0.6"/>
     </g>
     <g id="text_2">
      <!-- 0.2 -->
      <g style="fill: #262626" transform="translate(140.515341 378.845937) scale(0.14 -0.14)">
       <defs>
        <path id="ArialMT-32" d="M 3222 541 
L 3222 0 
L 194 0 
Q 188 203 259 391 
Q 375 700 629 1000 
Q 884 1300 1366 1694 
Q 2113 2306 2375 2664 
Q 2638 3022 2638 3341 
Q 2638 3675 2398 3904 
Q 2159 4134 1775 4134 
Q 1369 4134 1125 3890 
Q 881 3647 878 3216 
L 300 3275 
Q 359 3922 746 4261 
Q 1134 4600 1788 4600 
Q 2447 4600 2831 4234 
Q 3216 3869 3216 3328 
Q 3216 3053 3103 2787 
Q 2991 2522 2730 2228 
Q 2469 1934 1863 1422 
Q 1356 997 1212 845 
Q 1069 694 975 541 
L 3222 541 
z
" transform="scale(0.015625)"/>
       </defs>
       <use xlink:href="#ArialMT-30"/>
       <use xlink:href="#ArialMT-2e" transform="translate(55.615234 0)"/>
       <use xlink:href="#ArialMT-32" transform="translate(83.398438 0)"/>
      </g>
     </g>
    </g>
    <g id="xtick_3">
     <g id="line2d_3">
      <path d="M 211.298068 359.325 
L 211.298068 7.2 
" clip-path="url(#p4966136895)" style="fill: none; stroke-dasharray: 3.7,1.6; stroke-dashoffset: 0; stroke: #cccccc; stroke-opacity: 0.6"/>
     </g>
     <g id="text_3">
      <!-- 0.4 -->
      <g style="fill: #262626" transform="translate(201.568068 378.845937) scale(0.14 -0.14)">
       <defs>
        <path id="ArialMT-34" d="M 2069 0 
L 2069 1097 
L 81 1097 
L 81 1613 
L 2172 4581 
L 2631 4581 
L 2631 1613 
L 3250 1613 
L 3250 1097 
L 2631 1097 
L 2631 0 
L 2069 0 
z
M 2069 1613 
L 2069 3678 
L 634 1613 
L 2069 1613 
z
" transform="scale(0.015625)"/>
       </defs>
       <use xlink:href="#ArialMT-30"/>
       <use xlink:href="#ArialMT-2e" transform="translate(55.615234 0)"/>
       <use xlink:href="#ArialMT-34" transform="translate(83.398438 0)"/>
      </g>
     </g>
    </g>
    <g id="xtick_4">
     <g id="line2d_4">
      <path d="M 272.350795 359.325 
L 272.350795 7.2 
" clip-path="url(#p4966136895)" style="fill: none; stroke-dasharray: 3.7,1.6; stroke-dashoffset: 0; stroke: #cccccc; stroke-opacity: 0.6"/>
     </g>
     <g id="text_4">
      <!-- 0.6 -->
      <g style="fill: #262626" transform="translate(262.620795 378.845937) scale(0.14 -0.14)">
       <defs>
        <path id="ArialMT-36" d="M 3184 3459 
L 2625 3416 
Q 2550 3747 2413 3897 
Q 2184 4138 1850 4138 
Q 1581 4138 1378 3988 
Q 1113 3794 959 3422 
Q 806 3050 800 2363 
Q 1003 2672 1297 2822 
Q 1591 2972 1913 2972 
Q 2475 2972 2870 2558 
Q 3266 2144 3266 1488 
Q 3266 1056 3080 686 
Q 2894 316 2569 119 
Q 2244 -78 1831 -78 
Q 1128 -78 684 439 
Q 241 956 241 2144 
Q 241 3472 731 4075 
Q 1159 4600 1884 4600 
Q 2425 4600 2770 4297 
Q 3116 3994 3184 3459 
z
M 888 1484 
Q 888 1194 1011 928 
Q 1134 663 1356 523 
Q 1578 384 1822 384 
Q 2178 384 2434 671 
Q 2691 959 2691 1453 
Q 2691 1928 2437 2201 
Q 2184 2475 1800 2475 
Q 1419 2475 1153 2201 
Q 888 1928 888 1484 
z
" transform="scale(0.015625)"/>
       </defs>
       <use xlink:href="#ArialMT-30"/>
       <use xlink:href="#ArialMT-2e" transform="translate(55.615234 0)"/>
       <use xlink:href="#ArialMT-36" transform="translate(83.398438 0)"/>
      </g>
     </g>
    </g>
    <g id="xtick_5">
     <g id="line2d_5">
      <path d="M 333.403523 359.325 
L 333.403523 7.2 
" clip-path="url(#p4966136895)" style="fill: none; stroke-dasharray: 3.7,1.6; stroke-dashoffset: 0; stroke: #cccccc; stroke-opacity: 0.6"/>
     </g>
     <g id="text_5">
      <!-- 0.8 -->
      <g style="fill: #262626" transform="translate(323.673523 378.845937) scale(0.14 -0.14)">
       <defs>
        <path id="ArialMT-38" d="M 1131 2484 
Q 781 2613 612 2850 
Q 444 3088 444 3419 
Q 444 3919 803 4259 
Q 1163 4600 1759 4600 
Q 2359 4600 2725 4251 
Q 3091 3903 3091 3403 
Q 3091 3084 2923 2848 
Q 2756 2613 2416 2484 
Q 2838 2347 3058 2040 
Q 3278 1734 3278 1309 
Q 3278 722 2862 322 
Q 2447 -78 1769 -78 
Q 1091 -78 675 323 
Q 259 725 259 1325 
Q 259 1772 486 2073 
Q 713 2375 1131 2484 
z
M 1019 3438 
Q 1019 3113 1228 2906 
Q 1438 2700 1772 2700 
Q 2097 2700 2305 2904 
Q 2513 3109 2513 3406 
Q 2513 3716 2298 3927 
Q 2084 4138 1766 4138 
Q 1444 4138 1231 3931 
Q 1019 3725 1019 3438 
z
M 838 1322 
Q 838 1081 952 856 
Q 1066 631 1291 507 
Q 1516 384 1775 384 
Q 2178 384 2440 643 
Q 2703 903 2703 1303 
Q 2703 1709 2433 1975 
Q 2163 2241 1756 2241 
Q 1359 2241 1098 1978 
Q 838 1716 838 1322 
z
" transform="scale(0.015625)"/>
       </defs>
       <use xlink:href="#ArialMT-30"/>
       <use xlink:href="#ArialMT-2e" transform="translate(55.615234 0)"/>
       <use xlink:href="#ArialMT-38" transform="translate(83.398438 0)"/>
      </g>
     </g>
    </g>
    <g id="xtick_6">
     <g id="line2d_6">
      <path d="M 394.45625 359.325 
L 394.45625 7.2 
" clip-path="url(#p4966136895)" style="fill: none; stroke-dasharray: 3.7,1.6; stroke-dashoffset: 0; stroke: #cccccc; stroke-opacity: 0.6"/>
     </g>
     <g id="text_6">
      <!-- 1.0 -->
      <g style="fill: #262626" transform="translate(384.72625 378.845937) scale(0.14 -0.14)">
       <defs>
        <path id="ArialMT-31" d="M 2384 0 
L 1822 0 
L 1822 3584 
Q 1619 3391 1289 3197 
Q 959 3003 697 2906 
L 697 3450 
Q 1169 3672 1522 3987 
Q 1875 4303 2022 4600 
L 2384 4600 
L 2384 0 
z
" transform="scale(0.015625)"/>
       </defs>
       <use xlink:href="#ArialMT-31"/>
       <use xlink:href="#ArialMT-2e" transform="translate(55.615234 0)"/>
       <use xlink:href="#ArialMT-30" transform="translate(83.398438 0)"/>
      </g>
     </g>
    </g>
    <g id="text_7">
     <!-- Normalized Intensity Before Response -->
     <g style="fill: #262626" transform="translate(43.750312 400.187812) scale(0.2 -0.2)">
      <defs>
       <path id="Arial-BoldMT-4e" d="M 475 0 
L 475 4581 
L 1375 4581 
L 3250 1522 
L 3250 4581 
L 4109 4581 
L 4109 0 
L 3181 0 
L 1334 2988 
L 1334 0 
L 475 0 
z
" transform="scale(0.015625)"/>
       <path id="Arial-BoldMT-6f" d="M 256 1706 
Q 256 2144 472 2553 
Q 688 2963 1083 3178 
Q 1478 3394 1966 3394 
Q 2719 3394 3200 2905 
Q 3681 2416 3681 1669 
Q 3681 916 3195 420 
Q 2709 -75 1972 -75 
Q 1516 -75 1102 131 
Q 688 338 472 736 
Q 256 1134 256 1706 
z
M 1156 1659 
Q 1156 1166 1390 903 
Q 1625 641 1969 641 
Q 2313 641 2545 903 
Q 2778 1166 2778 1666 
Q 2778 2153 2545 2415 
Q 2313 2678 1969 2678 
Q 1625 2678 1390 2415 
Q 1156 2153 1156 1659 
z
" transform="scale(0.015625)"/>
       <path id="Arial-BoldMT-72" d="M 1300 0 
L 422 0 
L 422 3319 
L 1238 3319 
L 1238 2847 
Q 1447 3181 1614 3287 
Q 1781 3394 1994 3394 
Q 2294 3394 2572 3228 
L 2300 2463 
Q 2078 2606 1888 2606 
Q 1703 2606 1575 2504 
Q 1447 2403 1373 2137 
Q 1300 1872 1300 1025 
L 1300 0 
z
" transform="scale(0.015625)"/>
       <path id="Arial-BoldMT-6d" d="M 394 3319 
L 1203 3319 
L 1203 2866 
Q 1638 3394 2238 3394 
Q 2556 3394 2790 3262 
Q 3025 3131 3175 2866 
Q 3394 3131 3647 3262 
Q 3900 3394 4188 3394 
Q 4553 3394 4806 3245 
Q 5059 3097 5184 2809 
Q 5275 2597 5275 2122 
L 5275 0 
L 4397 0 
L 4397 1897 
Q 4397 2391 4306 2534 
Q 4184 2722 3931 2722 
Q 3747 2722 3584 2609 
Q 3422 2497 3350 2280 
Q 3278 2063 3278 1594 
L 3278 0 
L 2400 0 
L 2400 1819 
Q 2400 2303 2353 2443 
Q 2306 2584 2207 2653 
Q 2109 2722 1941 2722 
Q 1738 2722 1575 2612 
Q 1413 2503 1342 2297 
Q 1272 2091 1272 1613 
L 1272 0 
L 394 0 
L 394 3319 
z
" transform="scale(0.015625)"/>
       <path id="Arial-BoldMT-61" d="M 1116 2306 
L 319 2450 
Q 453 2931 781 3162 
Q 1109 3394 1756 3394 
Q 2344 3394 2631 3255 
Q 2919 3116 3036 2902 
Q 3153 2688 3153 2116 
L 3144 1091 
Q 3144 653 3186 445 
Q 3228 238 3344 0 
L 2475 0 
Q 2441 88 2391 259 
Q 2369 338 2359 363 
Q 2134 144 1878 34 
Q 1622 -75 1331 -75 
Q 819 -75 523 203 
Q 228 481 228 906 
Q 228 1188 362 1408 
Q 497 1628 739 1745 
Q 981 1863 1438 1950 
Q 2053 2066 2291 2166 
L 2291 2253 
Q 2291 2506 2166 2614 
Q 2041 2722 1694 2722 
Q 1459 2722 1328 2630 
Q 1197 2538 1116 2306 
z
M 2291 1594 
Q 2122 1538 1756 1459 
Q 1391 1381 1278 1306 
Q 1106 1184 1106 997 
Q 1106 813 1243 678 
Q 1381 544 1594 544 
Q 1831 544 2047 700 
Q 2206 819 2256 991 
Q 2291 1103 2291 1419 
L 2291 1594 
z
" transform="scale(0.015625)"/>
       <path id="Arial-BoldMT-6c" d="M 459 0 
L 459 4581 
L 1338 4581 
L 1338 0 
L 459 0 
z
" transform="scale(0.015625)"/>
       <path id="Arial-BoldMT-69" d="M 459 3769 
L 459 4581 
L 1338 4581 
L 1338 3769 
L 459 3769 
z
M 459 0 
L 459 3319 
L 1338 3319 
L 1338 0 
L 459 0 
z
" transform="scale(0.015625)"/>
       <path id="Arial-BoldMT-7a" d="M 106 0 
L 106 684 
L 1350 2113 
Q 1656 2463 1803 2609 
Q 1650 2600 1400 2597 
L 228 2591 
L 228 3319 
L 2972 3319 
L 2972 2697 
L 1703 1234 
L 1256 750 
Q 1622 772 1709 772 
L 3069 772 
L 3069 0 
L 106 0 
z
" transform="scale(0.015625)"/>
       <path id="Arial-BoldMT-65" d="M 2381 1056 
L 3256 909 
Q 3088 428 2723 176 
Q 2359 -75 1813 -75 
Q 947 -75 531 491 
Q 203 944 203 1634 
Q 203 2459 634 2926 
Q 1066 3394 1725 3394 
Q 2466 3394 2894 2905 
Q 3322 2416 3303 1406 
L 1103 1406 
Q 1113 1016 1316 798 
Q 1519 581 1822 581 
Q 2028 581 2168 693 
Q 2309 806 2381 1056 
z
M 2431 1944 
Q 2422 2325 2234 2523 
Q 2047 2722 1778 2722 
Q 1491 2722 1303 2513 
Q 1116 2303 1119 1944 
L 2431 1944 
z
" transform="scale(0.015625)"/>
       <path id="Arial-BoldMT-64" d="M 3503 0 
L 2688 0 
L 2688 488 
Q 2484 203 2207 64 
Q 1931 -75 1650 -75 
Q 1078 -75 670 386 
Q 263 847 263 1672 
Q 263 2516 659 2955 
Q 1056 3394 1663 3394 
Q 2219 3394 2625 2931 
L 2625 4581 
L 3503 4581 
L 3503 0 
z
M 1159 1731 
Q 1159 1200 1306 963 
Q 1519 619 1900 619 
Q 2203 619 2415 876 
Q 2628 1134 2628 1647 
Q 2628 2219 2422 2470 
Q 2216 2722 1894 2722 
Q 1581 2722 1370 2473 
Q 1159 2225 1159 1731 
z
" transform="scale(0.015625)"/>
       <path id="Arial-BoldMT-20" transform="scale(0.015625)"/>
       <path id="Arial-BoldMT-49" d="M 438 0 
L 438 4581 
L 1363 4581 
L 1363 0 
L 438 0 
z
" transform="scale(0.015625)"/>
       <path id="Arial-BoldMT-6e" d="M 3478 0 
L 2600 0 
L 2600 1694 
Q 2600 2231 2544 2389 
Q 2488 2547 2361 2634 
Q 2234 2722 2056 2722 
Q 1828 2722 1647 2597 
Q 1466 2472 1398 2265 
Q 1331 2059 1331 1503 
L 1331 0 
L 453 0 
L 453 3319 
L 1269 3319 
L 1269 2831 
Q 1703 3394 2363 3394 
Q 2653 3394 2893 3289 
Q 3134 3184 3257 3021 
Q 3381 2859 3429 2653 
Q 3478 2447 3478 2063 
L 3478 0 
z
" transform="scale(0.015625)"/>
       <path id="Arial-BoldMT-74" d="M 1981 3319 
L 1981 2619 
L 1381 2619 
L 1381 1281 
Q 1381 875 1398 808 
Q 1416 741 1477 697 
Q 1538 653 1625 653 
Q 1747 653 1978 738 
L 2053 56 
Q 1747 -75 1359 -75 
Q 1122 -75 931 4 
Q 741 84 652 211 
Q 563 338 528 553 
Q 500 706 500 1172 
L 500 2619 
L 97 2619 
L 97 3319 
L 500 3319 
L 500 3978 
L 1381 4491 
L 1381 3319 
L 1981 3319 
z
" transform="scale(0.015625)"/>
       <path id="Arial-BoldMT-73" d="M 150 947 
L 1031 1081 
Q 1088 825 1259 692 
Q 1431 559 1741 559 
Q 2081 559 2253 684 
Q 2369 772 2369 919 
Q 2369 1019 2306 1084 
Q 2241 1147 2013 1200 
Q 950 1434 666 1628 
Q 272 1897 272 2375 
Q 272 2806 612 3100 
Q 953 3394 1669 3394 
Q 2350 3394 2681 3172 
Q 3013 2950 3138 2516 
L 2309 2363 
Q 2256 2556 2107 2659 
Q 1959 2763 1684 2763 
Q 1338 2763 1188 2666 
Q 1088 2597 1088 2488 
Q 1088 2394 1175 2328 
Q 1294 2241 1995 2081 
Q 2697 1922 2975 1691 
Q 3250 1456 3250 1038 
Q 3250 581 2869 253 
Q 2488 -75 1741 -75 
Q 1063 -75 667 200 
Q 272 475 150 947 
z
" transform="scale(0.015625)"/>
       <path id="Arial-BoldMT-79" d="M 44 3319 
L 978 3319 
L 1772 963 
L 2547 3319 
L 3456 3319 
L 2284 125 
L 2075 -453 
Q 1959 -744 1854 -897 
Q 1750 -1050 1614 -1145 
Q 1478 -1241 1279 -1294 
Q 1081 -1347 831 -1347 
Q 578 -1347 334 -1294 
L 256 -606 
Q 463 -647 628 -647 
Q 934 -647 1081 -467 
Q 1228 -288 1306 -9 
L 44 3319 
z
" transform="scale(0.015625)"/>
       <path id="Arial-BoldMT-42" d="M 469 4581 
L 2300 4581 
Q 2844 4581 3111 4536 
Q 3378 4491 3589 4347 
Q 3800 4203 3940 3964 
Q 4081 3725 4081 3428 
Q 4081 3106 3907 2837 
Q 3734 2569 3438 2434 
Q 3856 2313 4081 2019 
Q 4306 1725 4306 1328 
Q 4306 1016 4161 720 
Q 4016 425 3764 248 
Q 3513 72 3144 31 
Q 2913 6 2028 0 
L 469 0 
L 469 4581 
z
M 1394 3819 
L 1394 2759 
L 2000 2759 
Q 2541 2759 2672 2775 
Q 2909 2803 3045 2939 
Q 3181 3075 3181 3297 
Q 3181 3509 3064 3642 
Q 2947 3775 2716 3803 
Q 2578 3819 1925 3819 
L 1394 3819 
z
M 1394 1997 
L 1394 772 
L 2250 772 
Q 2750 772 2884 800 
Q 3091 838 3220 983 
Q 3350 1128 3350 1372 
Q 3350 1578 3250 1722 
Q 3150 1866 2961 1931 
Q 2772 1997 2141 1997 
L 1394 1997 
z
" transform="scale(0.015625)"/>
       <path id="Arial-BoldMT-66" d="M 75 3319 
L 563 3319 
L 563 3569 
Q 563 3988 652 4194 
Q 741 4400 980 4529 
Q 1219 4659 1584 4659 
Q 1959 4659 2319 4547 
L 2200 3934 
Q 1991 3984 1797 3984 
Q 1606 3984 1523 3895 
Q 1441 3806 1441 3553 
L 1441 3319 
L 2097 3319 
L 2097 2628 
L 1441 2628 
L 1441 0 
L 563 0 
L 563 2628 
L 75 2628 
L 75 3319 
z
" transform="scale(0.015625)"/>
       <path id="Arial-BoldMT-52" d="M 469 0 
L 469 4581 
L 2416 4581 
Q 3150 4581 3483 4457 
Q 3816 4334 4016 4018 
Q 4216 3703 4216 3297 
Q 4216 2781 3912 2445 
Q 3609 2109 3006 2022 
Q 3306 1847 3501 1637 
Q 3697 1428 4028 894 
L 4588 0 
L 3481 0 
L 2813 997 
Q 2456 1531 2325 1670 
Q 2194 1809 2047 1861 
Q 1900 1913 1581 1913 
L 1394 1913 
L 1394 0 
L 469 0 
z
M 1394 2644 
L 2078 2644 
Q 2744 2644 2909 2700 
Q 3075 2756 3169 2893 
Q 3263 3031 3263 3238 
Q 3263 3469 3139 3611 
Q 3016 3753 2791 3791 
Q 2678 3806 2116 3806 
L 1394 3806 
L 1394 2644 
z
" transform="scale(0.015625)"/>
       <path id="Arial-BoldMT-70" d="M 434 3319 
L 1253 3319 
L 1253 2831 
Q 1413 3081 1684 3237 
Q 1956 3394 2288 3394 
Q 2866 3394 3269 2941 
Q 3672 2488 3672 1678 
Q 3672 847 3265 386 
Q 2859 -75 2281 -75 
Q 2006 -75 1782 34 
Q 1559 144 1313 409 
L 1313 -1263 
L 434 -1263 
L 434 3319 
z
M 1303 1716 
Q 1303 1156 1525 889 
Q 1747 622 2066 622 
Q 2372 622 2575 867 
Q 2778 1113 2778 1672 
Q 2778 2194 2568 2447 
Q 2359 2700 2050 2700 
Q 1728 2700 1515 2451 
Q 1303 2203 1303 1716 
z
" transform="scale(0.015625)"/>
      </defs>
      <use xlink:href="#Arial-BoldMT-4e"/>
      <use xlink:href="#Arial-BoldMT-6f" transform="translate(72.216797 0)"/>
      <use xlink:href="#Arial-BoldMT-72" transform="translate(133.300781 0)"/>
      <use xlink:href="#Arial-BoldMT-6d" transform="translate(172.216797 0)"/>
      <use xlink:href="#Arial-BoldMT-61" transform="translate(261.132812 0)"/>
      <use xlink:href="#Arial-BoldMT-6c" transform="translate(316.748047 0)"/>
      <use xlink:href="#Arial-BoldMT-69" transform="translate(344.53125 0)"/>
      <use xlink:href="#Arial-BoldMT-7a" transform="translate(372.314453 0)"/>
      <use xlink:href="#Arial-BoldMT-65" transform="translate(422.314453 0)"/>
      <use xlink:href="#Arial-BoldMT-64" transform="translate(477.929688 0)"/>
      <use xlink:href="#Arial-BoldMT-20" transform="translate(539.013672 0)"/>
      <use xlink:href="#Arial-BoldMT-49" transform="translate(566.796875 0)"/>
      <use xlink:href="#Arial-BoldMT-6e" transform="translate(594.580078 0)"/>
      <use xlink:href="#Arial-BoldMT-74" transform="translate(655.664062 0)"/>
      <use xlink:href="#Arial-BoldMT-65" transform="translate(688.964844 0)"/>
      <use xlink:href="#Arial-BoldMT-6e" transform="translate(744.580078 0)"/>
      <use xlink:href="#Arial-BoldMT-73" transform="translate(805.664062 0)"/>
      <use xlink:href="#Arial-BoldMT-69" transform="translate(861.279297 0)"/>
      <use xlink:href="#Arial-BoldMT-74" transform="translate(889.0625 0)"/>
      <use xlink:href="#Arial-BoldMT-79" transform="translate(922.363281 0)"/>
      <use xlink:href="#Arial-BoldMT-20" transform="translate(977.978516 0)"/>
      <use xlink:href="#Arial-BoldMT-42" transform="translate(1005.761719 0)"/>
      <use xlink:href="#Arial-BoldMT-65" transform="translate(1077.978516 0)"/>
      <use xlink:href="#Arial-BoldMT-66" transform="translate(1133.59375 0)"/>
      <use xlink:href="#Arial-BoldMT-6f" transform="translate(1166.894531 0)"/>
      <use xlink:href="#Arial-BoldMT-72" transform="translate(1227.978516 0)"/>
      <use xlink:href="#Arial-BoldMT-65" transform="translate(1266.894531 0)"/>
      <use xlink:href="#Arial-BoldMT-20" transform="translate(1322.509766 0)"/>
      <use xlink:href="#Arial-BoldMT-52" transform="translate(1350.292969 0)"/>
      <use xlink:href="#Arial-BoldMT-65" transform="translate(1422.509766 0)"/>
      <use xlink:href="#Arial-BoldMT-73" transform="translate(1478.125 0)"/>
      <use xlink:href="#Arial-BoldMT-70" transform="translate(1533.740234 0)"/>
      <use xlink:href="#Arial-BoldMT-6f" transform="translate(1594.824219 0)"/>
      <use xlink:href="#Arial-BoldMT-6e" transform="translate(1655.908203 0)"/>
      <use xlink:href="#Arial-BoldMT-73" transform="translate(1716.992188 0)"/>
      <use xlink:href="#Arial-BoldMT-65" transform="translate(1772.607422 0)"/>
     </g>
    </g>
   </g>
   <g id="matplotlib.axis_2">
    <g id="ytick_1">
     <g id="line2d_7">
      <path d="M 58.66625 359.325 
L 394.45625 359.325 
" clip-path="url(#p4966136895)" style="fill: none; stroke-dasharray: 3.7,1.6; stroke-dashoffset: 0; stroke: #cccccc; stroke-opacity: 0.6"/>
     </g>
     <g id="text_8">
      <!-- 0.3 -->
      <g style="fill: #262626" transform="translate(29.70625 364.335469) scale(0.14 -0.14)">
       <defs>
        <path id="ArialMT-33" d="M 269 1209 
L 831 1284 
Q 928 806 1161 595 
Q 1394 384 1728 384 
Q 2125 384 2398 659 
Q 2672 934 2672 1341 
Q 2672 1728 2419 1979 
Q 2166 2231 1775 2231 
Q 1616 2231 1378 2169 
L 1441 2663 
Q 1497 2656 1531 2656 
Q 1891 2656 2178 2843 
Q 2466 3031 2466 3422 
Q 2466 3731 2256 3934 
Q 2047 4138 1716 4138 
Q 1388 4138 1169 3931 
Q 950 3725 888 3313 
L 325 3413 
Q 428 3978 793 4289 
Q 1159 4600 1703 4600 
Q 2078 4600 2393 4439 
Q 2709 4278 2876 4000 
Q 3044 3722 3044 3409 
Q 3044 3113 2884 2869 
Q 2725 2625 2413 2481 
Q 2819 2388 3044 2092 
Q 3269 1797 3269 1353 
Q 3269 753 2831 336 
Q 2394 -81 1725 -81 
Q 1122 -81 723 278 
Q 325 638 269 1209 
z
" transform="scale(0.015625)"/>
       </defs>
       <use xlink:href="#ArialMT-30"/>
       <use xlink:href="#ArialMT-2e" transform="translate(55.615234 0)"/>
       <use xlink:href="#ArialMT-33" transform="translate(83.398438 0)"/>
      </g>
     </g>
    </g>
    <g id="ytick_2">
     <g id="line2d_8">
      <path d="M 58.66625 310.41875 
L 394.45625 310.41875 
" clip-path="url(#p4966136895)" style="fill: none; stroke-dasharray: 3.7,1.6; stroke-dashoffset: 0; stroke: #cccccc; stroke-opacity: 0.6"/>
     </g>
     <g id="text_9">
      <!-- 0.4 -->
      <g style="fill: #262626" transform="translate(29.70625 315.429219) scale(0.14 -0.14)">
       <use xlink:href="#ArialMT-30"/>
       <use xlink:href="#ArialMT-2e" transform="translate(55.615234 0)"/>
       <use xlink:href="#ArialMT-34" transform="translate(83.398438 0)"/>
      </g>
     </g>
    </g>
    <g id="ytick_3">
     <g id="line2d_9">
      <path d="M 58.66625 261.5125 
L 394.45625 261.5125 
" clip-path="url(#p4966136895)" style="fill: none; stroke-dasharray: 3.7,1.6; stroke-dashoffset: 0; stroke: #cccccc; stroke-opacity: 0.6"/>
     </g>
     <g id="text_10">
      <!-- 0.5 -->
      <g style="fill: #262626" transform="translate(29.70625 266.522969) scale(0.14 -0.14)">
       <defs>
        <path id="ArialMT-35" d="M 266 1200 
L 856 1250 
Q 922 819 1161 601 
Q 1400 384 1738 384 
Q 2144 384 2425 690 
Q 2706 997 2706 1503 
Q 2706 1984 2436 2262 
Q 2166 2541 1728 2541 
Q 1456 2541 1237 2417 
Q 1019 2294 894 2097 
L 366 2166 
L 809 4519 
L 3088 4519 
L 3088 3981 
L 1259 3981 
L 1013 2750 
Q 1425 3038 1878 3038 
Q 2478 3038 2890 2622 
Q 3303 2206 3303 1553 
Q 3303 931 2941 478 
Q 2500 -78 1738 -78 
Q 1113 -78 717 272 
Q 322 622 266 1200 
z
" transform="scale(0.015625)"/>
       </defs>
       <use xlink:href="#ArialMT-30"/>
       <use xlink:href="#ArialMT-2e" transform="translate(55.615234 0)"/>
       <use xlink:href="#ArialMT-35" transform="translate(83.398438 0)"/>
      </g>
     </g>
    </g>
    <g id="ytick_4">
     <g id="line2d_10">
      <path d="M 58.66625 212.60625 
L 394.45625 212.60625 
" clip-path="url(#p4966136895)" style="fill: none; stroke-dasharray: 3.7,1.6; stroke-dashoffset: 0; stroke: #cccccc; stroke-opacity: 0.6"/>
     </g>
     <g id="text_11">
      <!-- 0.6 -->
      <g style="fill: #262626" transform="translate(29.70625 217.616719) scale(0.14 -0.14)">
       <use xlink:href="#ArialMT-30"/>
       <use xlink:href="#ArialMT-2e" transform="translate(55.615234 0)"/>
       <use xlink:href="#ArialMT-36" transform="translate(83.398438 0)"/>
      </g>
     </g>
    </g>
    <g id="ytick_5">
     <g id="line2d_11">
      <path d="M 58.66625 163.7 
L 394.45625 163.7 
" clip-path="url(#p4966136895)" style="fill: none; stroke-dasharray: 3.7,1.6; stroke-dashoffset: 0; stroke: #cccccc; stroke-opacity: 0.6"/>
     </g>
     <g id="text_12">
      <!-- 0.7 -->
      <g style="fill: #262626" transform="translate(29.70625 168.710469) scale(0.14 -0.14)">
       <defs>
        <path id="ArialMT-37" d="M 303 3981 
L 303 4522 
L 3269 4522 
L 3269 4084 
Q 2831 3619 2401 2847 
Q 1972 2075 1738 1259 
Q 1569 684 1522 0 
L 944 0 
Q 953 541 1156 1306 
Q 1359 2072 1739 2783 
Q 2119 3494 2547 3981 
L 303 3981 
z
" transform="scale(0.015625)"/>
       </defs>
       <use xlink:href="#ArialMT-30"/>
       <use xlink:href="#ArialMT-2e" transform="translate(55.615234 0)"/>
       <use xlink:href="#ArialMT-37" transform="translate(83.398438 0)"/>
      </g>
     </g>
    </g>
    <g id="ytick_6">
     <g id="line2d_12">
      <path d="M 58.66625 114.79375 
L 394.45625 114.79375 
" clip-path="url(#p4966136895)" style="fill: none; stroke-dasharray: 3.7,1.6; stroke-dashoffset: 0; stroke: #cccccc; stroke-opacity: 0.6"/>
     </g>
     <g id="text_13">
      <!-- 0.8 -->
      <g style="fill: #262626" transform="translate(29.70625 119.804219) scale(0.14 -0.14)">
       <use xlink:href="#ArialMT-30"/>
       <use xlink:href="#ArialMT-2e" transform="translate(55.615234 0)"/>
       <use xlink:href="#ArialMT-38" transform="translate(83.398438 0)"/>
      </g>
     </g>
    </g>
    <g id="ytick_7">
     <g id="line2d_13">
      <path d="M 58.66625 65.8875 
L 394.45625 65.8875 
" clip-path="url(#p4966136895)" style="fill: none; stroke-dasharray: 3.7,1.6; stroke-dashoffset: 0; stroke: #cccccc; stroke-opacity: 0.6"/>
     </g>
     <g id="text_14">
      <!-- 0.9 -->
      <g style="fill: #262626" transform="translate(29.70625 70.897969) scale(0.14 -0.14)">
       <defs>
        <path id="ArialMT-39" d="M 350 1059 
L 891 1109 
Q 959 728 1153 556 
Q 1347 384 1650 384 
Q 1909 384 2104 503 
Q 2300 622 2425 820 
Q 2550 1019 2634 1356 
Q 2719 1694 2719 2044 
Q 2719 2081 2716 2156 
Q 2547 1888 2255 1720 
Q 1963 1553 1622 1553 
Q 1053 1553 659 1965 
Q 266 2378 266 3053 
Q 266 3750 677 4175 
Q 1088 4600 1706 4600 
Q 2153 4600 2523 4359 
Q 2894 4119 3086 3673 
Q 3278 3228 3278 2384 
Q 3278 1506 3087 986 
Q 2897 466 2520 194 
Q 2144 -78 1638 -78 
Q 1100 -78 759 220 
Q 419 519 350 1059 
z
M 2653 3081 
Q 2653 3566 2395 3850 
Q 2138 4134 1775 4134 
Q 1400 4134 1122 3828 
Q 844 3522 844 3034 
Q 844 2597 1108 2323 
Q 1372 2050 1759 2050 
Q 2150 2050 2401 2323 
Q 2653 2597 2653 3081 
z
" transform="scale(0.015625)"/>
       </defs>
       <use xlink:href="#ArialMT-30"/>
       <use xlink:href="#ArialMT-2e" transform="translate(55.615234 0)"/>
       <use xlink:href="#ArialMT-39" transform="translate(83.398438 0)"/>
      </g>
     </g>
    </g>
    <g id="ytick_8">
     <g id="line2d_14">
      <path d="M 58.66625 16.98125 
L 394.45625 16.98125 
" clip-path="url(#p4966136895)" style="fill: none; stroke-dasharray: 3.7,1.6; stroke-dashoffset: 0; stroke: #cccccc; stroke-opacity: 0.6"/>
     </g>
     <g id="text_15">
      <!-- 1.0 -->
      <g style="fill: #262626" transform="translate(29.70625 21.991719) scale(0.14 -0.14)">
       <use xlink:href="#ArialMT-31"/>
       <use xlink:href="#ArialMT-2e" transform="translate(55.615234 0)"/>
       <use xlink:href="#ArialMT-30" transform="translate(83.398438 0)"/>
      </g>
     </g>
    </g>
    <g id="text_16">
     <!-- Proportion Correct -->
     <g style="fill: #262626" transform="translate(21.759375 272.707812) rotate(-90) scale(0.2 -0.2)">
      <defs>
       <path id="Arial-BoldMT-50" d="M 466 0 
L 466 4581 
L 1950 4581 
Q 2794 4581 3050 4513 
Q 3444 4409 3709 4064 
Q 3975 3719 3975 3172 
Q 3975 2750 3822 2462 
Q 3669 2175 3433 2011 
Q 3197 1847 2953 1794 
Q 2622 1728 1994 1728 
L 1391 1728 
L 1391 0 
L 466 0 
z
M 1391 3806 
L 1391 2506 
L 1897 2506 
Q 2444 2506 2628 2578 
Q 2813 2650 2917 2803 
Q 3022 2956 3022 3159 
Q 3022 3409 2875 3571 
Q 2728 3734 2503 3775 
Q 2338 3806 1838 3806 
L 1391 3806 
z
" transform="scale(0.015625)"/>
       <path id="Arial-BoldMT-43" d="M 3397 1684 
L 4294 1400 
Q 4088 650 3608 286 
Q 3128 -78 2391 -78 
Q 1478 -78 890 545 
Q 303 1169 303 2250 
Q 303 3394 893 4026 
Q 1484 4659 2447 4659 
Q 3288 4659 3813 4163 
Q 4125 3869 4281 3319 
L 3366 3100 
Q 3284 3456 3026 3662 
Q 2769 3869 2400 3869 
Q 1891 3869 1573 3503 
Q 1256 3138 1256 2319 
Q 1256 1450 1568 1081 
Q 1881 713 2381 713 
Q 2750 713 3015 947 
Q 3281 1181 3397 1684 
z
" transform="scale(0.015625)"/>
       <path id="Arial-BoldMT-63" d="M 3353 2338 
L 2488 2181 
Q 2444 2441 2289 2572 
Q 2134 2703 1888 2703 
Q 1559 2703 1364 2476 
Q 1169 2250 1169 1719 
Q 1169 1128 1367 884 
Q 1566 641 1900 641 
Q 2150 641 2309 783 
Q 2469 925 2534 1272 
L 3397 1125 
Q 3263 531 2881 228 
Q 2500 -75 1859 -75 
Q 1131 -75 698 384 
Q 266 844 266 1656 
Q 266 2478 700 2936 
Q 1134 3394 1875 3394 
Q 2481 3394 2839 3133 
Q 3197 2872 3353 2338 
z
" transform="scale(0.015625)"/>
      </defs>
      <use xlink:href="#Arial-BoldMT-50"/>
      <use xlink:href="#Arial-BoldMT-72" transform="translate(66.699219 0)"/>
      <use xlink:href="#Arial-BoldMT-6f" transform="translate(105.615234 0)"/>
      <use xlink:href="#Arial-BoldMT-70" transform="translate(166.699219 0)"/>
      <use xlink:href="#Arial-BoldMT-6f" transform="translate(227.783203 0)"/>
      <use xlink:href="#Arial-BoldMT-72" transform="translate(288.867188 0)"/>
      <use xlink:href="#Arial-BoldMT-74" transform="translate(327.783203 0)"/>
      <use xlink:href="#Arial-BoldMT-69" transform="translate(361.083984 0)"/>
      <use xlink:href="#Arial-BoldMT-6f" transform="translate(388.867188 0)"/>
      <use xlink:href="#Arial-BoldMT-6e" transform="translate(449.951172 0)"/>
      <use xlink:href="#Arial-BoldMT-20" transform="translate(511.035156 0)"/>
      <use xlink:href="#Arial-BoldMT-43" transform="translate(538.818359 0)"/>
      <use xlink:href="#Arial-BoldMT-6f" transform="translate(611.035156 0)"/>
      <use xlink:href="#Arial-BoldMT-72" transform="translate(672.119141 0)"/>
      <use xlink:href="#Arial-BoldMT-72" transform="translate(711.035156 0)"/>
      <use xlink:href="#Arial-BoldMT-65" transform="translate(749.951172 0)"/>
      <use xlink:href="#Arial-BoldMT-63" transform="translate(805.566406 0)"/>
      <use xlink:href="#Arial-BoldMT-74" transform="translate(861.181641 0)"/>
     </g>
    </g>
   </g>
   <g id="line2d_15">
    <path d="M 58.66625 244.438917 
L 62.03538 242.056935 
L 65.404511 239.436527 
L 68.773641 236.568414 
L 72.142772 233.445064 
L 75.511902 230.060972 
L 78.881033 226.412922 
L 82.250163 222.500224 
L 86.742337 216.875545 
L 91.234511 210.797172 
L 95.726685 204.28746 
L 100.218859 197.378364 
L 104.711033 190.111188 
L 110.32625 180.600657 
L 117.064511 168.715684 
L 129.417989 146.318288 
L 138.402337 130.25213 
L 144.017554 120.592508 
L 149.632772 111.373489 
L 154.124946 104.385345 
L 158.61712 97.788658 
L 163.109293 91.617385 
L 167.601467 85.895902 
L 170.970598 81.90923 
L 174.339728 78.18692 
L 177.708859 74.729025 
L 181.077989 71.533015 
L 184.44712 68.594002 
L 187.81625 65.904996 
L 191.18538 63.457177 
L 194.554511 61.240186 
L 197.923641 59.242417 
L 201.292772 57.451299 
L 204.661902 55.853582 
L 209.154076 54.000477 
L 213.64625 52.43407 
L 218.138424 51.121887 
L 222.630598 50.032533 
L 228.245815 48.939108 
L 233.861033 48.09423 
L 240.599293 47.342207 
L 247.337554 46.810378 
L 256.321902 46.347149 
L 267.552337 46.024956 
L 283.274946 45.830067 
L 311.351033 45.748162 
L 394.45625 45.739065 
L 394.45625 45.739065 
" clip-path="url(#p4966136895)" style="fill: none; stroke: #443983; stroke-opacity: 0.9; stroke-width: 2.5; stroke-linecap: round"/>
   </g>
   <g id="PathCollection_1">
    <path d="M 89.192614 325.302728 
C 89.897368 325.302728 90.573353 325.022726 91.07169 324.524389 
C 91.570027 324.026052 91.850029 323.350067 91.850029 322.645312 
C 91.850029 321.940558 91.570027 321.264573 91.07169 320.766236 
C 90.573353 320.267899 89.897368 319.987897 89.192614 319.987897 
C 88.487859 319.987897 87.811874 320.267899 87.313537 320.766236 
C 86.8152 321.264573 86.535198 321.940558 86.535198 322.645312 
C 86.535198 323.350067 86.8152 324.026052 87.313537 324.524389 
C 87.811874 325.022726 88.487859 325.302728 89.192614 325.302728 
z
" clip-path="url(#p4966136895)" style="fill: #443983; fill-opacity: 0.5; stroke: #ffffff; stroke-opacity: 0.5; stroke-width: 0.5"/>
    <path d="M 113.625442 166.847296 
C 114.593827 166.847296 115.522679 166.462552 116.207431 165.777801 
C 116.892182 165.093049 117.276926 164.164197 117.276926 163.195812 
C 117.276926 162.227427 116.892182 161.298574 116.207431 160.613823 
C 115.522679 159.929071 114.593827 159.544328 113.625442 159.544328 
C 112.657057 159.544328 111.728205 159.929071 111.043453 160.613823 
C 110.358702 161.298574 109.973958 162.227427 109.973958 163.195812 
C 109.973958 164.164197 110.358702 165.093049 111.043453 165.777801 
C 111.728205 166.462552 112.657057 166.847296 113.625442 166.847296 
z
" clip-path="url(#p4966136895)" style="fill: #443983; fill-opacity: 0.5; stroke: #ffffff; stroke-opacity: 0.5; stroke-width: 0.5"/>
    <path d="M 153.889915 104.809206 
C 155.342493 104.809206 156.735772 104.232091 157.762899 103.204964 
C 158.790026 102.177836 159.367141 100.784557 159.367141 99.33198 
C 159.367141 97.879403 158.790026 96.486124 157.762899 95.458997 
C 156.735772 94.43187 155.342493 93.854755 153.889915 93.854755 
C 152.437338 93.854755 151.044059 94.43187 150.016932 95.458997 
C 148.989805 96.486124 148.41269 97.879403 148.41269 99.33198 
C 148.41269 100.784557 148.989805 102.177836 150.016932 103.204964 
C 151.044059 104.232091 152.437338 104.809206 153.889915 104.809206 
z
" clip-path="url(#p4966136895)" style="fill: #443983; fill-opacity: 0.5; stroke: #ffffff; stroke-opacity: 0.5; stroke-width: 0.5"/>
    <path d="M 203.48095 66.612105 
C 204.852216 66.612105 206.167504 66.067295 207.137136 65.097663 
C 208.106768 64.128032 208.651578 62.812744 208.651578 61.441477 
C 208.651578 60.070211 208.106768 58.754923 207.137136 57.785291 
C 206.167504 56.815659 204.852216 56.270849 203.48095 56.270849 
C 202.109683 56.270849 200.794395 56.815659 199.824763 57.785291 
C 198.855132 58.754923 198.310322 60.070211 198.310322 61.441477 
C 198.310322 62.812744 198.855132 64.128032 199.824763 65.097663 
C 200.794395 66.067295 202.109683 66.612105 203.48095 66.612105 
z
" clip-path="url(#p4966136895)" style="fill: #443983; fill-opacity: 0.5; stroke: #ffffff; stroke-opacity: 0.5; stroke-width: 0.5"/>
    <path d="M 235.736308 81.134611 
C 236.537367 81.134611 237.305725 80.816347 237.872159 80.249913 
C 238.438593 79.683479 238.756857 78.915121 238.756857 78.114062 
C 238.756857 77.313004 238.438593 76.544646 237.872159 75.978212 
C 237.305725 75.411778 236.537367 75.093514 235.736308 75.093514 
C 234.93525 75.093514 234.166892 75.411778 233.600458 75.978212 
C 233.034024 76.544646 232.71576 77.313004 232.71576 78.114062 
C 232.71576 78.915121 233.034024 79.683479 233.600458 80.249913 
C 234.166892 80.816347 234.93525 81.134611 235.736308 81.134611 
z
" clip-path="url(#p4966136895)" style="fill: #443983; fill-opacity: 0.5; stroke: #ffffff; stroke-opacity: 0.5; stroke-width: 0.5"/>
    <path d="M 263.631012 43.097135 
C 264.705857 43.097135 265.736824 42.670094 266.496855 41.910063 
C 267.256886 41.150033 267.683926 40.119065 267.683926 39.04422 
C 267.683926 37.969374 267.256886 36.938407 266.496855 36.178377 
C 265.736824 35.418346 264.705857 34.991305 263.631012 34.991305 
C 262.556166 34.991305 261.525199 35.418346 260.765168 36.178377 
C 260.005138 36.938407 259.578097 37.969374 259.578097 39.04422 
C 259.578097 40.119065 260.005138 41.150033 260.765168 41.910063 
C 261.525199 42.670094 262.556166 43.097135 263.631012 43.097135 
z
" clip-path="url(#p4966136895)" style="fill: #443983; fill-opacity: 0.5; stroke: #ffffff; stroke-opacity: 0.5; stroke-width: 0.5"/>
    <path d="M 308.973147 38.417745 
C 309.984266 38.417745 310.954109 38.016023 311.669078 37.301054 
C 312.384047 36.586085 312.785769 35.616243 312.785769 34.605124 
C 312.785769 33.594005 312.384047 32.624163 311.669078 31.909193 
C 310.954109 31.194224 309.984266 30.792502 308.973147 30.792502 
C 307.962028 30.792502 306.992186 31.194224 306.277217 31.909193 
C 305.562248 32.624163 305.160526 33.594005 305.160526 34.605124 
C 305.160526 35.616243 305.562248 36.586085 306.277217 37.301054 
C 306.992186 38.016023 307.962028 38.417745 308.973147 38.417745 
z
" clip-path="url(#p4966136895)" style="fill: #443983; fill-opacity: 0.5; stroke: #ffffff; stroke-opacity: 0.5; stroke-width: 0.5"/>
    <path d="M 333.390954 80.498865 
C 334.023411 80.498865 334.630049 80.247588 335.077264 79.800373 
C 335.524479 79.353158 335.775756 78.74652 335.775756 78.114062 
C 335.775756 77.481605 335.524479 76.874967 335.077264 76.427752 
C 334.630049 75.980537 334.023411 75.72926 333.390954 75.72926 
C 332.758496 75.72926 332.151858 75.980537 331.704643 76.427752 
C 331.257428 76.874967 331.006151 77.481605 331.006151 78.114062 
C 331.006151 78.74652 331.257428 79.353158 331.704643 79.800373 
C 332.151858 80.247588 332.758496 80.498865 333.390954 80.498865 
z
" clip-path="url(#p4966136895)" style="fill: #443983; fill-opacity: 0.5; stroke: #ffffff; stroke-opacity: 0.5; stroke-width: 0.5"/>
    <path d="M 357.824271 49.422603 
C 358.861933 49.422603 359.857235 49.010336 360.590973 48.276598 
C 361.324711 47.54286 361.736978 46.547558 361.736978 45.509896 
C 361.736978 44.472234 361.324711 43.476932 360.590973 42.743194 
C 359.857235 42.009456 358.861933 41.597189 357.824271 41.597189 
C 356.786609 41.597189 355.791307 42.009456 355.057569 42.743194 
C 354.323831 43.476932 353.911564 44.472234 353.911564 45.509896 
C 353.911564 46.547558 354.323831 47.54286 355.057569 48.276598 
C 355.791307 49.010336 356.786609 49.422603 357.824271 49.422603 
z
" clip-path="url(#p4966136895)" style="fill: #443983; fill-opacity: 0.5; stroke: #ffffff; stroke-opacity: 0.5; stroke-width: 0.5"/>
    <path d="M 390.516663 51.301923 
C 391.250813 51.301923 391.954992 51.010243 392.474114 50.491121 
C 392.993236 49.971998 393.284917 49.267819 393.284917 48.533669 
C 393.284917 47.79952 392.993236 47.09534 392.474114 46.576218 
C 391.954992 46.057096 391.250813 45.765415 390.516663 45.765415 
C 389.782514 45.765415 389.078334 46.057096 388.559212 46.576218 
C 388.04009 47.09534 387.748409 47.79952 387.748409 48.533669 
C 387.748409 49.267819 388.04009 49.971998 388.559212 50.491121 
C 389.078334 51.010243 389.782514 51.301923 390.516663 51.301923 
z
" clip-path="url(#p4966136895)" style="fill: #443983; fill-opacity: 0.5; stroke: #ffffff; stroke-opacity: 0.5; stroke-width: 0.5"/>
   </g>
   <g id="line2d_16">
    <path d="M 58.66625 249.981632 
L 62.03538 248.212191 
L 65.404511 246.238239 
L 68.773641 244.047413 
L 72.142772 241.62833 
L 75.511902 238.970884 
L 78.881033 236.066531 
L 82.250163 232.908578 
L 85.619293 229.49246 
L 88.988424 225.815989 
L 92.357554 221.879574 
L 96.849728 216.232611 
L 101.341902 210.145246 
L 105.834076 203.642713 
L 110.32625 196.759761 
L 115.941467 187.688791 
L 121.556685 178.196524 
L 129.417989 164.432313 
L 146.263641 134.701561 
L 153.001902 123.369609 
L 158.61712 114.408994 
L 163.109293 107.629505 
L 167.601467 101.241208 
L 172.093641 95.276182 
L 176.585815 89.756954 
L 179.954946 85.918284 
L 183.324076 82.340029 
L 186.693207 79.021597 
L 190.062337 75.959876 
L 193.431467 73.149467 
L 196.800598 70.582948 
L 200.169728 68.251151 
L 203.538859 66.143455 
L 206.907989 64.248074 
L 210.27712 62.552346 
L 214.769293 60.578966 
L 219.261467 58.904616 
L 223.753641 57.496881 
L 228.245815 56.324052 
L 232.737989 55.355804 
L 238.353207 54.390088 
L 243.968424 53.649292 
L 250.706685 52.995236 
L 258.567989 52.475713 
L 267.552337 52.105679 
L 279.905815 51.836555 
L 298.997554 51.684505 
L 342.79625 51.638869 
L 394.45625 51.637946 
L 394.45625 51.637946 
" clip-path="url(#p4966136895)" style="fill: none; stroke: #31688e; stroke-opacity: 0.9; stroke-width: 2.5; stroke-linecap: round"/>
   </g>
   <g id="PathCollection_2">
    <path d="M 89.192614 345.43625 
C 89.832637 345.43625 90.446533 345.181966 90.899098 344.729401 
C 91.351663 344.276836 91.605947 343.66294 91.605947 343.022917 
C 91.605947 342.382893 91.351663 341.768997 90.899098 341.316433 
C 90.446533 340.863868 89.832637 340.609584 89.192614 340.609584 
C 88.55259 340.609584 87.938694 340.863868 87.48613 341.316433 
C 87.033565 341.768997 86.779281 342.382893 86.779281 343.022917 
C 86.779281 343.66294 87.033565 344.276836 87.48613 344.729401 
C 87.938694 345.181966 88.55259 345.43625 89.192614 345.43625 
z
" clip-path="url(#p4966136895)" style="fill: #31688e; fill-opacity: 0.5; stroke: #ffffff; stroke-opacity: 0.5; stroke-width: 0.5"/>
    <path d="M 113.625442 233.558405 
C 114.465622 233.558405 115.271504 233.224598 115.865602 232.630501 
C 116.459699 232.036403 116.793506 231.230521 116.793506 230.390341 
C 116.793506 229.55016 116.459699 228.744279 115.865602 228.150181 
C 115.271504 227.556084 114.465622 227.222277 113.625442 227.222277 
C 112.785262 227.222277 111.97938 227.556084 111.385282 228.150181 
C 110.791185 228.744279 110.457378 229.55016 110.457378 230.390341 
C 110.457378 231.230521 110.791185 232.036403 111.385282 232.630501 
C 111.97938 233.224598 112.785262 233.558405 113.625442 233.558405 
z
" clip-path="url(#p4966136895)" style="fill: #31688e; fill-opacity: 0.5; stroke: #ffffff; stroke-opacity: 0.5; stroke-width: 0.5"/>
    <path d="M 154.398555 112.030362 
C 155.851132 112.030362 157.244411 111.453247 158.271539 110.42612 
C 159.298666 109.398993 159.875781 108.005714 159.875781 106.553136 
C 159.875781 105.100559 159.298666 103.70728 158.271539 102.680153 
C 157.244411 101.653026 155.851132 101.075911 154.398555 101.075911 
C 152.945978 101.075911 151.552699 101.653026 150.525572 102.680153 
C 149.498445 103.70728 148.92133 105.100559 148.92133 106.553136 
C 148.92133 108.005714 149.498445 109.398993 150.525572 110.42612 
C 151.552699 111.453247 152.945978 112.030362 154.398555 112.030362 
z
" clip-path="url(#p4966136895)" style="fill: #31688e; fill-opacity: 0.5; stroke: #ffffff; stroke-opacity: 0.5; stroke-width: 0.5"/>
    <path d="M 204.321653 80.876601 
C 205.742853 80.876601 207.106036 80.311952 208.110976 79.307012 
C 209.115917 78.302072 209.680566 76.938889 209.680566 75.517688 
C 209.680566 74.096488 209.115917 72.733305 208.110976 71.728364 
C 207.106036 70.723424 205.742853 70.158775 204.321653 70.158775 
C 202.900452 70.158775 201.537269 70.723424 200.532329 71.728364 
C 199.527388 72.733305 198.962739 74.096488 198.962739 75.517688 
C 198.962739 76.938889 199.527388 78.302072 200.532329 79.307012 
C 201.537269 80.311952 202.900452 80.876601 204.321653 80.876601 
z
" clip-path="url(#p4966136895)" style="fill: #31688e; fill-opacity: 0.5; stroke: #ffffff; stroke-opacity: 0.5; stroke-width: 0.5"/>
    <path d="M 235.736308 88.212133 
C 236.529161 88.212133 237.289646 87.897129 237.850277 87.336498 
C 238.410908 86.775867 238.725912 86.015381 238.725912 85.222529 
C 238.725912 84.429677 238.410908 83.669191 237.850277 83.10856 
C 237.289646 82.547929 236.529161 82.232926 235.736308 82.232926 
C 234.943456 82.232926 234.182971 82.547929 233.62234 83.10856 
C 233.061708 83.669191 232.746705 84.429677 232.746705 85.222529 
C 232.746705 86.015381 233.061708 86.775867 233.62234 87.336498 
C 234.182971 87.897129 234.943456 88.212133 235.736308 88.212133 
z
" clip-path="url(#p4966136895)" style="fill: #31688e; fill-opacity: 0.5; stroke: #ffffff; stroke-opacity: 0.5; stroke-width: 0.5"/>
    <path d="M 263.10815 42.162506 
C 264.227688 42.162506 265.301523 41.717709 266.093155 40.926077 
C 266.884788 40.134444 267.329585 39.060609 267.329585 37.941071 
C 267.329585 36.821534 266.884788 35.747699 266.093155 34.956066 
C 265.301523 34.164434 264.227688 33.719637 263.10815 33.719637 
C 261.988612 33.719637 260.914777 34.164434 260.123145 34.956066 
C 259.331512 35.747699 258.886715 36.821534 258.886715 37.941071 
C 258.886715 39.060609 259.331512 40.134444 260.123145 40.926077 
C 260.914777 41.717709 261.988612 42.162506 263.10815 42.162506 
z
" clip-path="url(#p4966136895)" style="fill: #31688e; fill-opacity: 0.5; stroke: #ffffff; stroke-opacity: 0.5; stroke-width: 0.5"/>
    <path d="M 308.973147 43.681524 
C 309.993353 43.681524 310.971912 43.276192 311.693307 42.554797 
C 312.414701 41.833403 312.820034 40.854844 312.820034 39.834638 
C 312.820034 38.814432 312.414701 37.835873 311.693307 37.114478 
C 310.971912 36.393084 309.993353 35.987751 308.973147 35.987751 
C 307.952941 35.987751 306.974382 36.393084 306.252988 37.114478 
C 305.531593 37.835873 305.126261 38.814432 305.126261 39.834638 
C 305.126261 40.854844 305.531593 41.833403 306.252988 42.554797 
C 306.974382 43.276192 307.952941 43.681524 308.973147 43.681524 
z
" clip-path="url(#p4966136895)" style="fill: #31688e; fill-opacity: 0.5; stroke: #ffffff; stroke-opacity: 0.5; stroke-width: 0.5"/>
    <path d="M 333.390954 132.329894 
C 334.050797 132.329894 334.683703 132.067735 335.150282 131.601156 
C 335.616862 131.134576 335.87902 130.50167 335.87902 129.841827 
C 335.87902 129.181984 335.616862 128.549078 335.150282 128.082498 
C 334.683703 127.615919 334.050797 127.35376 333.390954 127.35376 
C 332.731111 127.35376 332.098204 127.615919 331.631625 128.082498 
C 331.165045 128.549078 330.902887 129.181984 330.902887 129.841827 
C 330.902887 130.50167 331.165045 131.134576 331.631625 131.601156 
C 332.098204 132.067735 332.731111 132.329894 333.390954 132.329894 
z
" clip-path="url(#p4966136895)" style="fill: #31688e; fill-opacity: 0.5; stroke: #ffffff; stroke-opacity: 0.5; stroke-width: 0.5"/>
    <path d="M 357.824271 42.185793 
C 358.869425 42.185793 359.871913 41.770549 360.610948 41.031514 
C 361.349983 40.292478 361.765227 39.289991 361.765227 38.244837 
C 361.765227 37.199683 361.349983 36.197195 360.610948 35.45816 
C 359.871913 34.719125 358.869425 34.303881 357.824271 34.303881 
C 356.779117 34.303881 355.77663 34.719125 355.037594 35.45816 
C 354.298559 36.197195 353.883315 37.199683 353.883315 38.244837 
C 353.883315 39.289991 354.298559 40.292478 355.037594 41.031514 
C 355.77663 41.770549 356.779117 42.185793 357.824271 42.185793 
z
" clip-path="url(#p4966136895)" style="fill: #31688e; fill-opacity: 0.5; stroke: #ffffff; stroke-opacity: 0.5; stroke-width: 0.5"/>
    <path d="M 392.92966 121.552143 
C 393.641166 121.552143 394.323626 121.269459 394.826737 120.766348 
C 395.329848 120.263237 395.612532 119.580777 395.612532 118.869271 
C 395.612532 118.157765 395.329848 117.475305 394.826737 116.972194 
C 394.323626 116.469083 393.641166 116.186399 392.92966 116.186399 
C 392.218154 116.186399 391.535694 116.469083 391.032583 116.972194 
C 390.529472 117.475305 390.246788 118.157765 390.246788 118.869271 
C 390.246788 119.580777 390.529472 120.263237 391.032583 120.766348 
C 391.535694 121.269459 392.218154 121.552143 392.92966 121.552143 
z
" clip-path="url(#p4966136895)" style="fill: #31688e; fill-opacity: 0.5; stroke: #ffffff; stroke-opacity: 0.5; stroke-width: 0.5"/>
   </g>
   <g id="line2d_17">
    <path d="M 58.66625 224.114793 
L 64.281467 219.661349 
L 69.896685 214.894354 
L 75.511902 209.821704 
L 81.12712 204.455509 
L 86.742337 198.812128 
L 93.480598 191.703398 
L 100.218859 184.268404 
L 108.080163 175.249906 
L 117.064511 164.602243 
L 132.78712 145.541925 
L 146.263641 129.333319 
L 155.247989 118.876267 
L 163.109293 110.089586 
L 169.847554 102.89564 
L 176.585815 96.061116 
L 182.201033 90.667105 
L 187.81625 85.56523 
L 193.431467 80.768016 
L 199.046685 76.283765 
L 204.661902 72.116684 
L 210.27712 68.267085 
L 215.892337 64.73167 
L 221.507554 61.503869 
L 227.122772 58.574228 
L 232.737989 55.930824 
L 238.353207 53.559702 
L 243.968424 51.445309 
L 249.583641 49.570923 
L 255.198859 47.919061 
L 260.814076 46.471857 
L 267.552337 44.980162 
L 274.290598 43.726994 
L 281.028859 42.683105 
L 288.890163 41.693019 
L 297.874511 40.812804 
L 307.981902 40.079561 
L 319.212337 39.508707 
L 332.688859 39.066076 
L 349.534511 38.753757 
L 373.118424 38.560542 
L 394.45625 38.497629 
L 394.45625 38.497629 
" clip-path="url(#p4966136895)" style="fill: none; stroke: #21918c; stroke-opacity: 0.9; stroke-width: 2.5; stroke-linecap: round"/>
   </g>
   <g id="PathCollection_3">
    <path d="M 89.192614 278.490461 
C 89.880489 278.490461 90.540284 278.217165 91.026686 277.730763 
C 91.513088 277.244362 91.786384 276.584567 91.786384 275.896691 
C 91.786384 275.208815 91.513088 274.549021 91.026686 274.062619 
C 90.540284 273.576217 89.880489 273.302921 89.192614 273.302921 
C 88.504738 273.302921 87.844943 273.576217 87.358541 274.062619 
C 86.87214 274.549021 86.598844 275.208815 86.598844 275.896691 
C 86.598844 276.584567 86.87214 277.244362 87.358541 277.730763 
C 87.844943 278.217165 88.504738 278.490461 89.192614 278.490461 
z
" clip-path="url(#p4966136895)" style="fill: #21918c; fill-opacity: 0.5; stroke: #ffffff; stroke-opacity: 0.5; stroke-width: 0.5"/>
    <path d="M 113.625442 176.013641 
C 114.53286 176.013641 115.403234 175.65312 116.044876 175.011479 
C 116.686517 174.369838 117.047038 173.499463 117.047038 172.592045 
C 117.047038 171.684628 116.686517 170.814253 116.044876 170.172612 
C 115.403234 169.530971 114.53286 169.17045 113.625442 169.17045 
C 112.718024 169.17045 111.84765 169.530971 111.206009 170.172612 
C 110.564367 170.814253 110.203846 171.684628 110.203846 172.592045 
C 110.203846 173.499463 110.564367 174.369838 111.206009 175.011479 
C 111.84765 175.65312 112.718024 176.013641 113.625442 176.013641 
z
" clip-path="url(#p4966136895)" style="fill: #21918c; fill-opacity: 0.5; stroke: #ffffff; stroke-opacity: 0.5; stroke-width: 0.5"/>
    <path d="M 154.061629 113.741397 
C 155.474293 113.741397 156.829288 113.18014 157.828192 112.181236 
C 158.827096 111.182332 159.388353 109.827338 159.388353 108.414674 
C 159.388353 107.00201 158.827096 105.647016 157.828192 104.648112 
C 156.829288 103.649208 155.474293 103.08795 154.061629 103.08795 
C 152.648966 103.08795 151.293971 103.649208 150.295067 104.648112 
C 149.296163 105.647016 148.734906 107.00201 148.734906 108.414674 
C 148.734906 109.827338 149.296163 111.182332 150.295067 112.181236 
C 151.293971 113.18014 152.648966 113.741397 154.061629 113.741397 
z
" clip-path="url(#p4966136895)" style="fill: #21918c; fill-opacity: 0.5; stroke: #ffffff; stroke-opacity: 0.5; stroke-width: 0.5"/>
    <path d="M 203.953124 84.088303 
C 205.405701 84.088303 206.79898 83.511188 207.826107 82.484061 
C 208.853234 81.456933 209.430349 80.063654 209.430349 78.611077 
C 209.430349 77.1585 208.853234 75.765221 207.826107 74.738094 
C 206.79898 73.710967 205.405701 73.133852 203.953124 73.133852 
C 202.500547 73.133852 201.107268 73.710967 200.08014 74.738094 
C 199.053013 75.765221 198.475898 77.1585 198.475898 78.611077 
C 198.475898 80.063654 199.053013 81.456933 200.08014 82.484061 
C 201.107268 83.511188 202.500547 84.088303 203.953124 84.088303 
z
" clip-path="url(#p4966136895)" style="fill: #21918c; fill-opacity: 0.5; stroke: #ffffff; stroke-opacity: 0.5; stroke-width: 0.5"/>
    <path d="M 235.736308 77.709085 
C 236.58259 77.709085 237.394324 77.372853 237.992736 76.774442 
C 238.591147 76.17603 238.927378 75.364296 238.927378 74.518015 
C 238.927378 73.671733 238.591147 72.859999 237.992736 72.261588 
C 237.394324 71.663176 236.58259 71.326945 235.736308 71.326945 
C 234.890027 71.326945 234.078293 71.663176 233.479881 72.261588 
C 232.88147 72.859999 232.545239 73.671733 232.545239 74.518015 
C 232.545239 75.364296 232.88147 76.17603 233.479881 76.774442 
C 234.078293 77.372853 234.890027 77.709085 235.736308 77.709085 
z
" clip-path="url(#p4966136895)" style="fill: #21918c; fill-opacity: 0.5; stroke: #ffffff; stroke-opacity: 0.5; stroke-width: 0.5"/>
    <path d="M 262.525776 42.510616 
C 263.760229 42.510616 264.944289 42.020162 265.817179 41.147272 
C 266.690069 40.274382 267.180523 39.090322 267.180523 37.855869 
C 267.180523 36.621416 266.690069 35.437356 265.817179 34.564466 
C 264.944289 33.691576 263.760229 33.201122 262.525776 33.201122 
C 261.291323 33.201122 260.107263 33.691576 259.234373 34.564466 
C 258.361483 35.437356 257.871029 36.621416 257.871029 37.855869 
C 257.871029 39.090322 258.361483 40.274382 259.234373 41.147272 
C 260.107263 42.020162 261.291323 42.510616 262.525776 42.510616 
z
" clip-path="url(#p4966136895)" style="fill: #21918c; fill-opacity: 0.5; stroke: #ffffff; stroke-opacity: 0.5; stroke-width: 0.5"/>
    <path d="M 308.973147 42.503873 
C 310.05319 42.503873 311.089143 42.074767 311.852849 41.311062 
C 312.616555 40.547356 313.045661 39.511403 313.045661 38.43136 
C 313.045661 37.351316 312.616555 36.315364 311.852849 35.551658 
C 311.089143 34.787952 310.05319 34.358846 308.973147 34.358846 
C 307.893104 34.358846 306.857151 34.787952 306.093445 35.551658 
C 305.329739 36.315364 304.900634 37.351316 304.900634 38.43136 
C 304.900634 39.511403 305.329739 40.547356 306.093445 41.311062 
C 306.857151 42.074767 307.893104 42.503873 308.973147 42.503873 
z
" clip-path="url(#p4966136895)" style="fill: #21918c; fill-opacity: 0.5; stroke: #ffffff; stroke-opacity: 0.5; stroke-width: 0.5"/>
    <path d="M 333.390954 159.103243 
C 334.024749 159.103243 334.632671 158.851433 335.080833 158.403272 
C 335.528994 157.955111 335.780803 157.347188 335.780803 156.713393 
C 335.780803 156.079597 335.528994 155.471675 335.080833 155.023514 
C 334.632671 154.575353 334.024749 154.323543 333.390954 154.323543 
C 332.757158 154.323543 332.149236 154.575353 331.701075 155.023514 
C 331.252913 155.471675 331.001104 156.079597 331.001104 156.713393 
C 331.001104 157.347188 331.252913 157.955111 331.701075 158.403272 
C 332.149236 158.851433 332.757158 159.103243 333.390954 159.103243 
z
" clip-path="url(#p4966136895)" style="fill: #21918c; fill-opacity: 0.5; stroke: #ffffff; stroke-opacity: 0.5; stroke-width: 0.5"/>
    <path d="M 357.824271 42.158922 
C 358.910912 42.158922 359.953193 41.727195 360.721564 40.958824 
C 361.489936 40.190452 361.921663 39.148171 361.921663 38.06153 
C 361.921663 36.974889 361.489936 35.932608 360.721564 35.164237 
C 359.953193 34.395866 358.910912 33.964139 357.824271 33.964139 
C 356.73763 33.964139 355.695349 34.395866 354.926978 35.164237 
C 354.158606 35.932608 353.726879 36.974889 353.726879 38.06153 
C 353.726879 39.148171 354.158606 40.190452 354.926978 40.958824 
C 355.695349 41.727195 356.73763 42.158922 357.824271 42.158922 
z
" clip-path="url(#p4966136895)" style="fill: #21918c; fill-opacity: 0.5; stroke: #ffffff; stroke-opacity: 0.5; stroke-width: 0.5"/>
    <path d="M 389.571162 19.535539 
C 390.248568 19.535539 390.898319 19.266403 391.377317 18.787405 
C 391.856315 18.308407 392.125451 17.658655 392.125451 16.98125 
C 392.125451 16.303845 391.856315 15.654093 391.377317 15.175095 
C 390.898319 14.696097 390.248568 14.426961 389.571162 14.426961 
C 388.893757 14.426961 388.244005 14.696097 387.765008 15.175095 
C 387.28601 15.654093 387.016874 16.303845 387.016874 16.98125 
C 387.016874 17.658655 387.28601 18.308407 387.765008 18.787405 
C 388.244005 19.266403 388.893757 19.535539 389.571162 19.535539 
z
" clip-path="url(#p4966136895)" style="fill: #21918c; fill-opacity: 0.5; stroke: #ffffff; stroke-opacity: 0.5; stroke-width: 0.5"/>
   </g>
   <g id="line2d_18">
    <path d="M 58.66625 230.372894 
L 63.158424 226.645147 
L 67.650598 222.637419 
L 72.142772 218.351602 
L 76.634946 213.792775 
L 81.12712 208.969342 
L 86.742337 202.586224 
L 92.357554 195.838743 
L 97.972772 188.765275 
L 104.711033 179.911727 
L 112.572337 169.195525 
L 124.925815 151.896071 
L 138.402337 133.097017 
L 146.263641 122.506707 
L 153.001902 113.801912 
L 158.61712 106.877414 
L 164.232337 100.298024 
L 169.847554 94.098406 
L 174.339728 89.430263 
L 178.831902 85.032102 
L 183.324076 80.91035 
L 187.81625 77.06818 
L 192.308424 73.50568 
L 196.800598 70.22006 
L 201.292772 67.205919 
L 205.784946 64.455534 
L 210.27712 61.959173 
L 214.769293 59.705427 
L 219.261467 57.681538 
L 223.753641 55.873731 
L 228.245815 54.267524 
L 233.861033 52.520565 
L 239.47625 51.036004 
L 245.091467 49.784896 
L 250.706685 48.739276 
L 257.444946 47.718589 
L 264.183207 46.913458 
L 272.044511 46.1962 
L 281.028859 45.605968 
L 292.259293 45.119748 
L 305.735815 44.781459 
L 323.704511 44.566969 
L 354.026685 44.459507 
L 394.45625 44.440555 
L 394.45625 44.440555 
" clip-path="url(#p4966136895)" style="fill: none; stroke: #35b779; stroke-opacity: 0.9; stroke-width: 2.5; stroke-linecap: round"/>
   </g>
   <g id="PathCollection_4">
    <path d="M 89.192614 220.930889 
C 89.874441 220.930889 90.528434 220.659996 91.010559 220.177872 
C 91.492683 219.695747 91.763576 219.041754 91.763576 218.359926 
C 91.763576 217.678099 91.492683 217.024106 91.010559 216.541981 
C 90.528434 216.059857 89.874441 215.788964 89.192614 215.788964 
C 88.510786 215.788964 87.856793 216.059857 87.374669 216.541981 
C 86.892544 217.024106 86.621651 217.678099 86.621651 218.359926 
C 86.621651 219.041754 86.892544 219.695747 87.374669 220.177872 
C 87.856793 220.659996 88.510786 220.930889 89.192614 220.930889 
z
" clip-path="url(#p4966136895)" style="fill: #35b779; fill-opacity: 0.5; stroke: #ffffff; stroke-opacity: 0.5; stroke-width: 0.5"/>
    <path d="M 113.625442 190.001749 
C 114.548039 190.001749 115.432973 189.635197 116.085348 188.982822 
C 116.737722 188.330448 117.104274 187.445514 117.104274 186.522917 
C 117.104274 185.60032 116.737722 184.715386 116.085348 184.063011 
C 115.432973 183.410636 114.548039 183.044085 113.625442 183.044085 
C 112.702845 183.044085 111.817911 183.410636 111.165536 184.063011 
C 110.513162 184.715386 110.14661 185.60032 110.14661 186.522917 
C 110.14661 187.445514 110.513162 188.330448 111.165536 188.982822 
C 111.817911 189.635197 112.702845 190.001749 113.625442 190.001749 
z
" clip-path="url(#p4966136895)" style="fill: #35b779; fill-opacity: 0.5; stroke: #ffffff; stroke-opacity: 0.5; stroke-width: 0.5"/>
    <path d="M 154.031892 109.526421 
C 155.484469 109.526421 156.877748 108.949306 157.904875 107.922178 
C 158.932002 106.895051 159.509117 105.501772 159.509117 104.049195 
C 159.509117 102.596618 158.932002 101.203339 157.904875 100.176212 
C 156.877748 99.149085 155.484469 98.57197 154.031892 98.57197 
C 152.579315 98.57197 151.186036 99.149085 150.158908 100.176212 
C 149.131781 101.203339 148.554666 102.596618 148.554666 104.049195 
C 148.554666 105.501772 149.131781 106.895051 150.158908 107.922178 
C 151.186036 108.949306 152.579315 109.526421 154.031892 109.526421 
z
" clip-path="url(#p4966136895)" style="fill: #35b779; fill-opacity: 0.5; stroke: #ffffff; stroke-opacity: 0.5; stroke-width: 0.5"/>
    <path d="M 203.692876 72.391628 
C 205.098855 72.391628 206.447437 71.833027 207.441614 70.83885 
C 208.43579 69.844673 208.994391 68.496091 208.994391 67.090113 
C 208.994391 65.684135 208.43579 64.335552 207.441614 63.341376 
C 206.447437 62.347199 205.098855 61.788598 203.692876 61.788598 
C 202.286898 61.788598 200.938316 62.347199 199.944139 63.341376 
C 198.949963 64.335552 198.391361 65.684135 198.391361 67.090113 
C 198.391361 68.496091 198.949963 69.844673 199.944139 70.83885 
C 200.938316 71.833027 202.286898 72.391628 203.692876 72.391628 
z
" clip-path="url(#p4966136895)" style="fill: #35b779; fill-opacity: 0.5; stroke: #ffffff; stroke-opacity: 0.5; stroke-width: 0.5"/>
    <path d="M 235.736308 86.699241 
C 236.539251 86.699241 237.309415 86.380229 237.877181 85.812463 
C 238.444946 85.244697 238.763959 84.474533 238.763959 83.671591 
C 238.763959 82.868649 238.444946 82.098485 237.877181 81.530719 
C 237.309415 80.962953 236.539251 80.643941 235.736308 80.643941 
C 234.933366 80.643941 234.163202 80.962953 233.595436 81.530719 
C 233.02767 82.098485 232.708658 82.868649 232.708658 83.671591 
C 232.708658 84.474533 233.02767 85.244697 233.595436 85.812463 
C 234.163202 86.380229 234.933366 86.699241 235.736308 86.699241 
z
" clip-path="url(#p4966136895)" style="fill: #35b779; fill-opacity: 0.5; stroke: #ffffff; stroke-opacity: 0.5; stroke-width: 0.5"/>
    <path d="M 265.154582 47.284936 
C 266.319643 47.284936 267.437143 46.822053 268.260966 45.99823 
C 269.084788 45.174407 269.547672 44.056907 269.547672 42.891846 
C 269.547672 41.726785 269.084788 40.609285 268.260966 39.785462 
C 267.437143 38.961639 266.319643 38.498756 265.154582 38.498756 
C 263.98952 38.498756 262.87202 38.961639 262.048198 39.785462 
C 261.224375 40.609285 260.761491 41.726785 260.761491 42.891846 
C 260.761491 44.056907 261.224375 45.174407 262.048198 45.99823 
C 262.87202 46.822053 263.98952 47.284936 265.154582 47.284936 
z
" clip-path="url(#p4966136895)" style="fill: #35b779; fill-opacity: 0.5; stroke: #ffffff; stroke-opacity: 0.5; stroke-width: 0.5"/>
    <path d="M 308.973147 51.498107 
C 310.020819 51.498107 311.025722 51.081863 311.766538 50.341047 
C 312.507353 49.600231 312.923598 48.595328 312.923598 47.547656 
C 312.923598 46.499984 312.507353 45.495082 311.766538 44.754266 
C 311.025722 44.01345 310.020819 43.597206 308.973147 43.597206 
C 307.925475 43.597206 306.920573 44.01345 306.179757 44.754266 
C 305.438941 45.495082 305.022697 46.499984 305.022697 47.547656 
C 305.022697 48.595328 305.438941 49.600231 306.179757 50.341047 
C 306.920573 51.081863 307.925475 51.498107 308.973147 51.498107 
z
" clip-path="url(#p4966136895)" style="fill: #35b779; fill-opacity: 0.5; stroke: #ffffff; stroke-opacity: 0.5; stroke-width: 0.5"/>
    <path d="M 333.390954 46.740703 
C 334.077648 46.740703 334.736309 46.467876 335.221875 45.98231 
C 335.707441 45.496744 335.980267 44.838083 335.980267 44.151389 
C 335.980267 43.464695 335.707441 42.806034 335.221875 42.320468 
C 334.736309 41.834902 334.077648 41.562075 333.390954 41.562075 
C 332.704259 41.562075 332.045598 41.834902 331.560032 42.320468 
C 331.074466 42.806034 330.80164 43.464695 330.80164 44.151389 
C 330.80164 44.838083 331.074466 45.496744 331.560032 45.98231 
C 332.045598 46.467876 332.704259 46.740703 333.390954 46.740703 
z
" clip-path="url(#p4966136895)" style="fill: #35b779; fill-opacity: 0.5; stroke: #ffffff; stroke-opacity: 0.5; stroke-width: 0.5"/>
    <path d="M 357.824271 49.110755 
C 358.903261 49.110755 359.938203 48.682067 360.701164 47.919106 
C 361.464125 47.156145 361.892813 46.121203 361.892813 45.042213 
C 361.892813 43.963223 361.464125 42.928281 360.701164 42.16532 
C 359.938203 41.402359 358.903261 40.973672 357.824271 40.973672 
C 356.745281 40.973672 355.710339 41.402359 354.947378 42.16532 
C 354.184417 42.928281 353.755729 43.963223 353.755729 45.042213 
C 353.755729 46.121203 354.184417 47.156145 354.947378 47.919106 
C 355.710339 48.682067 356.745281 49.110755 357.824271 49.110755 
z
" clip-path="url(#p4966136895)" style="fill: #35b779; fill-opacity: 0.5; stroke: #ffffff; stroke-opacity: 0.5; stroke-width: 0.5"/>
    <path d="M 391.742312 19.730217 
C 392.471347 19.730217 393.17062 19.440568 393.686125 18.925063 
C 394.201631 18.409558 394.491279 17.710285 394.491279 16.98125 
C 394.491279 16.252215 394.201631 15.552942 393.686125 15.037437 
C 393.17062 14.521932 392.471347 14.232283 391.742312 14.232283 
C 391.013278 14.232283 390.314005 14.521932 389.798499 15.037437 
C 389.282994 15.552942 388.993346 16.252215 388.993346 16.98125 
C 388.993346 17.710285 389.282994 18.409558 389.798499 18.925063 
C 390.314005 19.440568 391.013278 19.730217 391.742312 19.730217 
z
" clip-path="url(#p4966136895)" style="fill: #35b779; fill-opacity: 0.5; stroke: #ffffff; stroke-opacity: 0.5; stroke-width: 0.5"/>
   </g>
   <g id="line2d_19">
    <path d="M 58.66625 222.313453 
L 64.281467 218.247775 
L 69.896685 213.940032 
L 76.634946 208.462072 
L 83.373207 202.664872 
L 90.111467 196.572334 
L 97.972772 189.130492 
L 105.834076 181.38193 
L 115.941467 171.071512 
L 129.417989 156.960609 
L 149.632772 135.801139 
L 159.740163 125.577031 
L 167.601467 117.919835 
L 175.462772 110.587913 
L 182.201033 104.602192 
L 188.939293 98.921356 
L 195.677554 93.567227 
L 201.292772 89.36686 
L 206.907989 85.411069 
L 212.523207 81.703558 
L 218.138424 78.245484 
L 223.753641 75.035602 
L 229.368859 72.070453 
L 234.984076 69.344572 
L 240.599293 66.850723 
L 246.214511 64.580146 
L 251.829728 62.522811 
L 257.444946 60.66767 
L 264.183207 58.691725 
L 270.921467 56.968529 
L 277.659728 55.476162 
L 284.397989 54.192658 
L 292.259293 52.930462 
L 300.120598 51.890253 
L 309.104946 50.933646 
L 319.212337 50.10326 
L 330.442772 49.423913 
L 342.79625 48.901703 
L 358.518859 48.478549 
L 378.733641 48.185367 
L 394.45625 48.070198 
L 394.45625 48.070198 
" clip-path="url(#p4966136895)" style="fill: none; stroke: #90d743; stroke-opacity: 0.9; stroke-width: 2.5; stroke-linecap: round"/>
   </g>
   <g id="PathCollection_5">
    <path d="M 89.192614 182.575675 
C 89.875138 182.575675 90.5298 182.304506 91.012418 181.821888 
C 91.495036 181.33927 91.766206 180.684608 91.766206 180.002083 
C 91.766206 179.319559 91.495036 178.664897 91.012418 178.182279 
C 90.5298 177.699661 89.875138 177.428491 89.192614 177.428491 
C 88.510089 177.428491 87.855427 177.699661 87.372809 178.182279 
C 86.890191 178.664897 86.619021 179.319559 86.619021 180.002083 
C 86.619021 180.684608 86.890191 181.33927 87.372809 181.821888 
C 87.855427 182.304506 88.510089 182.575675 89.192614 182.575675 
z
" clip-path="url(#p4966136895)" style="fill: #90d743; fill-opacity: 0.5; stroke: #ffffff; stroke-opacity: 0.5; stroke-width: 0.5"/>
    <path d="M 113.625442 235.395398 
C 114.481159 235.395398 115.301943 235.055418 115.907026 234.450334 
C 116.51211 233.845251 116.85209 233.024467 116.85209 232.16875 
C 116.85209 231.313033 116.51211 230.492249 115.907026 229.887166 
C 115.301943 229.282082 114.481159 228.942102 113.625442 228.942102 
C 112.769725 228.942102 111.948941 229.282082 111.343858 229.887166 
C 110.738774 230.492249 110.398794 231.313033 110.398794 232.16875 
C 110.398794 233.024467 110.738774 233.845251 111.343858 234.450334 
C 111.948941 235.055418 112.769725 235.395398 113.625442 235.395398 
z
" clip-path="url(#p4966136895)" style="fill: #90d743; fill-opacity: 0.5; stroke: #ffffff; stroke-opacity: 0.5; stroke-width: 0.5"/>
    <path d="M 154.395703 120.868821 
C 155.730871 120.868821 157.011534 120.338353 157.955641 119.394247 
C 158.899748 118.45014 159.430216 117.169477 159.430216 115.834309 
C 159.430216 114.49914 158.899748 113.218477 157.955641 112.27437 
C 157.011534 111.330264 155.730871 110.799796 154.395703 110.799796 
C 153.060534 110.799796 151.779871 111.330264 150.835764 112.27437 
C 149.891658 113.218477 149.36119 114.49914 149.36119 115.834309 
C 149.36119 117.169477 149.891658 118.45014 150.835764 119.394247 
C 151.779871 120.338353 153.060534 120.868821 154.395703 120.868821 
z
" clip-path="url(#p4966136895)" style="fill: #90d743; fill-opacity: 0.5; stroke: #ffffff; stroke-opacity: 0.5; stroke-width: 0.5"/>
    <path d="M 204.21599 88.09024 
C 205.668568 88.09024 207.061847 87.513125 208.088974 86.485997 
C 209.116101 85.45887 209.693216 84.065591 209.693216 82.613014 
C 209.693216 81.160437 209.116101 79.767158 208.088974 78.740031 
C 207.061847 77.712904 205.668568 77.135788 204.21599 77.135788 
C 202.763413 77.135788 201.370134 77.712904 200.343007 78.740031 
C 199.31588 79.767158 198.738765 81.160437 198.738765 82.613014 
C 198.738765 84.065591 199.31588 85.45887 200.343007 86.485997 
C 201.370134 87.513125 202.763413 88.09024 204.21599 88.09024 
z
" clip-path="url(#p4966136895)" style="fill: #90d743; fill-opacity: 0.5; stroke: #ffffff; stroke-opacity: 0.5; stroke-width: 0.5"/>
    <path d="M 235.736308 110.738808 
C 236.656324 110.738808 237.538781 110.373282 238.18933 109.722733 
C 238.839879 109.072184 239.205405 108.189727 239.205405 107.269712 
C 239.205405 106.349696 238.839879 105.467239 238.18933 104.81669 
C 237.538781 104.166141 236.656324 103.800615 235.736308 103.800615 
C 234.816293 103.800615 233.933836 104.166141 233.283287 104.81669 
C 232.632738 105.467239 232.267212 106.349696 232.267212 107.269712 
C 232.267212 108.189727 232.632738 109.072184 233.283287 109.722733 
C 233.933836 110.373282 234.816293 110.738808 235.736308 110.738808 
z
" clip-path="url(#p4966136895)" style="fill: #90d743; fill-opacity: 0.5; stroke: #ffffff; stroke-opacity: 0.5; stroke-width: 0.5"/>
    <path d="M 264.945308 54.031404 
C 266.266147 54.031404 267.533066 53.506629 268.467041 52.572654 
C 269.401015 51.63868 269.92579 50.371761 269.92579 49.050922 
C 269.92579 47.730083 269.401015 46.463164 268.467041 45.52919 
C 267.533066 44.595216 266.266147 44.070441 264.945308 44.070441 
C 263.624469 44.070441 262.35755 44.595216 261.423576 45.52919 
C 260.489602 46.463164 259.964827 47.730083 259.964827 49.050922 
C 259.964827 50.371761 260.489602 51.63868 261.423576 52.572654 
C 262.35755 53.506629 263.624469 54.031404 264.945308 54.031404 
z
" clip-path="url(#p4966136895)" style="fill: #90d743; fill-opacity: 0.5; stroke: #ffffff; stroke-opacity: 0.5; stroke-width: 0.5"/>
    <path d="M 308.973147 75.74989 
C 310.147563 75.74989 311.274035 75.28329 312.104472 74.452853 
C 312.934909 73.622416 313.401509 72.495943 313.401509 71.321528 
C 313.401509 70.147112 312.934909 69.02064 312.104472 68.190203 
C 311.274035 67.359766 310.147563 66.893166 308.973147 66.893166 
C 307.798732 66.893166 306.672259 67.359766 305.841822 68.190203 
C 305.011385 69.02064 304.544785 70.147112 304.544785 71.321528 
C 304.544785 72.495943 305.011385 73.622416 305.841822 74.452853 
C 306.672259 75.28329 307.798732 75.74989 308.973147 75.74989 
z
" clip-path="url(#p4966136895)" style="fill: #90d743; fill-opacity: 0.5; stroke: #ffffff; stroke-opacity: 0.5; stroke-width: 0.5"/>
    <path d="M 333.390954 58.882151 
C 334.127131 58.882151 334.833256 58.589665 335.353812 58.069109 
C 335.874368 57.548552 336.166855 56.842428 336.166855 56.10625 
C 336.166855 55.370072 335.874368 54.663948 335.353812 54.143391 
C 334.833256 53.622835 334.127131 53.330349 333.390954 53.330349 
C 332.654776 53.330349 331.948651 53.622835 331.428095 54.143391 
C 330.907539 54.663948 330.615052 55.370072 330.615052 56.10625 
C 330.615052 56.842428 330.907539 57.548552 331.428095 58.069109 
C 331.948651 58.589665 332.654776 58.882151 333.390954 58.882151 
z
" clip-path="url(#p4966136895)" style="fill: #90d743; fill-opacity: 0.5; stroke: #ffffff; stroke-opacity: 0.5; stroke-width: 0.5"/>
    <path d="M 357.824271 36.192876 
C 358.988924 36.192876 360.106032 35.730155 360.929566 34.906621 
C 361.7531 34.083087 362.215821 32.965979 362.215821 31.801326 
C 362.215821 30.636673 361.7531 29.519565 360.929566 28.696031 
C 360.106032 27.872497 358.988924 27.409775 357.824271 27.409775 
C 356.659618 27.409775 355.54251 27.872497 354.718976 28.696031 
C 353.895442 29.519565 353.432721 30.636673 353.432721 31.801326 
C 353.432721 32.965979 353.895442 34.083087 354.718976 34.906621 
C 355.54251 35.730155 356.659618 36.192876 357.824271 36.192876 
z
" clip-path="url(#p4966136895)" style="fill: #90d743; fill-opacity: 0.5; stroke: #ffffff; stroke-opacity: 0.5; stroke-width: 0.5"/>
    <path d="M 394.45625 54.466765 
C 395.133175 54.466765 395.782467 54.19782 396.261126 53.719161 
C 396.739784 53.240503 397.008729 52.591211 397.008729 51.914286 
C 397.008729 51.23736 396.739784 50.588069 396.261126 50.10941 
C 395.782467 49.630752 395.133175 49.361806 394.45625 49.361806 
C 393.779325 49.361806 393.130033 49.630752 392.651374 50.10941 
C 392.172716 50.588069 391.903771 51.23736 391.903771 51.914286 
C 391.903771 52.591211 392.172716 53.240503 392.651374 53.719161 
C 393.130033 54.19782 393.779325 54.466765 394.45625 54.466765 
z
" clip-path="url(#p4966136895)" style="fill: #90d743; fill-opacity: 0.5; stroke: #ffffff; stroke-opacity: 0.5; stroke-width: 0.5"/>
   </g>
   <g id="line2d_20">
    <path d="M 58.66625 117.728125 
L 394.45625 117.728125 
" clip-path="url(#p4966136895)" style="fill: none; stroke-dasharray: 5.18,2.24; stroke-dashoffset: 0; stroke: #000000; stroke-opacity: 0.8; stroke-width: 1.4"/>
   </g>
   <g id="patch_3">
    <path d="M 58.66625 359.325 
L 58.66625 7.2 
" style="fill: none; stroke: #cccccc; stroke-width: 1.25; stroke-linejoin: miter; stroke-linecap: square"/>
   </g>
   <g id="patch_4">
    <path d="M 394.45625 359.325 
L 394.45625 7.2 
" style="fill: none; stroke: #cccccc; stroke-width: 1.25; stroke-linejoin: miter; stroke-linecap: square"/>
   </g>
   <g id="patch_5">
    <path d="M 58.66625 359.325 
L 394.45625 359.325 
" style="fill: none; stroke: #cccccc; stroke-width: 1.25; stroke-linejoin: miter; stroke-linecap: square"/>
   </g>
   <g id="patch_6">
    <path d="M 58.66625 7.2 
L 394.45625 7.2 
" style="fill: none; stroke: #cccccc; stroke-width: 1.25; stroke-linejoin: miter; stroke-linecap: square"/>
   </g>
   <g id="text_17">
    <!-- 79.4% -->
    <g style="fill: #262626" transform="translate(353.235557 131.661562) scale(0.14 -0.14)">
     <defs>
      <path id="ArialMT-25" d="M 372 3481 
Q 372 3972 619 4315 
Q 866 4659 1334 4659 
Q 1766 4659 2048 4351 
Q 2331 4044 2331 3447 
Q 2331 2866 2045 2552 
Q 1759 2238 1341 2238 
Q 925 2238 648 2547 
Q 372 2856 372 3481 
z
M 1350 4272 
Q 1141 4272 1002 4090 
Q 863 3909 863 3425 
Q 863 2984 1003 2804 
Q 1144 2625 1350 2625 
Q 1563 2625 1702 2806 
Q 1841 2988 1841 3469 
Q 1841 3913 1700 4092 
Q 1559 4272 1350 4272 
z
M 1353 -169 
L 3859 4659 
L 4316 4659 
L 1819 -169 
L 1353 -169 
z
M 3334 1075 
Q 3334 1569 3581 1911 
Q 3828 2253 4300 2253 
Q 4731 2253 5014 1945 
Q 5297 1638 5297 1041 
Q 5297 459 5011 145 
Q 4725 -169 4303 -169 
Q 3888 -169 3611 142 
Q 3334 453 3334 1075 
z
M 4316 1866 
Q 4103 1866 3964 1684 
Q 3825 1503 3825 1019 
Q 3825 581 3965 400 
Q 4106 219 4313 219 
Q 4528 219 4667 400 
Q 4806 581 4806 1063 
Q 4806 1506 4665 1686 
Q 4525 1866 4316 1866 
z
" transform="scale(0.015625)"/>
     </defs>
     <use xlink:href="#ArialMT-37"/>
     <use xlink:href="#ArialMT-39" transform="translate(55.615234 0)"/>
     <use xlink:href="#ArialMT-2e" transform="translate(111.230469 0)"/>
     <use xlink:href="#ArialMT-34" transform="translate(139.013672 0)"/>
     <use xlink:href="#ArialMT-25" transform="translate(194.628906 0)"/>
    </g>
   </g>
   <g id="legend_1">
    <g id="patch_7">
     <path d="M 209.93625 352.325 
L 384.65625 352.325 
Q 387.45625 352.325 387.45625 349.525 
L 387.45625 291.514687 
Q 387.45625 288.714687 384.65625 288.714687 
L 209.93625 288.714687 
Q 207.13625 288.714687 207.13625 291.514687 
L 207.13625 349.525 
Q 207.13625 352.325 209.93625 352.325 
z
" style="fill: #ffffff; opacity: 0.8; stroke: #cccccc; stroke-linejoin: miter"/>
    </g>
    <g id="line2d_21">
     <path d="M 212.73625 299.435625 
L 226.73625 299.435625 
L 240.73625 299.435625 
" style="fill: none; stroke: #443983; stroke-opacity: 0.9; stroke-width: 2.5; stroke-linecap: round"/>
    </g>
    <g id="text_18">
     <!-- $\mathregular{ULM}_{\mathregular{L}}$ -->
     <g style="fill: #262626" transform="translate(251.93625 304.335625) scale(0.14 -0.14)">
      <defs>
       <path id="ArialMT-55" d="M 3500 4581 
L 4106 4581 
L 4106 1934 
Q 4106 1244 3950 837 
Q 3794 431 3386 176 
Q 2978 -78 2316 -78 
Q 1672 -78 1262 144 
Q 853 366 678 786 
Q 503 1206 503 1934 
L 503 4581 
L 1109 4581 
L 1109 1938 
Q 1109 1341 1220 1058 
Q 1331 775 1601 622 
Q 1872 469 2263 469 
Q 2931 469 3215 772 
Q 3500 1075 3500 1938 
L 3500 4581 
z
" transform="scale(0.015625)"/>
       <path id="ArialMT-4c" d="M 469 0 
L 469 4581 
L 1075 4581 
L 1075 541 
L 3331 541 
L 3331 0 
L 469 0 
z
" transform="scale(0.015625)"/>
       <path id="ArialMT-4d" d="M 475 0 
L 475 4581 
L 1388 4581 
L 2472 1338 
Q 2622 884 2691 659 
Q 2769 909 2934 1394 
L 4031 4581 
L 4847 4581 
L 4847 0 
L 4263 0 
L 4263 3834 
L 2931 0 
L 2384 0 
L 1059 3900 
L 1059 0 
L 475 0 
z
" transform="scale(0.015625)"/>
      </defs>
      <use xlink:href="#ArialMT-55" transform="translate(0 0.421875)"/>
      <use xlink:href="#ArialMT-4c" transform="translate(72.216797 0.421875)"/>
      <use xlink:href="#ArialMT-4d" transform="translate(127.832031 0.421875)"/>
      <use xlink:href="#ArialMT-4c" transform="translate(212.089844 -15.984375) scale(0.7)"/>
     </g>
    </g>
    <g id="line2d_22">
     <path d="M 212.73625 319.239062 
L 226.73625 319.239062 
L 240.73625 319.239062 
" style="fill: none; stroke: #31688e; stroke-opacity: 0.9; stroke-width: 2.5; stroke-linecap: round"/>
    </g>
    <g id="text_19">
     <!-- $\mathregular{DLM}_{\mathregular{2}}$ -->
     <g style="fill: #262626" transform="translate(251.93625 324.139062) scale(0.14 -0.14)">
      <defs>
       <path id="ArialMT-44" d="M 494 0 
L 494 4581 
L 2072 4581 
Q 2606 4581 2888 4516 
Q 3281 4425 3559 4188 
Q 3922 3881 4101 3404 
Q 4281 2928 4281 2316 
Q 4281 1794 4159 1391 
Q 4038 988 3847 723 
Q 3656 459 3429 307 
Q 3203 156 2883 78 
Q 2563 0 2147 0 
L 494 0 
z
M 1100 541 
L 2078 541 
Q 2531 541 2789 625 
Q 3047 709 3200 863 
Q 3416 1078 3536 1442 
Q 3656 1806 3656 2325 
Q 3656 3044 3420 3430 
Q 3184 3816 2847 3947 
Q 2603 4041 2063 4041 
L 1100 4041 
L 1100 541 
z
" transform="scale(0.015625)"/>
      </defs>
      <use xlink:href="#ArialMT-44" transform="translate(0 0.421875)"/>
      <use xlink:href="#ArialMT-4c" transform="translate(72.216797 0.421875)"/>
      <use xlink:href="#ArialMT-4d" transform="translate(127.832031 0.421875)"/>
      <use xlink:href="#ArialMT-32" transform="translate(212.089844 -15.984375) scale(0.7)"/>
     </g>
    </g>
    <g id="line2d_23">
     <path d="M 212.73625 339.0425 
L 226.73625 339.0425 
L 240.73625 339.0425 
" style="fill: none; stroke: #21918c; stroke-opacity: 0.9; stroke-width: 2.5; stroke-linecap: round"/>
    </g>
    <g id="text_20">
     <!-- $\mathregular{DLM}_{\mathregular{3}}$ -->
     <g style="fill: #262626" transform="translate(251.93625 343.9425) scale(0.14 -0.14)">
      <use xlink:href="#ArialMT-44" transform="translate(0 0.421875)"/>
      <use xlink:href="#ArialMT-4c" transform="translate(72.216797 0.421875)"/>
      <use xlink:href="#ArialMT-4d" transform="translate(127.832031 0.421875)"/>
      <use xlink:href="#ArialMT-33" transform="translate(212.089844 -15.984375) scale(0.7)"/>
     </g>
    </g>
    <g id="line2d_24">
     <path d="M 315.49625 299.435625 
L 329.49625 299.435625 
L 343.49625 299.435625 
" style="fill: none; stroke: #35b779; stroke-opacity: 0.9; stroke-width: 2.5; stroke-linecap: round"/>
    </g>
    <g id="text_21">
     <!-- $\mathregular{LM}_{\mathregular{C}}$ -->
     <g style="fill: #262626" transform="translate(354.69625 304.335625) scale(0.14 -0.14)">
      <defs>
       <path id="ArialMT-43" d="M 3763 1606 
L 4369 1453 
Q 4178 706 3683 314 
Q 3188 -78 2472 -78 
Q 1731 -78 1267 223 
Q 803 525 561 1097 
Q 319 1669 319 2325 
Q 319 3041 592 3573 
Q 866 4106 1370 4382 
Q 1875 4659 2481 4659 
Q 3169 4659 3637 4309 
Q 4106 3959 4291 3325 
L 3694 3184 
Q 3534 3684 3231 3912 
Q 2928 4141 2469 4141 
Q 1941 4141 1586 3887 
Q 1231 3634 1087 3207 
Q 944 2781 944 2328 
Q 944 1744 1114 1308 
Q 1284 872 1643 656 
Q 2003 441 2422 441 
Q 2931 441 3284 734 
Q 3638 1028 3763 1606 
z
" transform="scale(0.015625)"/>
      </defs>
      <use xlink:href="#ArialMT-4c" transform="translate(0 0.421875)"/>
      <use xlink:href="#ArialMT-4d" transform="translate(55.615234 0.421875)"/>
      <use xlink:href="#ArialMT-43" transform="translate(139.873047 -15.984375) scale(0.7)"/>
     </g>
    </g>
    <g id="line2d_25">
     <path d="M 315.49625 319.239062 
L 329.49625 319.239062 
L 343.49625 319.239062 
" style="fill: none; stroke: #90d743; stroke-opacity: 0.9; stroke-width: 2.5; stroke-linecap: round"/>
    </g>
    <g id="text_22">
     <!-- $\mathregular{LM}_{\mathregular{L}}$ -->
     <g style="fill: #262626" transform="translate(354.69625 324.139062) scale(0.14 -0.14)">
      <use xlink:href="#ArialMT-4c" transform="translate(0 0.421875)"/>
      <use xlink:href="#ArialMT-4d" transform="translate(55.615234 0.421875)"/>
      <use xlink:href="#ArialMT-4c" transform="translate(139.873047 -15.984375) scale(0.7)"/>
     </g>
    </g>
   </g>
  </g>
 </g>
 <defs>
  <clipPath id="p4966136895">
   <rect x="58.66625" y="7.2" width="335.79" height="352.125"/>
  </clipPath>
 </defs>
</svg>
