<?xml version="1.0" encoding="utf-8" standalone="no"?>
<!DOCTYPE svg PUBLIC "-//W3C//DTD SVG 1.1//EN"
  "http://www.w3.org/Graphics/SVG/1.1/DTD/svg11.dtd">
<svg xmlns:xlink="http://www.w3.org/1999/xlink" width="483.754375pt" height="552.849937pt" viewBox="0 0 483.754375 552.849937" xmlns="http://www.w3.org/2000/svg" version="1.1">
 <metadata>
  <rdf:RDF xmlns:dc="http://purl.org/dc/elements/1.1/" xmlns:cc="http://creativecommons.org/ns#" xmlns:rdf="http://www.w3.org/1999/02/22-rdf-syntax-ns#">
   <cc:Work>
    <dc:type rdf:resource="http://purl.org/dc/dcmitype/StillImage"/>
    <dc:date>2026-03-13T17:13:02.185256</dc:date>
    <dc:format>image/svg+xml</dc:format>
    <dc:creator>
     <cc:Agent>
      <dc:title>Matplotlib v3.10.0, https://matplotlib.org/</dc:title>
     </cc:Agent>
    </dc:creator>
   </cc:Work>
  </rdf:RDF>
 </metadata>
 <defs>
  <style type="text/css">*{stroke-linejoin: round; stroke-linecap: butt}</style>
 </defs>
 <g id="figure_1">
  <g id="patch_1">
   <path d="M 0 552.849937 
L 483.754375 552.849937 
L 483.754375 0 
L 0 0 
z
" style="fill: #ffffff"/>
  </g>
  <g id="axes_1">
   <g id="patch_2">
    <path d="M 55.039375 501.084 
L 476.554375 501.084 
L 476.554375 7.2 
L 55.039375 7.2 
z
" style="fill: #ffffff"/>
   </g>
   <g id="matplotlib.axis_1">
    <g id="xtick_1">
     <g id="text_1">
      <!-- $\mathregular{ULM}_{\mathregular{L}}$ -->
      <g style="fill: #262626" transform="translate(79.410875 520.604937) scale(0.14 -0.14)">
       <defs>
        <path id="ArialMT-55" d="M 3500 4581 
L 4106 4581 
L 4106 1934 
Q 4106 1244 3950 837 
Q 3794 431 3386 176 
Q 2978 -78 2316 -78 
Q 1672 -78 1262 144 
Q 853 366 678 786 
Q 503 1206 503 1934 
L 503 4581 
L 1109 4581 
L 1109 1938 
Q 1109 1341 1220 1058 
Q 1331 775 1601 622 
Q 1872 469 2263 469 
Q 2931 469 3215 772 
Q 3500 1075 3500 1938 
L 3500 4581 
z
" transform="scale(0.015625)"/>
        <path id="ArialMT-4c" d="M 469 0 
L 469 4581 
L 1075 4581 
L 1075 541 
L 3331 541 
L 3331 0 
L 469 0 
z
" transform="scale(0.015625)"/>
        <path id="ArialMT-4d" d="M 475 0 
L 475 4581 
L 1388 4581 
L 2472 1338 
Q 2622 884 2691 659 
Q 2769 909 2934 1394 
L 4031 4581 
L 4847 4581 
L 4847 0 
L 4263 0 
L 4263 3834 
L 2931 0 
L 2384 0 
L 1059 3900 
L 1059 0 
L 475 0 
z
" transform="scale(0.015625)"/>
       </defs>
       <use xlink:href="#ArialMT-55" transform="translate(0 0.421875)"/>
       <use xlink:href="#ArialMT-4c" transform="translate(72.216797 0.421875)"/>
       <use xlink:href="#ArialMT-4d" transform="translate(127.832031 0.421875)"/>
       <use xlink:href="#ArialMT-4c" transform="translate(212.089844 -15.984375) scale(0.7)"/>
      </g>
     </g>
    </g>
    <g id="xtick_2">
     <g id="text_2">
      <!-- $\mathregular{DLM}_{\mathregular{2}}$ -->
      <g style="fill: #262626" transform="translate(163.713875 520.604937) scale(0.14 -0.14)">
       <defs>
        <path id="ArialMT-44" d="M 494 0 
L 494 4581 
L 2072 4581 
Q 2606 4581 2888 4516 
Q 3281 4425 3559 4188 
Q 3922 3881 4101 3404 
Q 4281 2928 4281 2316 
Q 4281 1794 4159 1391 
Q 4038 988 3847 723 
Q 3656 459 3429 307 
Q 3203 156 2883 78 
Q 2563 0 2147 0 
L 494 0 
z
M 1100 541 
L 2078 541 
Q 2531 541 2789 625 
Q 3047 709 3200 863 
Q 3416 1078 3536 1442 
Q 3656 1806 3656 2325 
Q 3656 3044 3420 3430 
Q 3184 3816 2847 3947 
Q 2603 4041 2063 4041 
L 1100 4041 
L 1100 541 
z
" transform="scale(0.015625)"/>
        <path id="ArialMT-32" d="M 3222 541 
L 3222 0 
L 194 0 
Q 188 203 259 391 
Q 375 700 629 1000 
Q 884 1300 1366 1694 
Q 2113 2306 2375 2664 
Q 2638 3022 2638 3341 
Q 2638 3675 2398 3904 
Q 2159 4134 1775 4134 
Q 1369 4134 1125 3890 
Q 881 3647 878 3216 
L 300 3275 
Q 359 3922 746 4261 
Q 1134 4600 1788 4600 
Q 2447 4600 2831 4234 
Q 3216 3869 3216 3328 
Q 3216 3053 3103 2787 
Q 2991 2522 2730 2228 
Q 2469 1934 1863 1422 
Q 1356 997 1212 845 
Q 1069 694 975 541 
L 3222 541 
z
" transform="scale(0.015625)"/>
       </defs>
       <use xlink:href="#ArialMT-44" transform="translate(0 0.421875)"/>
       <use xlink:href="#ArialMT-4c" transform="translate(72.216797 0.421875)"/>
       <use xlink:href="#ArialMT-4d" transform="translate(127.832031 0.421875)"/>
       <use xlink:href="#ArialMT-32" transform="translate(212.089844 -15.984375) scale(0.7)"/>
      </g>
     </g>
    </g>
    <g id="xtick_3">
     <g id="text_3">
      <!-- $\mathregular{DLM}_{\mathregular{3}}$ -->
      <g style="fill: #262626" transform="translate(248.016875 520.604937) scale(0.14 -0.14)">
       <defs>
        <path id="ArialMT-33" d="M 269 1209 
L 831 1284 
Q 928 806 1161 595 
Q 1394 384 1728 384 
Q 2125 384 2398 659 
Q 2672 934 2672 1341 
Q 2672 1728 2419 1979 
Q 2166 2231 1775 2231 
Q 1616 2231 1378 2169 
L 1441 2663 
Q 1497 2656 1531 2656 
Q 1891 2656 2178 2843 
Q 2466 3031 2466 3422 
Q 2466 3731 2256 3934 
Q 2047 4138 1716 4138 
Q 1388 4138 1169 3931 
Q 950 3725 888 3313 
L 325 3413 
Q 428 3978 793 4289 
Q 1159 4600 1703 4600 
Q 2078 4600 2393 4439 
Q 2709 4278 2876 4000 
Q 3044 3722 3044 3409 
Q 3044 3113 2884 2869 
Q 2725 2625 2413 2481 
Q 2819 2388 3044 2092 
Q 3269 1797 3269 1353 
Q 3269 753 2831 336 
Q 2394 -81 1725 -81 
Q 1122 -81 723 278 
Q 325 638 269 1209 
z
" transform="scale(0.015625)"/>
       </defs>
       <use xlink:href="#ArialMT-44" transform="translate(0 0.421875)"/>
       <use xlink:href="#ArialMT-4c" transform="translate(72.216797 0.421875)"/>
       <use xlink:href="#ArialMT-4d" transform="translate(127.832031 0.421875)"/>
       <use xlink:href="#ArialMT-33" transform="translate(212.089844 -15.984375) scale(0.7)"/>
      </g>
     </g>
    </g>
    <g id="xtick_4">
     <g id="text_4">
      <!-- $\mathregular{LM}_{\mathregular{C}}$ -->
      <g style="fill: #262626" transform="translate(336.519875 520.604937) scale(0.14 -0.14)">
       <defs>
        <path id="ArialMT-43" d="M 3763 1606 
L 4369 1453 
Q 4178 706 3683 314 
Q 3188 -78 2472 -78 
Q 1731 -78 1267 223 
Q 803 525 561 1097 
Q 319 1669 319 2325 
Q 319 3041 592 3573 
Q 866 4106 1370 4382 
Q 1875 4659 2481 4659 
Q 3169 4659 3637 4309 
Q 4106 3959 4291 3325 
L 3694 3184 
Q 3534 3684 3231 3912 
Q 2928 4141 2469 4141 
Q 1941 4141 1586 3887 
Q 1231 3634 1087 3207 
Q 944 2781 944 2328 
Q 944 1744 1114 1308 
Q 1284 872 1643 656 
Q 2003 441 2422 441 
Q 2931 441 3284 734 
Q 3638 1028 3763 1606 
z
" transform="scale(0.015625)"/>
       </defs>
       <use xlink:href="#ArialMT-4c" transform="translate(0 0.421875)"/>
       <use xlink:href="#ArialMT-4d" transform="translate(55.615234 0.421875)"/>
       <use xlink:href="#ArialMT-43" transform="translate(139.873047 -15.984375) scale(0.7)"/>
      </g>
     </g>
    </g>
    <g id="xtick_5">
     <g id="text_5">
      <!-- $\mathregular{LM}_{\mathregular{L}}$ -->
      <g style="fill: #262626" transform="translate(421.662875 520.604937) scale(0.14 -0.14)">
       <use xlink:href="#ArialMT-4c" transform="translate(0 0.421875)"/>
       <use xlink:href="#ArialMT-4d" transform="translate(55.615234 0.421875)"/>
       <use xlink:href="#ArialMT-4c" transform="translate(139.873047 -15.984375) scale(0.7)"/>
      </g>
     </g>
    </g>
    <g id="text_6">
     <!-- Modulation Method -->
     <g style="fill: #262626" transform="translate(174.159375 541.703062) scale(0.2 -0.2)">
      <defs>
       <path id="Arial-BoldMT-4d" d="M 453 0 
L 453 4581 
L 1838 4581 
L 2669 1456 
L 3491 4581 
L 4878 4581 
L 4878 0 
L 4019 0 
L 4019 3606 
L 3109 0 
L 2219 0 
L 1313 3606 
L 1313 0 
L 453 0 
z
" transform="scale(0.015625)"/>
       <path id="Arial-BoldMT-6f" d="M 256 1706 
Q 256 2144 472 2553 
Q 688 2963 1083 3178 
Q 1478 3394 1966 3394 
Q 2719 3394 3200 2905 
Q 3681 2416 3681 1669 
Q 3681 916 3195 420 
Q 2709 -75 1972 -75 
Q 1516 -75 1102 131 
Q 688 338 472 736 
Q 256 1134 256 1706 
z
M 1156 1659 
Q 1156 1166 1390 903 
Q 1625 641 1969 641 
Q 2313 641 2545 903 
Q 2778 1166 2778 1666 
Q 2778 2153 2545 2415 
Q 2313 2678 1969 2678 
Q 1625 2678 1390 2415 
Q 1156 2153 1156 1659 
z
" transform="scale(0.015625)"/>
       <path id="Arial-BoldMT-64" d="M 3503 0 
L 2688 0 
L 2688 488 
Q 2484 203 2207 64 
Q 1931 -75 1650 -75 
Q 1078 -75 670 386 
Q 263 847 263 1672 
Q 263 2516 659 2955 
Q 1056 3394 1663 3394 
Q 2219 3394 2625 2931 
L 2625 4581 
L 3503 4581 
L 3503 0 
z
M 1159 1731 
Q 1159 1200 1306 963 
Q 1519 619 1900 619 
Q 2203 619 2415 876 
Q 2628 1134 2628 1647 
Q 2628 2219 2422 2470 
Q 2216 2722 1894 2722 
Q 1581 2722 1370 2473 
Q 1159 2225 1159 1731 
z
" transform="scale(0.015625)"/>
       <path id="Arial-BoldMT-75" d="M 2644 0 
L 2644 497 
Q 2463 231 2167 78 
Q 1872 -75 1544 -75 
Q 1209 -75 943 72 
Q 678 219 559 484 
Q 441 750 441 1219 
L 441 3319 
L 1319 3319 
L 1319 1794 
Q 1319 1094 1367 936 
Q 1416 778 1544 686 
Q 1672 594 1869 594 
Q 2094 594 2272 717 
Q 2450 841 2515 1023 
Q 2581 1206 2581 1919 
L 2581 3319 
L 3459 3319 
L 3459 0 
L 2644 0 
z
" transform="scale(0.015625)"/>
       <path id="Arial-BoldMT-6c" d="M 459 0 
L 459 4581 
L 1338 4581 
L 1338 0 
L 459 0 
z
" transform="scale(0.015625)"/>
       <path id="Arial-BoldMT-61" d="M 1116 2306 
L 319 2450 
Q 453 2931 781 3162 
Q 1109 3394 1756 3394 
Q 2344 3394 2631 3255 
Q 2919 3116 3036 2902 
Q 3153 2688 3153 2116 
L 3144 1091 
Q 3144 653 3186 445 
Q 3228 238 3344 0 
L 2475 0 
Q 2441 88 2391 259 
Q 2369 338 2359 363 
Q 2134 144 1878 34 
Q 1622 -75 1331 -75 
Q 819 -75 523 203 
Q 228 481 228 906 
Q 228 1188 362 1408 
Q 497 1628 739 1745 
Q 981 1863 1438 1950 
Q 2053 2066 2291 2166 
L 2291 2253 
Q 2291 2506 2166 2614 
Q 2041 2722 1694 2722 
Q 1459 2722 1328 2630 
Q 1197 2538 1116 2306 
z
M 2291 1594 
Q 2122 1538 1756 1459 
Q 1391 1381 1278 1306 
Q 1106 1184 1106 997 
Q 1106 813 1243 678 
Q 1381 544 1594 544 
Q 1831 544 2047 700 
Q 2206 819 2256 991 
Q 2291 1103 2291 1419 
L 2291 1594 
z
" transform="scale(0.015625)"/>
       <path id="Arial-BoldMT-74" d="M 1981 3319 
L 1981 2619 
L 1381 2619 
L 1381 1281 
Q 1381 875 1398 808 
Q 1416 741 1477 697 
Q 1538 653 1625 653 
Q 1747 653 1978 738 
L 2053 56 
Q 1747 -75 1359 -75 
Q 1122 -75 931 4 
Q 741 84 652 211 
Q 563 338 528 553 
Q 500 706 500 1172 
L 500 2619 
L 97 2619 
L 97 3319 
L 500 3319 
L 500 3978 
L 1381 4491 
L 1381 3319 
L 1981 3319 
z
" transform="scale(0.015625)"/>
       <path id="Arial-BoldMT-69" d="M 459 3769 
L 459 4581 
L 1338 4581 
L 1338 3769 
L 459 3769 
z
M 459 0 
L 459 3319 
L 1338 3319 
L 1338 0 
L 459 0 
z
" transform="scale(0.015625)"/>
       <path id="Arial-BoldMT-6e" d="M 3478 0 
L 2600 0 
L 2600 1694 
Q 2600 2231 2544 2389 
Q 2488 2547 2361 2634 
Q 2234 2722 2056 2722 
Q 1828 2722 1647 2597 
Q 1466 2472 1398 2265 
Q 1331 2059 1331 1503 
L 1331 0 
L 453 0 
L 453 3319 
L 1269 3319 
L 1269 2831 
Q 1703 3394 2363 3394 
Q 2653 3394 2893 3289 
Q 3134 3184 3257 3021 
Q 3381 2859 3429 2653 
Q 3478 2447 3478 2063 
L 3478 0 
z
" transform="scale(0.015625)"/>
       <path id="Arial-BoldMT-20" transform="scale(0.015625)"/>
       <path id="Arial-BoldMT-65" d="M 2381 1056 
L 3256 909 
Q 3088 428 2723 176 
Q 2359 -75 1813 -75 
Q 947 -75 531 491 
Q 203 944 203 1634 
Q 203 2459 634 2926 
Q 1066 3394 1725 3394 
Q 2466 3394 2894 2905 
Q 3322 2416 3303 1406 
L 1103 1406 
Q 1113 1016 1316 798 
Q 1519 581 1822 581 
Q 2028 581 2168 693 
Q 2309 806 2381 1056 
z
M 2431 1944 
Q 2422 2325 2234 2523 
Q 2047 2722 1778 2722 
Q 1491 2722 1303 2513 
Q 1116 2303 1119 1944 
L 2431 1944 
z
" transform="scale(0.015625)"/>
       <path id="Arial-BoldMT-68" d="M 1334 4581 
L 1334 2897 
Q 1759 3394 2350 3394 
Q 2653 3394 2897 3281 
Q 3141 3169 3264 2994 
Q 3388 2819 3433 2606 
Q 3478 2394 3478 1947 
L 3478 0 
L 2600 0 
L 2600 1753 
Q 2600 2275 2550 2415 
Q 2500 2556 2373 2639 
Q 2247 2722 2056 2722 
Q 1838 2722 1666 2615 
Q 1494 2509 1414 2295 
Q 1334 2081 1334 1663 
L 1334 0 
L 456 0 
L 456 4581 
L 1334 4581 
z
" transform="scale(0.015625)"/>
      </defs>
      <use xlink:href="#Arial-BoldMT-4d"/>
      <use xlink:href="#Arial-BoldMT-6f" transform="translate(83.300781 0)"/>
      <use xlink:href="#Arial-BoldMT-64" transform="translate(144.384766 0)"/>
      <use xlink:href="#Arial-BoldMT-75" transform="translate(205.46875 0)"/>
      <use xlink:href="#Arial-BoldMT-6c" transform="translate(266.552734 0)"/>
      <use xlink:href="#Arial-BoldMT-61" transform="translate(294.335938 0)"/>
      <use xlink:href="#Arial-BoldMT-74" transform="translate(349.951172 0)"/>
      <use xlink:href="#Arial-BoldMT-69" transform="translate(383.251953 0)"/>
      <use xlink:href="#Arial-BoldMT-6f" transform="translate(411.035156 0)"/>
      <use xlink:href="#Arial-BoldMT-6e" transform="translate(472.119141 0)"/>
      <use xlink:href="#Arial-BoldMT-20" transform="translate(533.203125 0)"/>
      <use xlink:href="#Arial-BoldMT-4d" transform="translate(560.986328 0)"/>
      <use xlink:href="#Arial-BoldMT-65" transform="translate(644.287109 0)"/>
      <use xlink:href="#Arial-BoldMT-74" transform="translate(699.902344 0)"/>
      <use xlink:href="#Arial-BoldMT-68" transform="translate(733.203125 0)"/>
      <use xlink:href="#Arial-BoldMT-6f" transform="translate(794.287109 0)"/>
      <use xlink:href="#Arial-BoldMT-64" transform="translate(855.371094 0)"/>
     </g>
    </g>
   </g>
   <g id="matplotlib.axis_2">
    <g id="ytick_1">
     <g id="line2d_1">
      <path d="M 55.039375 420.090117 
L 476.554375 420.090117 
" clip-path="url(#p0213795614)" style="fill: none; stroke-dasharray: 3.7,1.6; stroke-dashoffset: 0; stroke: #cccccc; stroke-opacity: 0.7"/>
     </g>
     <g id="text_7">
      <!-- 20 -->
      <g style="fill: #262626" transform="translate(29.96875 425.100586) scale(0.14 -0.14)">
       <defs>
        <path id="ArialMT-30" d="M 266 2259 
Q 266 3072 433 3567 
Q 600 4063 929 4331 
Q 1259 4600 1759 4600 
Q 2128 4600 2406 4451 
Q 2684 4303 2865 4023 
Q 3047 3744 3150 3342 
Q 3253 2941 3253 2259 
Q 3253 1453 3087 958 
Q 2922 463 2592 192 
Q 2263 -78 1759 -78 
Q 1097 -78 719 397 
Q 266 969 266 2259 
z
M 844 2259 
Q 844 1131 1108 757 
Q 1372 384 1759 384 
Q 2147 384 2411 759 
Q 2675 1134 2675 2259 
Q 2675 3391 2411 3762 
Q 2147 4134 1753 4134 
Q 1366 4134 1134 3806 
Q 844 3388 844 2259 
z
" transform="scale(0.015625)"/>
       </defs>
       <use xlink:href="#ArialMT-32"/>
       <use xlink:href="#ArialMT-30" transform="translate(55.615234 0)"/>
      </g>
     </g>
    </g>
    <g id="ytick_2">
     <g id="line2d_2">
      <path d="M 55.039375 312.372343 
L 476.554375 312.372343 
" clip-path="url(#p0213795614)" style="fill: none; stroke-dasharray: 3.7,1.6; stroke-dashoffset: 0; stroke: #cccccc; stroke-opacity: 0.7"/>
     </g>
     <g id="text_8">
      <!-- 40 -->
      <g style="fill: #262626" transform="translate(29.96875 317.382812) scale(0.14 -0.14)">
       <defs>
        <path id="ArialMT-34" d="M 2069 0 
L 2069 1097 
L 81 1097 
L 81 1613 
L 2172 4581 
L 2631 4581 
L 2631 1613 
L 3250 1613 
L 3250 1097 
L 2631 1097 
L 2631 0 
L 2069 0 
z
M 2069 1613 
L 2069 3678 
L 634 1613 
L 2069 1613 
z
" transform="scale(0.015625)"/>
       </defs>
       <use xlink:href="#ArialMT-34"/>
       <use xlink:href="#ArialMT-30" transform="translate(55.615234 0)"/>
      </g>
     </g>
    </g>
    <g id="ytick_3">
     <g id="line2d_3">
      <path d="M 55.039375 204.65457 
L 476.554375 204.65457 
" clip-path="url(#p0213795614)" style="fill: none; stroke-dasharray: 3.7,1.6; stroke-dashoffset: 0; stroke: #cccccc; stroke-opacity: 0.7"/>
     </g>
     <g id="text_9">
      <!-- 60 -->
      <g style="fill: #262626" transform="translate(29.96875 209.665038) scale(0.14 -0.14)">
       <defs>
        <path id="ArialMT-36" d="M 3184 3459 
L 2625 3416 
Q 2550 3747 2413 3897 
Q 2184 4138 1850 4138 
Q 1581 4138 1378 3988 
Q 1113 3794 959 3422 
Q 806 3050 800 2363 
Q 1003 2672 1297 2822 
Q 1591 2972 1913 2972 
Q 2475 2972 2870 2558 
Q 3266 2144 3266 1488 
Q 3266 1056 3080 686 
Q 2894 316 2569 119 
Q 2244 -78 1831 -78 
Q 1128 -78 684 439 
Q 241 956 241 2144 
Q 241 3472 731 4075 
Q 1159 4600 1884 4600 
Q 2425 4600 2770 4297 
Q 3116 3994 3184 3459 
z
M 888 1484 
Q 888 1194 1011 928 
Q 1134 663 1356 523 
Q 1578 384 1822 384 
Q 2178 384 2434 671 
Q 2691 959 2691 1453 
Q 2691 1928 2437 2201 
Q 2184 2475 1800 2475 
Q 1419 2475 1153 2201 
Q 888 1928 888 1484 
z
" transform="scale(0.015625)"/>
       </defs>
       <use xlink:href="#ArialMT-36"/>
       <use xlink:href="#ArialMT-30" transform="translate(55.615234 0)"/>
      </g>
     </g>
    </g>
    <g id="ytick_4">
     <g id="line2d_4">
      <path d="M 55.039375 96.936796 
L 476.554375 96.936796 
" clip-path="url(#p0213795614)" style="fill: none; stroke-dasharray: 3.7,1.6; stroke-dashoffset: 0; stroke: #cccccc; stroke-opacity: 0.7"/>
     </g>
     <g id="text_10">
      <!-- 80 -->
      <g style="fill: #262626" transform="translate(29.96875 101.947265) scale(0.14 -0.14)">
       <defs>
        <path id="ArialMT-38" d="M 1131 2484 
Q 781 2613 612 2850 
Q 444 3088 444 3419 
Q 444 3919 803 4259 
Q 1163 4600 1759 4600 
Q 2359 4600 2725 4251 
Q 3091 3903 3091 3403 
Q 3091 3084 2923 2848 
Q 2756 2613 2416 2484 
Q 2838 2347 3058 2040 
Q 3278 1734 3278 1309 
Q 3278 722 2862 322 
Q 2447 -78 1769 -78 
Q 1091 -78 675 323 
Q 259 725 259 1325 
Q 259 1772 486 2073 
Q 713 2375 1131 2484 
z
M 1019 3438 
Q 1019 3113 1228 2906 
Q 1438 2700 1772 2700 
Q 2097 2700 2305 2904 
Q 2513 3109 2513 3406 
Q 2513 3716 2298 3927 
Q 2084 4138 1766 4138 
Q 1444 4138 1231 3931 
Q 1019 3725 1019 3438 
z
M 838 1322 
Q 838 1081 952 856 
Q 1066 631 1291 507 
Q 1516 384 1775 384 
Q 2178 384 2440 643 
Q 2703 903 2703 1303 
Q 2703 1709 2433 1975 
Q 2163 2241 1756 2241 
Q 1359 2241 1098 1978 
Q 838 1716 838 1322 
z
" transform="scale(0.015625)"/>
       </defs>
       <use xlink:href="#ArialMT-38"/>
       <use xlink:href="#ArialMT-30" transform="translate(55.615234 0)"/>
      </g>
     </g>
    </g>
    <g id="text_11">
     <!-- Threshold Estimate (Strength) -->
     <g style="fill: #262626" transform="translate(21.759375 397.477937) rotate(-90) scale(0.2 -0.2)">
      <defs>
       <path id="Arial-BoldMT-54" d="M 1497 0 
L 1497 3806 
L 138 3806 
L 138 4581 
L 3778 4581 
L 3778 3806 
L 2422 3806 
L 2422 0 
L 1497 0 
z
" transform="scale(0.015625)"/>
       <path id="Arial-BoldMT-72" d="M 1300 0 
L 422 0 
L 422 3319 
L 1238 3319 
L 1238 2847 
Q 1447 3181 1614 3287 
Q 1781 3394 1994 3394 
Q 2294 3394 2572 3228 
L 2300 2463 
Q 2078 2606 1888 2606 
Q 1703 2606 1575 2504 
Q 1447 2403 1373 2137 
Q 1300 1872 1300 1025 
L 1300 0 
z
" transform="scale(0.015625)"/>
       <path id="Arial-BoldMT-73" d="M 150 947 
L 1031 1081 
Q 1088 825 1259 692 
Q 1431 559 1741 559 
Q 2081 559 2253 684 
Q 2369 772 2369 919 
Q 2369 1019 2306 1084 
Q 2241 1147 2013 1200 
Q 950 1434 666 1628 
Q 272 1897 272 2375 
Q 272 2806 612 3100 
Q 953 3394 1669 3394 
Q 2350 3394 2681 3172 
Q 3013 2950 3138 2516 
L 2309 2363 
Q 2256 2556 2107 2659 
Q 1959 2763 1684 2763 
Q 1338 2763 1188 2666 
Q 1088 2597 1088 2488 
Q 1088 2394 1175 2328 
Q 1294 2241 1995 2081 
Q 2697 1922 2975 1691 
Q 3250 1456 3250 1038 
Q 3250 581 2869 253 
Q 2488 -75 1741 -75 
Q 1063 -75 667 200 
Q 272 475 150 947 
z
" transform="scale(0.015625)"/>
       <path id="Arial-BoldMT-45" d="M 466 0 
L 466 4581 
L 3863 4581 
L 3863 3806 
L 1391 3806 
L 1391 2791 
L 3691 2791 
L 3691 2019 
L 1391 2019 
L 1391 772 
L 3950 772 
L 3950 0 
L 466 0 
z
" transform="scale(0.015625)"/>
       <path id="Arial-BoldMT-6d" d="M 394 3319 
L 1203 3319 
L 1203 2866 
Q 1638 3394 2238 3394 
Q 2556 3394 2790 3262 
Q 3025 3131 3175 2866 
Q 3394 3131 3647 3262 
Q 3900 3394 4188 3394 
Q 4553 3394 4806 3245 
Q 5059 3097 5184 2809 
Q 5275 2597 5275 2122 
L 5275 0 
L 4397 0 
L 4397 1897 
Q 4397 2391 4306 2534 
Q 4184 2722 3931 2722 
Q 3747 2722 3584 2609 
Q 3422 2497 3350 2280 
Q 3278 2063 3278 1594 
L 3278 0 
L 2400 0 
L 2400 1819 
Q 2400 2303 2353 2443 
Q 2306 2584 2207 2653 
Q 2109 2722 1941 2722 
Q 1738 2722 1575 2612 
Q 1413 2503 1342 2297 
Q 1272 2091 1272 1613 
L 1272 0 
L 394 0 
L 394 3319 
z
" transform="scale(0.015625)"/>
       <path id="Arial-BoldMT-28" d="M 1916 -1347 
L 1313 -1347 
Q 834 -625 584 153 
Q 334 931 334 1659 
Q 334 2563 644 3369 
Q 913 4069 1325 4659 
L 1925 4659 
Q 1497 3713 1336 3048 
Q 1175 2384 1175 1641 
Q 1175 1128 1270 590 
Q 1366 53 1531 -431 
Q 1641 -750 1916 -1347 
z
" transform="scale(0.015625)"/>
       <path id="Arial-BoldMT-53" d="M 231 1491 
L 1131 1578 
Q 1213 1125 1461 912 
Q 1709 700 2131 700 
Q 2578 700 2804 889 
Q 3031 1078 3031 1331 
Q 3031 1494 2936 1608 
Q 2841 1722 2603 1806 
Q 2441 1863 1863 2006 
Q 1119 2191 819 2459 
Q 397 2838 397 3381 
Q 397 3731 595 4036 
Q 794 4341 1167 4500 
Q 1541 4659 2069 4659 
Q 2931 4659 3367 4281 
Q 3803 3903 3825 3272 
L 2900 3231 
Q 2841 3584 2645 3739 
Q 2450 3894 2059 3894 
Q 1656 3894 1428 3728 
Q 1281 3622 1281 3444 
Q 1281 3281 1419 3166 
Q 1594 3019 2269 2859 
Q 2944 2700 3267 2529 
Q 3591 2359 3773 2064 
Q 3956 1769 3956 1334 
Q 3956 941 3737 597 
Q 3519 253 3119 86 
Q 2719 -81 2122 -81 
Q 1253 -81 787 320 
Q 322 722 231 1491 
z
" transform="scale(0.015625)"/>
       <path id="Arial-BoldMT-67" d="M 378 -219 
L 1381 -341 
Q 1406 -516 1497 -581 
Q 1622 -675 1891 -675 
Q 2234 -675 2406 -572 
Q 2522 -503 2581 -350 
Q 2622 -241 2622 53 
L 2622 538 
Q 2228 0 1628 0 
Q 959 0 569 566 
Q 263 1013 263 1678 
Q 263 2513 664 2953 
Q 1066 3394 1663 3394 
Q 2278 3394 2678 2853 
L 2678 3319 
L 3500 3319 
L 3500 341 
Q 3500 -247 3403 -537 
Q 3306 -828 3131 -993 
Q 2956 -1159 2664 -1253 
Q 2372 -1347 1925 -1347 
Q 1081 -1347 728 -1058 
Q 375 -769 375 -325 
Q 375 -281 378 -219 
z
M 1163 1728 
Q 1163 1200 1367 954 
Q 1572 709 1872 709 
Q 2194 709 2416 961 
Q 2638 1213 2638 1706 
Q 2638 2222 2425 2472 
Q 2213 2722 1888 2722 
Q 1572 2722 1367 2476 
Q 1163 2231 1163 1728 
z
" transform="scale(0.015625)"/>
       <path id="Arial-BoldMT-29" d="M 216 -1347 
Q 475 -791 581 -494 
Q 688 -197 778 190 
Q 869 578 912 926 
Q 956 1275 956 1641 
Q 956 2384 797 3048 
Q 638 3713 209 4659 
L 806 4659 
Q 1278 3988 1539 3234 
Q 1800 2481 1800 1706 
Q 1800 1053 1594 306 
Q 1359 -531 822 -1347 
L 216 -1347 
z
" transform="scale(0.015625)"/>
      </defs>
      <use xlink:href="#Arial-BoldMT-54"/>
      <use xlink:href="#Arial-BoldMT-68" transform="translate(61.083984 0)"/>
      <use xlink:href="#Arial-BoldMT-72" transform="translate(122.167969 0)"/>
      <use xlink:href="#Arial-BoldMT-65" transform="translate(161.083984 0)"/>
      <use xlink:href="#Arial-BoldMT-73" transform="translate(216.699219 0)"/>
      <use xlink:href="#Arial-BoldMT-68" transform="translate(272.314453 0)"/>
      <use xlink:href="#Arial-BoldMT-6f" transform="translate(333.398438 0)"/>
      <use xlink:href="#Arial-BoldMT-6c" transform="translate(394.482422 0)"/>
      <use xlink:href="#Arial-BoldMT-64" transform="translate(422.265625 0)"/>
      <use xlink:href="#Arial-BoldMT-20" transform="translate(483.349609 0)"/>
      <use xlink:href="#Arial-BoldMT-45" transform="translate(511.132812 0)"/>
      <use xlink:href="#Arial-BoldMT-73" transform="translate(577.832031 0)"/>
      <use xlink:href="#Arial-BoldMT-74" transform="translate(633.447266 0)"/>
      <use xlink:href="#Arial-BoldMT-69" transform="translate(666.748047 0)"/>
      <use xlink:href="#Arial-BoldMT-6d" transform="translate(694.53125 0)"/>
      <use xlink:href="#Arial-BoldMT-61" transform="translate(783.447266 0)"/>
      <use xlink:href="#Arial-BoldMT-74" transform="translate(839.0625 0)"/>
      <use xlink:href="#Arial-BoldMT-65" transform="translate(872.363281 0)"/>
      <use xlink:href="#Arial-BoldMT-20" transform="translate(927.978516 0)"/>
      <use xlink:href="#Arial-BoldMT-28" transform="translate(955.761719 0)"/>
      <use xlink:href="#Arial-BoldMT-53" transform="translate(989.0625 0)"/>
      <use xlink:href="#Arial-BoldMT-74" transform="translate(1055.761719 0)"/>
      <use xlink:href="#Arial-BoldMT-72" transform="translate(1089.0625 0)"/>
      <use xlink:href="#Arial-BoldMT-65" transform="translate(1127.978516 0)"/>
      <use xlink:href="#Arial-BoldMT-6e" transform="translate(1183.59375 0)"/>
      <use xlink:href="#Arial-BoldMT-67" transform="translate(1244.677734 0)"/>
      <use xlink:href="#Arial-BoldMT-74" transform="translate(1305.761719 0)"/>
      <use xlink:href="#Arial-BoldMT-68" transform="translate(1339.0625 0)"/>
      <use xlink:href="#Arial-BoldMT-29" transform="translate(1400.146484 0)"/>
     </g>
    </g>
   </g>
   <g id="patch_3">
    <path d="M 74.00755 400.061344 
L 83.28088 400.061344 
L 83.28088 308.104027 
L 74.00755 308.104027 
L 74.00755 400.061344 
z
" clip-path="url(#p0213795614)" style="fill: #4b427a; stroke: #353535; stroke-width: 1.3; stroke-linejoin: miter"/>
   </g>
   <g id="line2d_5">
    <path d="M 78.644215 400.061344 
L 78.644215 478.634727 
" clip-path="url(#p0213795614)" style="fill: none; stroke: #353535; stroke-width: 1.3"/>
   </g>
   <g id="line2d_6">
    <path d="M 78.644215 308.104027 
L 78.644215 241.507513 
" clip-path="url(#p0213795614)" style="fill: none; stroke: #353535; stroke-width: 1.3"/>
   </g>
   <g id="line2d_7">
    <path d="M 76.325883 478.634727 
L 80.962547 478.634727 
" clip-path="url(#p0213795614)" style="fill: none; stroke: #353535; stroke-width: 1.3; stroke-linecap: round"/>
   </g>
   <g id="line2d_8">
    <path d="M 76.325883 241.507513 
L 80.962547 241.507513 
" clip-path="url(#p0213795614)" style="fill: none; stroke: #353535; stroke-width: 1.3; stroke-linecap: round"/>
   </g>
   <g id="line2d_9"/>
   <g id="patch_4">
    <path d="M 167.58388 376.349969 
L 176.85721 376.349969 
L 176.85721 294.504658 
L 167.58388 294.504658 
L 167.58388 376.349969 
z
" clip-path="url(#p0213795614)" style="fill: #3d6682; stroke: #353535; stroke-width: 1.3; stroke-linejoin: miter"/>
   </g>
   <g id="line2d_10">
    <path d="M 172.220545 376.349969 
L 172.220545 467.943738 
" clip-path="url(#p0213795614)" style="fill: none; stroke: #353535; stroke-width: 1.3"/>
   </g>
   <g id="line2d_11">
    <path d="M 172.220545 294.504658 
L 172.220545 188.42958 
" clip-path="url(#p0213795614)" style="fill: none; stroke: #353535; stroke-width: 1.3"/>
   </g>
   <g id="line2d_12">
    <path d="M 169.902213 467.943738 
L 174.538878 467.943738 
" clip-path="url(#p0213795614)" style="fill: none; stroke: #353535; stroke-width: 1.3; stroke-linecap: round"/>
   </g>
   <g id="line2d_13">
    <path d="M 169.902213 188.42958 
L 174.538878 188.42958 
" clip-path="url(#p0213795614)" style="fill: none; stroke: #353535; stroke-width: 1.3; stroke-linecap: round"/>
   </g>
   <g id="line2d_14"/>
   <g id="patch_5">
    <path d="M 261.16021 381.237663 
L 270.43354 381.237663 
L 270.43354 282.911532 
L 261.16021 282.911532 
L 261.16021 381.237663 
z
" clip-path="url(#p0213795614)" style="fill: #2f837f; stroke: #353535; stroke-width: 1.3; stroke-linejoin: miter"/>
   </g>
   <g id="line2d_15">
    <path d="M 265.796875 381.237663 
L 265.796875 467.943738 
" clip-path="url(#p0213795614)" style="fill: none; stroke: #353535; stroke-width: 1.3"/>
   </g>
   <g id="line2d_16">
    <path d="M 265.796875 282.911532 
L 265.796875 226.696319 
" clip-path="url(#p0213795614)" style="fill: none; stroke: #353535; stroke-width: 1.3"/>
   </g>
   <g id="line2d_17">
    <path d="M 263.478543 467.943738 
L 268.115207 467.943738 
" clip-path="url(#p0213795614)" style="fill: none; stroke: #353535; stroke-width: 1.3; stroke-linecap: round"/>
   </g>
   <g id="line2d_18">
    <path d="M 263.478543 226.696319 
L 268.115207 226.696319 
" clip-path="url(#p0213795614)" style="fill: none; stroke: #353535; stroke-width: 1.3; stroke-linecap: round"/>
   </g>
   <g id="line2d_19"/>
   <g id="patch_6">
    <path d="M 354.73654 399.475628 
L 364.00987 399.475628 
L 364.00987 272.678344 
L 354.73654 272.678344 
L 354.73654 399.475628 
z
" clip-path="url(#p0213795614)" style="fill: #45a778; stroke: #353535; stroke-width: 1.3; stroke-linejoin: miter"/>
   </g>
   <g id="line2d_20">
    <path d="M 359.373205 399.475628 
L 359.373205 478.634727 
" clip-path="url(#p0213795614)" style="fill: none; stroke: #353535; stroke-width: 1.3"/>
   </g>
   <g id="line2d_21">
    <path d="M 359.373205 272.678344 
L 359.373205 128.323062 
" clip-path="url(#p0213795614)" style="fill: none; stroke: #353535; stroke-width: 1.3"/>
   </g>
   <g id="line2d_22">
    <path d="M 357.054873 478.634727 
L 361.691538 478.634727 
" clip-path="url(#p0213795614)" style="fill: none; stroke: #353535; stroke-width: 1.3; stroke-linecap: round"/>
   </g>
   <g id="line2d_23">
    <path d="M 357.054873 128.323062 
L 361.691538 128.323062 
" clip-path="url(#p0213795614)" style="fill: none; stroke: #353535; stroke-width: 1.3; stroke-linecap: round"/>
   </g>
   <g id="line2d_24"/>
   <g id="patch_7">
    <path d="M 448.31287 374.835188 
L 457.5862 374.835188 
L 457.5862 244.617864 
L 448.31287 244.617864 
L 448.31287 374.835188 
z
" clip-path="url(#p0213795614)" style="fill: #8fc555; stroke: #353535; stroke-width: 1.3; stroke-linejoin: miter"/>
   </g>
   <g id="line2d_25">
    <path d="M 452.949535 374.835188 
L 452.949535 457.252749 
" clip-path="url(#p0213795614)" style="fill: none; stroke: #353535; stroke-width: 1.3"/>
   </g>
   <g id="line2d_26">
    <path d="M 452.949535 244.617864 
L 452.949535 141.128013 
" clip-path="url(#p0213795614)" style="fill: none; stroke: #353535; stroke-width: 1.3"/>
   </g>
   <g id="line2d_27">
    <path d="M 450.631203 457.252749 
L 455.267868 457.252749 
" clip-path="url(#p0213795614)" style="fill: none; stroke: #353535; stroke-width: 1.3; stroke-linecap: round"/>
   </g>
   <g id="line2d_28">
    <path d="M 450.631203 141.128013 
L 455.267868 141.128013 
" clip-path="url(#p0213795614)" style="fill: none; stroke: #353535; stroke-width: 1.3; stroke-linecap: round"/>
   </g>
   <g id="line2d_29"/>
   <g id="line2d_30">
    <path d="M 74.00755 354.16684 
L 83.28088 354.16684 
" clip-path="url(#p0213795614)" style="fill: none; stroke: #353535; stroke-width: 1.3"/>
   </g>
   <g id="line2d_31">
    <path d="M 167.58388 346.074542 
L 176.85721 346.074542 
" clip-path="url(#p0213795614)" style="fill: none; stroke: #353535; stroke-width: 1.3"/>
   </g>
   <g id="line2d_32">
    <path d="M 261.16021 336.958925 
L 270.43354 336.958925 
" clip-path="url(#p0213795614)" style="fill: none; stroke: #353535; stroke-width: 1.3"/>
   </g>
   <g id="line2d_33">
    <path d="M 354.73654 338.413115 
L 364.00987 338.413115 
" clip-path="url(#p0213795614)" style="fill: none; stroke: #353535; stroke-width: 1.3"/>
   </g>
   <g id="line2d_34">
    <path d="M 448.31287 301.210089 
L 457.5862 301.210089 
" clip-path="url(#p0213795614)" style="fill: none; stroke: #353535; stroke-width: 1.3"/>
   </g>
   <g id="patch_8">
    <path d="M 55.039375 501.084 
L 55.039375 7.2 
" style="fill: none; stroke: #cccccc; stroke-width: 1.25; stroke-linejoin: miter; stroke-linecap: square"/>
   </g>
   <g id="patch_9">
    <path d="M 476.554375 501.084 
L 476.554375 7.2 
" style="fill: none; stroke: #cccccc; stroke-width: 1.25; stroke-linejoin: miter; stroke-linecap: square"/>
   </g>
   <g id="patch_10">
    <path d="M 55.039375 501.084 
L 476.554375 501.084 
" style="fill: none; stroke: #cccccc; stroke-width: 1.25; stroke-linejoin: miter; stroke-linecap: square"/>
   </g>
   <g id="patch_11">
    <path d="M 55.039375 7.2 
L 476.554375 7.2 
" style="fill: none; stroke: #cccccc; stroke-width: 1.25; stroke-linejoin: miter; stroke-linecap: square"/>
   </g>
   <g id="PathCollection_1">
    <defs>
     <path id="m48940593ef" d="M 0 2 
C 0.530406 2 1.03916 1.789267 1.414214 1.414214 
C 1.789267 1.03916 2 0.530406 2 0 
C 2 -0.530406 1.789267 -1.03916 1.414214 -1.414214 
C 1.03916 -1.789267 0.530406 -2 0 -2 
C -0.530406 -2 -1.03916 -1.789267 -1.414214 -1.414214 
C -1.789267 -1.03916 -2 -0.530406 -2 0 
C -2 0.530406 -1.789267 1.03916 -1.414214 1.414214 
C -1.03916 1.789267 -0.530406 2 0 2 
z
"/>
    </defs>
    <g clip-path="url(#p0213795614)">
     <use xlink:href="#m48940593ef" x="103.609313" y="377.743567" style="fill-opacity: 0.4"/>
     <use xlink:href="#m48940593ef" x="96.174459" y="443.357156" style="fill-opacity: 0.4"/>
     <use xlink:href="#m48940593ef" x="87.25653" y="75.967915" style="fill-opacity: 0.4"/>
     <use xlink:href="#m48940593ef" x="100.308606" y="346.074542" style="fill-opacity: 0.4"/>
     <use xlink:href="#m48940593ef" x="98.344077" y="271.049112" style="fill-opacity: 0.4"/>
     <use xlink:href="#m48940593ef" x="86.390802" y="241.507513" style="fill-opacity: 0.4"/>
     <use xlink:href="#m48940593ef" x="84.72219" y="478.634727" style="fill-opacity: 0.4"/>
     <use xlink:href="#m48940593ef" x="93.216389" y="408.079585" style="fill-opacity: 0.4"/>
     <use xlink:href="#m48940593ef" x="107.744434" y="399.475628" style="fill-opacity: 0.4"/>
     <use xlink:href="#m48940593ef" x="99.862083" y="432.666167" style="fill-opacity: 0.4"/>
     <use xlink:href="#m48940593ef" x="94.947078" y="354.16684" style="fill-opacity: 0.4"/>
     <use xlink:href="#m48940593ef" x="96.518528" y="316.681054" style="fill-opacity: 0.4"/>
     <use xlink:href="#m48940593ef" x="107.668911" y="314.997964" style="fill-opacity: 0.4"/>
     <use xlink:href="#m48940593ef" x="85.561804" y="478.634727" style="fill-opacity: 0.4"/>
     <use xlink:href="#m48940593ef" x="98.541418" y="361.828266" style="fill-opacity: 0.4"/>
     <use xlink:href="#m48940593ef" x="99.433475" y="383.210244" style="fill-opacity: 0.4"/>
     <use xlink:href="#m48940593ef" x="103.366681" y="329.809158" style="fill-opacity: 0.4"/>
     <use xlink:href="#m48940593ef" x="105.646459" y="408.079585" style="fill-opacity: 0.4"/>
     <use xlink:href="#m48940593ef" x="109.506258" y="272.61102" style="fill-opacity: 0.4"/>
     <use xlink:href="#m48940593ef" x="99.565664" y="399.475628" style="fill-opacity: 0.4"/>
     <use xlink:href="#m48940593ef" x="101.492466" y="369.489693" style="fill-opacity: 0.4"/>
     <use xlink:href="#m48940593ef" x="100.757471" y="380.180682" style="fill-opacity: 0.4"/>
     <use xlink:href="#m48940593ef" x="99.27988" y="301.210089" style="fill-opacity: 0.4"/>
     <use xlink:href="#m48940593ef" x="89.648387" y="451.678354" style="fill-opacity: 0.4"/>
     <use xlink:href="#m48940593ef" x="107.346814" y="84.131846" style="fill-opacity: 0.4"/>
     <use xlink:href="#m48940593ef" x="104.145974" y="288.997587" style="fill-opacity: 0.4"/>
     <use xlink:href="#m48940593ef" x="103.265177" y="272.476373" style="fill-opacity: 0.4"/>
     <use xlink:href="#m48940593ef" x="86.906037" y="329.809158" style="fill-opacity: 0.4"/>
     <use xlink:href="#m48940593ef" x="91.652864" y="322.888291" style="fill-opacity: 0.4"/>
     <use xlink:href="#m48940593ef" x="104.477955" y="345.562882" style="fill-opacity: 0.4"/>
     <use xlink:href="#m48940593ef" x="101.074669" y="400.647059" style="fill-opacity: 0.4"/>
    </g>
   </g>
   <g id="PathCollection_2">
    <g clip-path="url(#p0213795614)">
     <use xlink:href="#m48940593ef" x="180.814491" y="372.519255" style="fill-opacity: 0.4"/>
     <use xlink:href="#m48940593ef" x="193.85813" y="408.079585" style="fill-opacity: 0.4"/>
     <use xlink:href="#m48940593ef" x="179.64242" y="188.42958" style="fill-opacity: 0.4"/>
     <use xlink:href="#m48940593ef" x="172.111139" y="372.519255" style="fill-opacity: 0.4"/>
     <use xlink:href="#m48940593ef" x="177.139362" y="251.538731" style="fill-opacity: 0.4"/>
     <use xlink:href="#m48940593ef" x="192.045764" y="265.326606" style="fill-opacity: 0.4"/>
     <use xlink:href="#m48940593ef" x="189.122313" y="408.079585" style="fill-opacity: 0.4"/>
     <use xlink:href="#m48940593ef" x="186.317396" y="380.180682" style="fill-opacity: 0.4"/>
     <use xlink:href="#m48940593ef" x="172.122347" y="93.382109" style="fill-opacity: 0.4"/>
     <use xlink:href="#m48940593ef" x="190.560237" y="357.708061" style="fill-opacity: 0.4"/>
     <use xlink:href="#m48940593ef" x="174.790855" y="323.601921" style="fill-opacity: 0.4"/>
     <use xlink:href="#m48940593ef" x="188.287031" y="286.345036" style="fill-opacity: 0.4"/>
     <use xlink:href="#m48940593ef" x="184.012924" y="293.265903" style="fill-opacity: 0.4"/>
     <use xlink:href="#m48940593ef" x="170.938553" y="365.369488" style="fill-opacity: 0.4"/>
     <use xlink:href="#m48940593ef" x="178.056922" y="380.180682" style="fill-opacity: 0.4"/>
     <use xlink:href="#m48940593ef" x="171.983036" y="331.263348" style="fill-opacity: 0.4"/>
     <use xlink:href="#m48940593ef" x="191.852157" y="467.943738" style="fill-opacity: 0.4"/>
     <use xlink:href="#m48940593ef" x="173.907249" y="399.475628" style="fill-opacity: 0.4"/>
     <use xlink:href="#m48940593ef" x="192.022212" y="315.738524" style="fill-opacity: 0.4"/>
     <use xlink:href="#m48940593ef" x="169.36416" y="345.562882" style="fill-opacity: 0.4"/>
     <use xlink:href="#m48940593ef" x="171.471822" y="346.074542" style="fill-opacity: 0.4"/>
     <use xlink:href="#m48940593ef" x="192.775857" y="369.489693" style="fill-opacity: 0.4"/>
     <use xlink:href="#m48940593ef" x="185.602035" y="308.077097" style="fill-opacity: 0.4"/>
     <use xlink:href="#m48940593ef" x="193.556204" y="424.06221" style="fill-opacity: 0.4"/>
     <use xlink:href="#m48940593ef" x="171.930654" y="99.037292" style="fill-opacity: 0.4"/>
     <use xlink:href="#m48940593ef" x="184.235269" y="372.519255" style="fill-opacity: 0.4"/>
     <use xlink:href="#m48940593ef" x="187.976507" y="236.121624" style="fill-opacity: 0.4"/>
     <use xlink:href="#m48940593ef" x="180.997146" y="314.997964" style="fill-opacity: 0.4"/>
     <use xlink:href="#m48940593ef" x="180.782808" y="295.743412" style="fill-opacity: 0.4"/>
     <use xlink:href="#m48940593ef" x="187.710324" y="369.489693" style="fill-opacity: 0.4"/>
     <use xlink:href="#m48940593ef" x="176.388729" y="467.943738" style="fill-opacity: 0.4"/>
    </g>
   </g>
   <g id="PathCollection_3">
    <g clip-path="url(#p0213795614)">
     <use xlink:href="#m48940593ef" x="263.979196" y="314.997964" style="fill-opacity: 0.4"/>
     <use xlink:href="#m48940593ef" x="266.306764" y="339.032492" style="fill-opacity: 0.4"/>
     <use xlink:href="#m48940593ef" x="254.013352" y="226.696319" style="fill-opacity: 0.4"/>
     <use xlink:href="#m48940593ef" x="263.50075" y="369.489693" style="fill-opacity: 0.4"/>
     <use xlink:href="#m48940593ef" x="259.107838" y="258.540386" style="fill-opacity: 0.4"/>
     <use xlink:href="#m48940593ef" x="273.38739" y="279.195269" style="fill-opacity: 0.4"/>
     <use xlink:href="#m48940593ef" x="260.525502" y="467.943738" style="fill-opacity: 0.4"/>
     <use xlink:href="#m48940593ef" x="264.091205" y="363.915298" style="fill-opacity: 0.4"/>
     <use xlink:href="#m48940593ef" x="258.945078" y="434.753199" style="fill-opacity: 0.4"/>
     <use xlink:href="#m48940593ef" x="262.678383" y="388.784639" style="fill-opacity: 0.4"/>
     <use xlink:href="#m48940593ef" x="259.538805" y="380.180682" style="fill-opacity: 0.4"/>
     <use xlink:href="#m48940593ef" x="274.179254" y="237.750856" style="fill-opacity: 0.4"/>
     <use xlink:href="#m48940593ef" x="272.167222" y="336.958925" style="fill-opacity: 0.4"/>
     <use xlink:href="#m48940593ef" x="255.597662" y="336.958925" style="fill-opacity: 0.4"/>
     <use xlink:href="#m48940593ef" x="266.511548" y="294.006463" style="fill-opacity: 0.4"/>
     <use xlink:href="#m48940593ef" x="253.933318" y="331.263348" style="fill-opacity: 0.4"/>
     <use xlink:href="#m48940593ef" x="272.929404" y="345.562882" style="fill-opacity: 0.4"/>
     <use xlink:href="#m48940593ef" x="269.987454" y="443.357156" style="fill-opacity: 0.4"/>
     <use xlink:href="#m48940593ef" x="260.034146" y="286.627796" style="fill-opacity: 0.4"/>
     <use xlink:href="#m48940593ef" x="265.520297" y="307.336538" style="fill-opacity: 0.4"/>
     <use xlink:href="#m48940593ef" x="268.842551" y="443.357156" style="fill-opacity: 0.4"/>
     <use xlink:href="#m48940593ef" x="261.498075" y="382.294643" style="fill-opacity: 0.4"/>
     <use xlink:href="#m48940593ef" x="265.827158" y="296.026171" style="fill-opacity: 0.4"/>
     <use xlink:href="#m48940593ef" x="271.916424" y="443.357156" style="fill-opacity: 0.4"/>
     <use xlink:href="#m48940593ef" x="263.454301" y="106.873761" style="fill-opacity: 0.4"/>
     <use xlink:href="#m48940593ef" x="273.171377" y="380.180682" style="fill-opacity: 0.4"/>
     <use xlink:href="#m48940593ef" x="277.30735" y="113.50756" style="fill-opacity: 0.4"/>
     <use xlink:href="#m48940593ef" x="259.114402" y="279.195269" style="fill-opacity: 0.4"/>
     <use xlink:href="#m48940593ef" x="263.515435" y="278.279668" style="fill-opacity: 0.4"/>
     <use xlink:href="#m48940593ef" x="260.323807" y="336.958925" style="fill-opacity: 0.4"/>
     <use xlink:href="#m48940593ef" x="276.307792" y="408.079585" style="fill-opacity: 0.4"/>
    </g>
   </g>
   <g id="PathCollection_4">
    <g clip-path="url(#p0213795614)">
     <use xlink:href="#m48940593ef" x="339.724927" y="399.475628" style="fill-opacity: 0.4"/>
     <use xlink:href="#m48940593ef" x="361.001376" y="399.475628" style="fill-opacity: 0.4"/>
     <use xlink:href="#m48940593ef" x="339.383304" y="293.265903" style="fill-opacity: 0.4"/>
     <use xlink:href="#m48940593ef" x="350.162937" y="338.413115" style="fill-opacity: 0.4"/>
     <use xlink:href="#m48940593ef" x="343.761009" y="244.173528" style="fill-opacity: 0.4"/>
     <use xlink:href="#m48940593ef" x="354.450115" y="293.265903" style="fill-opacity: 0.4"/>
     <use xlink:href="#m48940593ef" x="355.832449" y="408.079585" style="fill-opacity: 0.4"/>
     <use xlink:href="#m48940593ef" x="343.962179" y="413.371221" style="fill-opacity: 0.4"/>
     <use xlink:href="#m48940593ef" x="358.292233" y="29.649273" style="fill-opacity: 0.4"/>
     <use xlink:href="#m48940593ef" x="361.930874" y="380.180682" style="fill-opacity: 0.4"/>
     <use xlink:href="#m48940593ef" x="340.431666" y="354.678499" style="fill-opacity: 0.4"/>
     <use xlink:href="#m48940593ef" x="339.795867" y="128.323062" style="fill-opacity: 0.4"/>
     <use xlink:href="#m48940593ef" x="348.497053" y="322.659391" style="fill-opacity: 0.4"/>
     <use xlink:href="#m48940593ef" x="355.840049" y="409.251016" style="fill-opacity: 0.4"/>
     <use xlink:href="#m48940593ef" x="348.137429" y="399.475628" style="fill-opacity: 0.4"/>
     <use xlink:href="#m48940593ef" x="351.813684" y="294.006463" style="fill-opacity: 0.4"/>
     <use xlink:href="#m48940593ef" x="340.165708" y="345.562882" style="fill-opacity: 0.4"/>
     <use xlink:href="#m48940593ef" x="340.749801" y="399.475628" style="fill-opacity: 0.4"/>
     <use xlink:href="#m48940593ef" x="339.105087" y="329.809158" style="fill-opacity: 0.4"/>
     <use xlink:href="#m48940593ef" x="348.160601" y="336.958925" style="fill-opacity: 0.4"/>
     <use xlink:href="#m48940593ef" x="361.786678" y="29.649273" style="fill-opacity: 0.4"/>
     <use xlink:href="#m48940593ef" x="356.724654" y="478.634727" style="fill-opacity: 0.4"/>
     <use xlink:href="#m48940593ef" x="346.062672" y="350.558294" style="fill-opacity: 0.4"/>
     <use xlink:href="#m48940593ef" x="345.325581" y="202.284779" style="fill-opacity: 0.4"/>
     <use xlink:href="#m48940593ef" x="341.661065" y="194.098228" style="fill-opacity: 0.4"/>
     <use xlink:href="#m48940593ef" x="338.121949" y="388.784639" style="fill-opacity: 0.4"/>
     <use xlink:href="#m48940593ef" x="362.629137" y="252.090784" style="fill-opacity: 0.4"/>
     <use xlink:href="#m48940593ef" x="361.675714" y="251.538731" style="fill-opacity: 0.4"/>
     <use xlink:href="#m48940593ef" x="338.013088" y="301.869861" style="fill-opacity: 0.4"/>
     <use xlink:href="#m48940593ef" x="340.661531" y="365.369488" style="fill-opacity: 0.4"/>
     <use xlink:href="#m48940593ef" x="342.687753" y="408.079585" style="fill-opacity: 0.4"/>
    </g>
   </g>
   <g id="PathCollection_5">
    <g clip-path="url(#p0213795614)">
     <use xlink:href="#m48940593ef" x="433.520651" y="294.006463" style="fill-opacity: 0.4"/>
     <use xlink:href="#m48940593ef" x="441.621758" y="399.475628" style="fill-opacity: 0.4"/>
     <use xlink:href="#m48940593ef" x="435.7917" y="235.8254" style="fill-opacity: 0.4"/>
     <use xlink:href="#m48940593ef" x="438.266376" y="336.958925" style="fill-opacity: 0.4"/>
     <use xlink:href="#m48940593ef" x="423.045221" y="162.254161" style="fill-opacity: 0.4"/>
     <use xlink:href="#m48940593ef" x="439.013254" y="207.966891" style="fill-opacity: 0.4"/>
     <use xlink:href="#m48940593ef" x="438.392317" y="457.252749" style="fill-opacity: 0.4"/>
     <use xlink:href="#m48940593ef" x="441.675911" y="336.958925" style="fill-opacity: 0.4"/>
     <use xlink:href="#m48940593ef" x="440.134349" y="408.079585" style="fill-opacity: 0.4"/>
     <use xlink:href="#m48940593ef" x="431.500389" y="301.210089" style="fill-opacity: 0.4"/>
     <use xlink:href="#m48940593ef" x="440.993303" y="345.562882" style="fill-opacity: 0.4"/>
     <use xlink:href="#m48940593ef" x="442.772438" y="244.617864" style="fill-opacity: 0.4"/>
     <use xlink:href="#m48940593ef" x="425.505034" y="244.617864" style="fill-opacity: 0.4"/>
     <use xlink:href="#m48940593ef" x="424.083581" y="399.475628" style="fill-opacity: 0.4"/>
     <use xlink:href="#m48940593ef" x="446.949068" y="286.345036" style="fill-opacity: 0.4"/>
     <use xlink:href="#m48940593ef" x="424.783701" y="301.210089" style="fill-opacity: 0.4"/>
     <use xlink:href="#m48940593ef" x="436.85308" y="329.809158" style="fill-opacity: 0.4"/>
     <use xlink:href="#m48940593ef" x="427.050818" y="380.180682" style="fill-opacity: 0.4"/>
     <use xlink:href="#m48940593ef" x="446.851692" y="266.349925" style="fill-opacity: 0.4"/>
     <use xlink:href="#m48940593ef" x="428.004287" y="349.104104" style="fill-opacity: 0.4"/>
     <use xlink:href="#m48940593ef" x="442.685752" y="353.224309" style="fill-opacity: 0.4"/>
     <use xlink:href="#m48940593ef" x="443.521915" y="389.95607" style="fill-opacity: 0.4"/>
     <use xlink:href="#m48940593ef" x="445.359675" y="301.210089" style="fill-opacity: 0.4"/>
     <use xlink:href="#m48940593ef" x="435.215956" y="432.666167" style="fill-opacity: 0.4"/>
     <use xlink:href="#m48940593ef" x="425.064334" y="154.888958" style="fill-opacity: 0.4"/>
     <use xlink:href="#m48940593ef" x="431.698284" y="189.156675" style="fill-opacity: 0.4"/>
     <use xlink:href="#m48940593ef" x="445.965032" y="293.548662" style="fill-opacity: 0.4"/>
     <use xlink:href="#m48940593ef" x="443.60378" y="141.128013" style="fill-opacity: 0.4"/>
     <use xlink:href="#m48940593ef" x="421.871143" y="222.939662" style="fill-opacity: 0.4"/>
     <use xlink:href="#m48940593ef" x="427.558169" y="369.489693" style="fill-opacity: 0.4"/>
     <use xlink:href="#m48940593ef" x="436.783727" y="424.06221" style="fill-opacity: 0.4"/>
    </g>
   </g>
  </g>
 </g>
 <defs>
  <clipPath id="p0213795614">
   <rect x="55.039375" y="7.2" width="421.515" height="493.884"/>
  </clipPath>
 </defs>
</svg>
