<?xml version="1.0" encoding="utf-8" standalone="no"?>
<!DOCTYPE svg PUBLIC "-//W3C//DTD SVG 1.1//EN"
  "http://www.w3.org/Graphics/SVG/1.1/DTD/svg11.dtd">
<svg xmlns:xlink="http://www.w3.org/1999/xlink" width="411.231125pt" height="408.849937pt" viewBox="0 0 411.231125 408.849937" xmlns="http://www.w3.org/2000/svg" version="1.1">
 <metadata>
  <rdf:RDF xmlns:dc="http://purl.org/dc/elements/1.1/" xmlns:cc="http://creativecommons.org/ns#" xmlns:rdf="http://www.w3.org/1999/02/22-rdf-syntax-ns#">
   <cc:Work>
    <dc:type rdf:resource="http://purl.org/dc/dcmitype/StillImage"/>
    <dc:date>2026-03-13T17:13:01.703743</dc:date>
    <dc:format>image/svg+xml</dc:format>
    <dc:creator>
     <cc:Agent>
      <dc:title>Matplotlib v3.10.0, https://matplotlib.org/</dc:title>
     </cc:Agent>
    </dc:creator>
   </cc:Work>
  </rdf:RDF>
 </metadata>
 <defs>
  <style type="text/css">*{stroke-linejoin: round; stroke-linecap: butt}</style>
 </defs>
 <g id="figure_1">
  <g id="patch_1">
   <path d="M 0 408.849937 
L 411.231125 408.849937 
L 411.231125 0 
L 0 0 
z
" style="fill: #ffffff"/>
  </g>
  <g id="axes_1">
   <g id="patch_2">
    <path d="M 84.103125 353.084 
L 404.031125 353.084 
L 404.031125 7.2 
L 84.103125 7.2 
z
" style="fill: #ffffff"/>
   </g>
   <g id="matplotlib.axis_1">
    <g id="xtick_1">
     <g id="text_1">
      <!-- $\mathregular{ULM}_{\mathregular{L}}$ -->
      <g style="fill: #262626" transform="translate(105.102277 372.604937) scale(0.14 -0.14)">
       <defs>
        <path id="ArialMT-55" d="M 3500 4581 
L 4106 4581 
L 4106 1934 
Q 4106 1244 3950 837 
Q 3794 431 3386 176 
Q 2978 -78 2316 -78 
Q 1672 -78 1262 144 
Q 853 366 678 786 
Q 503 1206 503 1934 
L 503 4581 
L 1109 4581 
L 1109 1938 
Q 1109 1341 1220 1058 
Q 1331 775 1601 622 
Q 1872 469 2263 469 
Q 2931 469 3215 772 
Q 3500 1075 3500 1938 
L 3500 4581 
z
" transform="scale(0.015625)"/>
        <path id="ArialMT-4c" d="M 469 0 
L 469 4581 
L 1075 4581 
L 1075 541 
L 3331 541 
L 3331 0 
L 469 0 
z
" transform="scale(0.015625)"/>
        <path id="ArialMT-4d" d="M 475 0 
L 475 4581 
L 1388 4581 
L 2472 1338 
Q 2622 884 2691 659 
Q 2769 909 2934 1394 
L 4031 4581 
L 4847 4581 
L 4847 0 
L 4263 0 
L 4263 3834 
L 2931 0 
L 2384 0 
L 1059 3900 
L 1059 0 
L 475 0 
z
" transform="scale(0.015625)"/>
       </defs>
       <use xlink:href="#ArialMT-55" transform="translate(0 0.421875)"/>
       <use xlink:href="#ArialMT-4c" transform="translate(72.216797 0.421875)"/>
       <use xlink:href="#ArialMT-4d" transform="translate(127.832031 0.421875)"/>
       <use xlink:href="#ArialMT-4c" transform="translate(212.089844 -15.984375) scale(0.7)"/>
      </g>
     </g>
    </g>
    <g id="xtick_2">
     <g id="text_2">
      <!-- $\mathregular{DLM}_{\mathregular{2}}$ -->
      <g style="fill: #262626" transform="translate(165.694701 372.604937) scale(0.14 -0.14)">
       <defs>
        <path id="ArialMT-44" d="M 494 0 
L 494 4581 
L 2072 4581 
Q 2606 4581 2888 4516 
Q 3281 4425 3559 4188 
Q 3922 3881 4101 3404 
Q 4281 2928 4281 2316 
Q 4281 1794 4159 1391 
Q 4038 988 3847 723 
Q 3656 459 3429 307 
Q 3203 156 2883 78 
Q 2563 0 2147 0 
L 494 0 
z
M 1100 541 
L 2078 541 
Q 2531 541 2789 625 
Q 3047 709 3200 863 
Q 3416 1078 3536 1442 
Q 3656 1806 3656 2325 
Q 3656 3044 3420 3430 
Q 3184 3816 2847 3947 
Q 2603 4041 2063 4041 
L 1100 4041 
L 1100 541 
z
" transform="scale(0.015625)"/>
        <path id="ArialMT-32" d="M 3222 541 
L 3222 0 
L 194 0 
Q 188 203 259 391 
Q 375 700 629 1000 
Q 884 1300 1366 1694 
Q 2113 2306 2375 2664 
Q 2638 3022 2638 3341 
Q 2638 3675 2398 3904 
Q 2159 4134 1775 4134 
Q 1369 4134 1125 3890 
Q 881 3647 878 3216 
L 300 3275 
Q 359 3922 746 4261 
Q 1134 4600 1788 4600 
Q 2447 4600 2831 4234 
Q 3216 3869 3216 3328 
Q 3216 3053 3103 2787 
Q 2991 2522 2730 2228 
Q 2469 1934 1863 1422 
Q 1356 997 1212 845 
Q 1069 694 975 541 
L 3222 541 
z
" transform="scale(0.015625)"/>
       </defs>
       <use xlink:href="#ArialMT-44" transform="translate(0 0.421875)"/>
       <use xlink:href="#ArialMT-4c" transform="translate(72.216797 0.421875)"/>
       <use xlink:href="#ArialMT-4d" transform="translate(127.832031 0.421875)"/>
       <use xlink:href="#ArialMT-32" transform="translate(212.089844 -15.984375) scale(0.7)"/>
      </g>
     </g>
    </g>
    <g id="xtick_3">
     <g id="text_3">
      <!-- $\mathregular{DLM}_{\mathregular{3}}$ -->
      <g style="fill: #262626" transform="translate(226.287125 372.604937) scale(0.14 -0.14)">
       <defs>
        <path id="ArialMT-33" d="M 269 1209 
L 831 1284 
Q 928 806 1161 595 
Q 1394 384 1728 384 
Q 2125 384 2398 659 
Q 2672 934 2672 1341 
Q 2672 1728 2419 1979 
Q 2166 2231 1775 2231 
Q 1616 2231 1378 2169 
L 1441 2663 
Q 1497 2656 1531 2656 
Q 1891 2656 2178 2843 
Q 2466 3031 2466 3422 
Q 2466 3731 2256 3934 
Q 2047 4138 1716 4138 
Q 1388 4138 1169 3931 
Q 950 3725 888 3313 
L 325 3413 
Q 428 3978 793 4289 
Q 1159 4600 1703 4600 
Q 2078 4600 2393 4439 
Q 2709 4278 2876 4000 
Q 3044 3722 3044 3409 
Q 3044 3113 2884 2869 
Q 2725 2625 2413 2481 
Q 2819 2388 3044 2092 
Q 3269 1797 3269 1353 
Q 3269 753 2831 336 
Q 2394 -81 1725 -81 
Q 1122 -81 723 278 
Q 325 638 269 1209 
z
" transform="scale(0.015625)"/>
       </defs>
       <use xlink:href="#ArialMT-44" transform="translate(0 0.421875)"/>
       <use xlink:href="#ArialMT-4c" transform="translate(72.216797 0.421875)"/>
       <use xlink:href="#ArialMT-4d" transform="translate(127.832031 0.421875)"/>
       <use xlink:href="#ArialMT-33" transform="translate(212.089844 -15.984375) scale(0.7)"/>
      </g>
     </g>
    </g>
    <g id="xtick_4">
     <g id="text_4">
      <!-- $\mathregular{LM}_{\mathregular{C}}$ -->
      <g style="fill: #262626" transform="translate(291.079549 372.604937) scale(0.14 -0.14)">
       <defs>
        <path id="ArialMT-43" d="M 3763 1606 
L 4369 1453 
Q 4178 706 3683 314 
Q 3188 -78 2472 -78 
Q 1731 -78 1267 223 
Q 803 525 561 1097 
Q 319 1669 319 2325 
Q 319 3041 592 3573 
Q 866 4106 1370 4382 
Q 1875 4659 2481 4659 
Q 3169 4659 3637 4309 
Q 4106 3959 4291 3325 
L 3694 3184 
Q 3534 3684 3231 3912 
Q 2928 4141 2469 4141 
Q 1941 4141 1586 3887 
Q 1231 3634 1087 3207 
Q 944 2781 944 2328 
Q 944 1744 1114 1308 
Q 1284 872 1643 656 
Q 2003 441 2422 441 
Q 2931 441 3284 734 
Q 3638 1028 3763 1606 
z
" transform="scale(0.015625)"/>
       </defs>
       <use xlink:href="#ArialMT-4c" transform="translate(0 0.421875)"/>
       <use xlink:href="#ArialMT-4d" transform="translate(55.615234 0.421875)"/>
       <use xlink:href="#ArialMT-43" transform="translate(139.873047 -15.984375) scale(0.7)"/>
      </g>
     </g>
    </g>
    <g id="xtick_5">
     <g id="text_5">
      <!-- $\mathregular{LM}_{\mathregular{L}}$ -->
      <g style="fill: #262626" transform="translate(352.511973 372.604937) scale(0.14 -0.14)">
       <use xlink:href="#ArialMT-4c" transform="translate(0 0.421875)"/>
       <use xlink:href="#ArialMT-4d" transform="translate(55.615234 0.421875)"/>
       <use xlink:href="#ArialMT-4c" transform="translate(139.873047 -15.984375) scale(0.7)"/>
      </g>
     </g>
    </g>
    <g id="text_6">
     <!-- Modulation Method -->
     <g style="fill: #262626" transform="translate(152.429625 397.703062) scale(0.2 -0.2)">
      <defs>
       <path id="Arial-BoldMT-4d" d="M 453 0 
L 453 4581 
L 1838 4581 
L 2669 1456 
L 3491 4581 
L 4878 4581 
L 4878 0 
L 4019 0 
L 4019 3606 
L 3109 0 
L 2219 0 
L 1313 3606 
L 1313 0 
L 453 0 
z
" transform="scale(0.015625)"/>
       <path id="Arial-BoldMT-6f" d="M 256 1706 
Q 256 2144 472 2553 
Q 688 2963 1083 3178 
Q 1478 3394 1966 3394 
Q 2719 3394 3200 2905 
Q 3681 2416 3681 1669 
Q 3681 916 3195 420 
Q 2709 -75 1972 -75 
Q 1516 -75 1102 131 
Q 688 338 472 736 
Q 256 1134 256 1706 
z
M 1156 1659 
Q 1156 1166 1390 903 
Q 1625 641 1969 641 
Q 2313 641 2545 903 
Q 2778 1166 2778 1666 
Q 2778 2153 2545 2415 
Q 2313 2678 1969 2678 
Q 1625 2678 1390 2415 
Q 1156 2153 1156 1659 
z
" transform="scale(0.015625)"/>
       <path id="Arial-BoldMT-64" d="M 3503 0 
L 2688 0 
L 2688 488 
Q 2484 203 2207 64 
Q 1931 -75 1650 -75 
Q 1078 -75 670 386 
Q 263 847 263 1672 
Q 263 2516 659 2955 
Q 1056 3394 1663 3394 
Q 2219 3394 2625 2931 
L 2625 4581 
L 3503 4581 
L 3503 0 
z
M 1159 1731 
Q 1159 1200 1306 963 
Q 1519 619 1900 619 
Q 2203 619 2415 876 
Q 2628 1134 2628 1647 
Q 2628 2219 2422 2470 
Q 2216 2722 1894 2722 
Q 1581 2722 1370 2473 
Q 1159 2225 1159 1731 
z
" transform="scale(0.015625)"/>
       <path id="Arial-BoldMT-75" d="M 2644 0 
L 2644 497 
Q 2463 231 2167 78 
Q 1872 -75 1544 -75 
Q 1209 -75 943 72 
Q 678 219 559 484 
Q 441 750 441 1219 
L 441 3319 
L 1319 3319 
L 1319 1794 
Q 1319 1094 1367 936 
Q 1416 778 1544 686 
Q 1672 594 1869 594 
Q 2094 594 2272 717 
Q 2450 841 2515 1023 
Q 2581 1206 2581 1919 
L 2581 3319 
L 3459 3319 
L 3459 0 
L 2644 0 
z
" transform="scale(0.015625)"/>
       <path id="Arial-BoldMT-6c" d="M 459 0 
L 459 4581 
L 1338 4581 
L 1338 0 
L 459 0 
z
" transform="scale(0.015625)"/>
       <path id="Arial-BoldMT-61" d="M 1116 2306 
L 319 2450 
Q 453 2931 781 3162 
Q 1109 3394 1756 3394 
Q 2344 3394 2631 3255 
Q 2919 3116 3036 2902 
Q 3153 2688 3153 2116 
L 3144 1091 
Q 3144 653 3186 445 
Q 3228 238 3344 0 
L 2475 0 
Q 2441 88 2391 259 
Q 2369 338 2359 363 
Q 2134 144 1878 34 
Q 1622 -75 1331 -75 
Q 819 -75 523 203 
Q 228 481 228 906 
Q 228 1188 362 1408 
Q 497 1628 739 1745 
Q 981 1863 1438 1950 
Q 2053 2066 2291 2166 
L 2291 2253 
Q 2291 2506 2166 2614 
Q 2041 2722 1694 2722 
Q 1459 2722 1328 2630 
Q 1197 2538 1116 2306 
z
M 2291 1594 
Q 2122 1538 1756 1459 
Q 1391 1381 1278 1306 
Q 1106 1184 1106 997 
Q 1106 813 1243 678 
Q 1381 544 1594 544 
Q 1831 544 2047 700 
Q 2206 819 2256 991 
Q 2291 1103 2291 1419 
L 2291 1594 
z
" transform="scale(0.015625)"/>
       <path id="Arial-BoldMT-74" d="M 1981 3319 
L 1981 2619 
L 1381 2619 
L 1381 1281 
Q 1381 875 1398 808 
Q 1416 741 1477 697 
Q 1538 653 1625 653 
Q 1747 653 1978 738 
L 2053 56 
Q 1747 -75 1359 -75 
Q 1122 -75 931 4 
Q 741 84 652 211 
Q 563 338 528 553 
Q 500 706 500 1172 
L 500 2619 
L 97 2619 
L 97 3319 
L 500 3319 
L 500 3978 
L 1381 4491 
L 1381 3319 
L 1981 3319 
z
" transform="scale(0.015625)"/>
       <path id="Arial-BoldMT-69" d="M 459 3769 
L 459 4581 
L 1338 4581 
L 1338 3769 
L 459 3769 
z
M 459 0 
L 459 3319 
L 1338 3319 
L 1338 0 
L 459 0 
z
" transform="scale(0.015625)"/>
       <path id="Arial-BoldMT-6e" d="M 3478 0 
L 2600 0 
L 2600 1694 
Q 2600 2231 2544 2389 
Q 2488 2547 2361 2634 
Q 2234 2722 2056 2722 
Q 1828 2722 1647 2597 
Q 1466 2472 1398 2265 
Q 1331 2059 1331 1503 
L 1331 0 
L 453 0 
L 453 3319 
L 1269 3319 
L 1269 2831 
Q 1703 3394 2363 3394 
Q 2653 3394 2893 3289 
Q 3134 3184 3257 3021 
Q 3381 2859 3429 2653 
Q 3478 2447 3478 2063 
L 3478 0 
z
" transform="scale(0.015625)"/>
       <path id="Arial-BoldMT-20" transform="scale(0.015625)"/>
       <path id="Arial-BoldMT-65" d="M 2381 1056 
L 3256 909 
Q 3088 428 2723 176 
Q 2359 -75 1813 -75 
Q 947 -75 531 491 
Q 203 944 203 1634 
Q 203 2459 634 2926 
Q 1066 3394 1725 3394 
Q 2466 3394 2894 2905 
Q 3322 2416 3303 1406 
L 1103 1406 
Q 1113 1016 1316 798 
Q 1519 581 1822 581 
Q 2028 581 2168 693 
Q 2309 806 2381 1056 
z
M 2431 1944 
Q 2422 2325 2234 2523 
Q 2047 2722 1778 2722 
Q 1491 2722 1303 2513 
Q 1116 2303 1119 1944 
L 2431 1944 
z
" transform="scale(0.015625)"/>
       <path id="Arial-BoldMT-68" d="M 1334 4581 
L 1334 2897 
Q 1759 3394 2350 3394 
Q 2653 3394 2897 3281 
Q 3141 3169 3264 2994 
Q 3388 2819 3433 2606 
Q 3478 2394 3478 1947 
L 3478 0 
L 2600 0 
L 2600 1753 
Q 2600 2275 2550 2415 
Q 2500 2556 2373 2639 
Q 2247 2722 2056 2722 
Q 1838 2722 1666 2615 
Q 1494 2509 1414 2295 
Q 1334 2081 1334 1663 
L 1334 0 
L 456 0 
L 456 4581 
L 1334 4581 
z
" transform="scale(0.015625)"/>
      </defs>
      <use xlink:href="#Arial-BoldMT-4d"/>
      <use xlink:href="#Arial-BoldMT-6f" transform="translate(83.300781 0)"/>
      <use xlink:href="#Arial-BoldMT-64" transform="translate(144.384766 0)"/>
      <use xlink:href="#Arial-BoldMT-75" transform="translate(205.46875 0)"/>
      <use xlink:href="#Arial-BoldMT-6c" transform="translate(266.552734 0)"/>
      <use xlink:href="#Arial-BoldMT-61" transform="translate(294.335938 0)"/>
      <use xlink:href="#Arial-BoldMT-74" transform="translate(349.951172 0)"/>
      <use xlink:href="#Arial-BoldMT-69" transform="translate(383.251953 0)"/>
      <use xlink:href="#Arial-BoldMT-6f" transform="translate(411.035156 0)"/>
      <use xlink:href="#Arial-BoldMT-6e" transform="translate(472.119141 0)"/>
      <use xlink:href="#Arial-BoldMT-20" transform="translate(533.203125 0)"/>
      <use xlink:href="#Arial-BoldMT-4d" transform="translate(560.986328 0)"/>
      <use xlink:href="#Arial-BoldMT-65" transform="translate(644.287109 0)"/>
      <use xlink:href="#Arial-BoldMT-74" transform="translate(699.902344 0)"/>
      <use xlink:href="#Arial-BoldMT-68" transform="translate(733.203125 0)"/>
      <use xlink:href="#Arial-BoldMT-6f" transform="translate(794.287109 0)"/>
      <use xlink:href="#Arial-BoldMT-64" transform="translate(855.371094 0)"/>
     </g>
    </g>
   </g>
   <g id="matplotlib.axis_2">
    <g id="ytick_1">
     <g id="line2d_1">
      <path d="M 84.103125 353.084 
L 404.031125 353.084 
" clip-path="url(#pa6bebf7198)" style="fill: none; stroke-dasharray: 3.7,1.6; stroke-dashoffset: 0; stroke: #cccccc; stroke-opacity: 0.7"/>
     </g>
     <g id="text_7">
      <!-- 0.0 -->
      <g style="fill: #262626" transform="translate(55.143125 358.094469) scale(0.14 -0.14)">
       <defs>
        <path id="ArialMT-30" d="M 266 2259 
Q 266 3072 433 3567 
Q 600 4063 929 4331 
Q 1259 4600 1759 4600 
Q 2128 4600 2406 4451 
Q 2684 4303 2865 4023 
Q 3047 3744 3150 3342 
Q 3253 2941 3253 2259 
Q 3253 1453 3087 958 
Q 2922 463 2592 192 
Q 2263 -78 1759 -78 
Q 1097 -78 719 397 
Q 266 969 266 2259 
z
M 844 2259 
Q 844 1131 1108 757 
Q 1372 384 1759 384 
Q 2147 384 2411 759 
Q 2675 1134 2675 2259 
Q 2675 3391 2411 3762 
Q 2147 4134 1753 4134 
Q 1366 4134 1134 3806 
Q 844 3388 844 2259 
z
" transform="scale(0.015625)"/>
        <path id="ArialMT-2e" d="M 581 0 
L 581 641 
L 1222 641 
L 1222 0 
L 581 0 
z
" transform="scale(0.015625)"/>
       </defs>
       <use xlink:href="#ArialMT-30"/>
       <use xlink:href="#ArialMT-2e" transform="translate(55.615234 0)"/>
       <use xlink:href="#ArialMT-30" transform="translate(83.398438 0)"/>
      </g>
     </g>
    </g>
    <g id="ytick_2">
     <g id="line2d_2">
      <path d="M 84.103125 300.842255 
L 404.031125 300.842255 
" clip-path="url(#pa6bebf7198)" style="fill: none; stroke-dasharray: 3.7,1.6; stroke-dashoffset: 0; stroke: #cccccc; stroke-opacity: 0.7"/>
     </g>
     <g id="text_8">
      <!-- 0.2 -->
      <g style="fill: #262626" transform="translate(55.143125 305.852724) scale(0.14 -0.14)">
       <use xlink:href="#ArialMT-30"/>
       <use xlink:href="#ArialMT-2e" transform="translate(55.615234 0)"/>
       <use xlink:href="#ArialMT-32" transform="translate(83.398438 0)"/>
      </g>
     </g>
    </g>
    <g id="ytick_3">
     <g id="line2d_3">
      <path d="M 84.103125 248.600511 
L 404.031125 248.600511 
" clip-path="url(#pa6bebf7198)" style="fill: none; stroke-dasharray: 3.7,1.6; stroke-dashoffset: 0; stroke: #cccccc; stroke-opacity: 0.7"/>
     </g>
     <g id="text_9">
      <!-- 0.4 -->
      <g style="fill: #262626" transform="translate(55.143125 253.610979) scale(0.14 -0.14)">
       <defs>
        <path id="ArialMT-34" d="M 2069 0 
L 2069 1097 
L 81 1097 
L 81 1613 
L 2172 4581 
L 2631 4581 
L 2631 1613 
L 3250 1613 
L 3250 1097 
L 2631 1097 
L 2631 0 
L 2069 0 
z
M 2069 1613 
L 2069 3678 
L 634 1613 
L 2069 1613 
z
" transform="scale(0.015625)"/>
       </defs>
       <use xlink:href="#ArialMT-30"/>
       <use xlink:href="#ArialMT-2e" transform="translate(55.615234 0)"/>
       <use xlink:href="#ArialMT-34" transform="translate(83.398438 0)"/>
      </g>
     </g>
    </g>
    <g id="ytick_4">
     <g id="line2d_4">
      <path d="M 84.103125 196.358766 
L 404.031125 196.358766 
" clip-path="url(#pa6bebf7198)" style="fill: none; stroke-dasharray: 3.7,1.6; stroke-dashoffset: 0; stroke: #cccccc; stroke-opacity: 0.7"/>
     </g>
     <g id="text_10">
      <!-- 0.6 -->
      <g style="fill: #262626" transform="translate(55.143125 201.369235) scale(0.14 -0.14)">
       <defs>
        <path id="ArialMT-36" d="M 3184 3459 
L 2625 3416 
Q 2550 3747 2413 3897 
Q 2184 4138 1850 4138 
Q 1581 4138 1378 3988 
Q 1113 3794 959 3422 
Q 806 3050 800 2363 
Q 1003 2672 1297 2822 
Q 1591 2972 1913 2972 
Q 2475 2972 2870 2558 
Q 3266 2144 3266 1488 
Q 3266 1056 3080 686 
Q 2894 316 2569 119 
Q 2244 -78 1831 -78 
Q 1128 -78 684 439 
Q 241 956 241 2144 
Q 241 3472 731 4075 
Q 1159 4600 1884 4600 
Q 2425 4600 2770 4297 
Q 3116 3994 3184 3459 
z
M 888 1484 
Q 888 1194 1011 928 
Q 1134 663 1356 523 
Q 1578 384 1822 384 
Q 2178 384 2434 671 
Q 2691 959 2691 1453 
Q 2691 1928 2437 2201 
Q 2184 2475 1800 2475 
Q 1419 2475 1153 2201 
Q 888 1928 888 1484 
z
" transform="scale(0.015625)"/>
       </defs>
       <use xlink:href="#ArialMT-30"/>
       <use xlink:href="#ArialMT-2e" transform="translate(55.615234 0)"/>
       <use xlink:href="#ArialMT-36" transform="translate(83.398438 0)"/>
      </g>
     </g>
    </g>
    <g id="ytick_5">
     <g id="line2d_5">
      <path d="M 84.103125 144.117021 
L 404.031125 144.117021 
" clip-path="url(#pa6bebf7198)" style="fill: none; stroke-dasharray: 3.7,1.6; stroke-dashoffset: 0; stroke: #cccccc; stroke-opacity: 0.7"/>
     </g>
     <g id="text_11">
      <!-- 0.8 -->
      <g style="fill: #262626" transform="translate(55.143125 149.12749) scale(0.14 -0.14)">
       <defs>
        <path id="ArialMT-38" d="M 1131 2484 
Q 781 2613 612 2850 
Q 444 3088 444 3419 
Q 444 3919 803 4259 
Q 1163 4600 1759 4600 
Q 2359 4600 2725 4251 
Q 3091 3903 3091 3403 
Q 3091 3084 2923 2848 
Q 2756 2613 2416 2484 
Q 2838 2347 3058 2040 
Q 3278 1734 3278 1309 
Q 3278 722 2862 322 
Q 2447 -78 1769 -78 
Q 1091 -78 675 323 
Q 259 725 259 1325 
Q 259 1772 486 2073 
Q 713 2375 1131 2484 
z
M 1019 3438 
Q 1019 3113 1228 2906 
Q 1438 2700 1772 2700 
Q 2097 2700 2305 2904 
Q 2513 3109 2513 3406 
Q 2513 3716 2298 3927 
Q 2084 4138 1766 4138 
Q 1444 4138 1231 3931 
Q 1019 3725 1019 3438 
z
M 838 1322 
Q 838 1081 952 856 
Q 1066 631 1291 507 
Q 1516 384 1775 384 
Q 2178 384 2440 643 
Q 2703 903 2703 1303 
Q 2703 1709 2433 1975 
Q 2163 2241 1756 2241 
Q 1359 2241 1098 1978 
Q 838 1716 838 1322 
z
" transform="scale(0.015625)"/>
       </defs>
       <use xlink:href="#ArialMT-30"/>
       <use xlink:href="#ArialMT-2e" transform="translate(55.615234 0)"/>
       <use xlink:href="#ArialMT-38" transform="translate(83.398438 0)"/>
      </g>
     </g>
    </g>
    <g id="ytick_6">
     <g id="line2d_6">
      <path d="M 84.103125 91.875277 
L 404.031125 91.875277 
" clip-path="url(#pa6bebf7198)" style="fill: none; stroke-dasharray: 3.7,1.6; stroke-dashoffset: 0; stroke: #cccccc; stroke-opacity: 0.7"/>
     </g>
     <g id="text_12">
      <!-- 1.0 -->
      <g style="fill: #262626" transform="translate(55.143125 96.885746) scale(0.14 -0.14)">
       <defs>
        <path id="ArialMT-31" d="M 2384 0 
L 1822 0 
L 1822 3584 
Q 1619 3391 1289 3197 
Q 959 3003 697 2906 
L 697 3450 
Q 1169 3672 1522 3987 
Q 1875 4303 2022 4600 
L 2384 4600 
L 2384 0 
z
" transform="scale(0.015625)"/>
       </defs>
       <use xlink:href="#ArialMT-31"/>
       <use xlink:href="#ArialMT-2e" transform="translate(55.615234 0)"/>
       <use xlink:href="#ArialMT-30" transform="translate(83.398438 0)"/>
      </g>
     </g>
    </g>
    <g id="ytick_7">
     <g id="line2d_7">
      <path d="M 84.103125 39.633532 
L 404.031125 39.633532 
" clip-path="url(#pa6bebf7198)" style="fill: none; stroke-dasharray: 3.7,1.6; stroke-dashoffset: 0; stroke: #cccccc; stroke-opacity: 0.7"/>
     </g>
     <g id="text_13">
      <!-- 1.2 -->
      <g style="fill: #262626" transform="translate(55.143125 44.644001) scale(0.14 -0.14)">
       <use xlink:href="#ArialMT-31"/>
       <use xlink:href="#ArialMT-2e" transform="translate(55.615234 0)"/>
       <use xlink:href="#ArialMT-32" transform="translate(83.398438 0)"/>
      </g>
     </g>
    </g>
    <g id="text_14">
     <!-- Absolute Detection Threshold -->
     <g style="fill: #262626" transform="translate(21.515625 322.362312) rotate(-90) scale(0.2 -0.2)">
      <defs>
       <path id="Arial-BoldMT-41" d="M 4597 0 
L 3591 0 
L 3191 1041 
L 1359 1041 
L 981 0 
L 0 0 
L 1784 4581 
L 2763 4581 
L 4597 0 
z
M 2894 1813 
L 2263 3513 
L 1644 1813 
L 2894 1813 
z
" transform="scale(0.015625)"/>
       <path id="Arial-BoldMT-62" d="M 422 0 
L 422 4581 
L 1300 4581 
L 1300 2931 
Q 1706 3394 2263 3394 
Q 2869 3394 3266 2955 
Q 3663 2516 3663 1694 
Q 3663 844 3258 384 
Q 2853 -75 2275 -75 
Q 1991 -75 1714 67 
Q 1438 209 1238 488 
L 1238 0 
L 422 0 
z
M 1294 1731 
Q 1294 1216 1456 969 
Q 1684 619 2063 619 
Q 2353 619 2558 867 
Q 2763 1116 2763 1650 
Q 2763 2219 2556 2470 
Q 2350 2722 2028 2722 
Q 1713 2722 1503 2476 
Q 1294 2231 1294 1731 
z
" transform="scale(0.015625)"/>
       <path id="Arial-BoldMT-73" d="M 150 947 
L 1031 1081 
Q 1088 825 1259 692 
Q 1431 559 1741 559 
Q 2081 559 2253 684 
Q 2369 772 2369 919 
Q 2369 1019 2306 1084 
Q 2241 1147 2013 1200 
Q 950 1434 666 1628 
Q 272 1897 272 2375 
Q 272 2806 612 3100 
Q 953 3394 1669 3394 
Q 2350 3394 2681 3172 
Q 3013 2950 3138 2516 
L 2309 2363 
Q 2256 2556 2107 2659 
Q 1959 2763 1684 2763 
Q 1338 2763 1188 2666 
Q 1088 2597 1088 2488 
Q 1088 2394 1175 2328 
Q 1294 2241 1995 2081 
Q 2697 1922 2975 1691 
Q 3250 1456 3250 1038 
Q 3250 581 2869 253 
Q 2488 -75 1741 -75 
Q 1063 -75 667 200 
Q 272 475 150 947 
z
" transform="scale(0.015625)"/>
       <path id="Arial-BoldMT-44" d="M 463 4581 
L 2153 4581 
Q 2725 4581 3025 4494 
Q 3428 4375 3715 4072 
Q 4003 3769 4153 3330 
Q 4303 2891 4303 2247 
Q 4303 1681 4163 1272 
Q 3991 772 3672 463 
Q 3431 228 3022 97 
Q 2716 0 2203 0 
L 463 0 
L 463 4581 
z
M 1388 3806 
L 1388 772 
L 2078 772 
Q 2466 772 2638 816 
Q 2863 872 3011 1006 
Q 3159 1141 3253 1448 
Q 3347 1756 3347 2288 
Q 3347 2819 3253 3103 
Q 3159 3388 2990 3547 
Q 2822 3706 2563 3763 
Q 2369 3806 1803 3806 
L 1388 3806 
z
" transform="scale(0.015625)"/>
       <path id="Arial-BoldMT-63" d="M 3353 2338 
L 2488 2181 
Q 2444 2441 2289 2572 
Q 2134 2703 1888 2703 
Q 1559 2703 1364 2476 
Q 1169 2250 1169 1719 
Q 1169 1128 1367 884 
Q 1566 641 1900 641 
Q 2150 641 2309 783 
Q 2469 925 2534 1272 
L 3397 1125 
Q 3263 531 2881 228 
Q 2500 -75 1859 -75 
Q 1131 -75 698 384 
Q 266 844 266 1656 
Q 266 2478 700 2936 
Q 1134 3394 1875 3394 
Q 2481 3394 2839 3133 
Q 3197 2872 3353 2338 
z
" transform="scale(0.015625)"/>
       <path id="Arial-BoldMT-54" d="M 1497 0 
L 1497 3806 
L 138 3806 
L 138 4581 
L 3778 4581 
L 3778 3806 
L 2422 3806 
L 2422 0 
L 1497 0 
z
" transform="scale(0.015625)"/>
       <path id="Arial-BoldMT-72" d="M 1300 0 
L 422 0 
L 422 3319 
L 1238 3319 
L 1238 2847 
Q 1447 3181 1614 3287 
Q 1781 3394 1994 3394 
Q 2294 3394 2572 3228 
L 2300 2463 
Q 2078 2606 1888 2606 
Q 1703 2606 1575 2504 
Q 1447 2403 1373 2137 
Q 1300 1872 1300 1025 
L 1300 0 
z
" transform="scale(0.015625)"/>
      </defs>
      <use xlink:href="#Arial-BoldMT-41"/>
      <use xlink:href="#Arial-BoldMT-62" transform="translate(72.216797 0)"/>
      <use xlink:href="#Arial-BoldMT-73" transform="translate(133.300781 0)"/>
      <use xlink:href="#Arial-BoldMT-6f" transform="translate(188.916016 0)"/>
      <use xlink:href="#Arial-BoldMT-6c" transform="translate(250 0)"/>
      <use xlink:href="#Arial-BoldMT-75" transform="translate(277.783203 0)"/>
      <use xlink:href="#Arial-BoldMT-74" transform="translate(338.867188 0)"/>
      <use xlink:href="#Arial-BoldMT-65" transform="translate(372.167969 0)"/>
      <use xlink:href="#Arial-BoldMT-20" transform="translate(427.783203 0)"/>
      <use xlink:href="#Arial-BoldMT-44" transform="translate(455.566406 0)"/>
      <use xlink:href="#Arial-BoldMT-65" transform="translate(527.783203 0)"/>
      <use xlink:href="#Arial-BoldMT-74" transform="translate(583.398438 0)"/>
      <use xlink:href="#Arial-BoldMT-65" transform="translate(616.699219 0)"/>
      <use xlink:href="#Arial-BoldMT-63" transform="translate(672.314453 0)"/>
      <use xlink:href="#Arial-BoldMT-74" transform="translate(727.929688 0)"/>
      <use xlink:href="#Arial-BoldMT-69" transform="translate(761.230469 0)"/>
      <use xlink:href="#Arial-BoldMT-6f" transform="translate(789.013672 0)"/>
      <use xlink:href="#Arial-BoldMT-6e" transform="translate(850.097656 0)"/>
      <use xlink:href="#Arial-BoldMT-20" transform="translate(911.181641 0)"/>
      <use xlink:href="#Arial-BoldMT-54" transform="translate(938.964844 0)"/>
      <use xlink:href="#Arial-BoldMT-68" transform="translate(1000.048828 0)"/>
      <use xlink:href="#Arial-BoldMT-72" transform="translate(1061.132812 0)"/>
      <use xlink:href="#Arial-BoldMT-65" transform="translate(1100.048828 0)"/>
      <use xlink:href="#Arial-BoldMT-73" transform="translate(1155.664062 0)"/>
      <use xlink:href="#Arial-BoldMT-68" transform="translate(1211.279297 0)"/>
      <use xlink:href="#Arial-BoldMT-6f" transform="translate(1272.363281 0)"/>
      <use xlink:href="#Arial-BoldMT-6c" transform="translate(1333.447266 0)"/>
      <use xlink:href="#Arial-BoldMT-64" transform="translate(1361.230469 0)"/>
     </g>
     <!-- (Normalized Intensity) -->
     <g style="fill: #262626" transform="translate(42.93375 284.593562) rotate(-90) scale(0.2 -0.2)">
      <defs>
       <path id="Arial-BoldMT-28" d="M 1916 -1347 
L 1313 -1347 
Q 834 -625 584 153 
Q 334 931 334 1659 
Q 334 2563 644 3369 
Q 913 4069 1325 4659 
L 1925 4659 
Q 1497 3713 1336 3048 
Q 1175 2384 1175 1641 
Q 1175 1128 1270 590 
Q 1366 53 1531 -431 
Q 1641 -750 1916 -1347 
z
" transform="scale(0.015625)"/>
       <path id="Arial-BoldMT-4e" d="M 475 0 
L 475 4581 
L 1375 4581 
L 3250 1522 
L 3250 4581 
L 4109 4581 
L 4109 0 
L 3181 0 
L 1334 2988 
L 1334 0 
L 475 0 
z
" transform="scale(0.015625)"/>
       <path id="Arial-BoldMT-6d" d="M 394 3319 
L 1203 3319 
L 1203 2866 
Q 1638 3394 2238 3394 
Q 2556 3394 2790 3262 
Q 3025 3131 3175 2866 
Q 3394 3131 3647 3262 
Q 3900 3394 4188 3394 
Q 4553 3394 4806 3245 
Q 5059 3097 5184 2809 
Q 5275 2597 5275 2122 
L 5275 0 
L 4397 0 
L 4397 1897 
Q 4397 2391 4306 2534 
Q 4184 2722 3931 2722 
Q 3747 2722 3584 2609 
Q 3422 2497 3350 2280 
Q 3278 2063 3278 1594 
L 3278 0 
L 2400 0 
L 2400 1819 
Q 2400 2303 2353 2443 
Q 2306 2584 2207 2653 
Q 2109 2722 1941 2722 
Q 1738 2722 1575 2612 
Q 1413 2503 1342 2297 
Q 1272 2091 1272 1613 
L 1272 0 
L 394 0 
L 394 3319 
z
" transform="scale(0.015625)"/>
       <path id="Arial-BoldMT-7a" d="M 106 0 
L 106 684 
L 1350 2113 
Q 1656 2463 1803 2609 
Q 1650 2600 1400 2597 
L 228 2591 
L 228 3319 
L 2972 3319 
L 2972 2697 
L 1703 1234 
L 1256 750 
Q 1622 772 1709 772 
L 3069 772 
L 3069 0 
L 106 0 
z
" transform="scale(0.015625)"/>
       <path id="Arial-BoldMT-49" d="M 438 0 
L 438 4581 
L 1363 4581 
L 1363 0 
L 438 0 
z
" transform="scale(0.015625)"/>
       <path id="Arial-BoldMT-79" d="M 44 3319 
L 978 3319 
L 1772 963 
L 2547 3319 
L 3456 3319 
L 2284 125 
L 2075 -453 
Q 1959 -744 1854 -897 
Q 1750 -1050 1614 -1145 
Q 1478 -1241 1279 -1294 
Q 1081 -1347 831 -1347 
Q 578 -1347 334 -1294 
L 256 -606 
Q 463 -647 628 -647 
Q 934 -647 1081 -467 
Q 1228 -288 1306 -9 
L 44 3319 
z
" transform="scale(0.015625)"/>
       <path id="Arial-BoldMT-29" d="M 216 -1347 
Q 475 -791 581 -494 
Q 688 -197 778 190 
Q 869 578 912 926 
Q 956 1275 956 1641 
Q 956 2384 797 3048 
Q 638 3713 209 4659 
L 806 4659 
Q 1278 3988 1539 3234 
Q 1800 2481 1800 1706 
Q 1800 1053 1594 306 
Q 1359 -531 822 -1347 
L 216 -1347 
z
" transform="scale(0.015625)"/>
      </defs>
      <use xlink:href="#Arial-BoldMT-28"/>
      <use xlink:href="#Arial-BoldMT-4e" transform="translate(33.300781 0)"/>
      <use xlink:href="#Arial-BoldMT-6f" transform="translate(105.517578 0)"/>
      <use xlink:href="#Arial-BoldMT-72" transform="translate(166.601562 0)"/>
      <use xlink:href="#Arial-BoldMT-6d" transform="translate(205.517578 0)"/>
      <use xlink:href="#Arial-BoldMT-61" transform="translate(294.433594 0)"/>
      <use xlink:href="#Arial-BoldMT-6c" transform="translate(350.048828 0)"/>
      <use xlink:href="#Arial-BoldMT-69" transform="translate(377.832031 0)"/>
      <use xlink:href="#Arial-BoldMT-7a" transform="translate(405.615234 0)"/>
      <use xlink:href="#Arial-BoldMT-65" transform="translate(455.615234 0)"/>
      <use xlink:href="#Arial-BoldMT-64" transform="translate(511.230469 0)"/>
      <use xlink:href="#Arial-BoldMT-20" transform="translate(572.314453 0)"/>
      <use xlink:href="#Arial-BoldMT-49" transform="translate(600.097656 0)"/>
      <use xlink:href="#Arial-BoldMT-6e" transform="translate(627.880859 0)"/>
      <use xlink:href="#Arial-BoldMT-74" transform="translate(688.964844 0)"/>
      <use xlink:href="#Arial-BoldMT-65" transform="translate(722.265625 0)"/>
      <use xlink:href="#Arial-BoldMT-6e" transform="translate(777.880859 0)"/>
      <use xlink:href="#Arial-BoldMT-73" transform="translate(838.964844 0)"/>
      <use xlink:href="#Arial-BoldMT-69" transform="translate(894.580078 0)"/>
      <use xlink:href="#Arial-BoldMT-74" transform="translate(922.363281 0)"/>
      <use xlink:href="#Arial-BoldMT-79" transform="translate(955.664062 0)"/>
      <use xlink:href="#Arial-BoldMT-29" transform="translate(1011.279297 0)"/>
     </g>
    </g>
   </g>
   <g id="patch_3">
    <path d="M 98.645307 353.084 
L 147.119246 353.084 
L 147.119246 279.71378 
L 98.645307 279.71378 
z
" clip-path="url(#pa6bebf7198)" style="fill: #4b427a; opacity: 0.85; stroke: #ffffff; stroke-linejoin: miter"/>
   </g>
   <g id="line2d_8">
    <path d="M 120.45858 297.518847 
L 125.305973 297.518847 
M 122.882277 297.518847 
L 122.882277 259.178814 
M 120.45858 259.178814 
L 125.305973 259.178814 
" clip-path="url(#pa6bebf7198)" style="fill: none; stroke: #424242; stroke-width: 1.4; stroke-linecap: round"/>
   </g>
   <g id="patch_4">
    <path d="M 159.237731 353.084 
L 207.71167 353.084 
L 207.71167 271.25738 
L 159.237731 271.25738 
z
" clip-path="url(#pa6bebf7198)" style="fill: #3d6682; opacity: 0.85; stroke: #ffffff; stroke-linejoin: miter"/>
   </g>
   <g id="line2d_9">
    <path d="M 181.051004 291.393961 
L 185.898398 291.393961 
M 183.474701 291.393961 
L 183.474701 249.945867 
M 181.051004 249.945867 
L 185.898398 249.945867 
" clip-path="url(#pa6bebf7198)" style="fill: none; stroke: #424242; stroke-width: 1.4; stroke-linecap: round"/>
   </g>
   <g id="patch_5">
    <path d="M 219.830155 353.084 
L 268.304095 353.084 
L 268.304095 270.645539 
L 219.830155 270.645539 
z
" clip-path="url(#pa6bebf7198)" style="fill: #2f837f; opacity: 0.85; stroke: #ffffff; stroke-linejoin: miter"/>
   </g>
   <g id="line2d_10">
    <path d="M 241.643428 291.004442 
L 246.490822 291.004442 
M 244.067125 291.004442 
L 244.067125 249.132376 
M 241.643428 249.132376 
L 246.490822 249.132376 
" clip-path="url(#pa6bebf7198)" style="fill: none; stroke: #424242; stroke-width: 1.4; stroke-linecap: round"/>
   </g>
   <g id="patch_6">
    <path d="M 280.42258 353.084 
L 328.896519 353.084 
L 328.896519 262.361013 
L 280.42258 262.361013 
z
" clip-path="url(#pa6bebf7198)" style="fill: #45a778; opacity: 0.85; stroke: #ffffff; stroke-linejoin: miter"/>
   </g>
   <g id="line2d_11">
    <path d="M 302.235852 284.976741 
L 307.083246 284.976741 
M 304.659549 284.976741 
L 304.659549 240.062254 
M 302.235852 240.062254 
L 307.083246 240.062254 
" clip-path="url(#pa6bebf7198)" style="fill: none; stroke: #424242; stroke-width: 1.4; stroke-linecap: round"/>
   </g>
   <g id="patch_7">
    <path d="M 341.015004 353.084 
L 389.488943 353.084 
L 389.488943 256.222533 
L 341.015004 256.222533 
z
" clip-path="url(#pa6bebf7198)" style="fill: #8fc555; opacity: 0.85; stroke: #ffffff; stroke-linejoin: miter"/>
   </g>
   <g id="line2d_12">
    <path d="M 362.828277 275.899212 
L 367.67567 275.899212 
M 365.251973 275.899212 
L 365.251973 235.700814 
M 362.828277 235.700814 
L 367.67567 235.700814 
" clip-path="url(#pa6bebf7198)" style="fill: none; stroke: #424242; stroke-width: 1.4; stroke-linecap: round"/>
   </g>
   <g id="line2d_13">
    <path d="M 183.474701 75.309665 
L 183.474701 70.264504 
L 365.251973 70.264504 
L 365.251973 75.309665 
" clip-path="url(#pa6bebf7198)" style="fill: none; stroke: #000000; stroke-width: 1.4; stroke-linecap: round"/>
   </g>
   <g id="line2d_14">
    <path d="M 122.882277 50.083863 
L 122.882277 45.038703 
L 365.251973 45.038703 
L 365.251973 50.083863 
" clip-path="url(#pa6bebf7198)" style="fill: none; stroke: #000000; stroke-width: 1.4; stroke-linecap: round"/>
   </g>
   <g id="patch_8">
    <path d="M 84.103125 353.084 
L 84.103125 7.2 
" style="fill: none; stroke: #cccccc; stroke-width: 1.25; stroke-linejoin: miter; stroke-linecap: square"/>
   </g>
   <g id="patch_9">
    <path d="M 404.031125 353.084 
L 404.031125 7.2 
" style="fill: none; stroke: #cccccc; stroke-width: 1.25; stroke-linejoin: miter; stroke-linecap: square"/>
   </g>
   <g id="patch_10">
    <path d="M 84.103125 353.084 
L 404.031125 353.084 
" style="fill: none; stroke: #cccccc; stroke-width: 1.25; stroke-linejoin: miter; stroke-linecap: square"/>
   </g>
   <g id="patch_11">
    <path d="M 84.103125 7.2 
L 404.031125 7.2 
" style="fill: none; stroke: #cccccc; stroke-width: 1.25; stroke-linejoin: miter; stroke-linecap: square"/>
   </g>
   <g id="PathCollection_1">
    <defs>
     <path id="m48dc1a9e71" d="M 0 2.25 
C 0.596707 2.25 1.169055 2.012926 1.59099 1.59099 
C 2.012926 1.169055 2.25 0.596707 2.25 0 
C 2.25 -0.596707 2.012926 -1.169055 1.59099 -1.59099 
C 1.169055 -2.012926 0.596707 -2.25 0 -2.25 
C -0.596707 -2.25 -1.169055 -2.012926 -1.59099 -1.59099 
C -2.012926 -1.169055 -2.25 -0.596707 -2.25 0 
C -2.25 0.596707 -2.012926 1.169055 -1.59099 1.59099 
C -1.169055 2.012926 -0.596707 2.25 0 2.25 
z
"/>
    </defs>
    <g clip-path="url(#pa6bebf7198)">
     <use xlink:href="#m48dc1a9e71" x="130.475322" y="306.163914" style="fill-opacity: 0.45"/>
     <use xlink:href="#m48dc1a9e71" x="129.053142" y="337.555851" style="fill-opacity: 0.45"/>
     <use xlink:href="#m48dc1a9e71" x="122.765231" y="108.241716" style="fill-opacity: 0.45"/>
     <use xlink:href="#m48dc1a9e71" x="133.227936" y="286.322551" style="fill-opacity: 0.45"/>
     <use xlink:href="#m48dc1a9e71" x="128.158885" y="232.020996" style="fill-opacity: 0.45"/>
     <use xlink:href="#m48dc1a9e71" x="117.421915" y="209.545472" style="fill-opacity: 0.45"/>
     <use xlink:href="#m48dc1a9e71" x="128.66905" y="347.748323" style="fill-opacity: 0.45"/>
     <use xlink:href="#m48dc1a9e71" x="119.362461" y="322.507868" style="fill-opacity: 0.45"/>
     <use xlink:href="#m48dc1a9e71" x="124.654292" y="318.169227" style="fill-opacity: 0.45"/>
     <use xlink:href="#m48dc1a9e71" x="126.617176" y="333.482934" style="fill-opacity: 0.45"/>
     <use xlink:href="#m48dc1a9e71" x="128.473576" y="291.627535" style="fill-opacity: 0.45"/>
     <use xlink:href="#m48dc1a9e71" x="117.562984" y="265.947323" style="fill-opacity: 0.45"/>
     <use xlink:href="#m48dc1a9e71" x="112.31207" y="264.73614" style="fill-opacity: 0.45"/>
     <use xlink:href="#m48dc1a9e71" x="117.513522" y="347.748323" style="fill-opacity: 0.45"/>
     <use xlink:href="#m48dc1a9e71" x="116.193575" y="296.508294" style="fill-opacity: 0.45"/>
     <use xlink:href="#m48dc1a9e71" x="132.58685" y="309.318216" style="fill-opacity: 0.45"/>
     <use xlink:href="#m48dc1a9e71" x="117.823192" y="275.241763" style="fill-opacity: 0.45"/>
     <use xlink:href="#m48dc1a9e71" x="132.11128" y="322.507868" style="fill-opacity: 0.45"/>
     <use xlink:href="#m48dc1a9e71" x="111.998884" y="233.207291" style="fill-opacity: 0.45"/>
     <use xlink:href="#m48dc1a9e71" x="125.082015" y="318.169227" style="fill-opacity: 0.45"/>
     <use xlink:href="#m48dc1a9e71" x="132.347091" y="301.241232" style="fill-opacity: 0.45"/>
     <use xlink:href="#m48dc1a9e71" x="113.067022" y="307.580846" style="fill-opacity: 0.45"/>
     <use xlink:href="#m48dc1a9e71" x="116.533771" y="254.671412" style="fill-opacity: 0.45"/>
     <use xlink:href="#m48dc1a9e71" x="131.678159" y="340.417091" style="fill-opacity: 0.45"/>
     <use xlink:href="#m48dc1a9e71" x="124.365099" y="111.384559" style="fill-opacity: 0.45"/>
     <use xlink:href="#m48dc1a9e71" x="131.546748" y="245.580756" style="fill-opacity: 0.45"/>
     <use xlink:href="#m48dc1a9e71" x="117.280246" y="233.105058" style="fill-opacity: 0.45"/>
     <use xlink:href="#m48dc1a9e71" x="131.692356" y="275.241763" style="fill-opacity: 0.45"/>
     <use xlink:href="#m48dc1a9e71" x="128.798982" y="270.377048" style="fill-opacity: 0.45"/>
     <use xlink:href="#m48dc1a9e71" x="116.427669" y="285.982222" style="fill-opacity: 0.45"/>
     <use xlink:href="#m48dc1a9e71" x="133.636936" y="318.774354" style="fill-opacity: 0.45"/>
    </g>
   </g>
   <g id="PathCollection_2">
    <g clip-path="url(#pa6bebf7198)">
     <use xlink:href="#m48dc1a9e71" x="184.145391" y="303.069906" style="fill-opacity: 0.45"/>
     <use xlink:href="#m48dc1a9e71" x="192.048456" y="322.507868" style="fill-opacity: 0.45"/>
     <use xlink:href="#m48dc1a9e71" x="185.20098" y="170.563326" style="fill-opacity: 0.45"/>
     <use xlink:href="#m48dc1a9e71" x="188.269123" y="303.069906" style="fill-opacity: 0.45"/>
     <use xlink:href="#m48dc1a9e71" x="173.901373" y="217.167645" style="fill-opacity: 0.45"/>
     <use xlink:href="#m48dc1a9e71" x="175.707568" y="227.668639" style="fill-opacity: 0.45"/>
     <use xlink:href="#m48dc1a9e71" x="186.874269" y="322.507868" style="fill-opacity: 0.45"/>
     <use xlink:href="#m48dc1a9e71" x="186.063618" y="307.580846" style="fill-opacity: 0.45"/>
     <use xlink:href="#m48dc1a9e71" x="193.985984" y="115.249584" style="fill-opacity: 0.45"/>
     <use xlink:href="#m48dc1a9e71" x="180.433951" y="293.90125" style="fill-opacity: 0.45"/>
     <use xlink:href="#m48dc1a9e71" x="180.557458" y="270.882408" style="fill-opacity: 0.45"/>
     <use xlink:href="#m48dc1a9e71" x="181.232905" y="243.589177" style="fill-opacity: 0.45"/>
     <use xlink:href="#m48dc1a9e71" x="178.164102" y="248.773668" style="fill-opacity: 0.45"/>
     <use xlink:href="#m48dc1a9e71" x="191.359608" y="298.714878" style="fill-opacity: 0.45"/>
     <use xlink:href="#m48dc1a9e71" x="180.671214" y="307.580846" style="fill-opacity: 0.45"/>
     <use xlink:href="#m48dc1a9e71" x="185.897361" y="276.253254" style="fill-opacity: 0.45"/>
     <use xlink:href="#m48dc1a9e71" x="190.423411" y="345.202135" style="fill-opacity: 0.45"/>
     <use xlink:href="#m48dc1a9e71" x="192.827728" y="318.169227" style="fill-opacity: 0.45"/>
     <use xlink:href="#m48dc1a9e71" x="181.699511" y="265.269569" style="fill-opacity: 0.45"/>
     <use xlink:href="#m48dc1a9e71" x="191.833873" y="285.982222" style="fill-opacity: 0.45"/>
     <use xlink:href="#m48dc1a9e71" x="189.369282" y="286.322551" style="fill-opacity: 0.45"/>
     <use xlink:href="#m48dc1a9e71" x="187.786294" y="301.241232" style="fill-opacity: 0.45"/>
     <use xlink:href="#m48dc1a9e71" x="176.386901" y="259.714229" style="fill-opacity: 0.45"/>
     <use xlink:href="#m48dc1a9e71" x="193.915437" y="329.890909" style="fill-opacity: 0.45"/>
     <use xlink:href="#m48dc1a9e71" x="193.613153" y="117.766967" style="fill-opacity: 0.45"/>
     <use xlink:href="#m48dc1a9e71" x="184.858847" y="303.069906" style="fill-opacity: 0.45"/>
     <use xlink:href="#m48dc1a9e71" x="188.485706" y="205.469639" style="fill-opacity: 0.45"/>
     <use xlink:href="#m48dc1a9e71" x="174.755634" y="264.73614" style="fill-opacity: 0.45"/>
     <use xlink:href="#m48dc1a9e71" x="186.296199" y="250.619619" style="fill-opacity: 0.45"/>
     <use xlink:href="#m48dc1a9e71" x="174.433396" y="301.241232" style="fill-opacity: 0.45"/>
     <use xlink:href="#m48dc1a9e71" x="181.091578" y="345.202135" style="fill-opacity: 0.45"/>
    </g>
   </g>
   <g id="PathCollection_3">
    <g clip-path="url(#pa6bebf7198)">
     <use xlink:href="#m48dc1a9e71" x="242.132956" y="264.73614" style="fill-opacity: 0.45"/>
     <use xlink:href="#m48dc1a9e71" x="243.268448" y="281.589912" style="fill-opacity: 0.45"/>
     <use xlink:href="#m48dc1a9e71" x="235.344159" y="198.379734" style="fill-opacity: 0.45"/>
     <use xlink:href="#m48dc1a9e71" x="236.381929" y="301.241232" style="fill-opacity: 0.45"/>
     <use xlink:href="#m48dc1a9e71" x="246.991983" y="222.500154" style="fill-opacity: 0.45"/>
     <use xlink:href="#m48dc1a9e71" x="235.763719" y="238.197189" style="fill-opacity: 0.45"/>
     <use xlink:href="#m48dc1a9e71" x="243.038209" y="345.202135" style="fill-opacity: 0.45"/>
     <use xlink:href="#m48dc1a9e71" x="249.229511" y="297.812635" style="fill-opacity: 0.45"/>
     <use xlink:href="#m48dc1a9e71" x="248.823461" y="334.312443" style="fill-opacity: 0.45"/>
     <use xlink:href="#m48dc1a9e71" x="235.667815" y="312.443734" style="fill-opacity: 0.45"/>
     <use xlink:href="#m48dc1a9e71" x="244.026346" y="307.580846" style="fill-opacity: 0.45"/>
     <use xlink:href="#m48dc1a9e71" x="240.518531" y="206.700991" style="fill-opacity: 0.45"/>
     <use xlink:href="#m48dc1a9e71" x="242.859617" y="280.176996" style="fill-opacity: 0.45"/>
     <use xlink:href="#m48dc1a9e71" x="235.169468" y="280.176996" style="fill-opacity: 0.45"/>
     <use xlink:href="#m48dc1a9e71" x="244.032241" y="249.32604" style="fill-opacity: 0.45"/>
     <use xlink:href="#m48dc1a9e71" x="253.311458" y="276.253254" style="fill-opacity: 0.45"/>
     <use xlink:href="#m48dc1a9e71" x="236.725298" y="285.982222" style="fill-opacity: 0.45"/>
     <use xlink:href="#m48dc1a9e71" x="236.817202" y="337.555851" style="fill-opacity: 0.45"/>
     <use xlink:href="#m48dc1a9e71" x="247.611565" y="243.801726" style="fill-opacity: 0.45"/>
     <use xlink:href="#m48dc1a9e71" x="235.248644" y="259.173127" style="fill-opacity: 0.45"/>
     <use xlink:href="#m48dc1a9e71" x="246.087928" y="337.555851" style="fill-opacity: 0.45"/>
     <use xlink:href="#m48dc1a9e71" x="244.35365" y="308.795979" style="fill-opacity: 0.45"/>
     <use xlink:href="#m48dc1a9e71" x="235.304865" y="250.829932" style="fill-opacity: 0.45"/>
     <use xlink:href="#m48dc1a9e71" x="240.898321" y="337.555851" style="fill-opacity: 0.45"/>
     <use xlink:href="#m48dc1a9e71" x="235.529353" y="121.443058" style="fill-opacity: 0.45"/>
     <use xlink:href="#m48dc1a9e71" x="243.744529" y="307.580846" style="fill-opacity: 0.45"/>
     <use xlink:href="#m48dc1a9e71" x="253.052801" y="124.720263" style="fill-opacity: 0.45"/>
     <use xlink:href="#m48dc1a9e71" x="240.879085" y="238.197189" style="fill-opacity: 0.45"/>
     <use xlink:href="#m48dc1a9e71" x="240.625155" y="237.504518" style="fill-opacity: 0.45"/>
     <use xlink:href="#m48dc1a9e71" x="244.53598" y="280.176996" style="fill-opacity: 0.45"/>
     <use xlink:href="#m48dc1a9e71" x="241.36598" y="322.507868" style="fill-opacity: 0.45"/>
    </g>
   </g>
   <g id="PathCollection_4">
    <g clip-path="url(#pa6bebf7198)">
     <use xlink:href="#m48dc1a9e71" x="313.633044" y="318.169227" style="fill-opacity: 0.45"/>
     <use xlink:href="#m48dc1a9e71" x="302.910967" y="318.169227" style="fill-opacity: 0.45"/>
     <use xlink:href="#m48dc1a9e71" x="310.899018" y="248.773668" style="fill-opacity: 0.45"/>
     <use xlink:href="#m48dc1a9e71" x="302.995382" y="281.168769" style="fill-opacity: 0.45"/>
     <use xlink:href="#m48dc1a9e71" x="308.794662" y="211.567983" style="fill-opacity: 0.45"/>
     <use xlink:href="#m48dc1a9e71" x="302.409221" y="248.773668" style="fill-opacity: 0.45"/>
     <use xlink:href="#m48dc1a9e71" x="314.266434" y="322.507868" style="fill-opacity: 0.45"/>
     <use xlink:href="#m48dc1a9e71" x="302.555654" y="325.051805" style="fill-opacity: 0.45"/>
     <use xlink:href="#m48dc1a9e71" x="312.772188" y="95.490306" style="fill-opacity: 0.45"/>
     <use xlink:href="#m48dc1a9e71" x="308.731921" y="307.580846" style="fill-opacity: 0.45"/>
     <use xlink:href="#m48dc1a9e71" x="294.456165" y="291.957903" style="fill-opacity: 0.45"/>
     <use xlink:href="#m48dc1a9e71" x="304.919947" y="132.560169" style="fill-opacity: 0.45"/>
     <use xlink:href="#m48dc1a9e71" x="312.125817" y="270.214776" style="fill-opacity: 0.45"/>
     <use xlink:href="#m48dc1a9e71" x="312.272453" y="323.079328" style="fill-opacity: 0.45"/>
     <use xlink:href="#m48dc1a9e71" x="312.870025" y="318.169227" style="fill-opacity: 0.45"/>
     <use xlink:href="#m48dc1a9e71" x="303.923698" y="249.32604" style="fill-opacity: 0.45"/>
     <use xlink:href="#m48dc1a9e71" x="294.048933" y="285.982222" style="fill-opacity: 0.45"/>
     <use xlink:href="#m48dc1a9e71" x="301.746855" y="318.169227" style="fill-opacity: 0.45"/>
     <use xlink:href="#m48dc1a9e71" x="301.695636" y="275.241763" style="fill-opacity: 0.45"/>
     <use xlink:href="#m48dc1a9e71" x="313.955273" y="280.176996" style="fill-opacity: 0.45"/>
     <use xlink:href="#m48dc1a9e71" x="294.8094" y="95.490306" style="fill-opacity: 0.45"/>
     <use xlink:href="#m48dc1a9e71" x="308.923031" y="347.748323" style="fill-opacity: 0.45"/>
     <use xlink:href="#m48dc1a9e71" x="295.741338" y="289.280252" style="fill-opacity: 0.45"/>
     <use xlink:href="#m48dc1a9e71" x="312.769576" y="180.407596" style="fill-opacity: 0.45"/>
     <use xlink:href="#m48dc1a9e71" x="312.88634" y="174.553601" style="fill-opacity: 0.45"/>
     <use xlink:href="#m48dc1a9e71" x="309.866575" y="312.443734" style="fill-opacity: 0.45"/>
     <use xlink:href="#m48dc1a9e71" x="313.669429" y="217.587887" style="fill-opacity: 0.45"/>
     <use xlink:href="#m48dc1a9e71" x="312.956828" y="217.167645" style="fill-opacity: 0.45"/>
     <use xlink:href="#m48dc1a9e71" x="307.632084" y="255.15829" style="fill-opacity: 0.45"/>
     <use xlink:href="#m48dc1a9e71" x="309.117421" y="298.714878" style="fill-opacity: 0.45"/>
     <use xlink:href="#m48dc1a9e71" x="311.078886" y="322.507868" style="fill-opacity: 0.45"/>
    </g>
   </g>
   <g id="PathCollection_5">
    <g clip-path="url(#pa6bebf7198)">
     <use xlink:href="#m48dc1a9e71" x="368.099169" y="249.32604" style="fill-opacity: 0.45"/>
     <use xlink:href="#m48dc1a9e71" x="367.183785" y="318.169227" style="fill-opacity: 0.45"/>
     <use xlink:href="#m48dc1a9e71" x="359.228437" y="205.245918" style="fill-opacity: 0.45"/>
     <use xlink:href="#m48dc1a9e71" x="365.877489" y="280.176996" style="fill-opacity: 0.45"/>
     <use xlink:href="#m48dc1a9e71" x="358.270424" y="152.940584" style="fill-opacity: 0.45"/>
     <use xlink:href="#m48dc1a9e71" x="366.265267" y="184.527932" style="fill-opacity: 0.45"/>
     <use xlink:href="#m48dc1a9e71" x="361.255498" y="342.178852" style="fill-opacity: 0.45"/>
     <use xlink:href="#m48dc1a9e71" x="360.482545" y="280.176996" style="fill-opacity: 0.45"/>
     <use xlink:href="#m48dc1a9e71" x="361.574522" y="322.507868" style="fill-opacity: 0.45"/>
     <use xlink:href="#m48dc1a9e71" x="368.760546" y="254.671412" style="fill-opacity: 0.45"/>
     <use xlink:href="#m48dc1a9e71" x="362.38553" y="285.982222" style="fill-opacity: 0.45"/>
     <use xlink:href="#m48dc1a9e71" x="365.465409" y="211.905338" style="fill-opacity: 0.45"/>
     <use xlink:href="#m48dc1a9e71" x="362.738078" y="211.905338" style="fill-opacity: 0.45"/>
     <use xlink:href="#m48dc1a9e71" x="357.283548" y="318.169227" style="fill-opacity: 0.45"/>
     <use xlink:href="#m48dc1a9e71" x="370.699163" y="243.589177" style="fill-opacity: 0.45"/>
     <use xlink:href="#m48dc1a9e71" x="375.442587" y="254.671412" style="fill-opacity: 0.45"/>
     <use xlink:href="#m48dc1a9e71" x="365.66352" y="275.241763" style="fill-opacity: 0.45"/>
     <use xlink:href="#m48dc1a9e71" x="367.947383" y="307.580846" style="fill-opacity: 0.45"/>
     <use xlink:href="#m48dc1a9e71" x="375.377547" y="228.447508" style="fill-opacity: 0.45"/>
     <use xlink:href="#m48dc1a9e71" x="359.963476" y="288.325907" style="fill-opacity: 0.45"/>
     <use xlink:href="#m48dc1a9e71" x="355.253157" y="291.017353" style="fill-opacity: 0.45"/>
     <use xlink:href="#m48dc1a9e71" x="370.184061" y="313.088562" style="fill-opacity: 0.45"/>
     <use xlink:href="#m48dc1a9e71" x="364.007698" y="254.671412" style="fill-opacity: 0.45"/>
     <use xlink:href="#m48dc1a9e71" x="354.509429" y="333.482934" style="fill-opacity: 0.45"/>
     <use xlink:href="#m48dc1a9e71" x="366.433394" y="148.256738" style="fill-opacity: 0.45"/>
     <use xlink:href="#m48dc1a9e71" x="365.034499" y="171.072061" style="fill-opacity: 0.45"/>
     <use xlink:href="#m48dc1a9e71" x="369.338161" y="248.984632" style="fill-opacity: 0.45"/>
     <use xlink:href="#m48dc1a9e71" x="365.397885" y="139.879106" style="fill-opacity: 0.45"/>
     <use xlink:href="#m48dc1a9e71" x="373.86583" y="195.573008" style="fill-opacity: 0.45"/>
     <use xlink:href="#m48dc1a9e71" x="358.862707" y="301.241232" style="fill-opacity: 0.45"/>
     <use xlink:href="#m48dc1a9e71" x="365.937265" y="329.890909" style="fill-opacity: 0.45"/>
    </g>
   </g>
   <g id="text_15">
    <!-- * -->
    <g transform="translate(271.833415 67.176238) scale(0.13 -0.13)">
     <defs>
      <path id="ArialMT-2a" d="M 200 3741 
L 344 4184 
Q 841 4009 1066 3881 
Q 1006 4447 1003 4659 
L 1456 4659 
Q 1447 4350 1384 3884 
Q 1706 4047 2122 4184 
L 2266 3741 
Q 1869 3609 1488 3566 
Q 1678 3400 2025 2975 
L 1650 2709 
Q 1469 2956 1222 3381 
Q 991 2941 816 2709 
L 447 2975 
Q 809 3422 966 3566 
Q 563 3644 200 3741 
z
" transform="scale(0.015625)"/>
     </defs>
     <use xlink:href="#ArialMT-2a"/>
    </g>
   </g>
   <g id="text_16">
    <!-- ** -->
    <g transform="translate(239.007281 41.950437) scale(0.13 -0.13)">
     <use xlink:href="#ArialMT-2a"/>
     <use xlink:href="#ArialMT-2a" transform="translate(38.916016 0)"/>
    </g>
   </g>
  </g>
 </g>
 <defs>
  <clipPath id="pa6bebf7198">
   <rect x="84.103125" y="7.2" width="319.928" height="345.884"/>
  </clipPath>
 </defs>
</svg>
