<?xml version="1.0" encoding="utf-8" standalone="no"?>
<!DOCTYPE svg PUBLIC "-//W3C//DTD SVG 1.1//EN"
  "http://www.w3.org/Graphics/SVG/1.1/DTD/svg11.dtd">
<svg xmlns:xlink="http://www.w3.org/1999/xlink" width="440.399517pt" height="435.846191pt" viewBox="0 0 440.399517 435.846191" xmlns="http://www.w3.org/2000/svg" version="1.1">
 <metadata>
  <rdf:RDF xmlns:dc="http://purl.org/dc/elements/1.1/" xmlns:cc="http://creativecommons.org/ns#" xmlns:rdf="http://www.w3.org/1999/02/22-rdf-syntax-ns#">
   <cc:Work>
    <dc:type rdf:resource="http://purl.org/dc/dcmitype/StillImage"/>
    <dc:date>2026-03-11T16:46:08.187139</dc:date>
    <dc:format>image/svg+xml</dc:format>
    <dc:creator>
     <cc:Agent>
      <dc:title>Matplotlib v3.10.0, https://matplotlib.org/</dc:title>
     </cc:Agent>
    </dc:creator>
   </cc:Work>
  </rdf:RDF>
 </metadata>
 <defs>
  <style type="text/css">*{stroke-linejoin: round; stroke-linecap: butt}</style>
 </defs>
 <g id="figure_1">
  <g id="patch_1">
   <path d="M 0 435.846191 
L 440.399517 435.846191 
L 440.399517 0 
L 0 0 
z
" style="fill: #ffffff"/>
  </g>
  <g id="axes_1">
   <g id="patch_2">
    <path d="M 58.228125 376.915879 
L 427.944004 376.915879 
L 427.944004 7.2 
L 58.228125 7.2 
z
" style="fill: #ffffff"/>
   </g>
   <g id="matplotlib.axis_1">
    <g id="xtick_1">
     <g id="line2d_1">
      <path d="M 85.355094 376.915879 
L 85.355094 7.2 
" clip-path="url(#p43cd4dbe0d)" style="fill: none; stroke-dasharray: 5.55,2.4; stroke-dashoffset: 0; stroke: #cccccc; stroke-opacity: 0.35; stroke-width: 1.5"/>
     </g>
     <g id="text_1">
      <!-- -1.0 -->
      <g style="fill: #262626" transform="translate(69.848376 402.299941) scale(0.18 -0.18)">
       <defs>
        <path id="ArialMT-2d" d="M 203 1375 
L 203 1941 
L 1931 1941 
L 1931 1375 
L 203 1375 
z
" transform="scale(0.015625)"/>
        <path id="ArialMT-31" d="M 2384 0 
L 1822 0 
L 1822 3584 
Q 1619 3391 1289 3197 
Q 959 3003 697 2906 
L 697 3450 
Q 1169 3672 1522 3987 
Q 1875 4303 2022 4600 
L 2384 4600 
L 2384 0 
z
" transform="scale(0.015625)"/>
        <path id="ArialMT-2e" d="M 581 0 
L 581 641 
L 1222 641 
L 1222 0 
L 581 0 
z
" transform="scale(0.015625)"/>
        <path id="ArialMT-30" d="M 266 2259 
Q 266 3072 433 3567 
Q 600 4063 929 4331 
Q 1259 4600 1759 4600 
Q 2128 4600 2406 4451 
Q 2684 4303 2865 4023 
Q 3047 3744 3150 3342 
Q 3253 2941 3253 2259 
Q 3253 1453 3087 958 
Q 2922 463 2592 192 
Q 2263 -78 1759 -78 
Q 1097 -78 719 397 
Q 266 969 266 2259 
z
M 844 2259 
Q 844 1131 1108 757 
Q 1372 384 1759 384 
Q 2147 384 2411 759 
Q 2675 1134 2675 2259 
Q 2675 3391 2411 3762 
Q 2147 4134 1753 4134 
Q 1366 4134 1134 3806 
Q 844 3388 844 2259 
z
" transform="scale(0.015625)"/>
       </defs>
       <use xlink:href="#ArialMT-2d"/>
       <use xlink:href="#ArialMT-31" transform="translate(33.300781 0)"/>
       <use xlink:href="#ArialMT-2e" transform="translate(88.916016 0)"/>
       <use xlink:href="#ArialMT-30" transform="translate(116.699219 0)"/>
      </g>
     </g>
    </g>
    <g id="xtick_2">
     <g id="line2d_2">
      <path d="M 169.1887 376.915879 
L 169.1887 7.2 
" clip-path="url(#p43cd4dbe0d)" style="fill: none; stroke-dasharray: 5.55,2.4; stroke-dashoffset: 0; stroke: #cccccc; stroke-opacity: 0.35; stroke-width: 1.5"/>
     </g>
     <g id="text_2">
      <!-- -0.5 -->
      <g style="fill: #262626" transform="translate(153.681981 402.299941) scale(0.18 -0.18)">
       <defs>
        <path id="ArialMT-35" d="M 266 1200 
L 856 1250 
Q 922 819 1161 601 
Q 1400 384 1738 384 
Q 2144 384 2425 690 
Q 2706 997 2706 1503 
Q 2706 1984 2436 2262 
Q 2166 2541 1728 2541 
Q 1456 2541 1237 2417 
Q 1019 2294 894 2097 
L 366 2166 
L 809 4519 
L 3088 4519 
L 3088 3981 
L 1259 3981 
L 1013 2750 
Q 1425 3038 1878 3038 
Q 2478 3038 2890 2622 
Q 3303 2206 3303 1553 
Q 3303 931 2941 478 
Q 2500 -78 1738 -78 
Q 1113 -78 717 272 
Q 322 622 266 1200 
z
" transform="scale(0.015625)"/>
       </defs>
       <use xlink:href="#ArialMT-2d"/>
       <use xlink:href="#ArialMT-30" transform="translate(33.300781 0)"/>
       <use xlink:href="#ArialMT-2e" transform="translate(88.916016 0)"/>
       <use xlink:href="#ArialMT-35" transform="translate(116.699219 0)"/>
      </g>
     </g>
    </g>
    <g id="xtick_3">
     <g id="line2d_3">
      <path d="M 253.022306 376.915879 
L 253.022306 7.2 
" clip-path="url(#p43cd4dbe0d)" style="fill: none; stroke-dasharray: 5.55,2.4; stroke-dashoffset: 0; stroke: #cccccc; stroke-opacity: 0.35; stroke-width: 1.5"/>
     </g>
     <g id="text_3">
      <!-- 0.0 -->
      <g style="fill: #262626" transform="translate(240.512306 402.299941) scale(0.18 -0.18)">
       <use xlink:href="#ArialMT-30"/>
       <use xlink:href="#ArialMT-2e" transform="translate(55.615234 0)"/>
       <use xlink:href="#ArialMT-30" transform="translate(83.398438 0)"/>
      </g>
     </g>
    </g>
    <g id="xtick_4">
     <g id="line2d_4">
      <path d="M 336.855911 376.915879 
L 336.855911 7.2 
" clip-path="url(#p43cd4dbe0d)" style="fill: none; stroke-dasharray: 5.55,2.4; stroke-dashoffset: 0; stroke: #cccccc; stroke-opacity: 0.35; stroke-width: 1.5"/>
     </g>
     <g id="text_4">
      <!-- 0.5 -->
      <g style="fill: #262626" transform="translate(324.345911 402.299941) scale(0.18 -0.18)">
       <use xlink:href="#ArialMT-30"/>
       <use xlink:href="#ArialMT-2e" transform="translate(55.615234 0)"/>
       <use xlink:href="#ArialMT-35" transform="translate(83.398438 0)"/>
      </g>
     </g>
    </g>
    <g id="xtick_5">
     <g id="line2d_5">
      <path d="M 420.689517 376.915879 
L 420.689517 7.2 
" clip-path="url(#p43cd4dbe0d)" style="fill: none; stroke-dasharray: 5.55,2.4; stroke-dashoffset: 0; stroke: #cccccc; stroke-opacity: 0.35; stroke-width: 1.5"/>
     </g>
     <g id="text_5">
      <!-- 1.0 -->
      <g style="fill: #262626" transform="translate(408.179517 402.299941) scale(0.18 -0.18)">
       <use xlink:href="#ArialMT-31"/>
       <use xlink:href="#ArialMT-2e" transform="translate(55.615234 0)"/>
       <use xlink:href="#ArialMT-30" transform="translate(83.398438 0)"/>
      </g>
     </g>
    </g>
    <g id="text_6">
     <!-- Subjective BT score (log-odds ± SE) -->
     <g style="fill: #262626" transform="translate(71.470439 424.436816) scale(0.2 -0.2)">
      <defs>
       <path id="Arial-BoldMT-53" d="M 231 1491 
L 1131 1578 
Q 1213 1125 1461 912 
Q 1709 700 2131 700 
Q 2578 700 2804 889 
Q 3031 1078 3031 1331 
Q 3031 1494 2936 1608 
Q 2841 1722 2603 1806 
Q 2441 1863 1863 2006 
Q 1119 2191 819 2459 
Q 397 2838 397 3381 
Q 397 3731 595 4036 
Q 794 4341 1167 4500 
Q 1541 4659 2069 4659 
Q 2931 4659 3367 4281 
Q 3803 3903 3825 3272 
L 2900 3231 
Q 2841 3584 2645 3739 
Q 2450 3894 2059 3894 
Q 1656 3894 1428 3728 
Q 1281 3622 1281 3444 
Q 1281 3281 1419 3166 
Q 1594 3019 2269 2859 
Q 2944 2700 3267 2529 
Q 3591 2359 3773 2064 
Q 3956 1769 3956 1334 
Q 3956 941 3737 597 
Q 3519 253 3119 86 
Q 2719 -81 2122 -81 
Q 1253 -81 787 320 
Q 322 722 231 1491 
z
" transform="scale(0.015625)"/>
       <path id="Arial-BoldMT-75" d="M 2644 0 
L 2644 497 
Q 2463 231 2167 78 
Q 1872 -75 1544 -75 
Q 1209 -75 943 72 
Q 678 219 559 484 
Q 441 750 441 1219 
L 441 3319 
L 1319 3319 
L 1319 1794 
Q 1319 1094 1367 936 
Q 1416 778 1544 686 
Q 1672 594 1869 594 
Q 2094 594 2272 717 
Q 2450 841 2515 1023 
Q 2581 1206 2581 1919 
L 2581 3319 
L 3459 3319 
L 3459 0 
L 2644 0 
z
" transform="scale(0.015625)"/>
       <path id="Arial-BoldMT-62" d="M 422 0 
L 422 4581 
L 1300 4581 
L 1300 2931 
Q 1706 3394 2263 3394 
Q 2869 3394 3266 2955 
Q 3663 2516 3663 1694 
Q 3663 844 3258 384 
Q 2853 -75 2275 -75 
Q 1991 -75 1714 67 
Q 1438 209 1238 488 
L 1238 0 
L 422 0 
z
M 1294 1731 
Q 1294 1216 1456 969 
Q 1684 619 2063 619 
Q 2353 619 2558 867 
Q 2763 1116 2763 1650 
Q 2763 2219 2556 2470 
Q 2350 2722 2028 2722 
Q 1713 2722 1503 2476 
Q 1294 2231 1294 1731 
z
" transform="scale(0.015625)"/>
       <path id="Arial-BoldMT-6a" d="M 441 3769 
L 441 4581 
L 1319 4581 
L 1319 3769 
L 441 3769 
z
M 1319 3319 
L 1319 103 
Q 1319 -531 1236 -792 
Q 1153 -1053 917 -1200 
Q 681 -1347 316 -1347 
Q 184 -1347 32 -1323 
Q -119 -1300 -294 -1253 
L -141 -503 
Q -78 -516 -23 -523 
Q 31 -531 78 -531 
Q 213 -531 298 -473 
Q 384 -416 412 -334 
Q 441 -253 441 153 
L 441 3319 
L 1319 3319 
z
" transform="scale(0.015625)"/>
       <path id="Arial-BoldMT-65" d="M 2381 1056 
L 3256 909 
Q 3088 428 2723 176 
Q 2359 -75 1813 -75 
Q 947 -75 531 491 
Q 203 944 203 1634 
Q 203 2459 634 2926 
Q 1066 3394 1725 3394 
Q 2466 3394 2894 2905 
Q 3322 2416 3303 1406 
L 1103 1406 
Q 1113 1016 1316 798 
Q 1519 581 1822 581 
Q 2028 581 2168 693 
Q 2309 806 2381 1056 
z
M 2431 1944 
Q 2422 2325 2234 2523 
Q 2047 2722 1778 2722 
Q 1491 2722 1303 2513 
Q 1116 2303 1119 1944 
L 2431 1944 
z
" transform="scale(0.015625)"/>
       <path id="Arial-BoldMT-63" d="M 3353 2338 
L 2488 2181 
Q 2444 2441 2289 2572 
Q 2134 2703 1888 2703 
Q 1559 2703 1364 2476 
Q 1169 2250 1169 1719 
Q 1169 1128 1367 884 
Q 1566 641 1900 641 
Q 2150 641 2309 783 
Q 2469 925 2534 1272 
L 3397 1125 
Q 3263 531 2881 228 
Q 2500 -75 1859 -75 
Q 1131 -75 698 384 
Q 266 844 266 1656 
Q 266 2478 700 2936 
Q 1134 3394 1875 3394 
Q 2481 3394 2839 3133 
Q 3197 2872 3353 2338 
z
" transform="scale(0.015625)"/>
       <path id="Arial-BoldMT-74" d="M 1981 3319 
L 1981 2619 
L 1381 2619 
L 1381 1281 
Q 1381 875 1398 808 
Q 1416 741 1477 697 
Q 1538 653 1625 653 
Q 1747 653 1978 738 
L 2053 56 
Q 1747 -75 1359 -75 
Q 1122 -75 931 4 
Q 741 84 652 211 
Q 563 338 528 553 
Q 500 706 500 1172 
L 500 2619 
L 97 2619 
L 97 3319 
L 500 3319 
L 500 3978 
L 1381 4491 
L 1381 3319 
L 1981 3319 
z
" transform="scale(0.015625)"/>
       <path id="Arial-BoldMT-69" d="M 459 3769 
L 459 4581 
L 1338 4581 
L 1338 3769 
L 459 3769 
z
M 459 0 
L 459 3319 
L 1338 3319 
L 1338 0 
L 459 0 
z
" transform="scale(0.015625)"/>
       <path id="Arial-BoldMT-76" d="M 1372 0 
L 34 3319 
L 956 3319 
L 1581 1625 
L 1763 1059 
Q 1834 1275 1853 1344 
Q 1897 1484 1947 1625 
L 2578 3319 
L 3481 3319 
L 2163 0 
L 1372 0 
z
" transform="scale(0.015625)"/>
       <path id="Arial-BoldMT-20" transform="scale(0.015625)"/>
       <path id="Arial-BoldMT-42" d="M 469 4581 
L 2300 4581 
Q 2844 4581 3111 4536 
Q 3378 4491 3589 4347 
Q 3800 4203 3940 3964 
Q 4081 3725 4081 3428 
Q 4081 3106 3907 2837 
Q 3734 2569 3438 2434 
Q 3856 2313 4081 2019 
Q 4306 1725 4306 1328 
Q 4306 1016 4161 720 
Q 4016 425 3764 248 
Q 3513 72 3144 31 
Q 2913 6 2028 0 
L 469 0 
L 469 4581 
z
M 1394 3819 
L 1394 2759 
L 2000 2759 
Q 2541 2759 2672 2775 
Q 2909 2803 3045 2939 
Q 3181 3075 3181 3297 
Q 3181 3509 3064 3642 
Q 2947 3775 2716 3803 
Q 2578 3819 1925 3819 
L 1394 3819 
z
M 1394 1997 
L 1394 772 
L 2250 772 
Q 2750 772 2884 800 
Q 3091 838 3220 983 
Q 3350 1128 3350 1372 
Q 3350 1578 3250 1722 
Q 3150 1866 2961 1931 
Q 2772 1997 2141 1997 
L 1394 1997 
z
" transform="scale(0.015625)"/>
       <path id="Arial-BoldMT-54" d="M 1497 0 
L 1497 3806 
L 138 3806 
L 138 4581 
L 3778 4581 
L 3778 3806 
L 2422 3806 
L 2422 0 
L 1497 0 
z
" transform="scale(0.015625)"/>
       <path id="Arial-BoldMT-73" d="M 150 947 
L 1031 1081 
Q 1088 825 1259 692 
Q 1431 559 1741 559 
Q 2081 559 2253 684 
Q 2369 772 2369 919 
Q 2369 1019 2306 1084 
Q 2241 1147 2013 1200 
Q 950 1434 666 1628 
Q 272 1897 272 2375 
Q 272 2806 612 3100 
Q 953 3394 1669 3394 
Q 2350 3394 2681 3172 
Q 3013 2950 3138 2516 
L 2309 2363 
Q 2256 2556 2107 2659 
Q 1959 2763 1684 2763 
Q 1338 2763 1188 2666 
Q 1088 2597 1088 2488 
Q 1088 2394 1175 2328 
Q 1294 2241 1995 2081 
Q 2697 1922 2975 1691 
Q 3250 1456 3250 1038 
Q 3250 581 2869 253 
Q 2488 -75 1741 -75 
Q 1063 -75 667 200 
Q 272 475 150 947 
z
" transform="scale(0.015625)"/>
       <path id="Arial-BoldMT-6f" d="M 256 1706 
Q 256 2144 472 2553 
Q 688 2963 1083 3178 
Q 1478 3394 1966 3394 
Q 2719 3394 3200 2905 
Q 3681 2416 3681 1669 
Q 3681 916 3195 420 
Q 2709 -75 1972 -75 
Q 1516 -75 1102 131 
Q 688 338 472 736 
Q 256 1134 256 1706 
z
M 1156 1659 
Q 1156 1166 1390 903 
Q 1625 641 1969 641 
Q 2313 641 2545 903 
Q 2778 1166 2778 1666 
Q 2778 2153 2545 2415 
Q 2313 2678 1969 2678 
Q 1625 2678 1390 2415 
Q 1156 2153 1156 1659 
z
" transform="scale(0.015625)"/>
       <path id="Arial-BoldMT-72" d="M 1300 0 
L 422 0 
L 422 3319 
L 1238 3319 
L 1238 2847 
Q 1447 3181 1614 3287 
Q 1781 3394 1994 3394 
Q 2294 3394 2572 3228 
L 2300 2463 
Q 2078 2606 1888 2606 
Q 1703 2606 1575 2504 
Q 1447 2403 1373 2137 
Q 1300 1872 1300 1025 
L 1300 0 
z
" transform="scale(0.015625)"/>
       <path id="Arial-BoldMT-28" d="M 1916 -1347 
L 1313 -1347 
Q 834 -625 584 153 
Q 334 931 334 1659 
Q 334 2563 644 3369 
Q 913 4069 1325 4659 
L 1925 4659 
Q 1497 3713 1336 3048 
Q 1175 2384 1175 1641 
Q 1175 1128 1270 590 
Q 1366 53 1531 -431 
Q 1641 -750 1916 -1347 
z
" transform="scale(0.015625)"/>
       <path id="Arial-BoldMT-6c" d="M 459 0 
L 459 4581 
L 1338 4581 
L 1338 0 
L 459 0 
z
" transform="scale(0.015625)"/>
       <path id="Arial-BoldMT-67" d="M 378 -219 
L 1381 -341 
Q 1406 -516 1497 -581 
Q 1622 -675 1891 -675 
Q 2234 -675 2406 -572 
Q 2522 -503 2581 -350 
Q 2622 -241 2622 53 
L 2622 538 
Q 2228 0 1628 0 
Q 959 0 569 566 
Q 263 1013 263 1678 
Q 263 2513 664 2953 
Q 1066 3394 1663 3394 
Q 2278 3394 2678 2853 
L 2678 3319 
L 3500 3319 
L 3500 341 
Q 3500 -247 3403 -537 
Q 3306 -828 3131 -993 
Q 2956 -1159 2664 -1253 
Q 2372 -1347 1925 -1347 
Q 1081 -1347 728 -1058 
Q 375 -769 375 -325 
Q 375 -281 378 -219 
z
M 1163 1728 
Q 1163 1200 1367 954 
Q 1572 709 1872 709 
Q 2194 709 2416 961 
Q 2638 1213 2638 1706 
Q 2638 2222 2425 2472 
Q 2213 2722 1888 2722 
Q 1572 2722 1367 2476 
Q 1163 2231 1163 1728 
z
" transform="scale(0.015625)"/>
       <path id="Arial-BoldMT-2d" d="M 359 1222 
L 359 2100 
L 2084 2100 
L 2084 1222 
L 359 1222 
z
" transform="scale(0.015625)"/>
       <path id="Arial-BoldMT-64" d="M 3503 0 
L 2688 0 
L 2688 488 
Q 2484 203 2207 64 
Q 1931 -75 1650 -75 
Q 1078 -75 670 386 
Q 263 847 263 1672 
Q 263 2516 659 2955 
Q 1056 3394 1663 3394 
Q 2219 3394 2625 2931 
L 2625 4581 
L 3503 4581 
L 3503 0 
z
M 1159 1731 
Q 1159 1200 1306 963 
Q 1519 619 1900 619 
Q 2203 619 2415 876 
Q 2628 1134 2628 1647 
Q 2628 2219 2422 2470 
Q 2216 2722 1894 2722 
Q 1581 2722 1370 2473 
Q 1159 2225 1159 1731 
z
" transform="scale(0.015625)"/>
       <path id="Arial-BoldMT-b1" d="M 1356 1113 
L 1356 2303 
L 156 2303 
L 156 3125 
L 1356 3125 
L 1356 4316 
L 2156 4316 
L 2156 3125 
L 3359 3125 
L 3359 2303 
L 2156 2303 
L 2156 1113 
L 1356 1113 
z
M 156 0 
L 156 822 
L 3359 822 
L 3359 0 
L 156 0 
z
" transform="scale(0.015625)"/>
       <path id="Arial-BoldMT-45" d="M 466 0 
L 466 4581 
L 3863 4581 
L 3863 3806 
L 1391 3806 
L 1391 2791 
L 3691 2791 
L 3691 2019 
L 1391 2019 
L 1391 772 
L 3950 772 
L 3950 0 
L 466 0 
z
" transform="scale(0.015625)"/>
       <path id="Arial-BoldMT-29" d="M 216 -1347 
Q 475 -791 581 -494 
Q 688 -197 778 190 
Q 869 578 912 926 
Q 956 1275 956 1641 
Q 956 2384 797 3048 
Q 638 3713 209 4659 
L 806 4659 
Q 1278 3988 1539 3234 
Q 1800 2481 1800 1706 
Q 1800 1053 1594 306 
Q 1359 -531 822 -1347 
L 216 -1347 
z
" transform="scale(0.015625)"/>
      </defs>
      <use xlink:href="#Arial-BoldMT-53"/>
      <use xlink:href="#Arial-BoldMT-75" transform="translate(66.699219 0)"/>
      <use xlink:href="#Arial-BoldMT-62" transform="translate(127.783203 0)"/>
      <use xlink:href="#Arial-BoldMT-6a" transform="translate(188.867188 0)"/>
      <use xlink:href="#Arial-BoldMT-65" transform="translate(216.650391 0)"/>
      <use xlink:href="#Arial-BoldMT-63" transform="translate(272.265625 0)"/>
      <use xlink:href="#Arial-BoldMT-74" transform="translate(327.880859 0)"/>
      <use xlink:href="#Arial-BoldMT-69" transform="translate(361.181641 0)"/>
      <use xlink:href="#Arial-BoldMT-76" transform="translate(388.964844 0)"/>
      <use xlink:href="#Arial-BoldMT-65" transform="translate(444.580078 0)"/>
      <use xlink:href="#Arial-BoldMT-20" transform="translate(500.195312 0)"/>
      <use xlink:href="#Arial-BoldMT-42" transform="translate(527.978516 0)"/>
      <use xlink:href="#Arial-BoldMT-54" transform="translate(600.195312 0)"/>
      <use xlink:href="#Arial-BoldMT-20" transform="translate(661.279297 0)"/>
      <use xlink:href="#Arial-BoldMT-73" transform="translate(689.0625 0)"/>
      <use xlink:href="#Arial-BoldMT-63" transform="translate(744.677734 0)"/>
      <use xlink:href="#Arial-BoldMT-6f" transform="translate(800.292969 0)"/>
      <use xlink:href="#Arial-BoldMT-72" transform="translate(861.376953 0)"/>
      <use xlink:href="#Arial-BoldMT-65" transform="translate(900.292969 0)"/>
      <use xlink:href="#Arial-BoldMT-20" transform="translate(955.908203 0)"/>
      <use xlink:href="#Arial-BoldMT-28" transform="translate(983.691406 0)"/>
      <use xlink:href="#Arial-BoldMT-6c" transform="translate(1016.992188 0)"/>
      <use xlink:href="#Arial-BoldMT-6f" transform="translate(1044.775391 0)"/>
      <use xlink:href="#Arial-BoldMT-67" transform="translate(1105.859375 0)"/>
      <use xlink:href="#Arial-BoldMT-2d" transform="translate(1166.943359 0)"/>
      <use xlink:href="#Arial-BoldMT-6f" transform="translate(1200.244141 0)"/>
      <use xlink:href="#Arial-BoldMT-64" transform="translate(1261.328125 0)"/>
      <use xlink:href="#Arial-BoldMT-64" transform="translate(1322.412109 0)"/>
      <use xlink:href="#Arial-BoldMT-73" transform="translate(1383.496094 0)"/>
      <use xlink:href="#Arial-BoldMT-20" transform="translate(1439.111328 0)"/>
      <use xlink:href="#Arial-BoldMT-b1" transform="translate(1466.894531 0)"/>
      <use xlink:href="#Arial-BoldMT-20" transform="translate(1521.777344 0)"/>
      <use xlink:href="#Arial-BoldMT-53" transform="translate(1549.560547 0)"/>
      <use xlink:href="#Arial-BoldMT-45" transform="translate(1616.259766 0)"/>
      <use xlink:href="#Arial-BoldMT-29" transform="translate(1682.958984 0)"/>
     </g>
    </g>
   </g>
   <g id="matplotlib.axis_2">
    <g id="ytick_1">
     <g id="line2d_6">
      <path d="M 58.228125 319.349238 
L 427.944004 319.349238 
" clip-path="url(#p43cd4dbe0d)" style="fill: none; stroke-dasharray: 5.55,2.4; stroke-dashoffset: 0; stroke: #cccccc; stroke-opacity: 0.35; stroke-width: 1.5"/>
     </g>
     <g id="text_7">
      <!-- -2 -->
      <g style="fill: #262626" transform="translate(29.725 325.791269) scale(0.18 -0.18)">
       <defs>
        <path id="ArialMT-32" d="M 3222 541 
L 3222 0 
L 194 0 
Q 188 203 259 391 
Q 375 700 629 1000 
Q 884 1300 1366 1694 
Q 2113 2306 2375 2664 
Q 2638 3022 2638 3341 
Q 2638 3675 2398 3904 
Q 2159 4134 1775 4134 
Q 1369 4134 1125 3890 
Q 881 3647 878 3216 
L 300 3275 
Q 359 3922 746 4261 
Q 1134 4600 1788 4600 
Q 2447 4600 2831 4234 
Q 3216 3869 3216 3328 
Q 3216 3053 3103 2787 
Q 2991 2522 2730 2228 
Q 2469 1934 1863 1422 
Q 1356 997 1212 845 
Q 1069 694 975 541 
L 3222 541 
z
" transform="scale(0.015625)"/>
       </defs>
       <use xlink:href="#ArialMT-2d"/>
       <use xlink:href="#ArialMT-32" transform="translate(33.300781 0)"/>
      </g>
     </g>
    </g>
    <g id="ytick_2">
     <g id="line2d_7">
      <path d="M 58.228125 251.012942 
L 427.944004 251.012942 
" clip-path="url(#p43cd4dbe0d)" style="fill: none; stroke-dasharray: 5.55,2.4; stroke-dashoffset: 0; stroke: #cccccc; stroke-opacity: 0.35; stroke-width: 1.5"/>
     </g>
     <g id="text_8">
      <!-- -1 -->
      <g style="fill: #262626" transform="translate(29.725 257.454973) scale(0.18 -0.18)">
       <use xlink:href="#ArialMT-2d"/>
       <use xlink:href="#ArialMT-31" transform="translate(33.300781 0)"/>
      </g>
     </g>
    </g>
    <g id="ytick_3">
     <g id="line2d_8">
      <path d="M 58.228125 182.676646 
L 427.944004 182.676646 
" clip-path="url(#p43cd4dbe0d)" style="fill: none; stroke-dasharray: 5.55,2.4; stroke-dashoffset: 0; stroke: #cccccc; stroke-opacity: 0.35; stroke-width: 1.5"/>
     </g>
     <g id="text_9">
      <!-- 0 -->
      <g style="fill: #262626" transform="translate(35.718438 189.118677) scale(0.18 -0.18)">
       <use xlink:href="#ArialMT-30"/>
      </g>
     </g>
    </g>
    <g id="ytick_4">
     <g id="line2d_9">
      <path d="M 58.228125 114.34035 
L 427.944004 114.34035 
" clip-path="url(#p43cd4dbe0d)" style="fill: none; stroke-dasharray: 5.55,2.4; stroke-dashoffset: 0; stroke: #cccccc; stroke-opacity: 0.35; stroke-width: 1.5"/>
     </g>
     <g id="text_10">
      <!-- 1 -->
      <g style="fill: #262626" transform="translate(35.718438 120.782381) scale(0.18 -0.18)">
       <use xlink:href="#ArialMT-31"/>
      </g>
     </g>
    </g>
    <g id="ytick_5">
     <g id="line2d_10">
      <path d="M 58.228125 46.004054 
L 427.944004 46.004054 
" clip-path="url(#p43cd4dbe0d)" style="fill: none; stroke-dasharray: 5.55,2.4; stroke-dashoffset: 0; stroke: #cccccc; stroke-opacity: 0.35; stroke-width: 1.5"/>
     </g>
     <g id="text_11">
      <!-- 2 -->
      <g style="fill: #262626" transform="translate(35.718438 52.446085) scale(0.18 -0.18)">
       <use xlink:href="#ArialMT-32"/>
      </g>
     </g>
    </g>
    <g id="text_12">
     <!-- Predicted intensity z-score -->
     <g style="fill: #262626" transform="translate(21.515625 319.309502) rotate(-90) scale(0.2 -0.2)">
      <defs>
       <path id="Arial-BoldMT-50" d="M 466 0 
L 466 4581 
L 1950 4581 
Q 2794 4581 3050 4513 
Q 3444 4409 3709 4064 
Q 3975 3719 3975 3172 
Q 3975 2750 3822 2462 
Q 3669 2175 3433 2011 
Q 3197 1847 2953 1794 
Q 2622 1728 1994 1728 
L 1391 1728 
L 1391 0 
L 466 0 
z
M 1391 3806 
L 1391 2506 
L 1897 2506 
Q 2444 2506 2628 2578 
Q 2813 2650 2917 2803 
Q 3022 2956 3022 3159 
Q 3022 3409 2875 3571 
Q 2728 3734 2503 3775 
Q 2338 3806 1838 3806 
L 1391 3806 
z
" transform="scale(0.015625)"/>
       <path id="Arial-BoldMT-6e" d="M 3478 0 
L 2600 0 
L 2600 1694 
Q 2600 2231 2544 2389 
Q 2488 2547 2361 2634 
Q 2234 2722 2056 2722 
Q 1828 2722 1647 2597 
Q 1466 2472 1398 2265 
Q 1331 2059 1331 1503 
L 1331 0 
L 453 0 
L 453 3319 
L 1269 3319 
L 1269 2831 
Q 1703 3394 2363 3394 
Q 2653 3394 2893 3289 
Q 3134 3184 3257 3021 
Q 3381 2859 3429 2653 
Q 3478 2447 3478 2063 
L 3478 0 
z
" transform="scale(0.015625)"/>
       <path id="Arial-BoldMT-79" d="M 44 3319 
L 978 3319 
L 1772 963 
L 2547 3319 
L 3456 3319 
L 2284 125 
L 2075 -453 
Q 1959 -744 1854 -897 
Q 1750 -1050 1614 -1145 
Q 1478 -1241 1279 -1294 
Q 1081 -1347 831 -1347 
Q 578 -1347 334 -1294 
L 256 -606 
Q 463 -647 628 -647 
Q 934 -647 1081 -467 
Q 1228 -288 1306 -9 
L 44 3319 
z
" transform="scale(0.015625)"/>
       <path id="Arial-BoldMT-7a" d="M 106 0 
L 106 684 
L 1350 2113 
Q 1656 2463 1803 2609 
Q 1650 2600 1400 2597 
L 228 2591 
L 228 3319 
L 2972 3319 
L 2972 2697 
L 1703 1234 
L 1256 750 
Q 1622 772 1709 772 
L 3069 772 
L 3069 0 
L 106 0 
z
" transform="scale(0.015625)"/>
      </defs>
      <use xlink:href="#Arial-BoldMT-50"/>
      <use xlink:href="#Arial-BoldMT-72" transform="translate(66.699219 0)"/>
      <use xlink:href="#Arial-BoldMT-65" transform="translate(105.615234 0)"/>
      <use xlink:href="#Arial-BoldMT-64" transform="translate(161.230469 0)"/>
      <use xlink:href="#Arial-BoldMT-69" transform="translate(222.314453 0)"/>
      <use xlink:href="#Arial-BoldMT-63" transform="translate(250.097656 0)"/>
      <use xlink:href="#Arial-BoldMT-74" transform="translate(305.712891 0)"/>
      <use xlink:href="#Arial-BoldMT-65" transform="translate(339.013672 0)"/>
      <use xlink:href="#Arial-BoldMT-64" transform="translate(394.628906 0)"/>
      <use xlink:href="#Arial-BoldMT-20" transform="translate(455.712891 0)"/>
      <use xlink:href="#Arial-BoldMT-69" transform="translate(483.496094 0)"/>
      <use xlink:href="#Arial-BoldMT-6e" transform="translate(511.279297 0)"/>
      <use xlink:href="#Arial-BoldMT-74" transform="translate(572.363281 0)"/>
      <use xlink:href="#Arial-BoldMT-65" transform="translate(605.664062 0)"/>
      <use xlink:href="#Arial-BoldMT-6e" transform="translate(661.279297 0)"/>
      <use xlink:href="#Arial-BoldMT-73" transform="translate(722.363281 0)"/>
      <use xlink:href="#Arial-BoldMT-69" transform="translate(777.978516 0)"/>
      <use xlink:href="#Arial-BoldMT-74" transform="translate(805.761719 0)"/>
      <use xlink:href="#Arial-BoldMT-79" transform="translate(839.0625 0)"/>
      <use xlink:href="#Arial-BoldMT-20" transform="translate(894.677734 0)"/>
      <use xlink:href="#Arial-BoldMT-7a" transform="translate(922.460938 0)"/>
      <use xlink:href="#Arial-BoldMT-2d" transform="translate(972.460938 0)"/>
      <use xlink:href="#Arial-BoldMT-73" transform="translate(1005.761719 0)"/>
      <use xlink:href="#Arial-BoldMT-63" transform="translate(1061.376953 0)"/>
      <use xlink:href="#Arial-BoldMT-6f" transform="translate(1116.992188 0)"/>
      <use xlink:href="#Arial-BoldMT-72" transform="translate(1178.076172 0)"/>
      <use xlink:href="#Arial-BoldMT-65" transform="translate(1216.992188 0)"/>
     </g>
    </g>
   </g>
   <g id="FillBetweenPolyCollection_1">
    <defs>
     <path id="m6a1ff41fef" d="M 75.033392 -163.662073 
L 75.033392 -75.73558 
L 76.722364 -77.334039 
L 78.411335 -78.931842 
L 80.100307 -80.528973 
L 81.789279 -82.125417 
L 83.47825 -83.721157 
L 85.167222 -85.316177 
L 86.856193 -86.91046 
L 88.545165 -88.503989 
L 90.234136 -90.096745 
L 91.923108 -91.688709 
L 93.61208 -93.279863 
L 95.301051 -94.870187 
L 96.990023 -96.459661 
L 98.678994 -98.048263 
L 100.367966 -99.635972 
L 102.056938 -101.222767 
L 103.745909 -102.808623 
L 105.434881 -104.393517 
L 107.123852 -105.977426 
L 108.812824 -107.560324 
L 110.501795 -109.142185 
L 112.190767 -110.722983 
L 113.879739 -112.302689 
L 115.56871 -113.881277 
L 117.257682 -115.458716 
L 118.946653 -117.034977 
L 120.635625 -118.610029 
L 122.324596 -120.183839 
L 124.013568 -121.756374 
L 125.70254 -123.327602 
L 127.391511 -124.897485 
L 129.080483 -126.465989 
L 130.769454 -128.033075 
L 132.458426 -129.598706 
L 134.147398 -131.162841 
L 135.836369 -132.72544 
L 137.525341 -134.28646 
L 139.214312 -135.845858 
L 140.903284 -137.403588 
L 142.592255 -138.959605 
L 144.281227 -140.51386 
L 145.970199 -142.066304 
L 147.65917 -143.616887 
L 149.348142 -145.165555 
L 151.037113 -146.712255 
L 152.726085 -148.256932 
L 154.415056 -149.799526 
L 156.104028 -151.339981 
L 157.793 -152.878234 
L 159.481971 -154.414223 
L 161.170943 -155.947884 
L 162.859914 -157.479149 
L 164.548886 -159.007951 
L 166.237858 -160.534219 
L 167.926829 -162.057881 
L 169.615801 -163.578863 
L 171.304772 -165.097088 
L 172.993744 -166.612477 
L 174.682715 -168.124951 
L 176.371687 -169.634426 
L 178.060659 -171.140819 
L 179.74963 -172.644042 
L 181.438602 -174.144006 
L 183.127573 -175.640621 
L 184.816545 -177.133794 
L 186.505517 -178.62343 
L 188.194488 -180.109432 
L 189.88346 -181.591701 
L 191.572431 -183.070137 
L 193.261403 -184.544638 
L 194.950374 -186.015099 
L 196.639346 -187.481414 
L 198.328318 -188.943478 
L 200.017289 -190.40118 
L 201.706261 -191.854413 
L 203.395232 -193.303065 
L 205.084204 -194.747025 
L 206.773175 -196.186181 
L 208.462147 -197.620421 
L 210.151119 -199.049632 
L 211.84009 -200.473701 
L 213.529062 -201.892517 
L 215.218033 -203.305968 
L 216.907005 -204.713942 
L 218.595977 -206.116332 
L 220.284948 -207.513028 
L 221.97392 -208.903925 
L 223.662891 -210.28892 
L 225.351863 -211.66791 
L 227.040834 -213.040799 
L 228.729806 -214.407491 
L 230.418778 -215.767895 
L 232.107749 -217.121925 
L 233.796721 -218.469497 
L 235.485692 -219.810534 
L 237.174664 -221.144964 
L 238.863635 -222.47272 
L 240.552607 -223.79374 
L 242.241579 -225.107969 
L 243.93055 -226.415358 
L 245.619522 -227.715866 
L 247.308493 -229.009457 
L 248.997465 -230.296102 
L 250.686437 -231.575782 
L 252.375408 -232.848481 
L 254.06438 -234.114193 
L 255.753351 -235.372919 
L 257.442323 -236.624668 
L 259.131294 -237.869455 
L 260.820266 -239.107302 
L 262.509238 -240.33824 
L 264.198209 -241.562306 
L 265.887181 -242.779543 
L 267.576152 -243.990002 
L 269.265124 -245.193738 
L 270.954096 -246.390816 
L 272.643067 -247.581302 
L 274.332039 -248.765271 
L 276.02101 -249.942802 
L 277.709982 -251.113978 
L 279.398953 -252.278887 
L 281.087925 -253.437622 
L 282.776897 -254.590277 
L 284.465868 -255.736952 
L 286.15484 -256.877748 
L 287.843811 -258.012769 
L 289.532783 -259.142123 
L 291.221754 -260.265916 
L 292.910726 -261.38426 
L 294.599698 -262.497265 
L 296.288669 -263.605042 
L 297.977641 -264.707704 
L 299.666612 -265.805363 
L 301.355584 -266.898132 
L 303.044556 -267.986124 
L 304.733527 -269.06945 
L 306.422499 -270.148221 
L 308.11147 -271.222547 
L 309.800442 -272.292539 
L 311.489413 -273.358303 
L 313.178385 -274.419947 
L 314.867357 -275.477576 
L 316.556328 -276.531294 
L 318.2453 -277.581202 
L 319.934271 -278.6274 
L 321.623243 -279.669988 
L 323.312214 -280.70906 
L 325.001186 -281.744713 
L 326.690158 -282.777037 
L 328.379129 -283.806124 
L 330.068101 -284.832062 
L 331.757072 -285.854937 
L 333.446044 -286.874833 
L 335.135016 -287.891833 
L 336.823987 -288.906016 
L 338.512959 -289.917459 
L 340.20193 -290.926241 
L 341.890902 -291.932433 
L 343.579873 -292.936108 
L 345.268845 -293.937335 
L 346.957817 -294.936183 
L 348.646788 -295.932718 
L 350.33576 -296.927004 
L 352.024731 -297.919103 
L 353.713703 -298.909075 
L 355.402675 -299.89698 
L 357.091646 -300.882874 
L 358.780618 -301.866812 
L 360.469589 -302.848849 
L 362.158561 -303.829036 
L 363.847532 -304.807424 
L 365.536504 -305.784061 
L 367.225476 -306.758996 
L 368.914447 -307.732274 
L 370.603419 -308.70394 
L 372.29239 -309.674038 
L 373.981362 -310.642609 
L 375.670333 -311.609693 
L 377.359305 -312.575331 
L 379.048277 -313.539561 
L 380.737248 -314.502419 
L 382.42622 -315.463942 
L 384.115191 -316.424165 
L 385.804163 -317.383121 
L 387.493135 -318.340843 
L 389.182106 -319.297363 
L 390.871078 -320.252712 
L 392.560049 -321.206919 
L 394.249021 -322.160014 
L 395.937992 -323.112025 
L 397.626964 -324.062978 
L 399.315936 -325.012901 
L 401.004907 -325.961819 
L 402.693879 -326.909757 
L 404.38285 -327.856739 
L 406.071822 -328.802788 
L 407.760793 -329.747927 
L 409.449765 -330.692178 
L 411.138737 -331.635564 
L 411.138737 -411.840924 
L 411.138737 -411.840924 
L 409.449765 -410.25125 
L 407.760793 -408.662442 
L 406.071822 -407.074522 
L 404.38285 -405.487511 
L 402.693879 -403.901433 
L 401.004907 -402.316312 
L 399.315936 -400.73217 
L 397.626964 -399.149033 
L 395.937992 -397.566927 
L 394.249021 -395.985879 
L 392.560049 -394.405914 
L 390.871078 -392.827062 
L 389.182106 -391.249351 
L 387.493135 -389.672812 
L 385.804163 -388.097475 
L 384.115191 -386.523371 
L 382.42622 -384.950534 
L 380.737248 -383.378998 
L 379.048277 -381.808797 
L 377.359305 -380.239967 
L 375.670333 -378.672546 
L 373.981362 -377.106571 
L 372.29239 -375.542082 
L 370.603419 -373.97912 
L 368.914447 -372.417727 
L 367.225476 -370.857945 
L 365.536504 -369.299821 
L 363.847532 -367.743399 
L 362.158561 -366.188727 
L 360.469589 -364.635855 
L 358.780618 -363.084832 
L 357.091646 -361.535711 
L 355.402675 -359.988545 
L 353.713703 -358.443391 
L 352.024731 -356.900303 
L 350.33576 -355.359343 
L 348.646788 -353.820569 
L 346.957817 -352.284044 
L 345.268845 -350.749833 
L 343.579873 -349.218001 
L 341.890902 -347.688617 
L 340.20193 -346.161749 
L 338.512959 -344.637471 
L 336.823987 -343.115855 
L 335.135016 -341.596979 
L 333.446044 -340.080919 
L 331.757072 -338.567755 
L 330.068101 -337.057571 
L 328.379129 -335.550449 
L 326.690158 -334.046477 
L 325.001186 -332.545742 
L 323.312214 -331.048335 
L 321.623243 -329.554348 
L 319.934271 -328.063876 
L 318.2453 -326.577015 
L 316.556328 -325.093864 
L 314.867357 -323.614522 
L 313.178385 -322.139091 
L 311.489413 -320.667676 
L 309.800442 -319.200381 
L 308.11147 -317.737313 
L 306.422499 -316.27858 
L 304.733527 -314.824292 
L 303.044556 -313.374558 
L 301.355584 -311.92949 
L 299.666612 -310.4892 
L 297.977641 -309.053799 
L 296.288669 -307.623402 
L 294.599698 -306.19812 
L 292.910726 -304.778065 
L 291.221754 -303.363349 
L 289.532783 -301.954083 
L 287.843811 -300.550377 
L 286.15484 -299.152339 
L 284.465868 -297.760076 
L 282.776897 -296.373691 
L 281.087925 -294.993287 
L 279.398953 -293.618962 
L 277.709982 -292.250811 
L 276.02101 -290.888928 
L 274.332039 -289.533399 
L 272.643067 -288.184309 
L 270.954096 -286.841736 
L 269.265124 -285.505754 
L 267.576152 -284.176431 
L 265.887181 -282.85383 
L 264.198209 -281.538008 
L 262.509238 -280.229014 
L 260.820266 -278.926893 
L 259.131294 -277.63168 
L 257.442323 -276.343408 
L 255.753351 -275.062097 
L 254.06438 -273.787764 
L 252.375408 -272.520417 
L 250.686437 -271.260056 
L 248.997465 -270.006676 
L 247.308493 -268.760262 
L 245.619522 -267.520794 
L 243.93055 -266.288242 
L 242.241579 -265.062572 
L 240.552607 -263.843741 
L 238.863635 -262.631702 
L 237.174664 -261.426398 
L 235.485692 -260.227768 
L 233.796721 -259.035746 
L 232.107749 -257.850259 
L 230.418778 -256.671229 
L 228.729806 -255.498574 
L 227.040834 -254.332206 
L 225.351863 -253.172036 
L 223.662891 -252.017967 
L 221.97392 -250.869902 
L 220.284948 -249.72774 
L 218.595977 -248.591376 
L 216.907005 -247.460706 
L 215.218033 -246.335622 
L 213.529062 -245.216013 
L 211.84009 -244.101769 
L 210.151119 -242.992779 
L 208.462147 -241.88893 
L 206.773175 -240.79011 
L 205.084204 -239.696207 
L 203.395232 -238.607108 
L 201.706261 -237.5227 
L 200.017289 -236.442874 
L 198.328318 -235.367517 
L 196.639346 -234.296521 
L 194.950374 -233.229777 
L 193.261403 -232.167178 
L 191.572431 -231.108619 
L 189.88346 -230.053996 
L 188.194488 -229.003205 
L 186.505517 -227.956148 
L 184.816545 -226.912724 
L 183.127573 -225.872838 
L 181.438602 -224.836393 
L 179.74963 -223.803298 
L 178.060659 -222.773462 
L 176.371687 -221.746795 
L 174.682715 -220.723211 
L 172.993744 -219.702625 
L 171.304772 -218.684955 
L 169.615801 -217.670121 
L 167.926829 -216.658043 
L 166.237858 -215.648645 
L 164.548886 -214.641854 
L 162.859914 -213.637596 
L 161.170943 -212.635802 
L 159.481971 -211.636403 
L 157.793 -210.639333 
L 156.104028 -209.644527 
L 154.415056 -208.651922 
L 152.726085 -207.661457 
L 151.037113 -206.673074 
L 149.348142 -205.686715 
L 147.65917 -204.702323 
L 145.970199 -203.719846 
L 144.281227 -202.739231 
L 142.592255 -201.760427 
L 140.903284 -200.783384 
L 139.214312 -199.808055 
L 137.525341 -198.834393 
L 135.836369 -197.862354 
L 134.147398 -196.891893 
L 132.458426 -195.922969 
L 130.769454 -194.95554 
L 129.080483 -193.989567 
L 127.391511 -193.025012 
L 125.70254 -192.061836 
L 124.013568 -191.100003 
L 122.324596 -190.139479 
L 120.635625 -189.18023 
L 118.946653 -188.222222 
L 117.257682 -187.265423 
L 115.56871 -186.309803 
L 113.879739 -185.355331 
L 112.190767 -184.401979 
L 110.501795 -183.449717 
L 108.812824 -182.498519 
L 107.123852 -181.548357 
L 105.434881 -180.599206 
L 103.745909 -179.651041 
L 102.056938 -178.703838 
L 100.367966 -177.757573 
L 98.678994 -176.812223 
L 96.990023 -175.867765 
L 95.301051 -174.924179 
L 93.61208 -173.981444 
L 91.923108 -173.039539 
L 90.234136 -172.098444 
L 88.545165 -171.15814 
L 86.856193 -170.218609 
L 85.167222 -169.279833 
L 83.47825 -168.341793 
L 81.789279 -167.404474 
L 80.100307 -166.467858 
L 78.411335 -165.53193 
L 76.722364 -164.596673 
L 75.033392 -163.662073 
z
" style="stroke: #bfbfbf; stroke-opacity: 0.2; stroke-width: 1.5"/>
    </defs>
    <g clip-path="url(#p43cd4dbe0d)">
     <use xlink:href="#m6a1ff41fef" x="0" y="435.846191" style="fill: #bfbfbf; fill-opacity: 0.2; stroke: #bfbfbf; stroke-opacity: 0.2; stroke-width: 1.5"/>
    </g>
   </g>
   <g id="line2d_11">
    <path d="M 75.033392 316.147365 
L 411.138737 64.107948 
L 411.138737 64.107948 
" clip-path="url(#p43cd4dbe0d)" style="fill: none; stroke: #000000; stroke-opacity: 0.8; stroke-width: 2.5; stroke-linecap: round"/>
   </g>
   <g id="patch_3">
    <path d="M 58.228125 376.915879 
L 58.228125 7.2 
" style="fill: none; stroke: #262626; stroke-width: 1.875; stroke-linejoin: miter; stroke-linecap: square"/>
   </g>
   <g id="patch_4">
    <path d="M 427.944004 376.915879 
L 427.944004 7.2 
" style="fill: none; stroke: #262626; stroke-width: 1.875; stroke-linejoin: miter; stroke-linecap: square"/>
   </g>
   <g id="patch_5">
    <path d="M 58.228125 376.915879 
L 427.944004 376.915879 
" style="fill: none; stroke: #262626; stroke-width: 1.875; stroke-linejoin: miter; stroke-linecap: square"/>
   </g>
   <g id="patch_6">
    <path d="M 58.228125 7.2 
L 427.944004 7.2 
" style="fill: none; stroke: #262626; stroke-width: 1.875; stroke-linejoin: miter; stroke-linecap: square"/>
   </g>
   <g id="text_13">
    <g id="patch_7">
     <path d="M 65.319601 62.611476 
L 196.719601 62.611476 
L 196.719601 14.516476 
L 65.319601 14.516476 
z
" style="fill: #ffffff; opacity: 0.85; stroke: #cccccc; stroke-width: 1.5; stroke-linejoin: miter"/>
    </g>
    <!-- $R^2$ = 0.975 -->
    <g style="fill: #262626" transform="translate(69.319601 32.916476) scale(0.2 -0.2)">
     <defs>
      <path id="DejaVuSans-Oblique-52" d="M 1613 4147 
L 1294 2491 
L 2106 2491 
Q 2584 2491 2879 2755 
Q 3175 3019 3175 3444 
Q 3175 3784 2976 3965 
Q 2778 4147 2406 4147 
L 1613 4147 
z
M 2772 2241 
Q 2972 2194 3105 2009 
Q 3238 1825 3413 1275 
L 3809 0 
L 3144 0 
L 2778 1197 
Q 2638 1659 2453 1815 
Q 2269 1972 1888 1972 
L 1191 1972 
L 806 0 
L 172 0 
L 1081 4666 
L 2503 4666 
Q 3150 4666 3495 4373 
Q 3841 4081 3841 3531 
Q 3841 3044 3547 2687 
Q 3253 2331 2772 2241 
z
" transform="scale(0.015625)"/>
      <path id="DejaVuSans-32" d="M 1228 531 
L 3431 531 
L 3431 0 
L 469 0 
L 469 531 
Q 828 903 1448 1529 
Q 2069 2156 2228 2338 
Q 2531 2678 2651 2914 
Q 2772 3150 2772 3378 
Q 2772 3750 2511 3984 
Q 2250 4219 1831 4219 
Q 1534 4219 1204 4116 
Q 875 4013 500 3803 
L 500 4441 
Q 881 4594 1212 4672 
Q 1544 4750 1819 4750 
Q 2544 4750 2975 4387 
Q 3406 4025 3406 3419 
Q 3406 3131 3298 2873 
Q 3191 2616 2906 2266 
Q 2828 2175 2409 1742 
Q 1991 1309 1228 531 
z
" transform="scale(0.015625)"/>
      <path id="ArialMT-20" transform="scale(0.015625)"/>
      <path id="ArialMT-3d" d="M 3381 2694 
L 356 2694 
L 356 3219 
L 3381 3219 
L 3381 2694 
z
M 3381 1303 
L 356 1303 
L 356 1828 
L 3381 1828 
L 3381 1303 
z
" transform="scale(0.015625)"/>
      <path id="ArialMT-39" d="M 350 1059 
L 891 1109 
Q 959 728 1153 556 
Q 1347 384 1650 384 
Q 1909 384 2104 503 
Q 2300 622 2425 820 
Q 2550 1019 2634 1356 
Q 2719 1694 2719 2044 
Q 2719 2081 2716 2156 
Q 2547 1888 2255 1720 
Q 1963 1553 1622 1553 
Q 1053 1553 659 1965 
Q 266 2378 266 3053 
Q 266 3750 677 4175 
Q 1088 4600 1706 4600 
Q 2153 4600 2523 4359 
Q 2894 4119 3086 3673 
Q 3278 3228 3278 2384 
Q 3278 1506 3087 986 
Q 2897 466 2520 194 
Q 2144 -78 1638 -78 
Q 1100 -78 759 220 
Q 419 519 350 1059 
z
M 2653 3081 
Q 2653 3566 2395 3850 
Q 2138 4134 1775 4134 
Q 1400 4134 1122 3828 
Q 844 3522 844 3034 
Q 844 2597 1108 2323 
Q 1372 2050 1759 2050 
Q 2150 2050 2401 2323 
Q 2653 2597 2653 3081 
z
" transform="scale(0.015625)"/>
      <path id="ArialMT-37" d="M 303 3981 
L 303 4522 
L 3269 4522 
L 3269 4084 
Q 2831 3619 2401 2847 
Q 1972 2075 1738 1259 
Q 1569 684 1522 0 
L 944 0 
Q 953 541 1156 1306 
Q 1359 2072 1739 2783 
Q 2119 3494 2547 3981 
L 303 3981 
z
" transform="scale(0.015625)"/>
     </defs>
     <use xlink:href="#DejaVuSans-Oblique-52" transform="translate(0 0.765625)"/>
     <use xlink:href="#DejaVuSans-32" transform="translate(76.499193 39.046875) scale(0.7)"/>
     <use xlink:href="#ArialMT-20" transform="translate(123.769701 0.765625)"/>
     <use xlink:href="#ArialMT-3d" transform="translate(151.552904 0.765625)"/>
     <use xlink:href="#ArialMT-20" transform="translate(209.951341 0.765625)"/>
     <use xlink:href="#ArialMT-30" transform="translate(237.734544 0.765625)"/>
     <use xlink:href="#ArialMT-2e" transform="translate(293.349779 0.765625)"/>
     <use xlink:href="#ArialMT-39" transform="translate(321.132982 0.765625)"/>
     <use xlink:href="#ArialMT-37" transform="translate(376.748216 0.765625)"/>
     <use xlink:href="#ArialMT-35" transform="translate(432.363451 0.765625)"/>
    </g>
    <!-- $p$ = 0.00169** -->
    <g style="fill: #262626" transform="translate(69.319601 54.411476) scale(0.2 -0.2)">
     <defs>
      <path id="DejaVuSans-Oblique-70" d="M 3175 2156 
Q 3175 2616 2975 2859 
Q 2775 3103 2400 3103 
Q 2144 3103 1911 2972 
Q 1678 2841 1497 2591 
Q 1319 2344 1212 1994 
Q 1106 1644 1106 1300 
Q 1106 863 1306 627 
Q 1506 391 1875 391 
Q 2147 391 2380 519 
Q 2613 647 2778 891 
Q 2956 1147 3065 1494 
Q 3175 1841 3175 2156 
z
M 1394 2969 
Q 1625 3272 1939 3428 
Q 2253 3584 2638 3584 
Q 3175 3584 3472 3232 
Q 3769 2881 3769 2247 
Q 3769 1728 3584 1258 
Q 3400 788 3053 416 
Q 2822 169 2531 39 
Q 2241 -91 1919 -91 
Q 1547 -91 1294 64 
Q 1041 219 916 525 
L 556 -1331 
L -19 -1331 
L 922 3500 
L 1497 3500 
L 1394 2969 
z
" transform="scale(0.015625)"/>
      <path id="ArialMT-36" d="M 3184 3459 
L 2625 3416 
Q 2550 3747 2413 3897 
Q 2184 4138 1850 4138 
Q 1581 4138 1378 3988 
Q 1113 3794 959 3422 
Q 806 3050 800 2363 
Q 1003 2672 1297 2822 
Q 1591 2972 1913 2972 
Q 2475 2972 2870 2558 
Q 3266 2144 3266 1488 
Q 3266 1056 3080 686 
Q 2894 316 2569 119 
Q 2244 -78 1831 -78 
Q 1128 -78 684 439 
Q 241 956 241 2144 
Q 241 3472 731 4075 
Q 1159 4600 1884 4600 
Q 2425 4600 2770 4297 
Q 3116 3994 3184 3459 
z
M 888 1484 
Q 888 1194 1011 928 
Q 1134 663 1356 523 
Q 1578 384 1822 384 
Q 2178 384 2434 671 
Q 2691 959 2691 1453 
Q 2691 1928 2437 2201 
Q 2184 2475 1800 2475 
Q 1419 2475 1153 2201 
Q 888 1928 888 1484 
z
" transform="scale(0.015625)"/>
      <path id="ArialMT-2a" d="M 200 3741 
L 344 4184 
Q 841 4009 1066 3881 
Q 1006 4447 1003 4659 
L 1456 4659 
Q 1447 4350 1384 3884 
Q 1706 4047 2122 4184 
L 2266 3741 
Q 1869 3609 1488 3566 
Q 1678 3400 2025 2975 
L 1650 2709 
Q 1469 2956 1222 3381 
Q 991 2941 816 2709 
L 447 2975 
Q 809 3422 966 3566 
Q 563 3644 200 3741 
z
" transform="scale(0.015625)"/>
     </defs>
     <use xlink:href="#DejaVuSans-Oblique-70" transform="translate(0 0.203125)"/>
     <use xlink:href="#ArialMT-20" transform="translate(63.476562 0.203125)"/>
     <use xlink:href="#ArialMT-3d" transform="translate(91.259766 0.203125)"/>
     <use xlink:href="#ArialMT-20" transform="translate(149.658203 0.203125)"/>
     <use xlink:href="#ArialMT-30" transform="translate(177.441406 0.203125)"/>
     <use xlink:href="#ArialMT-2e" transform="translate(233.056641 0.203125)"/>
     <use xlink:href="#ArialMT-30" transform="translate(260.839844 0.203125)"/>
     <use xlink:href="#ArialMT-30" transform="translate(316.455078 0.203125)"/>
     <use xlink:href="#ArialMT-31" transform="translate(372.070312 0.203125)"/>
     <use xlink:href="#ArialMT-36" transform="translate(427.685547 0.203125)"/>
     <use xlink:href="#ArialMT-39" transform="translate(483.300781 0.203125)"/>
     <use xlink:href="#ArialMT-2a" transform="translate(538.916016 0.203125)"/>
     <use xlink:href="#ArialMT-2a" transform="translate(577.832031 0.203125)"/>
    </g>
   </g>
   <g id="legend_1">
    <g id="patch_8">
     <path d="M 313.969004 368.915879 
L 416.744004 368.915879 
Q 419.944004 368.915879 419.944004 365.715879 
L 419.944004 253.863379 
Q 419.944004 250.663379 416.744004 250.663379 
L 313.969004 250.663379 
Q 310.769004 250.663379 310.769004 253.863379 
L 310.769004 365.715879 
Q 310.769004 368.915879 313.969004 368.915879 
z
" style="fill: #ffffff; opacity: 0.8; stroke: #cccccc; stroke-width: 1.5; stroke-linejoin: miter"/>
    </g>
    <g id="LineCollection_1">
     <path d="M 325.169004 262.915879 
L 341.169004 262.915879 
" style="fill: none; stroke: #443983; stroke-width: 3"/>
    </g>
    <g id="line2d_12">
     <defs>
      <path id="m0b9e6069fc" d="M 0 6 
L 0 -6 
" style="stroke: #443983; stroke-width: 1.2"/>
     </defs>
     <g>
      <use xlink:href="#m0b9e6069fc" x="325.169004" y="262.915879" style="fill: #443983; stroke: #443983; stroke-width: 1.2"/>
     </g>
    </g>
    <g id="line2d_13">
     <g>
      <use xlink:href="#m0b9e6069fc" x="341.169004" y="262.915879" style="fill: #443983; stroke: #443983; stroke-width: 1.2"/>
     </g>
    </g>
    <g id="line2d_14"/>
    <g id="line2d_15">
     <defs>
      <path id="m465d9067d8" d="M 0 5 
C 1.326016 5 2.597899 4.473168 3.535534 3.535534 
C 4.473168 2.597899 5 1.326016 5 0 
C 5 -1.326016 4.473168 -2.597899 3.535534 -3.535534 
C 2.597899 -4.473168 1.326016 -5 0 -5 
C -1.326016 -5 -2.597899 -4.473168 -3.535534 -3.535534 
C -4.473168 -2.597899 -5 -1.326016 -5 0 
C -5 1.326016 -4.473168 2.597899 -3.535534 3.535534 
C -2.597899 4.473168 -1.326016 5 0 5 
z
" style="stroke: #000000; stroke-width: 1.2"/>
     </defs>
     <g>
      <use xlink:href="#m465d9067d8" x="333.169004" y="262.915879" style="fill: #443983; stroke: #000000; stroke-width: 1.2"/>
     </g>
    </g>
    <g id="text_14">
     <!-- ULM_L -->
     <g style="fill: #262626" transform="translate(361.969004 268.515879) scale(0.16 -0.16)">
      <defs>
       <path id="ArialMT-55" d="M 3500 4581 
L 4106 4581 
L 4106 1934 
Q 4106 1244 3950 837 
Q 3794 431 3386 176 
Q 2978 -78 2316 -78 
Q 1672 -78 1262 144 
Q 853 366 678 786 
Q 503 1206 503 1934 
L 503 4581 
L 1109 4581 
L 1109 1938 
Q 1109 1341 1220 1058 
Q 1331 775 1601 622 
Q 1872 469 2263 469 
Q 2931 469 3215 772 
Q 3500 1075 3500 1938 
L 3500 4581 
z
" transform="scale(0.015625)"/>
       <path id="ArialMT-4c" d="M 469 0 
L 469 4581 
L 1075 4581 
L 1075 541 
L 3331 541 
L 3331 0 
L 469 0 
z
" transform="scale(0.015625)"/>
       <path id="ArialMT-4d" d="M 475 0 
L 475 4581 
L 1388 4581 
L 2472 1338 
Q 2622 884 2691 659 
Q 2769 909 2934 1394 
L 4031 4581 
L 4847 4581 
L 4847 0 
L 4263 0 
L 4263 3834 
L 2931 0 
L 2384 0 
L 1059 3900 
L 1059 0 
L 475 0 
z
" transform="scale(0.015625)"/>
       <path id="ArialMT-5f" d="M -97 -1272 
L -97 -866 
L 3631 -866 
L 3631 -1272 
L -97 -1272 
z
" transform="scale(0.015625)"/>
      </defs>
      <use xlink:href="#ArialMT-55"/>
      <use xlink:href="#ArialMT-4c" transform="translate(72.216797 0)"/>
      <use xlink:href="#ArialMT-4d" transform="translate(127.832031 0)"/>
      <use xlink:href="#ArialMT-5f" transform="translate(211.132812 0)"/>
      <use xlink:href="#ArialMT-4c" transform="translate(266.748047 0)"/>
     </g>
    </g>
    <g id="LineCollection_2">
     <path d="M 325.169004 285.595879 
L 341.169004 285.595879 
" style="fill: none; stroke: #31688e; stroke-width: 3"/>
    </g>
    <g id="line2d_16">
     <defs>
      <path id="m9b2718b29a" d="M 0 6 
L 0 -6 
" style="stroke: #31688e; stroke-width: 1.2"/>
     </defs>
     <g>
      <use xlink:href="#m9b2718b29a" x="325.169004" y="285.595879" style="fill: #31688e; stroke: #31688e; stroke-width: 1.2"/>
     </g>
    </g>
    <g id="line2d_17">
     <g>
      <use xlink:href="#m9b2718b29a" x="341.169004" y="285.595879" style="fill: #31688e; stroke: #31688e; stroke-width: 1.2"/>
     </g>
    </g>
    <g id="line2d_18"/>
    <g id="line2d_19">
     <defs>
      <path id="m6149ef191e" d="M 0 5 
C 1.326016 5 2.597899 4.473168 3.535534 3.535534 
C 4.473168 2.597899 5 1.326016 5 0 
C 5 -1.326016 4.473168 -2.597899 3.535534 -3.535534 
C 2.597899 -4.473168 1.326016 -5 0 -5 
C -1.326016 -5 -2.597899 -4.473168 -3.535534 -3.535534 
C -4.473168 -2.597899 -5 -1.326016 -5 0 
C -5 1.326016 -4.473168 2.597899 -3.535534 3.535534 
C -2.597899 4.473168 -1.326016 5 0 5 
z
" style="stroke: #000000; stroke-width: 1.2"/>
     </defs>
     <g>
      <use xlink:href="#m6149ef191e" x="333.169004" y="285.595879" style="fill: #31688e; stroke: #000000; stroke-width: 1.2"/>
     </g>
    </g>
    <g id="text_15">
     <!-- DLM_2 -->
     <g style="fill: #262626" transform="translate(361.969004 291.195879) scale(0.16 -0.16)">
      <defs>
       <path id="ArialMT-44" d="M 494 0 
L 494 4581 
L 2072 4581 
Q 2606 4581 2888 4516 
Q 3281 4425 3559 4188 
Q 3922 3881 4101 3404 
Q 4281 2928 4281 2316 
Q 4281 1794 4159 1391 
Q 4038 988 3847 723 
Q 3656 459 3429 307 
Q 3203 156 2883 78 
Q 2563 0 2147 0 
L 494 0 
z
M 1100 541 
L 2078 541 
Q 2531 541 2789 625 
Q 3047 709 3200 863 
Q 3416 1078 3536 1442 
Q 3656 1806 3656 2325 
Q 3656 3044 3420 3430 
Q 3184 3816 2847 3947 
Q 2603 4041 2063 4041 
L 1100 4041 
L 1100 541 
z
" transform="scale(0.015625)"/>
      </defs>
      <use xlink:href="#ArialMT-44"/>
      <use xlink:href="#ArialMT-4c" transform="translate(72.216797 0)"/>
      <use xlink:href="#ArialMT-4d" transform="translate(127.832031 0)"/>
      <use xlink:href="#ArialMT-5f" transform="translate(211.132812 0)"/>
      <use xlink:href="#ArialMT-32" transform="translate(266.748047 0)"/>
     </g>
    </g>
    <g id="LineCollection_3">
     <path d="M 325.169004 308.275879 
L 341.169004 308.275879 
" style="fill: none; stroke: #21918c; stroke-width: 3"/>
    </g>
    <g id="line2d_20">
     <defs>
      <path id="mafce35a691" d="M 0 6 
L 0 -6 
" style="stroke: #21918c; stroke-width: 1.2"/>
     </defs>
     <g>
      <use xlink:href="#mafce35a691" x="325.169004" y="308.275879" style="fill: #21918c; stroke: #21918c; stroke-width: 1.2"/>
     </g>
    </g>
    <g id="line2d_21">
     <g>
      <use xlink:href="#mafce35a691" x="341.169004" y="308.275879" style="fill: #21918c; stroke: #21918c; stroke-width: 1.2"/>
     </g>
    </g>
    <g id="line2d_22"/>
    <g id="line2d_23">
     <defs>
      <path id="mccd73255f6" d="M 0 5 
C 1.326016 5 2.597899 4.473168 3.535534 3.535534 
C 4.473168 2.597899 5 1.326016 5 0 
C 5 -1.326016 4.473168 -2.597899 3.535534 -3.535534 
C 2.597899 -4.473168 1.326016 -5 0 -5 
C -1.326016 -5 -2.597899 -4.473168 -3.535534 -3.535534 
C -4.473168 -2.597899 -5 -1.326016 -5 0 
C -5 1.326016 -4.473168 2.597899 -3.535534 3.535534 
C -2.597899 4.473168 -1.326016 5 0 5 
z
" style="stroke: #000000; stroke-width: 1.2"/>
     </defs>
     <g>
      <use xlink:href="#mccd73255f6" x="333.169004" y="308.275879" style="fill: #21918c; stroke: #000000; stroke-width: 1.2"/>
     </g>
    </g>
    <g id="text_16">
     <!-- DLM_3 -->
     <g style="fill: #262626" transform="translate(361.969004 313.875879) scale(0.16 -0.16)">
      <defs>
       <path id="ArialMT-33" d="M 269 1209 
L 831 1284 
Q 928 806 1161 595 
Q 1394 384 1728 384 
Q 2125 384 2398 659 
Q 2672 934 2672 1341 
Q 2672 1728 2419 1979 
Q 2166 2231 1775 2231 
Q 1616 2231 1378 2169 
L 1441 2663 
Q 1497 2656 1531 2656 
Q 1891 2656 2178 2843 
Q 2466 3031 2466 3422 
Q 2466 3731 2256 3934 
Q 2047 4138 1716 4138 
Q 1388 4138 1169 3931 
Q 950 3725 888 3313 
L 325 3413 
Q 428 3978 793 4289 
Q 1159 4600 1703 4600 
Q 2078 4600 2393 4439 
Q 2709 4278 2876 4000 
Q 3044 3722 3044 3409 
Q 3044 3113 2884 2869 
Q 2725 2625 2413 2481 
Q 2819 2388 3044 2092 
Q 3269 1797 3269 1353 
Q 3269 753 2831 336 
Q 2394 -81 1725 -81 
Q 1122 -81 723 278 
Q 325 638 269 1209 
z
" transform="scale(0.015625)"/>
      </defs>
      <use xlink:href="#ArialMT-44"/>
      <use xlink:href="#ArialMT-4c" transform="translate(72.216797 0)"/>
      <use xlink:href="#ArialMT-4d" transform="translate(127.832031 0)"/>
      <use xlink:href="#ArialMT-5f" transform="translate(211.132812 0)"/>
      <use xlink:href="#ArialMT-33" transform="translate(266.748047 0)"/>
     </g>
    </g>
    <g id="LineCollection_4">
     <path d="M 325.169004 331.103379 
L 341.169004 331.103379 
" style="fill: none; stroke: #35b779; stroke-width: 3"/>
    </g>
    <g id="line2d_24">
     <defs>
      <path id="m827239763a" d="M 0 6 
L 0 -6 
" style="stroke: #35b779; stroke-width: 1.2"/>
     </defs>
     <g>
      <use xlink:href="#m827239763a" x="325.169004" y="331.103379" style="fill: #35b779; stroke: #35b779; stroke-width: 1.2"/>
     </g>
    </g>
    <g id="line2d_25">
     <g>
      <use xlink:href="#m827239763a" x="341.169004" y="331.103379" style="fill: #35b779; stroke: #35b779; stroke-width: 1.2"/>
     </g>
    </g>
    <g id="line2d_26"/>
    <g id="line2d_27">
     <defs>
      <path id="madd2eaefdc" d="M 0 5 
C 1.326016 5 2.597899 4.473168 3.535534 3.535534 
C 4.473168 2.597899 5 1.326016 5 0 
C 5 -1.326016 4.473168 -2.597899 3.535534 -3.535534 
C 2.597899 -4.473168 1.326016 -5 0 -5 
C -1.326016 -5 -2.597899 -4.473168 -3.535534 -3.535534 
C -4.473168 -2.597899 -5 -1.326016 -5 0 
C -5 1.326016 -4.473168 2.597899 -3.535534 3.535534 
C -2.597899 4.473168 -1.326016 5 0 5 
z
" style="stroke: #000000; stroke-width: 1.2"/>
     </defs>
     <g>
      <use xlink:href="#madd2eaefdc" x="333.169004" y="331.103379" style="fill: #35b779; stroke: #000000; stroke-width: 1.2"/>
     </g>
    </g>
    <g id="text_17">
     <!-- LM_C -->
     <g style="fill: #262626" transform="translate(361.969004 336.703379) scale(0.16 -0.16)">
      <defs>
       <path id="ArialMT-43" d="M 3763 1606 
L 4369 1453 
Q 4178 706 3683 314 
Q 3188 -78 2472 -78 
Q 1731 -78 1267 223 
Q 803 525 561 1097 
Q 319 1669 319 2325 
Q 319 3041 592 3573 
Q 866 4106 1370 4382 
Q 1875 4659 2481 4659 
Q 3169 4659 3637 4309 
Q 4106 3959 4291 3325 
L 3694 3184 
Q 3534 3684 3231 3912 
Q 2928 4141 2469 4141 
Q 1941 4141 1586 3887 
Q 1231 3634 1087 3207 
Q 944 2781 944 2328 
Q 944 1744 1114 1308 
Q 1284 872 1643 656 
Q 2003 441 2422 441 
Q 2931 441 3284 734 
Q 3638 1028 3763 1606 
z
" transform="scale(0.015625)"/>
      </defs>
      <use xlink:href="#ArialMT-4c"/>
      <use xlink:href="#ArialMT-4d" transform="translate(55.615234 0)"/>
      <use xlink:href="#ArialMT-5f" transform="translate(138.916016 0)"/>
      <use xlink:href="#ArialMT-43" transform="translate(194.53125 0)"/>
     </g>
    </g>
    <g id="LineCollection_5">
     <path d="M 325.169004 353.735879 
L 341.169004 353.735879 
" style="fill: none; stroke: #90d743; stroke-width: 3"/>
    </g>
    <g id="line2d_28">
     <defs>
      <path id="m92e011ffeb" d="M 0 6 
L 0 -6 
" style="stroke: #90d743; stroke-width: 1.2"/>
     </defs>
     <g>
      <use xlink:href="#m92e011ffeb" x="325.169004" y="353.735879" style="fill: #90d743; stroke: #90d743; stroke-width: 1.2"/>
     </g>
    </g>
    <g id="line2d_29">
     <g>
      <use xlink:href="#m92e011ffeb" x="341.169004" y="353.735879" style="fill: #90d743; stroke: #90d743; stroke-width: 1.2"/>
     </g>
    </g>
    <g id="line2d_30"/>
    <g id="line2d_31">
     <defs>
      <path id="mba2a63362e" d="M 0 5 
C 1.326016 5 2.597899 4.473168 3.535534 3.535534 
C 4.473168 2.597899 5 1.326016 5 0 
C 5 -1.326016 4.473168 -2.597899 3.535534 -3.535534 
C 2.597899 -4.473168 1.326016 -5 0 -5 
C -1.326016 -5 -2.597899 -4.473168 -3.535534 -3.535534 
C -4.473168 -2.597899 -5 -1.326016 -5 0 
C -5 1.326016 -4.473168 2.597899 -3.535534 3.535534 
C -2.597899 4.473168 -1.326016 5 0 5 
z
" style="stroke: #000000; stroke-width: 1.2"/>
     </defs>
     <g>
      <use xlink:href="#mba2a63362e" x="333.169004" y="353.735879" style="fill: #90d743; stroke: #000000; stroke-width: 1.2"/>
     </g>
    </g>
    <g id="text_18">
     <!-- LM_L -->
     <g style="fill: #262626" transform="translate(361.969004 359.335879) scale(0.16 -0.16)">
      <use xlink:href="#ArialMT-4c"/>
      <use xlink:href="#ArialMT-4d" transform="translate(55.615234 0)"/>
      <use xlink:href="#ArialMT-5f" transform="translate(138.916016 0)"/>
      <use xlink:href="#ArialMT-4c" transform="translate(194.53125 0)"/>
     </g>
    </g>
   </g>
   <g id="LineCollection_6">
    <path d="M 358.356326 100.967606 
L 396.854263 100.967606 
" clip-path="url(#p43cd4dbe0d)" style="fill: none; stroke: #443983; stroke-width: 3"/>
   </g>
   <g id="line2d_32">
    <g clip-path="url(#p43cd4dbe0d)">
     <use xlink:href="#m0b9e6069fc" x="358.356326" y="100.967606" style="fill: #443983; stroke: #443983; stroke-width: 1.2"/>
    </g>
   </g>
   <g id="line2d_33">
    <g clip-path="url(#p43cd4dbe0d)">
     <use xlink:href="#m0b9e6069fc" x="396.854263" y="100.967606" style="fill: #443983; stroke: #443983; stroke-width: 1.2"/>
    </g>
   </g>
   <g id="LineCollection_7">
    <path d="M 290.877152 139.380248 
L 327.487177 139.380248 
" clip-path="url(#p43cd4dbe0d)" style="fill: none; stroke: #31688e; stroke-width: 3"/>
   </g>
   <g id="line2d_34">
    <g clip-path="url(#p43cd4dbe0d)">
     <use xlink:href="#m9b2718b29a" x="290.877152" y="139.380248" style="fill: #31688e; stroke: #31688e; stroke-width: 1.2"/>
    </g>
   </g>
   <g id="line2d_35">
    <g clip-path="url(#p43cd4dbe0d)">
     <use xlink:href="#m9b2718b29a" x="327.487177" y="139.380248" style="fill: #31688e; stroke: #31688e; stroke-width: 1.2"/>
    </g>
   </g>
   <g id="LineCollection_8">
    <path d="M 228.79164 177.280897 
L 264.879465 177.280897 
" clip-path="url(#p43cd4dbe0d)" style="fill: none; stroke: #21918c; stroke-width: 3"/>
   </g>
   <g id="line2d_36">
    <g clip-path="url(#p43cd4dbe0d)">
     <use xlink:href="#mafce35a691" x="228.79164" y="177.280897" style="fill: #21918c; stroke: #21918c; stroke-width: 1.2"/>
    </g>
   </g>
   <g id="line2d_37">
    <g clip-path="url(#p43cd4dbe0d)">
     <use xlink:href="#mafce35a691" x="264.879465" y="177.280897" style="fill: #21918c; stroke: #21918c; stroke-width: 1.2"/>
    </g>
   </g>
   <g id="LineCollection_9">
    <path d="M 204.79692 191.899776 
L 241.046444 191.899776 
" clip-path="url(#p43cd4dbe0d)" style="fill: none; stroke: #35b779; stroke-width: 3"/>
   </g>
   <g id="line2d_38">
    <g clip-path="url(#p43cd4dbe0d)">
     <use xlink:href="#m827239763a" x="204.79692" y="191.899776" style="fill: #35b779; stroke: #35b779; stroke-width: 1.2"/>
    </g>
   </g>
   <g id="line2d_39">
    <g clip-path="url(#p43cd4dbe0d)">
     <use xlink:href="#m827239763a" x="241.046444" y="191.899776" style="fill: #35b779; stroke: #35b779; stroke-width: 1.2"/>
    </g>
   </g>
   <g id="LineCollection_10">
    <path d="M 88.611278 303.854702 
L 128.522391 303.854702 
" clip-path="url(#p43cd4dbe0d)" style="fill: none; stroke: #90d743; stroke-width: 3"/>
   </g>
   <g id="line2d_40">
    <g clip-path="url(#p43cd4dbe0d)">
     <use xlink:href="#m92e011ffeb" x="88.611278" y="303.854702" style="fill: #90d743; stroke: #90d743; stroke-width: 1.2"/>
    </g>
   </g>
   <g id="line2d_41">
    <g clip-path="url(#p43cd4dbe0d)">
     <use xlink:href="#m92e011ffeb" x="128.522391" y="303.854702" style="fill: #90d743; stroke: #90d743; stroke-width: 1.2"/>
    </g>
   </g>
   <g id="line2d_42">
    <g clip-path="url(#p43cd4dbe0d)">
     <use xlink:href="#m465d9067d8" x="377.605294" y="100.967606" style="fill: #443983; stroke: #000000; stroke-width: 1.2"/>
    </g>
   </g>
   <g id="line2d_43">
    <g clip-path="url(#p43cd4dbe0d)">
     <use xlink:href="#m6149ef191e" x="309.182164" y="139.380248" style="fill: #31688e; stroke: #000000; stroke-width: 1.2"/>
    </g>
   </g>
   <g id="line2d_44">
    <g clip-path="url(#p43cd4dbe0d)">
     <use xlink:href="#mccd73255f6" x="246.835552" y="177.280897" style="fill: #21918c; stroke: #000000; stroke-width: 1.2"/>
    </g>
   </g>
   <g id="line2d_45">
    <g clip-path="url(#p43cd4dbe0d)">
     <use xlink:href="#madd2eaefdc" x="222.921682" y="191.899776" style="fill: #35b779; stroke: #000000; stroke-width: 1.2"/>
    </g>
   </g>
   <g id="line2d_46">
    <g clip-path="url(#p43cd4dbe0d)">
     <use xlink:href="#mba2a63362e" x="108.566834" y="303.854702" style="fill: #90d743; stroke: #000000; stroke-width: 1.2"/>
    </g>
   </g>
  </g>
 </g>
 <defs>
  <clipPath id="p43cd4dbe0d">
   <rect x="58.228125" y="7.2" width="369.715879" height="369.715879"/>
  </clipPath>
 </defs>
</svg>
