<?xml version="1.0" encoding="utf-8" standalone="no"?>
<!DOCTYPE svg PUBLIC "-//W3C//DTD SVG 1.1//EN"
  "http://www.w3.org/Graphics/SVG/1.1/DTD/svg11.dtd">
<svg xmlns:xlink="http://www.w3.org/1999/xlink" width="768.271406pt" height="507.554062pt" viewBox="0 0 768.271406 507.554062" xmlns="http://www.w3.org/2000/svg" version="1.1">
 <metadata>
  <rdf:RDF xmlns:dc="http://purl.org/dc/elements/1.1/" xmlns:cc="http://creativecommons.org/ns#" xmlns:rdf="http://www.w3.org/1999/02/22-rdf-syntax-ns#">
   <cc:Work>
    <dc:type rdf:resource="http://purl.org/dc/dcmitype/StillImage"/>
    <dc:date>2026-03-11T16:45:05.730650</dc:date>
    <dc:format>image/svg+xml</dc:format>
    <dc:creator>
     <cc:Agent>
      <dc:title>Matplotlib v3.10.0, https://matplotlib.org/</dc:title>
     </cc:Agent>
    </dc:creator>
   </cc:Work>
  </rdf:RDF>
 </metadata>
 <defs>
  <style type="text/css">*{stroke-linejoin: round; stroke-linecap: butt}</style>
 </defs>
 <g id="figure_1">
  <g id="patch_1">
   <path d="M -0 507.554062 
L 768.271406 507.554062 
L 768.271406 0 
L -0 0 
z
" style="fill: #ffffff"/>
  </g>
  <g id="axes_1">
   <g id="patch_2">
    <path d="M 76.456875 450.72 
L 746.056875 450.72 
L 746.056875 7.2 
L 76.456875 7.2 
z
" style="fill: #ffffff"/>
   </g>
   <g id="patch_3">
    <path d="M 202.006875 450.72 
L 327.556875 450.72 
L 327.556875 7.2 
L 202.006875 7.2 
z
" clip-path="url(#pa867bfe1ac)" style="fill: #d9d9d9; opacity: 0.7; stroke: #d9d9d9; stroke-width: 1.5; stroke-linejoin: miter"/>
   </g>
   <g id="matplotlib.axis_1">
    <g id="xtick_1">
     <g id="line2d_1">
      <path d="M 76.456875 450.72 
L 76.456875 7.2 
" clip-path="url(#pa867bfe1ac)" style="fill: none; stroke-dasharray: 5.55,2.4; stroke-dashoffset: 0; stroke: #cccccc; stroke-opacity: 0.35; stroke-width: 1.5"/>
     </g>
     <g id="text_1">
      <!-- 0 -->
      <g style="fill: #262626" transform="translate(71.452031 476.104062) scale(0.18 -0.18)">
       <defs>
        <path id="ArialMT-30" d="M 266 2259 
Q 266 3072 433 3567 
Q 600 4063 929 4331 
Q 1259 4600 1759 4600 
Q 2128 4600 2406 4451 
Q 2684 4303 2865 4023 
Q 3047 3744 3150 3342 
Q 3253 2941 3253 2259 
Q 3253 1453 3087 958 
Q 2922 463 2592 192 
Q 2263 -78 1759 -78 
Q 1097 -78 719 397 
Q 266 969 266 2259 
z
M 844 2259 
Q 844 1131 1108 757 
Q 1372 384 1759 384 
Q 2147 384 2411 759 
Q 2675 1134 2675 2259 
Q 2675 3391 2411 3762 
Q 2147 4134 1753 4134 
Q 1366 4134 1134 3806 
Q 844 3388 844 2259 
z
" transform="scale(0.015625)"/>
       </defs>
       <use xlink:href="#ArialMT-30"/>
      </g>
     </g>
    </g>
    <g id="xtick_2">
     <g id="line2d_2">
      <path d="M 160.156875 450.72 
L 160.156875 7.2 
" clip-path="url(#pa867bfe1ac)" style="fill: none; stroke-dasharray: 5.55,2.4; stroke-dashoffset: 0; stroke: #cccccc; stroke-opacity: 0.35; stroke-width: 1.5"/>
     </g>
     <g id="text_2">
      <!-- 100 -->
      <g style="fill: #262626" transform="translate(145.142344 476.104062) scale(0.18 -0.18)">
       <defs>
        <path id="ArialMT-31" d="M 2384 0 
L 1822 0 
L 1822 3584 
Q 1619 3391 1289 3197 
Q 959 3003 697 2906 
L 697 3450 
Q 1169 3672 1522 3987 
Q 1875 4303 2022 4600 
L 2384 4600 
L 2384 0 
z
" transform="scale(0.015625)"/>
       </defs>
       <use xlink:href="#ArialMT-31"/>
       <use xlink:href="#ArialMT-30" transform="translate(55.615234 0)"/>
       <use xlink:href="#ArialMT-30" transform="translate(111.230469 0)"/>
      </g>
     </g>
    </g>
    <g id="xtick_3">
     <g id="line2d_3">
      <path d="M 243.856875 450.72 
L 243.856875 7.2 
" clip-path="url(#pa867bfe1ac)" style="fill: none; stroke-dasharray: 5.55,2.4; stroke-dashoffset: 0; stroke: #cccccc; stroke-opacity: 0.35; stroke-width: 1.5"/>
     </g>
     <g id="text_3">
      <!-- 200 -->
      <g style="fill: #262626" transform="translate(228.842344 476.104062) scale(0.18 -0.18)">
       <defs>
        <path id="ArialMT-32" d="M 3222 541 
L 3222 0 
L 194 0 
Q 188 203 259 391 
Q 375 700 629 1000 
Q 884 1300 1366 1694 
Q 2113 2306 2375 2664 
Q 2638 3022 2638 3341 
Q 2638 3675 2398 3904 
Q 2159 4134 1775 4134 
Q 1369 4134 1125 3890 
Q 881 3647 878 3216 
L 300 3275 
Q 359 3922 746 4261 
Q 1134 4600 1788 4600 
Q 2447 4600 2831 4234 
Q 3216 3869 3216 3328 
Q 3216 3053 3103 2787 
Q 2991 2522 2730 2228 
Q 2469 1934 1863 1422 
Q 1356 997 1212 845 
Q 1069 694 975 541 
L 3222 541 
z
" transform="scale(0.015625)"/>
       </defs>
       <use xlink:href="#ArialMT-32"/>
       <use xlink:href="#ArialMT-30" transform="translate(55.615234 0)"/>
       <use xlink:href="#ArialMT-30" transform="translate(111.230469 0)"/>
      </g>
     </g>
    </g>
    <g id="xtick_4">
     <g id="line2d_4">
      <path d="M 327.556875 450.72 
L 327.556875 7.2 
" clip-path="url(#pa867bfe1ac)" style="fill: none; stroke-dasharray: 5.55,2.4; stroke-dashoffset: 0; stroke: #cccccc; stroke-opacity: 0.35; stroke-width: 1.5"/>
     </g>
     <g id="text_4">
      <!-- 300 -->
      <g style="fill: #262626" transform="translate(312.542344 476.104062) scale(0.18 -0.18)">
       <defs>
        <path id="ArialMT-33" d="M 269 1209 
L 831 1284 
Q 928 806 1161 595 
Q 1394 384 1728 384 
Q 2125 384 2398 659 
Q 2672 934 2672 1341 
Q 2672 1728 2419 1979 
Q 2166 2231 1775 2231 
Q 1616 2231 1378 2169 
L 1441 2663 
Q 1497 2656 1531 2656 
Q 1891 2656 2178 2843 
Q 2466 3031 2466 3422 
Q 2466 3731 2256 3934 
Q 2047 4138 1716 4138 
Q 1388 4138 1169 3931 
Q 950 3725 888 3313 
L 325 3413 
Q 428 3978 793 4289 
Q 1159 4600 1703 4600 
Q 2078 4600 2393 4439 
Q 2709 4278 2876 4000 
Q 3044 3722 3044 3409 
Q 3044 3113 2884 2869 
Q 2725 2625 2413 2481 
Q 2819 2388 3044 2092 
Q 3269 1797 3269 1353 
Q 3269 753 2831 336 
Q 2394 -81 1725 -81 
Q 1122 -81 723 278 
Q 325 638 269 1209 
z
" transform="scale(0.015625)"/>
       </defs>
       <use xlink:href="#ArialMT-33"/>
       <use xlink:href="#ArialMT-30" transform="translate(55.615234 0)"/>
       <use xlink:href="#ArialMT-30" transform="translate(111.230469 0)"/>
      </g>
     </g>
    </g>
    <g id="xtick_5">
     <g id="line2d_5">
      <path d="M 411.256875 450.72 
L 411.256875 7.2 
" clip-path="url(#pa867bfe1ac)" style="fill: none; stroke-dasharray: 5.55,2.4; stroke-dashoffset: 0; stroke: #cccccc; stroke-opacity: 0.35; stroke-width: 1.5"/>
     </g>
     <g id="text_5">
      <!-- 400 -->
      <g style="fill: #262626" transform="translate(396.242344 476.104062) scale(0.18 -0.18)">
       <defs>
        <path id="ArialMT-34" d="M 2069 0 
L 2069 1097 
L 81 1097 
L 81 1613 
L 2172 4581 
L 2631 4581 
L 2631 1613 
L 3250 1613 
L 3250 1097 
L 2631 1097 
L 2631 0 
L 2069 0 
z
M 2069 1613 
L 2069 3678 
L 634 1613 
L 2069 1613 
z
" transform="scale(0.015625)"/>
       </defs>
       <use xlink:href="#ArialMT-34"/>
       <use xlink:href="#ArialMT-30" transform="translate(55.615234 0)"/>
       <use xlink:href="#ArialMT-30" transform="translate(111.230469 0)"/>
      </g>
     </g>
    </g>
    <g id="xtick_6">
     <g id="line2d_6">
      <path d="M 494.956875 450.72 
L 494.956875 7.2 
" clip-path="url(#pa867bfe1ac)" style="fill: none; stroke-dasharray: 5.55,2.4; stroke-dashoffset: 0; stroke: #cccccc; stroke-opacity: 0.35; stroke-width: 1.5"/>
     </g>
     <g id="text_6">
      <!-- 500 -->
      <g style="fill: #262626" transform="translate(479.942344 476.104062) scale(0.18 -0.18)">
       <defs>
        <path id="ArialMT-35" d="M 266 1200 
L 856 1250 
Q 922 819 1161 601 
Q 1400 384 1738 384 
Q 2144 384 2425 690 
Q 2706 997 2706 1503 
Q 2706 1984 2436 2262 
Q 2166 2541 1728 2541 
Q 1456 2541 1237 2417 
Q 1019 2294 894 2097 
L 366 2166 
L 809 4519 
L 3088 4519 
L 3088 3981 
L 1259 3981 
L 1013 2750 
Q 1425 3038 1878 3038 
Q 2478 3038 2890 2622 
Q 3303 2206 3303 1553 
Q 3303 931 2941 478 
Q 2500 -78 1738 -78 
Q 1113 -78 717 272 
Q 322 622 266 1200 
z
" transform="scale(0.015625)"/>
       </defs>
       <use xlink:href="#ArialMT-35"/>
       <use xlink:href="#ArialMT-30" transform="translate(55.615234 0)"/>
       <use xlink:href="#ArialMT-30" transform="translate(111.230469 0)"/>
      </g>
     </g>
    </g>
    <g id="xtick_7">
     <g id="line2d_7">
      <path d="M 578.656875 450.72 
L 578.656875 7.2 
" clip-path="url(#pa867bfe1ac)" style="fill: none; stroke-dasharray: 5.55,2.4; stroke-dashoffset: 0; stroke: #cccccc; stroke-opacity: 0.35; stroke-width: 1.5"/>
     </g>
     <g id="text_7">
      <!-- 600 -->
      <g style="fill: #262626" transform="translate(563.642344 476.104062) scale(0.18 -0.18)">
       <defs>
        <path id="ArialMT-36" d="M 3184 3459 
L 2625 3416 
Q 2550 3747 2413 3897 
Q 2184 4138 1850 4138 
Q 1581 4138 1378 3988 
Q 1113 3794 959 3422 
Q 806 3050 800 2363 
Q 1003 2672 1297 2822 
Q 1591 2972 1913 2972 
Q 2475 2972 2870 2558 
Q 3266 2144 3266 1488 
Q 3266 1056 3080 686 
Q 2894 316 2569 119 
Q 2244 -78 1831 -78 
Q 1128 -78 684 439 
Q 241 956 241 2144 
Q 241 3472 731 4075 
Q 1159 4600 1884 4600 
Q 2425 4600 2770 4297 
Q 3116 3994 3184 3459 
z
M 888 1484 
Q 888 1194 1011 928 
Q 1134 663 1356 523 
Q 1578 384 1822 384 
Q 2178 384 2434 671 
Q 2691 959 2691 1453 
Q 2691 1928 2437 2201 
Q 2184 2475 1800 2475 
Q 1419 2475 1153 2201 
Q 888 1928 888 1484 
z
" transform="scale(0.015625)"/>
       </defs>
       <use xlink:href="#ArialMT-36"/>
       <use xlink:href="#ArialMT-30" transform="translate(55.615234 0)"/>
       <use xlink:href="#ArialMT-30" transform="translate(111.230469 0)"/>
      </g>
     </g>
    </g>
    <g id="xtick_8">
     <g id="line2d_8">
      <path d="M 662.356875 450.72 
L 662.356875 7.2 
" clip-path="url(#pa867bfe1ac)" style="fill: none; stroke-dasharray: 5.55,2.4; stroke-dashoffset: 0; stroke: #cccccc; stroke-opacity: 0.35; stroke-width: 1.5"/>
     </g>
     <g id="text_8">
      <!-- 700 -->
      <g style="fill: #262626" transform="translate(647.342344 476.104062) scale(0.18 -0.18)">
       <defs>
        <path id="ArialMT-37" d="M 303 3981 
L 303 4522 
L 3269 4522 
L 3269 4084 
Q 2831 3619 2401 2847 
Q 1972 2075 1738 1259 
Q 1569 684 1522 0 
L 944 0 
Q 953 541 1156 1306 
Q 1359 2072 1739 2783 
Q 2119 3494 2547 3981 
L 303 3981 
z
" transform="scale(0.015625)"/>
       </defs>
       <use xlink:href="#ArialMT-37"/>
       <use xlink:href="#ArialMT-30" transform="translate(55.615234 0)"/>
       <use xlink:href="#ArialMT-30" transform="translate(111.230469 0)"/>
      </g>
     </g>
    </g>
    <g id="xtick_9">
     <g id="line2d_9">
      <path d="M 746.056875 450.72 
L 746.056875 7.2 
" clip-path="url(#pa867bfe1ac)" style="fill: none; stroke-dasharray: 5.55,2.4; stroke-dashoffset: 0; stroke: #cccccc; stroke-opacity: 0.35; stroke-width: 1.5"/>
     </g>
     <g id="text_9">
      <!-- 800 -->
      <g style="fill: #262626" transform="translate(731.042344 476.104062) scale(0.18 -0.18)">
       <defs>
        <path id="ArialMT-38" d="M 1131 2484 
Q 781 2613 612 2850 
Q 444 3088 444 3419 
Q 444 3919 803 4259 
Q 1163 4600 1759 4600 
Q 2359 4600 2725 4251 
Q 3091 3903 3091 3403 
Q 3091 3084 2923 2848 
Q 2756 2613 2416 2484 
Q 2838 2347 3058 2040 
Q 3278 1734 3278 1309 
Q 3278 722 2862 322 
Q 2447 -78 1769 -78 
Q 1091 -78 675 323 
Q 259 725 259 1325 
Q 259 1772 486 2073 
Q 713 2375 1131 2484 
z
M 1019 3438 
Q 1019 3113 1228 2906 
Q 1438 2700 1772 2700 
Q 2097 2700 2305 2904 
Q 2513 3109 2513 3406 
Q 2513 3716 2298 3927 
Q 2084 4138 1766 4138 
Q 1444 4138 1231 3931 
Q 1019 3725 1019 3438 
z
M 838 1322 
Q 838 1081 952 856 
Q 1066 631 1291 507 
Q 1516 384 1775 384 
Q 2178 384 2440 643 
Q 2703 903 2703 1303 
Q 2703 1709 2433 1975 
Q 2163 2241 1756 2241 
Q 1359 2241 1098 1978 
Q 838 1716 838 1322 
z
" transform="scale(0.015625)"/>
       </defs>
       <use xlink:href="#ArialMT-38"/>
       <use xlink:href="#ArialMT-30" transform="translate(55.615234 0)"/>
       <use xlink:href="#ArialMT-30" transform="translate(111.230469 0)"/>
      </g>
     </g>
    </g>
    <g id="text_10">
     <!-- Frequency [Hz] -->
     <g style="fill: #262626" transform="translate(346.252969 496.565625) scale(0.18 -0.18)">
      <defs>
       <path id="Arial-BoldMT-46" d="M 472 0 
L 472 4581 
L 3613 4581 
L 3613 3806 
L 1397 3806 
L 1397 2722 
L 3309 2722 
L 3309 1947 
L 1397 1947 
L 1397 0 
L 472 0 
z
" transform="scale(0.015625)"/>
       <path id="Arial-BoldMT-72" d="M 1300 0 
L 422 0 
L 422 3319 
L 1238 3319 
L 1238 2847 
Q 1447 3181 1614 3287 
Q 1781 3394 1994 3394 
Q 2294 3394 2572 3228 
L 2300 2463 
Q 2078 2606 1888 2606 
Q 1703 2606 1575 2504 
Q 1447 2403 1373 2137 
Q 1300 1872 1300 1025 
L 1300 0 
z
" transform="scale(0.015625)"/>
       <path id="Arial-BoldMT-65" d="M 2381 1056 
L 3256 909 
Q 3088 428 2723 176 
Q 2359 -75 1813 -75 
Q 947 -75 531 491 
Q 203 944 203 1634 
Q 203 2459 634 2926 
Q 1066 3394 1725 3394 
Q 2466 3394 2894 2905 
Q 3322 2416 3303 1406 
L 1103 1406 
Q 1113 1016 1316 798 
Q 1519 581 1822 581 
Q 2028 581 2168 693 
Q 2309 806 2381 1056 
z
M 2431 1944 
Q 2422 2325 2234 2523 
Q 2047 2722 1778 2722 
Q 1491 2722 1303 2513 
Q 1116 2303 1119 1944 
L 2431 1944 
z
" transform="scale(0.015625)"/>
       <path id="Arial-BoldMT-71" d="M 2628 -1263 
L 2628 406 
Q 2456 184 2200 54 
Q 1944 -75 1647 -75 
Q 1081 -75 716 350 
Q 284 847 284 1697 
Q 284 2497 689 2945 
Q 1094 3394 1694 3394 
Q 2025 3394 2267 3253 
Q 2509 3113 2697 2828 
L 2697 3319 
L 3506 3319 
L 3506 -1263 
L 2628 -1263 
z
M 2656 1700 
Q 2656 2209 2448 2457 
Q 2241 2706 1928 2706 
Q 1609 2706 1395 2453 
Q 1181 2200 1181 1650 
Q 1181 1103 1387 861 
Q 1594 619 1897 619 
Q 2200 619 2428 891 
Q 2656 1163 2656 1700 
z
" transform="scale(0.015625)"/>
       <path id="Arial-BoldMT-75" d="M 2644 0 
L 2644 497 
Q 2463 231 2167 78 
Q 1872 -75 1544 -75 
Q 1209 -75 943 72 
Q 678 219 559 484 
Q 441 750 441 1219 
L 441 3319 
L 1319 3319 
L 1319 1794 
Q 1319 1094 1367 936 
Q 1416 778 1544 686 
Q 1672 594 1869 594 
Q 2094 594 2272 717 
Q 2450 841 2515 1023 
Q 2581 1206 2581 1919 
L 2581 3319 
L 3459 3319 
L 3459 0 
L 2644 0 
z
" transform="scale(0.015625)"/>
       <path id="Arial-BoldMT-6e" d="M 3478 0 
L 2600 0 
L 2600 1694 
Q 2600 2231 2544 2389 
Q 2488 2547 2361 2634 
Q 2234 2722 2056 2722 
Q 1828 2722 1647 2597 
Q 1466 2472 1398 2265 
Q 1331 2059 1331 1503 
L 1331 0 
L 453 0 
L 453 3319 
L 1269 3319 
L 1269 2831 
Q 1703 3394 2363 3394 
Q 2653 3394 2893 3289 
Q 3134 3184 3257 3021 
Q 3381 2859 3429 2653 
Q 3478 2447 3478 2063 
L 3478 0 
z
" transform="scale(0.015625)"/>
       <path id="Arial-BoldMT-63" d="M 3353 2338 
L 2488 2181 
Q 2444 2441 2289 2572 
Q 2134 2703 1888 2703 
Q 1559 2703 1364 2476 
Q 1169 2250 1169 1719 
Q 1169 1128 1367 884 
Q 1566 641 1900 641 
Q 2150 641 2309 783 
Q 2469 925 2534 1272 
L 3397 1125 
Q 3263 531 2881 228 
Q 2500 -75 1859 -75 
Q 1131 -75 698 384 
Q 266 844 266 1656 
Q 266 2478 700 2936 
Q 1134 3394 1875 3394 
Q 2481 3394 2839 3133 
Q 3197 2872 3353 2338 
z
" transform="scale(0.015625)"/>
       <path id="Arial-BoldMT-79" d="M 44 3319 
L 978 3319 
L 1772 963 
L 2547 3319 
L 3456 3319 
L 2284 125 
L 2075 -453 
Q 1959 -744 1854 -897 
Q 1750 -1050 1614 -1145 
Q 1478 -1241 1279 -1294 
Q 1081 -1347 831 -1347 
Q 578 -1347 334 -1294 
L 256 -606 
Q 463 -647 628 -647 
Q 934 -647 1081 -467 
Q 1228 -288 1306 -9 
L 44 3319 
z
" transform="scale(0.015625)"/>
       <path id="Arial-BoldMT-20" transform="scale(0.015625)"/>
       <path id="Arial-BoldMT-5b" d="M 456 -1291 
L 456 4581 
L 2013 4581 
L 2013 3891 
L 1291 3891 
L 1291 -600 
L 2013 -600 
L 2013 -1291 
L 456 -1291 
z
" transform="scale(0.015625)"/>
       <path id="Arial-BoldMT-48" d="M 469 0 
L 469 4581 
L 1394 4581 
L 1394 2778 
L 3206 2778 
L 3206 4581 
L 4131 4581 
L 4131 0 
L 3206 0 
L 3206 2003 
L 1394 2003 
L 1394 0 
L 469 0 
z
" transform="scale(0.015625)"/>
       <path id="Arial-BoldMT-7a" d="M 106 0 
L 106 684 
L 1350 2113 
Q 1656 2463 1803 2609 
Q 1650 2600 1400 2597 
L 228 2591 
L 228 3319 
L 2972 3319 
L 2972 2697 
L 1703 1234 
L 1256 750 
Q 1622 772 1709 772 
L 3069 772 
L 3069 0 
L 106 0 
z
" transform="scale(0.015625)"/>
       <path id="Arial-BoldMT-5d" d="M 1675 4581 
L 1675 -1291 
L 119 -1291 
L 119 -600 
L 841 -600 
L 841 3897 
L 119 3897 
L 119 4581 
L 1675 4581 
z
" transform="scale(0.015625)"/>
      </defs>
      <use xlink:href="#Arial-BoldMT-46"/>
      <use xlink:href="#Arial-BoldMT-72" transform="translate(61.083984 0)"/>
      <use xlink:href="#Arial-BoldMT-65" transform="translate(100 0)"/>
      <use xlink:href="#Arial-BoldMT-71" transform="translate(155.615234 0)"/>
      <use xlink:href="#Arial-BoldMT-75" transform="translate(216.699219 0)"/>
      <use xlink:href="#Arial-BoldMT-65" transform="translate(277.783203 0)"/>
      <use xlink:href="#Arial-BoldMT-6e" transform="translate(333.398438 0)"/>
      <use xlink:href="#Arial-BoldMT-63" transform="translate(394.482422 0)"/>
      <use xlink:href="#Arial-BoldMT-79" transform="translate(450.097656 0)"/>
      <use xlink:href="#Arial-BoldMT-20" transform="translate(505.712891 0)"/>
      <use xlink:href="#Arial-BoldMT-5b" transform="translate(533.496094 0)"/>
      <use xlink:href="#Arial-BoldMT-48" transform="translate(566.796875 0)"/>
      <use xlink:href="#Arial-BoldMT-7a" transform="translate(639.013672 0)"/>
      <use xlink:href="#Arial-BoldMT-5d" transform="translate(689.013672 0)"/>
     </g>
    </g>
   </g>
   <g id="matplotlib.axis_2">
    <g id="ytick_1">
     <g id="line2d_10">
      <path d="M 76.456875 450.72 
L 746.056875 450.72 
" clip-path="url(#pa867bfe1ac)" style="fill: none; stroke-dasharray: 5.55,2.4; stroke-dashoffset: 0; stroke: #cccccc; stroke-opacity: 0.35; stroke-width: 1.5"/>
     </g>
     <g id="text_11">
      <!-- -200 -->
      <g style="fill: #262626" transform="translate(27.934375 457.162031) scale(0.18 -0.18)">
       <defs>
        <path id="ArialMT-2d" d="M 203 1375 
L 203 1941 
L 1931 1941 
L 1931 1375 
L 203 1375 
z
" transform="scale(0.015625)"/>
       </defs>
       <use xlink:href="#ArialMT-2d"/>
       <use xlink:href="#ArialMT-32" transform="translate(33.300781 0)"/>
       <use xlink:href="#ArialMT-30" transform="translate(88.916016 0)"/>
       <use xlink:href="#ArialMT-30" transform="translate(144.53125 0)"/>
      </g>
     </g>
    </g>
    <g id="ytick_2">
     <g id="line2d_11">
      <path d="M 76.456875 371.52 
L 746.056875 371.52 
" clip-path="url(#pa867bfe1ac)" style="fill: none; stroke-dasharray: 5.55,2.4; stroke-dashoffset: 0; stroke: #cccccc; stroke-opacity: 0.35; stroke-width: 1.5"/>
     </g>
     <g id="text_12">
      <!-- -150 -->
      <g style="fill: #262626" transform="translate(27.934375 377.962031) scale(0.18 -0.18)">
       <use xlink:href="#ArialMT-2d"/>
       <use xlink:href="#ArialMT-31" transform="translate(33.300781 0)"/>
       <use xlink:href="#ArialMT-35" transform="translate(88.916016 0)"/>
       <use xlink:href="#ArialMT-30" transform="translate(144.53125 0)"/>
      </g>
     </g>
    </g>
    <g id="ytick_3">
     <g id="line2d_12">
      <path d="M 76.456875 292.32 
L 746.056875 292.32 
" clip-path="url(#pa867bfe1ac)" style="fill: none; stroke-dasharray: 5.55,2.4; stroke-dashoffset: 0; stroke: #cccccc; stroke-opacity: 0.35; stroke-width: 1.5"/>
     </g>
     <g id="text_13">
      <!-- -100 -->
      <g style="fill: #262626" transform="translate(27.934375 298.762031) scale(0.18 -0.18)">
       <use xlink:href="#ArialMT-2d"/>
       <use xlink:href="#ArialMT-31" transform="translate(33.300781 0)"/>
       <use xlink:href="#ArialMT-30" transform="translate(88.916016 0)"/>
       <use xlink:href="#ArialMT-30" transform="translate(144.53125 0)"/>
      </g>
     </g>
    </g>
    <g id="ytick_4">
     <g id="line2d_13">
      <path d="M 76.456875 213.12 
L 746.056875 213.12 
" clip-path="url(#pa867bfe1ac)" style="fill: none; stroke-dasharray: 5.55,2.4; stroke-dashoffset: 0; stroke: #cccccc; stroke-opacity: 0.35; stroke-width: 1.5"/>
     </g>
     <g id="text_14">
      <!-- -50 -->
      <g style="fill: #262626" transform="translate(37.944063 219.562031) scale(0.18 -0.18)">
       <use xlink:href="#ArialMT-2d"/>
       <use xlink:href="#ArialMT-35" transform="translate(33.300781 0)"/>
       <use xlink:href="#ArialMT-30" transform="translate(88.916016 0)"/>
      </g>
     </g>
    </g>
    <g id="ytick_5">
     <g id="line2d_14">
      <path d="M 76.456875 133.92 
L 746.056875 133.92 
" clip-path="url(#pa867bfe1ac)" style="fill: none; stroke-dasharray: 5.55,2.4; stroke-dashoffset: 0; stroke: #cccccc; stroke-opacity: 0.35; stroke-width: 1.5"/>
     </g>
     <g id="text_15">
      <!-- 0 -->
      <g style="fill: #262626" transform="translate(53.947188 140.362031) scale(0.18 -0.18)">
       <use xlink:href="#ArialMT-30"/>
      </g>
     </g>
    </g>
    <g id="ytick_6">
     <g id="line2d_15">
      <path d="M 76.456875 54.72 
L 746.056875 54.72 
" clip-path="url(#pa867bfe1ac)" style="fill: none; stroke-dasharray: 5.55,2.4; stroke-dashoffset: 0; stroke: #cccccc; stroke-opacity: 0.35; stroke-width: 1.5"/>
     </g>
     <g id="text_16">
      <!-- 50 -->
      <g style="fill: #262626" transform="translate(43.9375 61.162031) scale(0.18 -0.18)">
       <use xlink:href="#ArialMT-35"/>
       <use xlink:href="#ArialMT-30" transform="translate(55.615234 0)"/>
      </g>
     </g>
    </g>
    <g id="text_17">
     <!-- PSD [dB] -->
     <g style="fill: #262626" transform="translate(20.303438 267.956719) rotate(-90) scale(0.18 -0.18)">
      <defs>
       <path id="Arial-BoldMT-50" d="M 466 0 
L 466 4581 
L 1950 4581 
Q 2794 4581 3050 4513 
Q 3444 4409 3709 4064 
Q 3975 3719 3975 3172 
Q 3975 2750 3822 2462 
Q 3669 2175 3433 2011 
Q 3197 1847 2953 1794 
Q 2622 1728 1994 1728 
L 1391 1728 
L 1391 0 
L 466 0 
z
M 1391 3806 
L 1391 2506 
L 1897 2506 
Q 2444 2506 2628 2578 
Q 2813 2650 2917 2803 
Q 3022 2956 3022 3159 
Q 3022 3409 2875 3571 
Q 2728 3734 2503 3775 
Q 2338 3806 1838 3806 
L 1391 3806 
z
" transform="scale(0.015625)"/>
       <path id="Arial-BoldMT-53" d="M 231 1491 
L 1131 1578 
Q 1213 1125 1461 912 
Q 1709 700 2131 700 
Q 2578 700 2804 889 
Q 3031 1078 3031 1331 
Q 3031 1494 2936 1608 
Q 2841 1722 2603 1806 
Q 2441 1863 1863 2006 
Q 1119 2191 819 2459 
Q 397 2838 397 3381 
Q 397 3731 595 4036 
Q 794 4341 1167 4500 
Q 1541 4659 2069 4659 
Q 2931 4659 3367 4281 
Q 3803 3903 3825 3272 
L 2900 3231 
Q 2841 3584 2645 3739 
Q 2450 3894 2059 3894 
Q 1656 3894 1428 3728 
Q 1281 3622 1281 3444 
Q 1281 3281 1419 3166 
Q 1594 3019 2269 2859 
Q 2944 2700 3267 2529 
Q 3591 2359 3773 2064 
Q 3956 1769 3956 1334 
Q 3956 941 3737 597 
Q 3519 253 3119 86 
Q 2719 -81 2122 -81 
Q 1253 -81 787 320 
Q 322 722 231 1491 
z
" transform="scale(0.015625)"/>
       <path id="Arial-BoldMT-44" d="M 463 4581 
L 2153 4581 
Q 2725 4581 3025 4494 
Q 3428 4375 3715 4072 
Q 4003 3769 4153 3330 
Q 4303 2891 4303 2247 
Q 4303 1681 4163 1272 
Q 3991 772 3672 463 
Q 3431 228 3022 97 
Q 2716 0 2203 0 
L 463 0 
L 463 4581 
z
M 1388 3806 
L 1388 772 
L 2078 772 
Q 2466 772 2638 816 
Q 2863 872 3011 1006 
Q 3159 1141 3253 1448 
Q 3347 1756 3347 2288 
Q 3347 2819 3253 3103 
Q 3159 3388 2990 3547 
Q 2822 3706 2563 3763 
Q 2369 3806 1803 3806 
L 1388 3806 
z
" transform="scale(0.015625)"/>
       <path id="Arial-BoldMT-64" d="M 3503 0 
L 2688 0 
L 2688 488 
Q 2484 203 2207 64 
Q 1931 -75 1650 -75 
Q 1078 -75 670 386 
Q 263 847 263 1672 
Q 263 2516 659 2955 
Q 1056 3394 1663 3394 
Q 2219 3394 2625 2931 
L 2625 4581 
L 3503 4581 
L 3503 0 
z
M 1159 1731 
Q 1159 1200 1306 963 
Q 1519 619 1900 619 
Q 2203 619 2415 876 
Q 2628 1134 2628 1647 
Q 2628 2219 2422 2470 
Q 2216 2722 1894 2722 
Q 1581 2722 1370 2473 
Q 1159 2225 1159 1731 
z
" transform="scale(0.015625)"/>
       <path id="Arial-BoldMT-42" d="M 469 4581 
L 2300 4581 
Q 2844 4581 3111 4536 
Q 3378 4491 3589 4347 
Q 3800 4203 3940 3964 
Q 4081 3725 4081 3428 
Q 4081 3106 3907 2837 
Q 3734 2569 3438 2434 
Q 3856 2313 4081 2019 
Q 4306 1725 4306 1328 
Q 4306 1016 4161 720 
Q 4016 425 3764 248 
Q 3513 72 3144 31 
Q 2913 6 2028 0 
L 469 0 
L 469 4581 
z
M 1394 3819 
L 1394 2759 
L 2000 2759 
Q 2541 2759 2672 2775 
Q 2909 2803 3045 2939 
Q 3181 3075 3181 3297 
Q 3181 3509 3064 3642 
Q 2947 3775 2716 3803 
Q 2578 3819 1925 3819 
L 1394 3819 
z
M 1394 1997 
L 1394 772 
L 2250 772 
Q 2750 772 2884 800 
Q 3091 838 3220 983 
Q 3350 1128 3350 1372 
Q 3350 1578 3250 1722 
Q 3150 1866 2961 1931 
Q 2772 1997 2141 1997 
L 1394 1997 
z
" transform="scale(0.015625)"/>
      </defs>
      <use xlink:href="#Arial-BoldMT-50"/>
      <use xlink:href="#Arial-BoldMT-53" transform="translate(66.699219 0)"/>
      <use xlink:href="#Arial-BoldMT-44" transform="translate(133.398438 0)"/>
      <use xlink:href="#Arial-BoldMT-20" transform="translate(205.615234 0)"/>
      <use xlink:href="#Arial-BoldMT-5b" transform="translate(233.398438 0)"/>
      <use xlink:href="#Arial-BoldMT-64" transform="translate(266.699219 0)"/>
      <use xlink:href="#Arial-BoldMT-42" transform="translate(327.783203 0)"/>
      <use xlink:href="#Arial-BoldMT-5d" transform="translate(400 0)"/>
     </g>
    </g>
   </g>
   <g id="patch_4">
    <path d="M 76.456875 450.72 
L 76.456875 7.2 
" style="fill: none; stroke: #262626; stroke-width: 1.875; stroke-linejoin: miter; stroke-linecap: square"/>
   </g>
   <g id="patch_5">
    <path d="M 746.056875 450.72 
L 746.056875 7.2 
" style="fill: none; stroke: #262626; stroke-width: 1.875; stroke-linejoin: miter; stroke-linecap: square"/>
   </g>
   <g id="patch_6">
    <path d="M 76.456875 450.72 
L 746.056875 450.72 
" style="fill: none; stroke: #262626; stroke-width: 1.875; stroke-linejoin: miter; stroke-linecap: square"/>
   </g>
   <g id="patch_7">
    <path d="M 76.456875 7.2 
L 746.056875 7.2 
" style="fill: none; stroke: #262626; stroke-width: 1.875; stroke-linejoin: miter; stroke-linecap: square"/>
   </g>
   <g id="text_18">
    <!-- Pacinian band-pass -->
    <g style="fill: #262626" transform="translate(189.655625 415.8825) scale(0.16 -0.16)">
     <defs>
      <path id="Arial-BoldMT-61" d="M 1116 2306 
L 319 2450 
Q 453 2931 781 3162 
Q 1109 3394 1756 3394 
Q 2344 3394 2631 3255 
Q 2919 3116 3036 2902 
Q 3153 2688 3153 2116 
L 3144 1091 
Q 3144 653 3186 445 
Q 3228 238 3344 0 
L 2475 0 
Q 2441 88 2391 259 
Q 2369 338 2359 363 
Q 2134 144 1878 34 
Q 1622 -75 1331 -75 
Q 819 -75 523 203 
Q 228 481 228 906 
Q 228 1188 362 1408 
Q 497 1628 739 1745 
Q 981 1863 1438 1950 
Q 2053 2066 2291 2166 
L 2291 2253 
Q 2291 2506 2166 2614 
Q 2041 2722 1694 2722 
Q 1459 2722 1328 2630 
Q 1197 2538 1116 2306 
z
M 2291 1594 
Q 2122 1538 1756 1459 
Q 1391 1381 1278 1306 
Q 1106 1184 1106 997 
Q 1106 813 1243 678 
Q 1381 544 1594 544 
Q 1831 544 2047 700 
Q 2206 819 2256 991 
Q 2291 1103 2291 1419 
L 2291 1594 
z
" transform="scale(0.015625)"/>
      <path id="Arial-BoldMT-69" d="M 459 3769 
L 459 4581 
L 1338 4581 
L 1338 3769 
L 459 3769 
z
M 459 0 
L 459 3319 
L 1338 3319 
L 1338 0 
L 459 0 
z
" transform="scale(0.015625)"/>
      <path id="Arial-BoldMT-62" d="M 422 0 
L 422 4581 
L 1300 4581 
L 1300 2931 
Q 1706 3394 2263 3394 
Q 2869 3394 3266 2955 
Q 3663 2516 3663 1694 
Q 3663 844 3258 384 
Q 2853 -75 2275 -75 
Q 1991 -75 1714 67 
Q 1438 209 1238 488 
L 1238 0 
L 422 0 
z
M 1294 1731 
Q 1294 1216 1456 969 
Q 1684 619 2063 619 
Q 2353 619 2558 867 
Q 2763 1116 2763 1650 
Q 2763 2219 2556 2470 
Q 2350 2722 2028 2722 
Q 1713 2722 1503 2476 
Q 1294 2231 1294 1731 
z
" transform="scale(0.015625)"/>
      <path id="Arial-BoldMT-2d" d="M 359 1222 
L 359 2100 
L 2084 2100 
L 2084 1222 
L 359 1222 
z
" transform="scale(0.015625)"/>
      <path id="Arial-BoldMT-70" d="M 434 3319 
L 1253 3319 
L 1253 2831 
Q 1413 3081 1684 3237 
Q 1956 3394 2288 3394 
Q 2866 3394 3269 2941 
Q 3672 2488 3672 1678 
Q 3672 847 3265 386 
Q 2859 -75 2281 -75 
Q 2006 -75 1782 34 
Q 1559 144 1313 409 
L 1313 -1263 
L 434 -1263 
L 434 3319 
z
M 1303 1716 
Q 1303 1156 1525 889 
Q 1747 622 2066 622 
Q 2372 622 2575 867 
Q 2778 1113 2778 1672 
Q 2778 2194 2568 2447 
Q 2359 2700 2050 2700 
Q 1728 2700 1515 2451 
Q 1303 2203 1303 1716 
z
" transform="scale(0.015625)"/>
      <path id="Arial-BoldMT-73" d="M 150 947 
L 1031 1081 
Q 1088 825 1259 692 
Q 1431 559 1741 559 
Q 2081 559 2253 684 
Q 2369 772 2369 919 
Q 2369 1019 2306 1084 
Q 2241 1147 2013 1200 
Q 950 1434 666 1628 
Q 272 1897 272 2375 
Q 272 2806 612 3100 
Q 953 3394 1669 3394 
Q 2350 3394 2681 3172 
Q 3013 2950 3138 2516 
L 2309 2363 
Q 2256 2556 2107 2659 
Q 1959 2763 1684 2763 
Q 1338 2763 1188 2666 
Q 1088 2597 1088 2488 
Q 1088 2394 1175 2328 
Q 1294 2241 1995 2081 
Q 2697 1922 2975 1691 
Q 3250 1456 3250 1038 
Q 3250 581 2869 253 
Q 2488 -75 1741 -75 
Q 1063 -75 667 200 
Q 272 475 150 947 
z
" transform="scale(0.015625)"/>
     </defs>
     <use xlink:href="#Arial-BoldMT-50"/>
     <use xlink:href="#Arial-BoldMT-61" transform="translate(66.699219 0)"/>
     <use xlink:href="#Arial-BoldMT-63" transform="translate(122.314453 0)"/>
     <use xlink:href="#Arial-BoldMT-69" transform="translate(177.929688 0)"/>
     <use xlink:href="#Arial-BoldMT-6e" transform="translate(205.712891 0)"/>
     <use xlink:href="#Arial-BoldMT-69" transform="translate(266.796875 0)"/>
     <use xlink:href="#Arial-BoldMT-61" transform="translate(294.580078 0)"/>
     <use xlink:href="#Arial-BoldMT-6e" transform="translate(350.195312 0)"/>
     <use xlink:href="#Arial-BoldMT-20" transform="translate(411.279297 0)"/>
     <use xlink:href="#Arial-BoldMT-62" transform="translate(439.0625 0)"/>
     <use xlink:href="#Arial-BoldMT-61" transform="translate(500.146484 0)"/>
     <use xlink:href="#Arial-BoldMT-6e" transform="translate(555.761719 0)"/>
     <use xlink:href="#Arial-BoldMT-64" transform="translate(616.845703 0)"/>
     <use xlink:href="#Arial-BoldMT-2d" transform="translate(677.929688 0)"/>
     <use xlink:href="#Arial-BoldMT-70" transform="translate(711.230469 0)"/>
     <use xlink:href="#Arial-BoldMT-61" transform="translate(772.314453 0)"/>
     <use xlink:href="#Arial-BoldMT-73" transform="translate(827.929688 0)"/>
     <use xlink:href="#Arial-BoldMT-73" transform="translate(883.544922 0)"/>
    </g>
   </g>
   <g id="legend_1">
    <g id="patch_8">
     <path d="M 591.206875 442.72 
L 734.856875 442.72 
Q 738.056875 442.72 738.056875 439.52 
L 738.056875 349.06 
Q 738.056875 345.86 734.856875 345.86 
L 591.206875 345.86 
Q 588.006875 345.86 588.006875 349.06 
L 588.006875 439.52 
Q 588.006875 442.72 591.206875 442.72 
z
" style="fill: #ffffff; opacity: 0.8; stroke: #cccccc; stroke-width: 1.5; stroke-linejoin: miter"/>
    </g>
    <g id="line2d_16">
     <path d="M 594.406875 358.3075 
L 610.406875 358.3075 
L 626.406875 358.3075 
" style="fill: none; stroke: #443983; stroke-width: 3.2; stroke-linecap: round"/>
    </g>
    <g id="text_19">
     <!-- ULM_L | m(t) -->
     <g style="fill: #262626" transform="translate(639.206875 363.9075) scale(0.16 -0.16)">
      <defs>
       <path id="ArialMT-55" d="M 3500 4581 
L 4106 4581 
L 4106 1934 
Q 4106 1244 3950 837 
Q 3794 431 3386 176 
Q 2978 -78 2316 -78 
Q 1672 -78 1262 144 
Q 853 366 678 786 
Q 503 1206 503 1934 
L 503 4581 
L 1109 4581 
L 1109 1938 
Q 1109 1341 1220 1058 
Q 1331 775 1601 622 
Q 1872 469 2263 469 
Q 2931 469 3215 772 
Q 3500 1075 3500 1938 
L 3500 4581 
z
" transform="scale(0.015625)"/>
       <path id="ArialMT-4c" d="M 469 0 
L 469 4581 
L 1075 4581 
L 1075 541 
L 3331 541 
L 3331 0 
L 469 0 
z
" transform="scale(0.015625)"/>
       <path id="ArialMT-4d" d="M 475 0 
L 475 4581 
L 1388 4581 
L 2472 1338 
Q 2622 884 2691 659 
Q 2769 909 2934 1394 
L 4031 4581 
L 4847 4581 
L 4847 0 
L 4263 0 
L 4263 3834 
L 2931 0 
L 2384 0 
L 1059 3900 
L 1059 0 
L 475 0 
z
" transform="scale(0.015625)"/>
       <path id="ArialMT-5f" d="M -97 -1272 
L -97 -866 
L 3631 -866 
L 3631 -1272 
L -97 -1272 
z
" transform="scale(0.015625)"/>
       <path id="ArialMT-20" transform="scale(0.015625)"/>
       <path id="ArialMT-7c" d="M 588 -1347 
L 588 4659 
L 1078 4659 
L 1078 -1347 
L 588 -1347 
z
" transform="scale(0.015625)"/>
       <path id="ArialMT-6d" d="M 422 0 
L 422 3319 
L 925 3319 
L 925 2853 
Q 1081 3097 1340 3245 
Q 1600 3394 1931 3394 
Q 2300 3394 2536 3241 
Q 2772 3088 2869 2813 
Q 3263 3394 3894 3394 
Q 4388 3394 4653 3120 
Q 4919 2847 4919 2278 
L 4919 0 
L 4359 0 
L 4359 2091 
Q 4359 2428 4304 2576 
Q 4250 2725 4106 2815 
Q 3963 2906 3769 2906 
Q 3419 2906 3187 2673 
Q 2956 2441 2956 1928 
L 2956 0 
L 2394 0 
L 2394 2156 
Q 2394 2531 2256 2718 
Q 2119 2906 1806 2906 
Q 1569 2906 1367 2781 
Q 1166 2656 1075 2415 
Q 984 2175 984 1722 
L 984 0 
L 422 0 
z
" transform="scale(0.015625)"/>
       <path id="ArialMT-28" d="M 1497 -1347 
Q 1031 -759 709 28 
Q 388 816 388 1659 
Q 388 2403 628 3084 
Q 909 3875 1497 4659 
L 1900 4659 
Q 1522 4009 1400 3731 
Q 1209 3300 1100 2831 
Q 966 2247 966 1656 
Q 966 153 1900 -1347 
L 1497 -1347 
z
" transform="scale(0.015625)"/>
       <path id="ArialMT-74" d="M 1650 503 
L 1731 6 
Q 1494 -44 1306 -44 
Q 1000 -44 831 53 
Q 663 150 594 308 
Q 525 466 525 972 
L 525 2881 
L 113 2881 
L 113 3319 
L 525 3319 
L 525 4141 
L 1084 4478 
L 1084 3319 
L 1650 3319 
L 1650 2881 
L 1084 2881 
L 1084 941 
Q 1084 700 1114 631 
Q 1144 563 1211 522 
Q 1278 481 1403 481 
Q 1497 481 1650 503 
z
" transform="scale(0.015625)"/>
       <path id="ArialMT-29" d="M 791 -1347 
L 388 -1347 
Q 1322 153 1322 1656 
Q 1322 2244 1188 2822 
Q 1081 3291 891 3722 
Q 769 4003 388 4659 
L 791 4659 
Q 1378 3875 1659 3084 
Q 1900 2403 1900 1659 
Q 1900 816 1576 28 
Q 1253 -759 791 -1347 
z
" transform="scale(0.015625)"/>
      </defs>
      <use xlink:href="#ArialMT-55"/>
      <use xlink:href="#ArialMT-4c" transform="translate(72.216797 0)"/>
      <use xlink:href="#ArialMT-4d" transform="translate(127.832031 0)"/>
      <use xlink:href="#ArialMT-5f" transform="translate(211.132812 0)"/>
      <use xlink:href="#ArialMT-4c" transform="translate(266.748047 0)"/>
      <use xlink:href="#ArialMT-20" transform="translate(318.613281 0)"/>
      <use xlink:href="#ArialMT-7c" transform="translate(346.396484 0)"/>
      <use xlink:href="#ArialMT-20" transform="translate(372.373047 0)"/>
      <use xlink:href="#ArialMT-6d" transform="translate(400.15625 0)"/>
      <use xlink:href="#ArialMT-28" transform="translate(483.457031 0)"/>
      <use xlink:href="#ArialMT-74" transform="translate(516.757812 0)"/>
      <use xlink:href="#ArialMT-29" transform="translate(544.541016 0)"/>
     </g>
    </g>
    <g id="line2d_17">
     <path d="M 594.406875 381.3225 
L 610.406875 381.3225 
L 626.406875 381.3225 
" style="fill: none; stroke-dasharray: 8.14,3.52; stroke-dashoffset: 0; stroke: #443983; stroke-opacity: 0.8; stroke-width: 2.2"/>
    </g>
    <g id="text_20">
     <!-- ULM_L | u(t) -->
     <g style="fill: #262626" transform="translate(639.206875 386.9225) scale(0.16 -0.16)">
      <defs>
       <path id="ArialMT-75" d="M 2597 0 
L 2597 488 
Q 2209 -75 1544 -75 
Q 1250 -75 995 37 
Q 741 150 617 320 
Q 494 491 444 738 
Q 409 903 409 1263 
L 409 3319 
L 972 3319 
L 972 1478 
Q 972 1038 1006 884 
Q 1059 663 1231 536 
Q 1403 409 1656 409 
Q 1909 409 2131 539 
Q 2353 669 2445 892 
Q 2538 1116 2538 1541 
L 2538 3319 
L 3100 3319 
L 3100 0 
L 2597 0 
z
" transform="scale(0.015625)"/>
      </defs>
      <use xlink:href="#ArialMT-55"/>
      <use xlink:href="#ArialMT-4c" transform="translate(72.216797 0)"/>
      <use xlink:href="#ArialMT-4d" transform="translate(127.832031 0)"/>
      <use xlink:href="#ArialMT-5f" transform="translate(211.132812 0)"/>
      <use xlink:href="#ArialMT-4c" transform="translate(266.748047 0)"/>
      <use xlink:href="#ArialMT-20" transform="translate(318.613281 0)"/>
      <use xlink:href="#ArialMT-7c" transform="translate(346.396484 0)"/>
      <use xlink:href="#ArialMT-20" transform="translate(372.373047 0)"/>
      <use xlink:href="#ArialMT-75" transform="translate(400.15625 0)"/>
      <use xlink:href="#ArialMT-28" transform="translate(455.771484 0)"/>
      <use xlink:href="#ArialMT-74" transform="translate(489.072266 0)"/>
      <use xlink:href="#ArialMT-29" transform="translate(516.855469 0)"/>
     </g>
    </g>
    <g id="line2d_18">
     <path d="M 594.406875 404.3375 
L 610.406875 404.3375 
L 626.406875 404.3375 
" style="fill: none; stroke: #90d743; stroke-width: 3.2; stroke-linecap: round"/>
    </g>
    <g id="text_21">
     <!-- LM_L | m(t) -->
     <g style="fill: #262626" transform="translate(639.206875 409.9375) scale(0.16 -0.16)">
      <use xlink:href="#ArialMT-4c"/>
      <use xlink:href="#ArialMT-4d" transform="translate(55.615234 0)"/>
      <use xlink:href="#ArialMT-5f" transform="translate(138.916016 0)"/>
      <use xlink:href="#ArialMT-4c" transform="translate(194.53125 0)"/>
      <use xlink:href="#ArialMT-20" transform="translate(246.396484 0)"/>
      <use xlink:href="#ArialMT-7c" transform="translate(274.179688 0)"/>
      <use xlink:href="#ArialMT-20" transform="translate(300.15625 0)"/>
      <use xlink:href="#ArialMT-6d" transform="translate(327.939453 0)"/>
      <use xlink:href="#ArialMT-28" transform="translate(411.240234 0)"/>
      <use xlink:href="#ArialMT-74" transform="translate(444.541016 0)"/>
      <use xlink:href="#ArialMT-29" transform="translate(472.324219 0)"/>
     </g>
    </g>
    <g id="line2d_19">
     <path d="M 594.406875 427.3525 
L 610.406875 427.3525 
L 626.406875 427.3525 
" style="fill: none; stroke-dasharray: 8.14,3.52; stroke-dashoffset: 0; stroke: #90d743; stroke-opacity: 0.8; stroke-width: 2.2"/>
    </g>
    <g id="text_22">
     <!-- LM_L | u(t) -->
     <g style="fill: #262626" transform="translate(639.206875 432.9525) scale(0.16 -0.16)">
      <use xlink:href="#ArialMT-4c"/>
      <use xlink:href="#ArialMT-4d" transform="translate(55.615234 0)"/>
      <use xlink:href="#ArialMT-5f" transform="translate(138.916016 0)"/>
      <use xlink:href="#ArialMT-4c" transform="translate(194.53125 0)"/>
      <use xlink:href="#ArialMT-20" transform="translate(246.396484 0)"/>
      <use xlink:href="#ArialMT-7c" transform="translate(274.179688 0)"/>
      <use xlink:href="#ArialMT-20" transform="translate(300.15625 0)"/>
      <use xlink:href="#ArialMT-75" transform="translate(327.939453 0)"/>
      <use xlink:href="#ArialMT-28" transform="translate(383.554688 0)"/>
      <use xlink:href="#ArialMT-74" transform="translate(416.855469 0)"/>
      <use xlink:href="#ArialMT-29" transform="translate(444.638672 0)"/>
     </g>
    </g>
   </g>
   <g id="line2d_20">
    <path d="M 76.456875 92.248525 
L 77.521176 82.753983 
L 79.649777 83.090822 
L 81.778378 83.765124 
L 83.906979 84.7776 
L 86.03558 86.127852 
L 88.164181 87.812279 
L 90.292782 89.820753 
L 92.421383 92.131886 
L 95.614285 96.076528 
L 99.871487 101.872652 
L 109.450192 115.024036 
L 110.514492 116.115738 
L 111.578793 116.783095 
L 112.643093 116.856047 
L 113.707394 116.282597 
L 114.771694 115.174608 
L 116.900295 112.161024 
L 119.028896 109.08982 
L 121.157498 106.484833 
L 123.286099 104.464639 
L 125.4147 102.994596 
L 127.543301 101.938909 
L 130.736202 100.519861 
L 131.800503 99.896933 
L 132.864803 99.129202 
L 134.993405 97.137045 
L 138.186306 93.486624 
L 140.314907 91.099645 
L 142.443508 88.979989 
L 144.572109 87.149236 
L 150.957913 82.044563 
L 153.086514 79.919517 
L 156.279415 76.307702 
L 160.536617 71.436613 
L 164.79382 66.94406 
L 169.051022 62.415744 
L 172.243923 58.688562 
L 180.758328 48.422757 
L 183.951229 45.075606 
L 187.144131 42.152769 
L 190.337032 39.65124 
L 193.529934 37.546761 
L 196.722836 35.818941 
L 198.851437 34.875105 
L 200.980038 34.10508 
L 203.108639 33.522454 
L 205.23724 33.14757 
L 207.365841 33.00776 
L 209.494442 33.1379 
L 211.623043 33.581533 
L 213.751644 34.392481 
L 215.880245 35.635527 
L 218.008846 37.379683 
L 220.137448 39.657447 
L 223.330349 43.514209 
L 224.39465 44.402549 
L 225.45895 44.704605 
L 226.523251 44.283461 
L 227.587551 43.228811 
L 229.716152 40.186648 
L 231.844753 37.108214 
L 233.973354 34.539096 
L 236.101956 32.553337 
L 238.230557 31.111893 
L 240.359158 30.165177 
L 242.487759 29.675474 
L 244.61636 29.620037 
L 246.744961 29.990561 
L 248.873562 30.793063 
L 251.002163 32.04942 
L 253.130764 33.801685 
L 255.259365 36.121322 
L 256.323666 37.528663 
L 257.387966 39.12856 
L 258.452267 40.950648 
L 259.516567 43.035971 
L 260.580868 45.443432 
L 261.645168 48.261555 
L 262.709469 51.631673 
L 263.77377 55.798079 
L 264.83807 61.227725 
L 265.902371 68.872972 
L 266.966671 78.393399 
L 268.030972 74.123119 
L 269.095272 66.858264 
L 270.159573 62.304872 
L 271.223873 59.324479 
L 272.288174 57.294359 
L 273.352474 55.901017 
L 274.416775 54.968247 
L 275.481075 54.386115 
L 276.545376 54.078959 
L 277.609677 53.989143 
L 278.673977 54.067847 
L 280.802578 54.54802 
L 283.99548 55.377885 
L 285.05978 55.513836 
L 286.124081 55.537139 
L 288.252682 55.26071 
L 291.445583 54.392395 
L 294.638485 53.572294 
L 296.767086 53.20868 
L 299.959988 52.91232 
L 311.667294 52.33648 
L 314.860195 52.413105 
L 318.053097 52.775826 
L 321.245999 53.434188 
L 324.4389 54.340889 
L 328.696102 55.833033 
L 332.953304 57.603969 
L 336.146206 59.157609 
L 339.339108 60.950916 
L 342.532009 62.984624 
L 347.853512 66.716141 
L 360.625118 75.930022 
L 369.139523 82.52929 
L 372.332424 84.673474 
L 378.718228 88.822353 
L 381.911129 91.279132 
L 385.104031 94.144216 
L 388.296932 97.409289 
L 391.489834 100.833534 
L 392.554135 101.853105 
L 393.618435 102.6908 
L 394.682736 103.252599 
L 395.747036 103.463834 
L 396.811337 103.303935 
L 397.875637 102.820107 
L 400.004238 101.272299 
L 402.132839 99.578377 
L 404.26144 98.193077 
L 405.325741 97.680266 
L 406.390042 97.302264 
L 407.454342 97.064568 
L 408.518643 96.97061 
L 409.582943 97.022991 
L 410.647244 97.224277 
L 411.711544 97.577575 
L 412.775845 98.086981 
L 413.840145 98.758002 
L 414.904446 99.598022 
L 415.968746 100.616878 
L 417.033047 101.827648 
L 418.097347 103.247773 
L 419.161648 104.900738 
L 420.225948 106.818673 
L 421.290249 109.04654 
L 422.35455 111.649132 
L 423.41885 114.72316 
L 424.483151 118.41829 
L 425.547451 122.968678 
L 426.611752 128.678049 
L 427.676052 135.1462 
L 428.740353 137.258652 
L 430.868954 129.042914 
L 431.933254 126.147304 
L 432.997555 124.18637 
L 434.061855 122.895623 
L 435.126156 122.10158 
L 436.190457 121.690292 
L 437.254757 121.582735 
L 438.319058 121.720364 
L 439.383358 122.05675 
L 440.447659 122.552701 
L 442.57626 123.887645 
L 445.769161 126.319338 
L 450.026364 129.520563 
L 452.154965 130.858883 
L 454.283566 131.871406 
L 456.412167 132.494246 
L 459.605068 132.954563 
L 461.733669 133.321253 
L 463.862271 134.018122 
L 465.990872 135.164322 
L 468.119473 136.714589 
L 470.248074 138.38689 
L 471.312374 139.10867 
L 472.376675 139.659857 
L 473.440975 139.998846 
L 474.505276 140.130409 
L 476.633877 140.000117 
L 478.762478 139.863016 
L 479.826779 139.95159 
L 480.891079 140.197404 
L 481.95538 140.62177 
L 483.01968 141.233755 
L 484.083981 142.029549 
L 486.212582 144.066106 
L 488.341183 146.221186 
L 489.405483 147.036482 
L 490.469784 147.50754 
L 491.534084 147.598415 
L 492.598385 147.381892 
L 495.791287 146.267863 
L 496.855587 146.106473 
L 497.919888 146.148444 
L 498.984188 146.417098 
L 500.048489 146.921981 
L 501.112789 147.660664 
L 502.17709 148.615711 
L 506.434292 153.135612 
L 507.498593 153.712891 
L 508.562893 153.817019 
L 509.627194 153.526039 
L 512.820095 152.068366 
L 513.884396 151.847678 
L 514.948696 151.877726 
L 516.012997 152.188799 
L 517.077297 152.800094 
L 518.141598 153.723674 
L 519.205898 154.961968 
L 520.270199 156.495299 
L 522.3988 160.04444 
L 523.463101 161.517763 
L 524.527401 162.217508 
L 525.591702 161.94062 
L 526.656002 160.95551 
L 528.784603 158.570247 
L 529.848904 157.671738 
L 530.913204 157.092536 
L 531.977505 156.855565 
L 533.041805 156.967818 
L 534.106106 157.432657 
L 535.170406 158.253552 
L 536.234707 159.431661 
L 537.299008 160.954711 
L 540.491909 166.430635 
L 541.55621 167.384713 
L 542.62051 167.229202 
L 543.684811 166.203294 
L 545.813412 163.58251 
L 546.877712 162.593532 
L 547.942013 161.959958 
L 549.006313 161.706921 
L 550.070614 161.845223 
L 551.134915 162.387253 
L 552.199215 163.35436 
L 553.263516 164.780299 
L 554.327816 166.70974 
L 555.392117 169.179856 
L 557.520718 175.142533 
L 558.585018 176.881448 
L 559.649319 176.092626 
L 562.84222 169.136298 
L 563.906521 167.621375 
L 564.970822 166.624287 
L 566.035122 166.101805 
L 567.099423 166.021321 
L 568.163723 166.364977 
L 569.228024 167.128492 
L 570.292324 168.317664 
L 571.356625 169.93973 
L 572.420925 171.978993 
L 574.549526 176.635426 
L 575.613827 178.143886 
L 576.678127 178.128648 
L 577.742428 176.829307 
L 579.871029 173.54926 
L 580.93533 172.388689 
L 581.99963 171.68919 
L 583.063931 171.465343 
L 584.128231 171.72871 
L 585.192532 172.508074 
L 586.256832 173.864316 
L 587.321133 175.912034 
L 588.385433 178.862621 
L 589.449734 183.11693 
L 590.514034 189.388404 
L 591.578335 196.655551 
L 592.642635 192.94459 
L 593.706936 185.83686 
L 594.771237 180.977398 
L 595.835537 177.685082 
L 596.899838 175.427784 
L 597.964138 173.9251 
L 599.028439 173.025591 
L 600.092739 172.64766 
L 601.15704 172.753323 
L 602.22134 173.337669 
L 603.285641 174.427743 
L 604.349941 176.090378 
L 605.414242 178.45409 
L 606.478542 181.761765 
L 607.542843 186.505279 
L 608.607144 193.76941 
L 609.671444 203.524469 
L 610.735745 197.627588 
L 611.800045 189.715863 
L 612.864346 184.882819 
L 613.928646 181.774465 
L 614.992947 179.754453 
L 616.057247 178.523275 
L 617.121548 177.930339 
L 618.185848 177.903507 
L 619.250149 178.422085 
L 620.314449 179.510035 
L 621.37875 181.244515 
L 622.443051 183.786979 
L 623.507351 187.46861 
L 624.571652 193.058054 
L 625.635952 202.907317 
L 626.700253 215.591721 
L 627.764553 199.794583 
L 628.828854 192.090458 
L 629.893154 187.625166 
L 630.957455 184.766341 
L 632.021755 182.925303 
L 633.086056 181.836086 
L 634.150356 181.368252 
L 635.214657 181.463764 
L 636.278958 182.11467 
L 637.343258 183.360408 
L 638.407559 185.302631 
L 639.471859 188.151136 
L 640.53616 192.35693 
L 641.60046 199.102774 
L 642.664761 213.719168 
L 643.729061 215.020588 
L 644.793362 199.996939 
L 645.857662 193.437356 
L 646.921963 189.503793 
L 647.986263 186.954646 
L 649.050564 185.322086 
L 650.114865 184.388973 
L 651.179165 184.049073 
L 652.243466 184.258833 
L 653.307766 185.021145 
L 654.372067 186.386191 
L 655.436367 188.469875 
L 656.500668 191.506139 
L 657.564968 195.994773 
L 658.629269 203.208446 
L 659.693569 216.483428 
L 660.75787 210.323846 
L 661.82217 200.262797 
L 662.886471 194.698379 
L 663.950771 191.171155 
L 665.015072 188.835072 
L 666.079373 187.326046 
L 667.143673 186.464299 
L 668.207974 186.158408 
L 669.272274 186.368938 
L 670.336575 187.09497 
L 671.400875 188.372783 
L 672.465176 190.284885 
L 673.529476 192.982581 
L 674.593777 196.724771 
L 675.658077 201.859357 
L 676.722378 207.694907 
L 677.786678 207.688665 
L 678.850979 202.226066 
L 679.91528 197.594761 
L 680.97958 194.345105 
L 682.043881 192.128925 
L 683.108181 190.695361 
L 684.172482 189.899577 
L 685.236782 189.664694 
L 686.301083 189.960263 
L 687.365383 190.794019 
L 688.429684 192.213533 
L 689.493984 194.317973 
L 690.558285 197.281673 
L 691.622585 201.370252 
L 692.686886 206.669445 
L 693.751187 210.516975 
L 694.815487 207.420291 
L 695.879788 202.322367 
L 696.944088 198.381008 
L 698.008389 195.583461 
L 699.072689 193.655382 
L 700.13699 192.40961 
L 701.20129 191.734548 
L 702.265591 191.568133 
L 703.329891 191.882198 
L 704.394192 192.674213 
L 705.458492 193.96226 
L 706.522793 195.777214 
L 707.587094 198.135161 
L 709.715695 203.634152 
L 710.779995 204.897809 
L 711.844296 203.800375 
L 713.972897 199.00883 
L 715.037197 197.072159 
L 716.101498 195.686148 
L 717.165798 194.833305 
L 718.230099 194.486163 
L 719.294399 194.631537 
L 720.3587 195.276968 
L 721.423 196.45317 
L 722.487301 198.213204 
L 723.551602 200.614141 
L 725.680203 206.628119 
L 726.744503 207.78612 
L 727.808804 205.810475 
L 729.937405 199.427734 
L 731.001705 196.955953 
L 732.066006 195.078854 
L 733.130306 193.723733 
L 734.194607 192.826634 
L 735.258907 192.342718 
L 736.323208 192.245029 
L 737.387509 192.522308 
L 738.451809 193.178122 
L 739.51611 194.231886 
L 740.58041 195.7224 
L 741.644711 197.715119 
L 742.709011 200.315254 
L 743.773312 203.688239 
L 744.837612 208.069206 
L 745.901913 213.542622 
L 746.966213 218.110764 
L 746.966213 218.110764 
" clip-path="url(#pa867bfe1ac)" style="fill: none; stroke-dasharray: 8.14,3.52; stroke-dashoffset: 0; stroke: #443983; stroke-opacity: 0.8; stroke-width: 2.2"/>
   </g>
   <g id="line2d_21">
    <path d="M 76.456875 104.321521 
L 77.521176 94.835352 
L 79.649777 95.238767 
L 81.778378 96.04353 
L 83.906979 97.24219 
L 86.03558 98.813947 
L 88.164181 100.70962 
L 94.549984 106.967522 
L 96.678585 108.540998 
L 98.807186 109.668542 
L 100.935787 110.475398 
L 104.128689 111.387845 
L 106.25729 111.798886 
L 108.385891 111.872241 
L 109.450192 111.716852 
L 110.514492 111.40829 
L 111.578793 110.941239 
L 112.643093 110.322774 
L 114.771694 108.708637 
L 117.964596 105.736303 
L 122.221798 101.689855 
L 125.4147 99.008532 
L 134.993405 91.545623 
L 139.250607 87.487068 
L 144.572109 82.4475 
L 152.022213 75.598636 
L 155.215115 72.32017 
L 163.729519 63.039356 
L 169.051022 57.11015 
L 174.372524 50.797963 
L 179.694027 44.483406 
L 182.886929 40.99169 
L 186.07983 37.854282 
L 189.272732 35.121733 
L 191.401333 33.535108 
L 193.529934 32.138196 
L 195.658535 30.930324 
L 197.787136 29.910178 
L 199.915737 29.076596 
L 202.044338 28.429163 
L 204.172939 27.968657 
L 206.301541 27.697371 
L 208.430142 27.619316 
L 210.558743 27.740264 
L 212.687344 28.06753 
L 214.815945 28.609281 
L 216.944546 29.372933 
L 219.073147 30.361761 
L 221.201748 31.568044 
L 224.39465 33.703835 
L 227.587551 35.91463 
L 229.716152 37.091893 
L 230.780453 37.497256 
L 231.844753 37.751003 
L 232.909054 37.848591 
L 233.973354 37.801978 
L 236.101956 37.386611 
L 241.423458 35.969806 
L 243.552059 35.719094 
L 245.68066 35.776153 
L 247.809261 36.174362 
L 249.937863 36.932158 
L 252.066464 38.058979 
L 254.195065 39.553144 
L 256.323666 41.389178 
L 259.516567 44.582632 
L 261.645168 46.674647 
L 262.709469 47.567605 
L 263.77377 48.286995 
L 264.83807 48.795353 
L 265.902371 49.082539 
L 266.966671 49.168967 
L 269.095272 48.92325 
L 273.352474 48.047122 
L 275.481075 47.819193 
L 277.609677 47.779638 
L 281.866879 48.018076 
L 285.05978 48.14266 
L 288.252682 48.016154 
L 292.509884 47.524611 
L 299.959988 46.594808 
L 305.28149 46.157719 
L 309.538693 45.982902 
L 312.731594 46.011727 
L 315.924496 46.230217 
L 319.117397 46.671817 
L 322.310299 47.349816 
L 325.503201 48.261043 
L 328.696102 49.394452 
L 331.889004 50.739138 
L 335.081906 52.28756 
L 338.274807 54.032338 
L 342.532009 56.63715 
L 347.853512 60.235877 
L 355.303616 65.61614 
L 370.203823 76.533696 
L 380.846829 83.877039 
L 382.97543 84.920206 
L 385.104031 85.587963 
L 387.232632 85.940805 
L 391.489834 86.510341 
L 393.618435 87.161575 
L 394.682736 87.654161 
L 395.747036 88.279567 
L 396.811337 89.050943 
L 397.875637 89.978247 
L 400.004238 92.30709 
L 403.19714 96.438278 
L 404.26144 97.4846 
L 405.325741 97.988334 
L 406.390042 97.810809 
L 407.454342 97.030425 
L 409.582943 94.590759 
L 411.711544 92.17787 
L 412.775845 91.180639 
L 413.840145 90.350546 
L 414.904446 89.689407 
L 415.968746 89.193651 
L 417.033047 88.857894 
L 418.097347 88.676683 
L 419.161648 88.645309 
L 420.225948 88.760185 
L 421.290249 89.019016 
L 422.35455 89.420893 
L 423.41885 89.966366 
L 424.483151 90.657547 
L 425.547451 91.498259 
L 426.611752 92.494261 
L 427.676052 93.653572 
L 428.740353 94.986937 
L 429.804653 96.508463 
L 430.868954 98.236514 
L 431.933254 100.194881 
L 432.997555 102.414239 
L 434.061855 104.933555 
L 435.126156 107.799975 
L 436.190457 111.061563 
L 439.383358 122.204484 
L 440.447659 124.004015 
L 441.511959 123.525433 
L 443.64056 120.440274 
L 444.704861 119.296566 
L 445.769161 118.597635 
L 446.833462 118.313347 
L 447.897762 118.400685 
L 448.962063 118.820409 
L 450.026364 119.537652 
L 451.090664 120.517096 
L 453.219265 123.066211 
L 455.347866 125.79175 
L 456.412167 126.854963 
L 457.476467 127.524627 
L 458.540768 127.768906 
L 459.605068 127.680421 
L 462.79797 126.926873 
L 463.862271 126.871813 
L 464.926571 126.99771 
L 465.990872 127.316171 
L 467.055172 127.82415 
L 468.119473 128.50615 
L 470.248074 130.259247 
L 472.376675 132.127526 
L 473.440975 132.894195 
L 474.505276 133.445511 
L 475.569576 133.754203 
L 476.633877 133.85093 
L 480.891079 133.687755 
L 481.95538 133.845132 
L 483.01968 134.152201 
L 484.083981 134.615941 
L 485.148281 135.230469 
L 487.276882 136.819218 
L 489.405483 138.56588 
L 490.469784 139.319396 
L 491.534084 139.895026 
L 492.598385 140.254563 
L 493.662686 140.408788 
L 495.791287 140.343364 
L 497.919888 140.277365 
L 498.984188 140.385701 
L 500.048489 140.62821 
L 501.112789 141.015322 
L 502.17709 141.543875 
L 504.305691 142.943079 
L 507.498593 145.185722 
L 508.562893 145.712857 
L 509.627194 146.052358 
L 510.691494 146.212956 
L 516.012997 146.40953 
L 517.077297 146.719892 
L 518.141598 147.187819 
L 519.205898 147.813087 
L 521.3345 149.452862 
L 523.463101 151.252303 
L 524.527401 151.989045 
L 525.591702 152.48816 
L 526.656002 152.702658 
L 527.720303 152.656844 
L 531.977505 151.7118 
L 533.041805 151.694655 
L 534.106106 151.853611 
L 535.170406 152.20149 
L 536.234707 152.738236 
L 537.299008 153.450239 
L 539.427609 155.251983 
L 541.55621 157.043399 
L 542.62051 157.657649 
L 543.684811 157.963872 
L 544.749111 157.960842 
L 546.877712 157.389743 
L 549.006313 156.84484 
L 550.070614 156.800919 
L 551.134915 156.979795 
L 552.199215 157.419227 
L 553.263516 158.155163 
L 554.327816 159.229526 
L 555.392117 160.69895 
L 556.456417 162.6471 
L 557.520718 165.2049 
L 558.585018 168.584035 
L 559.649319 173.104553 
L 560.713619 178.840601 
L 561.77792 182.139978 
L 562.84222 177.765869 
L 563.906521 172.280398 
L 564.970822 168.062108 
L 566.035122 164.87157 
L 567.099423 162.394351 
L 568.163723 160.425328 
L 569.228024 158.833721 
L 570.292324 157.533265 
L 571.356625 156.465235 
L 572.420925 155.588999 
L 573.485226 154.876551 
L 574.549526 154.309169 
L 575.613827 153.875212 
L 576.678127 153.568574 
L 577.742428 153.387532 
L 578.806729 153.333879 
L 579.871029 153.412299 
L 580.93533 153.629966 
L 581.99963 153.996377 
L 583.063931 154.523428 
L 584.128231 155.225779 
L 585.192532 156.121563 
L 586.256832 157.23356 
L 587.321133 158.591065 
L 588.385433 160.232828 
L 589.449734 162.211777 
L 590.514034 164.602726 
L 591.578335 167.514941 
L 592.642635 171.11025 
L 593.706936 175.607558 
L 594.771237 181.074783 
L 595.835537 185.75172 
L 596.899838 184.790092 
L 597.964138 180.721559 
L 599.028439 177.276683 
L 600.092739 174.854902 
L 601.15704 173.257731 
L 602.22134 172.307186 
L 603.285641 171.885923 
L 604.349941 171.919022 
L 605.414242 172.356908 
L 606.478542 173.161622 
L 607.542843 174.292143 
L 609.671444 177.21069 
L 610.735745 178.654536 
L 611.800045 179.700954 
L 612.864346 180.079548 
L 613.928646 179.774638 
L 618.185848 176.923911 
L 619.250149 176.698009 
L 620.314449 176.784766 
L 621.37875 177.191923 
L 622.443051 177.917399 
L 623.507351 178.946806 
L 625.635952 181.709674 
L 626.700253 183.171777 
L 627.764553 184.334852 
L 628.828854 184.883083 
L 629.893154 184.698623 
L 630.957455 183.971353 
L 633.086056 182.141272 
L 634.150356 181.461491 
L 635.214657 181.066146 
L 636.278958 180.988692 
L 637.343258 181.243107 
L 638.407559 181.833933 
L 639.471859 182.756949 
L 640.53616 183.990061 
L 643.729061 188.413263 
L 644.793362 189.178365 
L 645.857662 189.073024 
L 646.921963 188.231461 
L 649.050564 185.870011 
L 650.114865 184.898382 
L 651.179165 184.223563 
L 652.243466 183.881683 
L 653.307766 183.88659 
L 654.372067 184.245232 
L 655.436367 184.963297 
L 656.500668 186.044142 
L 657.564968 187.479086 
L 660.75787 192.83693 
L 661.82217 193.819439 
L 662.886471 193.673034 
L 663.950771 192.601244 
L 666.079373 189.792598 
L 667.143673 188.700085 
L 668.207974 187.96437 
L 669.272274 187.609575 
L 670.336575 187.64321 
L 671.400875 188.072209 
L 672.465176 188.908998 
L 673.529476 190.171793 
L 674.593777 191.876747 
L 675.658077 194.008362 
L 677.786678 198.67336 
L 678.850979 199.805857 
L 679.91528 199.179887 
L 680.97958 197.38036 
L 682.043881 195.360569 
L 683.108181 193.618422 
L 684.172482 192.306712 
L 685.236782 191.448295 
L 686.301083 191.032553 
L 687.365383 191.048167 
L 688.429684 191.493283 
L 689.493984 192.378143 
L 690.558285 193.723558 
L 691.622585 195.550876 
L 692.686886 197.844132 
L 693.751187 200.426819 
L 694.815487 202.670879 
L 695.879788 203.40318 
L 696.944088 202.155853 
L 699.072689 197.715997 
L 700.13699 195.903501 
L 701.20129 194.575369 
L 702.265591 193.725393 
L 703.329891 193.334048 
L 704.394192 193.391668 
L 705.458492 193.906563 
L 706.522793 194.910873 
L 707.587094 196.469351 
L 708.651394 198.694439 
L 709.715695 201.766849 
L 710.779995 205.913738 
L 711.844296 210.869606 
L 712.908596 212.968028 
L 713.972897 208.978949 
L 715.037197 204.064311 
L 716.101498 200.192124 
L 717.165798 197.274627 
L 718.230099 195.071866 
L 719.294399 193.410105 
L 720.3587 192.172193 
L 721.423 191.276477 
L 722.487301 190.662609 
L 723.551602 190.282715 
L 724.615902 190.095686 
L 725.680203 190.063259 
L 727.808804 190.307063 
L 731.001705 190.791287 
L 732.066006 190.795499 
L 733.130306 190.650382 
L 734.194607 190.330471 
L 735.258907 189.828686 
L 736.323208 189.157243 
L 738.451809 187.428048 
L 743.773312 182.636606 
L 745.901913 181.143164 
L 746.966213 180.554884 
L 746.966213 180.554884 
" clip-path="url(#pa867bfe1ac)" style="fill: none; stroke-dasharray: 8.14,3.52; stroke-dashoffset: 0; stroke: #90d743; stroke-opacity: 0.8; stroke-width: 2.2"/>
   </g>
   <g id="line2d_22">
    <path d="M 76.456875 46.112964 
L 77.521176 24.554116 
L 78.585476 16.062669 
L 79.649777 10.821517 
L 80.714077 7.134708 
L 81.778378 4.35761 
L 82.842678 2.186658 
L 83.906979 0.456184 
L 85.034717 -1 
M 100.166273 -1 
L 102.000088 0.90507 
L 104.128689 3.728807 
L 105.19299 5.415544 
L 106.25729 7.314784 
L 107.321591 9.458349 
L 108.385891 11.890717 
L 109.450192 14.676478 
L 110.514492 17.914472 
L 111.578793 21.767347 
L 112.643093 26.532558 
L 113.707394 32.852985 
L 114.771694 42.627095 
L 115.835995 71.486647 
L 116.900295 49.322526 
L 117.964596 40.144304 
L 119.028896 35.812954 
L 120.093197 33.417948 
L 121.157498 32.129852 
L 122.221798 31.603467 
L 123.286099 31.671498 
L 124.350399 32.251489 
L 125.4147 33.311649 
L 126.479 34.859319 
L 127.543301 36.94266 
L 128.607601 39.666793 
L 129.671902 43.238232 
L 130.736202 48.089609 
L 131.800503 55.327492 
L 132.864803 69.674763 
L 133.929104 75.264534 
L 134.993405 59.381731 
L 136.057705 53.164509 
L 137.122006 49.702521 
L 138.186306 47.650948 
L 139.250607 46.514766 
L 140.314907 46.065982 
L 141.379208 46.192178 
L 142.443508 46.844557 
L 143.507809 48.019623 
L 144.572109 49.757746 
L 145.63641 52.157425 
L 146.70071 55.417764 
L 147.765011 59.958792 
L 148.829312 66.850217 
L 149.893612 80.54929 
L 150.957913 87.601173 
L 152.022213 70.785425 
L 153.086514 64.254551 
L 154.150814 60.562556 
L 155.215115 58.31595 
L 156.279415 57.007313 
L 157.343716 56.404525 
L 158.408016 56.394181 
L 159.472317 56.928459 
L 160.536617 58.006913 
L 161.600918 59.676179 
L 162.665219 62.047336 
L 163.729519 65.346999 
L 164.79382 70.066868 
L 165.85812 77.536875 
L 166.922421 94.457494 
L 167.986721 90.686027 
L 169.051022 77.620256 
L 170.115322 71.738444 
L 171.179623 68.283474 
L 172.243923 66.145644 
L 173.308224 64.895309 
L 174.372524 64.331947 
L 175.436825 64.35947 
L 176.501125 64.943095 
L 177.565426 66.096124 
L 178.629727 67.884482 
L 179.694027 70.452816 
L 180.758328 74.098106 
L 181.822628 79.495801 
L 182.886929 88.641554 
L 183.951229 105.793216 
L 185.01553 89.581504 
L 186.07983 81.142636 
L 187.144131 76.503581 
L 188.208431 73.638383 
L 189.272732 71.867205 
L 190.337032 70.894831 
L 191.401333 70.581443 
L 192.465634 70.868799 
L 193.529934 71.754919 
L 194.594235 73.290685 
L 195.658535 75.592565 
L 196.722836 78.870219 
L 197.787136 83.42069 
L 198.851437 88.965736 
L 199.915737 90.689492 
L 202.044338 81.092862 
L 203.108639 77.613093 
L 204.172939 75.246615 
L 205.23724 73.752785 
L 206.301541 72.999755 
L 207.365841 72.938506 
L 208.430142 73.584475 
L 209.494442 75.002549 
L 210.558743 77.23622 
L 211.623043 79.883518 
L 212.687344 80.728331 
L 213.751644 77.376289 
L 215.880245 67.514161 
L 216.944546 63.467416 
L 218.008846 60.026483 
L 219.073147 57.063259 
L 220.137448 54.477034 
L 222.266049 50.160264 
L 224.39465 46.689006 
L 226.523251 43.84196 
L 228.651852 41.484109 
L 230.780453 39.529448 
L 232.909054 37.922035 
L 235.037655 36.62543 
L 237.166256 35.616362 
L 239.294857 34.880781 
L 241.423458 34.411364 
L 243.552059 34.206017 
L 245.68066 34.267051 
L 247.809261 34.600871 
L 249.937863 35.21806 
L 252.066464 36.133837 
L 254.195065 37.36892 
L 256.323666 38.950942 
L 258.452267 40.91672 
L 260.580868 43.315943 
L 262.709469 46.217417 
L 264.83807 49.720262 
L 266.966671 53.975514 
L 268.030972 56.457003 
L 269.095272 59.231999 
L 270.159573 62.364376 
L 271.223873 65.945551 
L 272.288174 70.110082 
L 273.352474 75.053988 
L 274.416775 80.997286 
L 275.481075 87.574539 
L 276.545376 91.067965 
L 277.609677 88.883098 
L 278.673977 85.94156 
L 279.738278 84.047985 
L 280.802578 83.158384 
L 281.866879 83.085049 
L 282.931179 83.706969 
L 283.99548 84.966827 
L 285.05978 86.853424 
L 286.124081 89.381328 
L 287.188381 92.538328 
L 288.252682 96.096968 
L 289.316982 99.111203 
L 290.381283 99.912364 
L 291.445583 98.490431 
L 292.509884 96.518392 
L 293.574185 94.958846 
L 294.638485 94.050992 
L 295.702786 93.817524 
L 296.767086 94.256849 
L 297.831387 95.399021 
L 298.895687 97.331538 
L 299.959988 100.226415 
L 301.024288 104.344778 
L 302.088589 109.609037 
L 303.152889 112.421242 
L 304.21719 108.414379 
L 305.28149 103.393068 
L 306.345791 99.628406 
L 307.410092 96.980553 
L 308.474392 95.185272 
L 309.538693 94.071228 
L 310.602993 93.540238 
L 311.667294 93.54427 
L 312.731594 94.074326 
L 313.795895 95.159545 
L 314.860195 96.877513 
L 315.924496 99.383829 
L 316.988796 102.98804 
L 318.053097 108.370944 
L 320.181698 126.238654 
L 321.245999 115.006815 
L 322.310299 107.716037 
L 323.3746 103.33438 
L 324.4389 100.502673 
L 325.503201 98.673192 
L 326.567501 97.590074 
L 327.631802 97.12594 
L 328.696102 97.223353 
L 329.760403 97.873261 
L 330.824703 99.111269 
L 331.889004 101.028232 
L 332.953304 103.800841 
L 334.017605 107.756392 
L 335.081906 113.427415 
L 336.146206 120.125755 
L 337.210507 118.583582 
L 338.274807 111.988887 
L 339.339108 107.104061 
L 340.403408 103.762656 
L 341.467709 101.478099 
L 342.532009 99.970522 
L 343.59631 99.085995 
L 344.66061 98.741876 
L 345.724911 98.900896 
L 346.789211 99.560544 
L 347.853512 100.751766 
L 348.917813 102.545671 
L 349.982113 105.069226 
L 351.046414 108.525188 
L 353.175015 118.215166 
L 354.239315 118.975122 
L 356.367916 110.07478 
L 357.432217 106.80836 
L 358.496517 104.515094 
L 359.560818 102.980556 
L 360.625118 102.067633 
L 361.689419 101.699085 
L 362.753719 101.840821 
L 363.81802 102.49464 
L 364.882321 103.699862 
L 365.946621 105.545642 
L 367.010922 108.20155 
L 368.075222 111.984524 
L 369.139523 117.462793 
L 370.203823 124.652058 
L 371.268124 124.625689 
L 372.332424 117.472363 
L 373.396725 112.025939 
L 374.461025 108.234291 
L 375.525326 105.51123 
L 376.589626 103.5144 
L 377.653927 102.037014 
L 378.718228 100.93532 
L 380.846829 99.384717 
L 382.97543 97.893523 
L 384.03973 96.872017 
L 385.104031 95.572613 
L 386.168331 94.005312 
L 388.296932 90.34782 
L 391.489834 84.685822 
L 393.618435 81.280246 
L 395.747036 78.287183 
L 397.875637 75.716461 
L 400.004238 73.557988 
L 402.132839 71.798971 
L 404.26144 70.428581 
L 406.390042 69.438584 
L 408.518643 68.822925 
L 410.647244 68.577175 
L 412.775845 68.698008 
L 414.904446 69.182668 
L 417.033047 70.028334 
L 419.161648 71.231307 
L 421.290249 72.785998 
L 423.41885 74.683874 
L 425.547451 76.912754 
L 427.676052 79.457339 
L 429.804653 82.302233 
L 431.933254 85.438581 
L 434.061855 88.873622 
L 436.190457 92.638321 
L 438.319058 96.781493 
L 440.447659 101.327104 
L 444.704861 110.7385 
L 445.769161 112.669453 
L 446.833462 114.235709 
L 447.897762 115.438744 
L 448.962063 116.356303 
L 451.090664 117.690997 
L 452.154965 118.162196 
L 453.219265 118.433141 
L 454.283566 118.417007 
L 455.347866 118.070498 
L 456.412167 117.436738 
L 459.605068 115.040242 
L 460.669369 114.457166 
L 461.733669 114.09953 
L 462.79797 114.002355 
L 463.862271 114.187861 
L 464.926571 114.66922 
L 465.990872 115.44925 
L 467.055172 116.511381 
L 470.248074 120.341838 
L 471.312374 120.951723 
L 472.376675 120.738633 
L 473.440975 119.806439 
L 476.633877 116.085236 
L 477.698177 115.247807 
L 478.762478 114.738667 
L 479.826779 114.578428 
L 480.891079 114.782113 
L 481.95538 115.367528 
L 483.01968 116.35886 
L 484.083981 117.785535 
L 485.148281 119.669684 
L 488.341183 126.400108 
L 489.405483 126.619591 
L 490.469784 124.996693 
L 492.598385 120.368007 
L 493.662686 118.50882 
L 494.726986 117.103229 
L 495.791287 116.131702 
L 496.855587 115.562801 
L 497.919888 115.369004 
L 498.984188 115.528997 
L 500.048489 116.025073 
L 501.112789 116.836951 
L 502.17709 117.930093 
L 505.369991 121.824796 
L 506.434292 122.574338 
L 507.498593 122.660161 
L 508.562893 122.150047 
L 511.755795 119.783683 
L 512.820095 119.38851 
L 513.884396 119.347445 
L 514.948696 119.709561 
L 516.012997 120.527507 
L 517.077297 121.874974 
L 518.141598 123.867813 
L 519.205898 126.697086 
L 520.270199 130.673357 
L 521.3345 136.101543 
L 522.3988 140.919735 
L 523.463101 137.903051 
L 524.527401 132.097591 
L 525.591702 127.637882 
L 526.656002 124.438085 
L 527.720303 122.149594 
L 528.784603 120.548479 
L 529.848904 119.501068 
L 530.913204 118.927421 
L 531.977505 118.780539 
L 533.041805 119.034644 
L 534.106106 119.677414 
L 535.170406 120.70214 
L 536.234707 122.094312 
L 539.427609 127.34675 
L 540.491909 128.262522 
L 541.55621 128.026756 
L 542.62051 126.870469 
L 544.749111 123.960317 
L 545.813412 122.848222 
L 546.877712 122.113332 
L 547.942013 121.785143 
L 549.006313 121.882564 
L 550.070614 122.433314 
L 551.134915 123.487725 
L 552.199215 125.136643 
L 553.263516 127.546225 
L 554.327816 131.042314 
L 555.392117 136.365896 
L 556.456417 145.749121 
L 557.520718 159.531108 
L 558.585018 143.243229 
L 559.649319 135.008329 
L 560.713619 130.10142 
L 561.77792 126.782447 
L 562.84222 124.422691 
L 563.906521 122.725767 
L 564.970822 121.5271 
L 566.035122 120.72367 
L 567.099423 120.243763 
L 568.163723 120.031737 
L 569.228024 120.03934 
L 570.292324 120.220482 
L 572.420925 120.916605 
L 578.806729 123.474508 
L 579.871029 124.086318 
L 580.93533 124.893962 
L 581.99963 125.969341 
L 583.063931 127.386451 
L 584.128231 129.213761 
L 585.192532 131.477261 
L 586.256832 134.018709 
L 587.321133 136.114664 
L 588.385433 136.336602 
L 589.449734 134.283698 
L 591.578335 128.436554 
L 592.642635 126.019087 
L 593.706936 124.080678 
L 594.771237 122.584419 
L 595.835537 121.48738 
L 596.899838 120.755834 
L 597.964138 120.367647 
L 599.028439 120.311966 
L 600.092739 120.589016 
L 601.15704 121.210943 
L 602.22134 122.204381 
L 603.285641 123.615901 
L 604.349941 125.522921 
L 605.414242 128.056436 
L 606.478542 131.453405 
L 607.542843 136.199772 
L 608.607144 143.549188 
L 609.671444 158.754968 
L 610.735745 156.449456 
L 611.800045 143.971747 
L 612.864346 138.096279 
L 613.928646 134.609597 
L 614.992947 132.431168 
L 616.057247 131.137482 
L 617.121548 130.531009 
L 618.185848 130.517929 
L 619.250149 131.065275 
L 620.314449 132.187129 
L 621.37875 133.946836 
L 622.443051 136.474353 
L 623.507351 140.002249 
L 624.571652 144.883834 
L 625.635952 150.94845 
L 626.700253 152.838032 
L 628.828854 142.840036 
L 629.893154 139.409823 
L 630.957455 137.097792 
L 632.021755 135.622456 
L 633.086056 134.817732 
L 634.150356 134.589883 
L 635.214657 134.88838 
L 636.278958 135.68653 
L 637.343258 136.960374 
L 638.407559 138.647372 
L 639.471859 140.550759 
L 640.53616 142.175376 
L 641.60046 142.741632 
L 642.664761 141.876031 
L 645.857662 136.575736 
L 646.921963 135.352764 
L 647.986263 134.585429 
L 649.050564 134.284148 
L 650.114865 134.461248 
L 651.179165 135.145238 
L 652.243466 136.390504 
L 653.307766 138.286404 
L 654.372067 140.956512 
L 656.500668 148.246616 
L 657.564968 149.401276 
L 658.629269 146.234382 
L 659.693569 142.049761 
L 660.75787 138.544381 
L 661.82217 135.855631 
L 662.886471 133.856632 
L 663.950771 132.428908 
L 665.015072 131.490914 
L 666.079373 130.992166 
L 667.143673 130.906276 
L 668.207974 131.227157 
L 669.272274 131.968682 
L 670.336575 133.168332 
L 671.400875 134.896987 
L 672.465176 137.280995 
L 673.529476 140.554458 
L 674.593777 145.204092 
L 675.658077 152.507879 
L 676.722378 168.442053 
L 677.786678 166.446242 
L 678.850979 153.09528 
L 679.91528 147.127171 
L 680.97958 143.653218 
L 682.043881 141.542826 
L 683.108181 140.366274 
L 684.172482 139.929584 
L 685.236782 140.145637 
L 686.301083 140.985804 
L 687.365383 142.450637 
L 688.429684 144.518256 
L 689.493984 146.97893 
L 690.558285 149.001106 
L 691.622585 149.035035 
L 692.686886 146.819608 
L 694.815487 141.112054 
L 695.879788 138.90486 
L 696.944088 137.232459 
L 698.008389 136.05168 
L 699.072689 135.319929 
L 700.13699 135.007188 
L 701.20129 135.097016 
L 702.265591 135.584999 
L 703.329891 136.476014 
L 704.394192 137.778395 
L 705.458492 139.488554 
L 708.651394 145.566994 
L 709.715695 146.256256 
L 710.779995 145.576288 
L 712.908596 142.649414 
L 713.972897 141.504932 
L 715.037197 140.860916 
L 716.101498 140.793571 
L 717.165798 141.374531 
L 718.230099 142.711093 
L 719.294399 144.964661 
L 721.423 151.74945 
L 722.487301 151.2364 
L 724.615902 140.806703 
L 725.680203 136.46727 
L 726.744503 132.974543 
L 727.808804 130.129506 
L 728.873104 127.785411 
L 729.937405 125.841364 
L 731.001705 124.226926 
L 732.066006 122.891329 
L 733.130306 121.796708 
L 734.194607 120.913857 
L 735.258907 120.2195 
L 736.323208 119.694476 
L 737.387509 119.322496 
L 738.451809 119.089265 
L 739.51611 118.981851 
L 741.644711 119.096977 
L 743.773312 119.577582 
L 745.901913 120.338159 
L 746.966213 120.797844 
L 746.966213 120.797844 
" clip-path="url(#pa867bfe1ac)" style="fill: none; stroke: #443983; stroke-width: 3.2; stroke-linecap: round"/>
   </g>
   <g id="line2d_23">
    <path d="M 76.456875 43.442131 
L 77.521176 20.037024 
L 78.585476 11.307598 
L 79.649777 6.015456 
L 80.714077 2.310238 
L 82.034987 -1 
M 104.202245 -1 
L 105.19299 0.570008 
L 106.25729 2.468967 
L 107.321591 4.612091 
L 108.385891 7.043784 
L 109.450192 9.828525 
L 110.514492 13.064954 
L 111.578793 16.915332 
L 112.643093 21.676271 
L 113.707394 27.988307 
L 114.771694 37.740229 
L 115.835995 66.504893 
L 116.900295 44.569696 
L 117.964596 35.344769 
L 119.028896 31.000338 
L 120.093197 28.599062 
L 121.157498 27.307109 
L 122.221798 26.777897 
L 123.286099 26.84352 
L 124.350399 27.421167 
L 125.4147 28.478767 
L 126.479 30.023366 
L 127.543301 32.102718 
L 128.607601 34.821252 
L 129.671902 38.384107 
L 130.736202 43.220513 
L 131.800503 50.425451 
L 132.864803 64.638701 
L 133.929104 70.827038 
L 134.993405 54.665948 
L 136.057705 48.403862 
L 137.122006 44.92241 
L 138.186306 42.858918 
L 139.250607 41.713683 
L 140.314907 41.256814 
L 141.379208 41.374811 
L 142.443508 42.018005 
L 143.507809 43.181928 
L 144.572109 44.905556 
L 145.63641 47.28498 
L 146.70071 50.514422 
L 147.765011 55.001798 
L 148.829312 61.775363 
L 149.893612 74.991826 
L 150.957913 84.201582 
L 152.022213 66.377063 
L 153.086514 59.686483 
L 154.150814 55.926119 
L 155.215115 53.638591 
L 156.279415 52.299864 
L 157.343716 51.671184 
L 158.408016 51.63549 
L 159.472317 52.142146 
L 160.536617 53.187668 
L 161.600918 54.814382 
L 162.665219 57.125879 
L 163.729519 60.333221 
L 164.79382 64.888006 
L 165.85812 71.972355 
L 166.922421 86.921185 
L 167.986721 88.702509 
L 169.051022 73.909491 
L 170.115322 67.658287 
L 171.179623 64.037396 
L 172.243923 61.800333 
L 173.308224 60.478901 
L 174.372524 59.856751 
L 175.436825 59.829169 
L 176.501125 60.355037 
L 177.565426 61.441225 
L 178.629727 63.144954 
L 179.694027 65.596135 
L 180.758328 69.061677 
L 181.822628 74.141902 
L 182.886929 82.603168 
L 183.951229 106.78865 
L 185.01553 88.629313 
L 186.07983 78.269299 
L 187.144131 73.059338 
L 188.208431 69.903391 
L 189.272732 67.937003 
L 190.337032 66.80521 
L 191.401333 66.340086 
L 192.465634 66.464909 
L 193.529934 67.161108 
L 194.594235 68.461184 
L 195.658535 70.461137 
L 196.722836 73.36405 
L 197.787136 77.607732 
L 198.851437 84.330034 
L 199.915737 98.461126 
L 200.980038 101.481387 
L 202.044338 86.095889 
L 203.108639 79.550192 
L 204.172939 75.705033 
L 205.23724 73.284869 
L 206.301541 71.819505 
L 207.365841 71.100925 
L 208.430142 71.042074 
L 209.494442 71.633062 
L 210.558743 72.935879 
L 211.623043 75.109223 
L 212.687344 78.478235 
L 213.751644 83.643894 
L 214.815945 90.387051 
L 215.880245 88.580589 
L 216.944546 80.739649 
L 218.008846 74.829289 
L 219.073147 70.507785 
L 220.137448 67.194892 
L 221.201748 64.564086 
L 222.266049 62.425819 
L 223.330349 60.6611 
L 224.39465 59.189676 
L 225.45895 57.954018 
L 226.523251 56.91073 
L 228.651852 55.27117 
L 230.780453 54.065371 
L 232.909054 53.150132 
L 236.101956 52.117434 
L 239.294857 51.347448 
L 242.487759 50.805654 
L 245.68066 50.549916 
L 247.809261 50.592434 
L 249.937863 50.854683 
L 252.066464 51.386573 
L 254.195065 52.244997 
L 256.323666 53.495516 
L 258.452267 55.216494 
L 259.516567 56.28333 
L 260.580868 57.507515 
L 261.645168 58.907474 
L 262.709469 60.50579 
L 263.77377 62.330871 
L 264.83807 64.419452 
L 265.902371 66.82046 
L 266.966671 69.601074 
L 268.030972 72.856089 
L 269.095272 76.720386 
L 270.159573 81.370447 
L 272.288174 92.343503 
L 273.352474 93.840117 
L 275.481075 88.485756 
L 276.545376 86.696446 
L 277.609677 85.830615 
L 278.673977 85.767054 
L 279.738278 86.445735 
L 280.802578 87.883888 
L 281.866879 90.197188 
L 282.931179 93.672914 
L 283.99548 99.018968 
L 285.05978 108.557805 
L 286.124081 142.183007 
L 287.188381 108.913963 
L 288.252682 100.088634 
L 289.316982 95.361986 
L 290.381283 92.462257 
L 291.445583 90.681268 
L 292.509884 89.718094 
L 293.574185 89.432601 
L 294.638485 89.769071 
L 295.702786 90.73124 
L 296.767086 92.381039 
L 297.831387 94.856332 
L 298.895687 98.40788 
L 299.959988 103.383165 
L 301.024288 109.10883 
L 302.088589 108.986932 
L 303.152889 103.355711 
L 304.21719 98.577767 
L 305.28149 95.194684 
L 306.345791 92.849086 
L 307.410092 91.284372 
L 308.474392 90.350505 
L 309.538693 89.964397 
L 310.602993 90.086882 
L 311.667294 90.71207 
L 312.731594 91.864243 
L 313.795895 93.599275 
L 314.860195 96.00444 
L 315.924496 99.166169 
L 316.988796 102.944876 
L 318.053097 106.021052 
L 319.117397 105.568213 
L 321.245999 98.877251 
L 322.310299 96.176149 
L 323.3746 94.207231 
L 324.4389 92.872352 
L 325.503201 92.088052 
L 326.567501 91.801215 
L 327.631802 91.985903 
L 328.696102 92.639554 
L 329.760403 93.780666 
L 330.824703 95.445577 
L 331.889004 97.674143 
L 334.017605 103.435333 
L 335.081906 105.474127 
L 336.146206 105.013626 
L 337.210507 102.609696 
L 338.274807 99.893155 
L 339.339108 97.596557 
L 340.403408 95.858221 
L 341.467709 94.652882 
L 342.532009 93.931174 
L 343.59631 93.651964 
L 344.66061 93.786537 
L 345.724911 94.315201 
L 346.789211 95.219628 
L 347.853512 96.467715 
L 351.046414 100.937082 
L 352.110714 101.587422 
L 353.175015 101.30221 
L 354.239315 100.305413 
L 356.367916 97.856473 
L 357.432217 96.923534 
L 358.496517 96.311925 
L 359.560818 96.035711 
L 360.625118 96.079624 
L 361.689419 96.403151 
L 364.882321 98.018976 
L 365.946621 98.17246 
L 367.010922 97.856623 
L 368.075222 97.110776 
L 371.268124 94.259173 
L 372.332424 93.676147 
L 373.396725 93.440445 
L 374.461025 93.602368 
L 375.525326 94.185099 
L 377.653927 96.216329 
L 378.718228 96.68379 
L 379.782528 95.512512 
L 380.846829 92.597194 
L 384.03973 81.852886 
L 386.168331 76.106156 
L 388.296932 71.489723 
L 390.425533 67.72057 
L 392.554135 64.59792 
L 394.682736 61.986958 
L 396.811337 59.796534 
L 398.939938 57.964817 
L 401.068539 56.450454 
L 403.19714 55.226808 
L 405.325741 54.277967 
L 407.454342 53.595874 
L 409.582943 53.178294 
L 411.711544 53.027457 
L 413.840145 53.14931 
L 415.968746 53.553289 
L 418.097347 54.252602 
L 420.225948 55.265009 
L 422.35455 56.614215 
L 424.483151 58.332094 
L 426.611752 60.462237 
L 428.740353 63.065826 
L 430.868954 66.231969 
L 432.997555 70.097438 
L 434.061855 72.357607 
L 435.126156 74.888589 
L 436.190457 77.748967 
L 437.254757 81.023668 
L 438.319058 84.841857 
L 439.383358 89.410252 
L 440.447659 95.066596 
L 442.57626 109.160217 
L 443.64056 107.888803 
L 444.704861 103.338947 
L 445.769161 100.246284 
L 446.833462 98.50104 
L 447.897762 97.739613 
L 448.962063 97.752679 
L 450.026364 98.442243 
L 451.090664 99.788285 
L 452.154965 101.842012 
L 453.219265 104.746082 
L 454.283566 108.798012 
L 455.347866 114.587628 
L 456.412167 122.688749 
L 457.476467 125.030638 
L 458.540768 117.891997 
L 459.605068 112.608623 
L 460.669369 109.266014 
L 461.733669 107.178956 
L 462.79797 105.988292 
L 463.862271 105.51327 
L 464.926571 105.669627 
L 465.990872 106.436347 
L 467.055172 107.846953 
L 468.119473 109.997663 
L 469.183773 113.071085 
L 470.248074 117.347126 
L 471.312374 122.811607 
L 472.376675 125.933391 
L 473.440975 121.970734 
L 474.505276 116.902492 
L 475.569576 113.111758 
L 476.633877 110.441542 
L 477.698177 108.615501 
L 478.762478 107.455333 
L 479.826779 106.856762 
L 480.891079 106.763874 
L 481.95538 107.15508 
L 483.01968 108.037081 
L 484.083981 109.443726 
L 485.148281 111.436269 
L 486.212582 114.092877 
L 488.341183 121.001814 
L 489.405483 122.921701 
L 490.469784 121.345275 
L 492.598385 115.125142 
L 493.662686 112.807437 
L 494.726986 111.14619 
L 495.791287 110.059118 
L 496.855587 109.478523 
L 497.919888 109.359941 
L 498.984188 109.678394 
L 500.048489 110.422457 
L 501.112789 111.585272 
L 502.17709 113.145482 
L 504.305691 116.968449 
L 505.369991 118.455927 
L 506.434292 118.813183 
L 507.498593 117.901423 
L 510.691494 113.216085 
L 511.755795 112.190056 
L 512.820095 111.584248 
L 513.884396 111.410369 
L 514.948696 111.682027 
L 516.012997 112.427651 
L 517.077297 113.700756 
L 518.141598 115.593276 
L 519.205898 118.254604 
L 520.270199 121.89991 
L 521.3345 126.615744 
L 522.3988 130.663824 
L 523.463101 128.967843 
L 524.527401 124.105943 
L 525.591702 119.940369 
L 526.656002 116.848544 
L 527.720303 114.614144 
L 528.784603 113.051527 
L 529.848904 112.04148 
L 530.913204 111.512462 
L 531.977505 111.425724 
L 533.041805 111.767036 
L 534.106106 112.542908 
L 535.170406 113.779403 
L 536.234707 115.5206 
L 537.299008 117.817175 
L 539.427609 123.77245 
L 540.491909 125.930888 
L 541.55621 125.418703 
L 542.62051 122.798272 
L 543.684811 119.83922 
L 544.749111 117.295894 
L 545.813412 115.284686 
L 546.877712 113.755405 
L 547.942013 112.632225 
L 549.006313 111.841585 
L 550.070614 111.311681 
L 552.199215 110.71125 
L 553.263516 110.44224 
L 554.327816 110.041096 
L 555.392117 109.405502 
L 556.456417 108.480811 
L 557.520718 107.278979 
L 559.649319 104.331315 
L 562.84222 99.696993 
L 564.970822 96.952256 
L 567.099423 94.596398 
L 569.228024 92.63826 
L 571.356625 91.071781 
L 573.485226 89.893215 
L 575.613827 89.104658 
L 577.742428 88.713316 
L 579.871029 88.729971 
L 581.99963 89.167625 
L 584.128231 90.040189 
L 586.256832 91.36055 
L 588.385433 93.13686 
L 590.514034 95.365266 
L 592.642635 98.016938 
L 594.771237 101.019543 
L 600.092739 109.171567 
L 603.285641 114.192197 
L 605.414242 118.019281 
L 607.542843 122.627105 
L 609.671444 127.574222 
L 610.735745 129.307738 
L 611.800045 129.848051 
L 612.864346 129.269621 
L 614.992947 127.071322 
L 616.057247 126.248952 
L 617.121548 125.804456 
L 618.185848 125.771922 
L 619.250149 126.162299 
L 620.314449 126.979903 
L 621.37875 128.221515 
L 622.443051 129.856499 
L 624.571652 133.6568 
L 625.635952 134.920374 
L 626.700253 134.983783 
L 627.764553 133.932932 
L 629.893154 130.949574 
L 630.957455 129.821223 
L 632.021755 129.118394 
L 633.086056 128.873008 
L 634.150356 129.100907 
L 635.214657 129.820153 
L 636.278958 131.053285 
L 637.343258 132.809006 
L 639.471859 137.255977 
L 640.53616 138.517714 
L 641.60046 137.727544 
L 642.664761 135.392023 
L 643.729061 132.741823 
L 644.793362 130.408611 
L 645.857662 128.556896 
L 646.921963 127.192403 
L 647.986263 126.286162 
L 649.050564 125.81112 
L 650.114865 125.751535 
L 651.179165 126.104945 
L 652.243466 126.882208 
L 653.307766 128.106017 
L 654.372067 129.803932 
L 655.436367 131.981061 
L 657.564968 136.951102 
L 658.629269 138.135187 
L 659.693569 137.242658 
L 662.886471 130.706176 
L 663.950771 129.203347 
L 665.015072 128.189027 
L 666.079373 127.641554 
L 667.143673 127.546139 
L 668.207974 127.904088 
L 669.272274 128.737563 
L 670.336575 130.095471 
L 671.400875 132.062808 
L 672.465176 134.771617 
L 673.529476 138.383588 
L 674.593777 142.815701 
L 675.658077 146.173156 
L 676.722378 144.567695 
L 677.786678 140.34506 
L 678.850979 136.619386 
L 679.91528 133.836631 
L 680.97958 131.861616 
L 682.043881 130.548379 
L 683.108181 129.800176 
L 684.172482 129.562364 
L 685.236782 129.812696 
L 686.301083 130.555642 
L 687.365383 131.818963 
L 688.429684 133.64598 
L 689.493984 136.05934 
L 690.558285 138.904902 
L 691.622585 141.358623 
L 692.686886 141.63343 
L 693.751187 139.324463 
L 695.879788 133.304694 
L 696.944088 130.981767 
L 698.008389 129.195407 
L 699.072689 127.888955 
L 700.13699 127.012637 
L 701.20129 126.533681 
L 702.265591 126.437333 
L 703.329891 126.727626 
L 704.394192 127.430806 
L 705.458492 128.604047 
L 706.522793 130.355015 
L 707.587094 132.887666 
L 708.651394 136.625831 
L 709.715695 142.649114 
L 710.779995 155.433013 
L 711.844296 159.892273 
L 712.908596 142.818056 
L 713.972897 135.039145 
L 715.037197 129.882305 
L 716.101498 125.987107 
L 717.165798 122.836204 
L 718.230099 120.175006 
L 720.3587 115.795472 
L 722.487301 112.206632 
L 724.615902 109.109303 
L 726.744503 106.349748 
L 728.873104 103.850053 
L 732.066006 100.521264 
L 734.194607 98.57776 
L 736.323208 96.867766 
L 738.451809 95.408675 
L 740.58041 94.219147 
L 742.709011 93.317172 
L 744.837612 92.719401 
L 746.966213 92.44128 
L 746.966213 92.44128 
" clip-path="url(#pa867bfe1ac)" style="fill: none; stroke: #90d743; stroke-width: 3.2; stroke-linecap: round"/>
   </g>
  </g>
 </g>
 <defs>
  <clipPath id="pa867bfe1ac">
   <rect x="76.456875" y="7.2" width="669.6" height="443.52"/>
  </clipPath>
 </defs>
</svg>
