<?xml version="1.0" encoding="utf-8" standalone="no"?>
<!DOCTYPE svg PUBLIC "-//W3C//DTD SVG 1.1//EN"
  "http://www.w3.org/Graphics/SVG/1.1/DTD/svg11.dtd">
<svg xmlns:xlink="http://www.w3.org/1999/xlink" width="870.366392pt" height="475.204563pt" viewBox="0 0 870.366392 475.204563" xmlns="http://www.w3.org/2000/svg" version="1.1">
 <metadata>
  <rdf:RDF xmlns:dc="http://purl.org/dc/elements/1.1/" xmlns:cc="http://creativecommons.org/ns#" xmlns:rdf="http://www.w3.org/1999/02/22-rdf-syntax-ns#">
   <cc:Work>
    <dc:type rdf:resource="http://purl.org/dc/dcmitype/StillImage"/>
    <dc:date>2026-03-11T16:46:06.169472</dc:date>
    <dc:format>image/svg+xml</dc:format>
    <dc:creator>
     <cc:Agent>
      <dc:title>Matplotlib v3.10.0, https://matplotlib.org/</dc:title>
     </cc:Agent>
    </dc:creator>
   </cc:Work>
  </rdf:RDF>
 </metadata>
 <defs>
  <style type="text/css">*{stroke-linejoin: round; stroke-linecap: butt}</style>
 </defs>
 <g id="figure_1">
  <g id="patch_1">
   <path d="M 0 475.204563 
L 870.366392 475.204563 
L 870.366392 0 
L 0 0 
z
" style="fill: #ffffff"/>
  </g>
  <g id="axes_1">
   <g id="patch_2">
    <path d="M 80.41125 418.528 
L 452.41125 418.528 
L 452.41125 63.712 
L 80.41125 63.712 
z
" style="fill: #ffffff"/>
   </g>
   <g id="matplotlib.axis_1">
    <g id="xtick_1">
     <g id="line2d_1">
      <path d="M 105.774886 418.528 
L 105.774886 63.712 
" clip-path="url(#p27ff27d6e7)" style="fill: none; stroke-dasharray: 5.55,2.4; stroke-dashoffset: 0; stroke: #cccccc; stroke-opacity: 0.35; stroke-width: 1.5"/>
     </g>
     <g id="text_1">
      <!-- -20 -->
      <g style="fill: #262626" transform="translate(92.76848 443.912062) scale(0.18 -0.18)">
       <defs>
        <path id="ArialMT-2d" d="M 203 1375 
L 203 1941 
L 1931 1941 
L 1931 1375 
L 203 1375 
z
" transform="scale(0.015625)"/>
        <path id="ArialMT-32" d="M 3222 541 
L 3222 0 
L 194 0 
Q 188 203 259 391 
Q 375 700 629 1000 
Q 884 1300 1366 1694 
Q 2113 2306 2375 2664 
Q 2638 3022 2638 3341 
Q 2638 3675 2398 3904 
Q 2159 4134 1775 4134 
Q 1369 4134 1125 3890 
Q 881 3647 878 3216 
L 300 3275 
Q 359 3922 746 4261 
Q 1134 4600 1788 4600 
Q 2447 4600 2831 4234 
Q 3216 3869 3216 3328 
Q 3216 3053 3103 2787 
Q 2991 2522 2730 2228 
Q 2469 1934 1863 1422 
Q 1356 997 1212 845 
Q 1069 694 975 541 
L 3222 541 
z
" transform="scale(0.015625)"/>
        <path id="ArialMT-30" d="M 266 2259 
Q 266 3072 433 3567 
Q 600 4063 929 4331 
Q 1259 4600 1759 4600 
Q 2128 4600 2406 4451 
Q 2684 4303 2865 4023 
Q 3047 3744 3150 3342 
Q 3253 2941 3253 2259 
Q 3253 1453 3087 958 
Q 2922 463 2592 192 
Q 2263 -78 1759 -78 
Q 1097 -78 719 397 
Q 266 969 266 2259 
z
M 844 2259 
Q 844 1131 1108 757 
Q 1372 384 1759 384 
Q 2147 384 2411 759 
Q 2675 1134 2675 2259 
Q 2675 3391 2411 3762 
Q 2147 4134 1753 4134 
Q 1366 4134 1134 3806 
Q 844 3388 844 2259 
z
" transform="scale(0.015625)"/>
       </defs>
       <use xlink:href="#ArialMT-2d"/>
       <use xlink:href="#ArialMT-32" transform="translate(33.300781 0)"/>
       <use xlink:href="#ArialMT-30" transform="translate(88.916016 0)"/>
      </g>
     </g>
    </g>
    <g id="xtick_2">
     <g id="line2d_2">
      <path d="M 190.320341 418.528 
L 190.320341 63.712 
" clip-path="url(#p27ff27d6e7)" style="fill: none; stroke-dasharray: 5.55,2.4; stroke-dashoffset: 0; stroke: #cccccc; stroke-opacity: 0.35; stroke-width: 1.5"/>
     </g>
     <g id="text_2">
      <!-- -10 -->
      <g style="fill: #262626" transform="translate(177.313935 443.912062) scale(0.18 -0.18)">
       <defs>
        <path id="ArialMT-31" d="M 2384 0 
L 1822 0 
L 1822 3584 
Q 1619 3391 1289 3197 
Q 959 3003 697 2906 
L 697 3450 
Q 1169 3672 1522 3987 
Q 1875 4303 2022 4600 
L 2384 4600 
L 2384 0 
z
" transform="scale(0.015625)"/>
       </defs>
       <use xlink:href="#ArialMT-2d"/>
       <use xlink:href="#ArialMT-31" transform="translate(33.300781 0)"/>
       <use xlink:href="#ArialMT-30" transform="translate(88.916016 0)"/>
      </g>
     </g>
    </g>
    <g id="xtick_3">
     <g id="line2d_3">
      <path d="M 274.865795 418.528 
L 274.865795 63.712 
" clip-path="url(#p27ff27d6e7)" style="fill: none; stroke-dasharray: 5.55,2.4; stroke-dashoffset: 0; stroke: #cccccc; stroke-opacity: 0.35; stroke-width: 1.5"/>
     </g>
     <g id="text_3">
      <!-- 0 -->
      <g style="fill: #262626" transform="translate(269.860952 443.912062) scale(0.18 -0.18)">
       <use xlink:href="#ArialMT-30"/>
      </g>
     </g>
    </g>
    <g id="xtick_4">
     <g id="line2d_4">
      <path d="M 359.41125 418.528 
L 359.41125 63.712 
" clip-path="url(#p27ff27d6e7)" style="fill: none; stroke-dasharray: 5.55,2.4; stroke-dashoffset: 0; stroke: #cccccc; stroke-opacity: 0.35; stroke-width: 1.5"/>
     </g>
     <g id="text_4">
      <!-- 10 -->
      <g style="fill: #262626" transform="translate(349.401563 443.912062) scale(0.18 -0.18)">
       <use xlink:href="#ArialMT-31"/>
       <use xlink:href="#ArialMT-30" transform="translate(55.615234 0)"/>
      </g>
     </g>
    </g>
    <g id="xtick_5">
     <g id="line2d_5">
      <path d="M 443.956705 418.528 
L 443.956705 63.712 
" clip-path="url(#p27ff27d6e7)" style="fill: none; stroke-dasharray: 5.55,2.4; stroke-dashoffset: 0; stroke: #cccccc; stroke-opacity: 0.35; stroke-width: 1.5"/>
     </g>
     <g id="text_5">
      <!-- 20 -->
      <g style="fill: #262626" transform="translate(433.947017 443.912062) scale(0.18 -0.18)">
       <use xlink:href="#ArialMT-32"/>
       <use xlink:href="#ArialMT-30" transform="translate(55.615234 0)"/>
      </g>
     </g>
    </g>
    <g id="text_6">
     <!-- x [mm] -->
     <g style="fill: #262626" transform="translate(236.906719 464.373625) scale(0.18 -0.18)">
      <defs>
       <path id="Arial-BoldMT-78" d="M 38 0 
L 1234 1709 
L 88 3319 
L 1159 3319 
L 1747 2406 
L 2366 3319 
L 3397 3319 
L 2272 1747 
L 3500 0 
L 2422 0 
L 1747 1028 
L 1066 0 
L 38 0 
z
" transform="scale(0.015625)"/>
       <path id="Arial-BoldMT-20" transform="scale(0.015625)"/>
       <path id="Arial-BoldMT-5b" d="M 456 -1291 
L 456 4581 
L 2013 4581 
L 2013 3891 
L 1291 3891 
L 1291 -600 
L 2013 -600 
L 2013 -1291 
L 456 -1291 
z
" transform="scale(0.015625)"/>
       <path id="Arial-BoldMT-6d" d="M 394 3319 
L 1203 3319 
L 1203 2866 
Q 1638 3394 2238 3394 
Q 2556 3394 2790 3262 
Q 3025 3131 3175 2866 
Q 3394 3131 3647 3262 
Q 3900 3394 4188 3394 
Q 4553 3394 4806 3245 
Q 5059 3097 5184 2809 
Q 5275 2597 5275 2122 
L 5275 0 
L 4397 0 
L 4397 1897 
Q 4397 2391 4306 2534 
Q 4184 2722 3931 2722 
Q 3747 2722 3584 2609 
Q 3422 2497 3350 2280 
Q 3278 2063 3278 1594 
L 3278 0 
L 2400 0 
L 2400 1819 
Q 2400 2303 2353 2443 
Q 2306 2584 2207 2653 
Q 2109 2722 1941 2722 
Q 1738 2722 1575 2612 
Q 1413 2503 1342 2297 
Q 1272 2091 1272 1613 
L 1272 0 
L 394 0 
L 394 3319 
z
" transform="scale(0.015625)"/>
       <path id="Arial-BoldMT-5d" d="M 1675 4581 
L 1675 -1291 
L 119 -1291 
L 119 -600 
L 841 -600 
L 841 3897 
L 119 3897 
L 119 4581 
L 1675 4581 
z
" transform="scale(0.015625)"/>
      </defs>
      <use xlink:href="#Arial-BoldMT-78"/>
      <use xlink:href="#Arial-BoldMT-20" transform="translate(55.615234 0)"/>
      <use xlink:href="#Arial-BoldMT-5b" transform="translate(83.398438 0)"/>
      <use xlink:href="#Arial-BoldMT-6d" transform="translate(116.699219 0)"/>
      <use xlink:href="#Arial-BoldMT-6d" transform="translate(205.615234 0)"/>
      <use xlink:href="#Arial-BoldMT-5d" transform="translate(294.53125 0)"/>
     </g>
    </g>
   </g>
   <g id="matplotlib.axis_2">
    <g id="ytick_1">
     <g id="line2d_6">
      <path d="M 80.41125 402.4 
L 452.41125 402.4 
" clip-path="url(#p27ff27d6e7)" style="fill: none; stroke-dasharray: 5.55,2.4; stroke-dashoffset: 0; stroke: #cccccc; stroke-opacity: 0.35; stroke-width: 1.5"/>
     </g>
     <g id="text_7">
      <!-- 0 -->
      <g style="fill: #262626" transform="translate(57.901562 408.842031) scale(0.18 -0.18)">
       <use xlink:href="#ArialMT-30"/>
      </g>
     </g>
    </g>
    <g id="ytick_2">
     <g id="line2d_7">
      <path d="M 80.41125 334.797534 
L 452.41125 334.797534 
" clip-path="url(#p27ff27d6e7)" style="fill: none; stroke-dasharray: 5.55,2.4; stroke-dashoffset: 0; stroke: #cccccc; stroke-opacity: 0.35; stroke-width: 1.5"/>
     </g>
     <g id="text_8">
      <!-- 1000 -->
      <g style="fill: #262626" transform="translate(27.8725 341.239565) scale(0.18 -0.18)">
       <use xlink:href="#ArialMT-31"/>
       <use xlink:href="#ArialMT-30" transform="translate(55.615234 0)"/>
       <use xlink:href="#ArialMT-30" transform="translate(111.230469 0)"/>
       <use xlink:href="#ArialMT-30" transform="translate(166.845703 0)"/>
      </g>
     </g>
    </g>
    <g id="ytick_3">
     <g id="line2d_8">
      <path d="M 80.41125 267.195068 
L 452.41125 267.195068 
" clip-path="url(#p27ff27d6e7)" style="fill: none; stroke-dasharray: 5.55,2.4; stroke-dashoffset: 0; stroke: #cccccc; stroke-opacity: 0.35; stroke-width: 1.5"/>
     </g>
     <g id="text_9">
      <!-- 2000 -->
      <g style="fill: #262626" transform="translate(27.8725 273.637099) scale(0.18 -0.18)">
       <use xlink:href="#ArialMT-32"/>
       <use xlink:href="#ArialMT-30" transform="translate(55.615234 0)"/>
       <use xlink:href="#ArialMT-30" transform="translate(111.230469 0)"/>
       <use xlink:href="#ArialMT-30" transform="translate(166.845703 0)"/>
      </g>
     </g>
    </g>
    <g id="ytick_4">
     <g id="line2d_9">
      <path d="M 80.41125 199.592602 
L 452.41125 199.592602 
" clip-path="url(#p27ff27d6e7)" style="fill: none; stroke-dasharray: 5.55,2.4; stroke-dashoffset: 0; stroke: #cccccc; stroke-opacity: 0.35; stroke-width: 1.5"/>
     </g>
     <g id="text_10">
      <!-- 3000 -->
      <g style="fill: #262626" transform="translate(27.8725 206.034633) scale(0.18 -0.18)">
       <defs>
        <path id="ArialMT-33" d="M 269 1209 
L 831 1284 
Q 928 806 1161 595 
Q 1394 384 1728 384 
Q 2125 384 2398 659 
Q 2672 934 2672 1341 
Q 2672 1728 2419 1979 
Q 2166 2231 1775 2231 
Q 1616 2231 1378 2169 
L 1441 2663 
Q 1497 2656 1531 2656 
Q 1891 2656 2178 2843 
Q 2466 3031 2466 3422 
Q 2466 3731 2256 3934 
Q 2047 4138 1716 4138 
Q 1388 4138 1169 3931 
Q 950 3725 888 3313 
L 325 3413 
Q 428 3978 793 4289 
Q 1159 4600 1703 4600 
Q 2078 4600 2393 4439 
Q 2709 4278 2876 4000 
Q 3044 3722 3044 3409 
Q 3044 3113 2884 2869 
Q 2725 2625 2413 2481 
Q 2819 2388 3044 2092 
Q 3269 1797 3269 1353 
Q 3269 753 2831 336 
Q 2394 -81 1725 -81 
Q 1122 -81 723 278 
Q 325 638 269 1209 
z
" transform="scale(0.015625)"/>
       </defs>
       <use xlink:href="#ArialMT-33"/>
       <use xlink:href="#ArialMT-30" transform="translate(55.615234 0)"/>
       <use xlink:href="#ArialMT-30" transform="translate(111.230469 0)"/>
       <use xlink:href="#ArialMT-30" transform="translate(166.845703 0)"/>
      </g>
     </g>
    </g>
    <g id="ytick_5">
     <g id="line2d_10">
      <path d="M 80.41125 131.990135 
L 452.41125 131.990135 
" clip-path="url(#p27ff27d6e7)" style="fill: none; stroke-dasharray: 5.55,2.4; stroke-dashoffset: 0; stroke: #cccccc; stroke-opacity: 0.35; stroke-width: 1.5"/>
     </g>
     <g id="text_11">
      <!-- 4000 -->
      <g style="fill: #262626" transform="translate(27.8725 138.432167) scale(0.18 -0.18)">
       <defs>
        <path id="ArialMT-34" d="M 2069 0 
L 2069 1097 
L 81 1097 
L 81 1613 
L 2172 4581 
L 2631 4581 
L 2631 1613 
L 3250 1613 
L 3250 1097 
L 2631 1097 
L 2631 0 
L 2069 0 
z
M 2069 1613 
L 2069 3678 
L 634 1613 
L 2069 1613 
z
" transform="scale(0.015625)"/>
       </defs>
       <use xlink:href="#ArialMT-34"/>
       <use xlink:href="#ArialMT-30" transform="translate(55.615234 0)"/>
       <use xlink:href="#ArialMT-30" transform="translate(111.230469 0)"/>
       <use xlink:href="#ArialMT-30" transform="translate(166.845703 0)"/>
      </g>
     </g>
    </g>
    <g id="ytick_6">
     <g id="line2d_11">
      <path d="M 80.41125 64.387669 
L 452.41125 64.387669 
" clip-path="url(#p27ff27d6e7)" style="fill: none; stroke-dasharray: 5.55,2.4; stroke-dashoffset: 0; stroke: #cccccc; stroke-opacity: 0.35; stroke-width: 1.5"/>
     </g>
     <g id="text_12">
      <!-- 5000 -->
      <g style="fill: #262626" transform="translate(27.8725 70.829701) scale(0.18 -0.18)">
       <defs>
        <path id="ArialMT-35" d="M 266 1200 
L 856 1250 
Q 922 819 1161 601 
Q 1400 384 1738 384 
Q 2144 384 2425 690 
Q 2706 997 2706 1503 
Q 2706 1984 2436 2262 
Q 2166 2541 1728 2541 
Q 1456 2541 1237 2417 
Q 1019 2294 894 2097 
L 366 2166 
L 809 4519 
L 3088 4519 
L 3088 3981 
L 1259 3981 
L 1013 2750 
Q 1425 3038 1878 3038 
Q 2478 3038 2890 2622 
Q 3303 2206 3303 1553 
Q 3303 931 2941 478 
Q 2500 -78 1738 -78 
Q 1113 -78 717 272 
Q 322 622 266 1200 
z
" transform="scale(0.015625)"/>
       </defs>
       <use xlink:href="#ArialMT-35"/>
       <use xlink:href="#ArialMT-30" transform="translate(55.615234 0)"/>
       <use xlink:href="#ArialMT-30" transform="translate(111.230469 0)"/>
       <use xlink:href="#ArialMT-30" transform="translate(166.845703 0)"/>
      </g>
     </g>
    </g>
    <g id="text_13">
     <!-- Neural drive weight [a.u.] -->
     <g style="fill: #262626" transform="translate(20.084062 348.132812) rotate(-90) scale(0.18 -0.18)">
      <defs>
       <path id="Arial-BoldMT-4e" d="M 475 0 
L 475 4581 
L 1375 4581 
L 3250 1522 
L 3250 4581 
L 4109 4581 
L 4109 0 
L 3181 0 
L 1334 2988 
L 1334 0 
L 475 0 
z
" transform="scale(0.015625)"/>
       <path id="Arial-BoldMT-65" d="M 2381 1056 
L 3256 909 
Q 3088 428 2723 176 
Q 2359 -75 1813 -75 
Q 947 -75 531 491 
Q 203 944 203 1634 
Q 203 2459 634 2926 
Q 1066 3394 1725 3394 
Q 2466 3394 2894 2905 
Q 3322 2416 3303 1406 
L 1103 1406 
Q 1113 1016 1316 798 
Q 1519 581 1822 581 
Q 2028 581 2168 693 
Q 2309 806 2381 1056 
z
M 2431 1944 
Q 2422 2325 2234 2523 
Q 2047 2722 1778 2722 
Q 1491 2722 1303 2513 
Q 1116 2303 1119 1944 
L 2431 1944 
z
" transform="scale(0.015625)"/>
       <path id="Arial-BoldMT-75" d="M 2644 0 
L 2644 497 
Q 2463 231 2167 78 
Q 1872 -75 1544 -75 
Q 1209 -75 943 72 
Q 678 219 559 484 
Q 441 750 441 1219 
L 441 3319 
L 1319 3319 
L 1319 1794 
Q 1319 1094 1367 936 
Q 1416 778 1544 686 
Q 1672 594 1869 594 
Q 2094 594 2272 717 
Q 2450 841 2515 1023 
Q 2581 1206 2581 1919 
L 2581 3319 
L 3459 3319 
L 3459 0 
L 2644 0 
z
" transform="scale(0.015625)"/>
       <path id="Arial-BoldMT-72" d="M 1300 0 
L 422 0 
L 422 3319 
L 1238 3319 
L 1238 2847 
Q 1447 3181 1614 3287 
Q 1781 3394 1994 3394 
Q 2294 3394 2572 3228 
L 2300 2463 
Q 2078 2606 1888 2606 
Q 1703 2606 1575 2504 
Q 1447 2403 1373 2137 
Q 1300 1872 1300 1025 
L 1300 0 
z
" transform="scale(0.015625)"/>
       <path id="Arial-BoldMT-61" d="M 1116 2306 
L 319 2450 
Q 453 2931 781 3162 
Q 1109 3394 1756 3394 
Q 2344 3394 2631 3255 
Q 2919 3116 3036 2902 
Q 3153 2688 3153 2116 
L 3144 1091 
Q 3144 653 3186 445 
Q 3228 238 3344 0 
L 2475 0 
Q 2441 88 2391 259 
Q 2369 338 2359 363 
Q 2134 144 1878 34 
Q 1622 -75 1331 -75 
Q 819 -75 523 203 
Q 228 481 228 906 
Q 228 1188 362 1408 
Q 497 1628 739 1745 
Q 981 1863 1438 1950 
Q 2053 2066 2291 2166 
L 2291 2253 
Q 2291 2506 2166 2614 
Q 2041 2722 1694 2722 
Q 1459 2722 1328 2630 
Q 1197 2538 1116 2306 
z
M 2291 1594 
Q 2122 1538 1756 1459 
Q 1391 1381 1278 1306 
Q 1106 1184 1106 997 
Q 1106 813 1243 678 
Q 1381 544 1594 544 
Q 1831 544 2047 700 
Q 2206 819 2256 991 
Q 2291 1103 2291 1419 
L 2291 1594 
z
" transform="scale(0.015625)"/>
       <path id="Arial-BoldMT-6c" d="M 459 0 
L 459 4581 
L 1338 4581 
L 1338 0 
L 459 0 
z
" transform="scale(0.015625)"/>
       <path id="Arial-BoldMT-64" d="M 3503 0 
L 2688 0 
L 2688 488 
Q 2484 203 2207 64 
Q 1931 -75 1650 -75 
Q 1078 -75 670 386 
Q 263 847 263 1672 
Q 263 2516 659 2955 
Q 1056 3394 1663 3394 
Q 2219 3394 2625 2931 
L 2625 4581 
L 3503 4581 
L 3503 0 
z
M 1159 1731 
Q 1159 1200 1306 963 
Q 1519 619 1900 619 
Q 2203 619 2415 876 
Q 2628 1134 2628 1647 
Q 2628 2219 2422 2470 
Q 2216 2722 1894 2722 
Q 1581 2722 1370 2473 
Q 1159 2225 1159 1731 
z
" transform="scale(0.015625)"/>
       <path id="Arial-BoldMT-69" d="M 459 3769 
L 459 4581 
L 1338 4581 
L 1338 3769 
L 459 3769 
z
M 459 0 
L 459 3319 
L 1338 3319 
L 1338 0 
L 459 0 
z
" transform="scale(0.015625)"/>
       <path id="Arial-BoldMT-76" d="M 1372 0 
L 34 3319 
L 956 3319 
L 1581 1625 
L 1763 1059 
Q 1834 1275 1853 1344 
Q 1897 1484 1947 1625 
L 2578 3319 
L 3481 3319 
L 2163 0 
L 1372 0 
z
" transform="scale(0.015625)"/>
       <path id="Arial-BoldMT-77" d="M 1078 0 
L 28 3319 
L 881 3319 
L 1503 1144 
L 2075 3319 
L 2922 3319 
L 3475 1144 
L 4109 3319 
L 4975 3319 
L 3909 0 
L 3066 0 
L 2494 2134 
L 1931 0 
L 1078 0 
z
" transform="scale(0.015625)"/>
       <path id="Arial-BoldMT-67" d="M 378 -219 
L 1381 -341 
Q 1406 -516 1497 -581 
Q 1622 -675 1891 -675 
Q 2234 -675 2406 -572 
Q 2522 -503 2581 -350 
Q 2622 -241 2622 53 
L 2622 538 
Q 2228 0 1628 0 
Q 959 0 569 566 
Q 263 1013 263 1678 
Q 263 2513 664 2953 
Q 1066 3394 1663 3394 
Q 2278 3394 2678 2853 
L 2678 3319 
L 3500 3319 
L 3500 341 
Q 3500 -247 3403 -537 
Q 3306 -828 3131 -993 
Q 2956 -1159 2664 -1253 
Q 2372 -1347 1925 -1347 
Q 1081 -1347 728 -1058 
Q 375 -769 375 -325 
Q 375 -281 378 -219 
z
M 1163 1728 
Q 1163 1200 1367 954 
Q 1572 709 1872 709 
Q 2194 709 2416 961 
Q 2638 1213 2638 1706 
Q 2638 2222 2425 2472 
Q 2213 2722 1888 2722 
Q 1572 2722 1367 2476 
Q 1163 2231 1163 1728 
z
" transform="scale(0.015625)"/>
       <path id="Arial-BoldMT-68" d="M 1334 4581 
L 1334 2897 
Q 1759 3394 2350 3394 
Q 2653 3394 2897 3281 
Q 3141 3169 3264 2994 
Q 3388 2819 3433 2606 
Q 3478 2394 3478 1947 
L 3478 0 
L 2600 0 
L 2600 1753 
Q 2600 2275 2550 2415 
Q 2500 2556 2373 2639 
Q 2247 2722 2056 2722 
Q 1838 2722 1666 2615 
Q 1494 2509 1414 2295 
Q 1334 2081 1334 1663 
L 1334 0 
L 456 0 
L 456 4581 
L 1334 4581 
z
" transform="scale(0.015625)"/>
       <path id="Arial-BoldMT-74" d="M 1981 3319 
L 1981 2619 
L 1381 2619 
L 1381 1281 
Q 1381 875 1398 808 
Q 1416 741 1477 697 
Q 1538 653 1625 653 
Q 1747 653 1978 738 
L 2053 56 
Q 1747 -75 1359 -75 
Q 1122 -75 931 4 
Q 741 84 652 211 
Q 563 338 528 553 
Q 500 706 500 1172 
L 500 2619 
L 97 2619 
L 97 3319 
L 500 3319 
L 500 3978 
L 1381 4491 
L 1381 3319 
L 1981 3319 
z
" transform="scale(0.015625)"/>
       <path id="Arial-BoldMT-2e" d="M 459 0 
L 459 878 
L 1338 878 
L 1338 0 
L 459 0 
z
" transform="scale(0.015625)"/>
      </defs>
      <use xlink:href="#Arial-BoldMT-4e"/>
      <use xlink:href="#Arial-BoldMT-65" transform="translate(72.216797 0)"/>
      <use xlink:href="#Arial-BoldMT-75" transform="translate(127.832031 0)"/>
      <use xlink:href="#Arial-BoldMT-72" transform="translate(188.916016 0)"/>
      <use xlink:href="#Arial-BoldMT-61" transform="translate(227.832031 0)"/>
      <use xlink:href="#Arial-BoldMT-6c" transform="translate(283.447266 0)"/>
      <use xlink:href="#Arial-BoldMT-20" transform="translate(311.230469 0)"/>
      <use xlink:href="#Arial-BoldMT-64" transform="translate(339.013672 0)"/>
      <use xlink:href="#Arial-BoldMT-72" transform="translate(400.097656 0)"/>
      <use xlink:href="#Arial-BoldMT-69" transform="translate(439.013672 0)"/>
      <use xlink:href="#Arial-BoldMT-76" transform="translate(466.796875 0)"/>
      <use xlink:href="#Arial-BoldMT-65" transform="translate(522.412109 0)"/>
      <use xlink:href="#Arial-BoldMT-20" transform="translate(578.027344 0)"/>
      <use xlink:href="#Arial-BoldMT-77" transform="translate(605.810547 0)"/>
      <use xlink:href="#Arial-BoldMT-65" transform="translate(683.59375 0)"/>
      <use xlink:href="#Arial-BoldMT-69" transform="translate(739.208984 0)"/>
      <use xlink:href="#Arial-BoldMT-67" transform="translate(766.992188 0)"/>
      <use xlink:href="#Arial-BoldMT-68" transform="translate(828.076172 0)"/>
      <use xlink:href="#Arial-BoldMT-74" transform="translate(889.160156 0)"/>
      <use xlink:href="#Arial-BoldMT-20" transform="translate(922.460938 0)"/>
      <use xlink:href="#Arial-BoldMT-5b" transform="translate(950.244141 0)"/>
      <use xlink:href="#Arial-BoldMT-61" transform="translate(983.544922 0)"/>
      <use xlink:href="#Arial-BoldMT-2e" transform="translate(1039.160156 0)"/>
      <use xlink:href="#Arial-BoldMT-75" transform="translate(1066.943359 0)"/>
      <use xlink:href="#Arial-BoldMT-2e" transform="translate(1128.027344 0)"/>
      <use xlink:href="#Arial-BoldMT-5d" transform="translate(1155.810547 0)"/>
     </g>
    </g>
   </g>
   <g id="FillBetweenPolyCollection_1">
    <defs>
     <path id="m85968bc593" d="M 97.320341 -129.369574 
L 97.320341 -72.804563 
L 114.229432 -72.804563 
L 131.138523 -72.804563 
L 148.047614 -72.804563 
L 164.956705 -72.804563 
L 181.865795 -72.804563 
L 198.774886 -72.804563 
L 215.683977 -72.804563 
L 232.593068 -72.804563 
L 249.502159 -72.804563 
L 266.41125 -72.804563 
L 283.320341 -72.804563 
L 300.229432 -72.804563 
L 317.138523 -72.804563 
L 334.047614 -72.804563 
L 350.956705 -72.804563 
L 367.865795 -72.804563 
L 384.774886 -72.804563 
L 401.683977 -72.804563 
L 418.593068 -72.804563 
L 435.502159 -72.804563 
L 435.502159 -137.066399 
L 435.502159 -137.066399 
L 418.593068 -157.30961 
L 401.683977 -193.200623 
L 384.774886 -206.749774 
L 367.865795 -260.049069 
L 350.956705 -311.822759 
L 334.047614 -345.905254 
L 317.138523 -351.987084 
L 300.229432 -301.632791 
L 283.320341 -340.533885 
L 266.41125 -346.149987 
L 249.502159 -312.284074 
L 232.593068 -299.604734 
L 215.683977 -346.517728 
L 198.774886 -339.672862 
L 181.865795 -308.063653 
L 164.956705 -254.017767 
L 148.047614 -211.036459 
L 131.138523 -175.815517 
L 114.229432 -160.647432 
L 97.320341 -129.369574 
z
" style="stroke: #b2b2b2; stroke-opacity: 0.15; stroke-width: 1.5"/>
    </defs>
    <g clip-path="url(#p27ff27d6e7)">
     <use xlink:href="#m85968bc593" x="0" y="475.204563" style="fill: #b2b2b2; fill-opacity: 0.15; stroke: #b2b2b2; stroke-opacity: 0.15; stroke-width: 1.5"/>
    </g>
   </g>
   <g id="line2d_12">
    <path d="M 97.320341 345.834989 
L 114.229432 314.55713 
L 131.138523 299.389046 
L 148.047614 264.168103 
L 164.956705 259.737688 
L 181.865795 226.080433 
L 198.774886 236.783031 
L 215.683977 229.901754 
L 232.593068 265.376378 
L 249.502159 332.099485 
L 266.41125 402.38756 
L 283.320341 322.576941 
L 300.229432 272.810179 
L 317.138523 221.489059 
L 334.047614 229.355343 
L 350.956705 216.18485 
L 367.865795 233.614657 
L 384.774886 271.206063 
L 401.683977 282.00394 
L 418.593068 317.894952 
L 435.502159 338.138163 
" clip-path="url(#p27ff27d6e7)" style="fill: none; stroke: #d55e00; stroke-width: 5; stroke-linecap: round"/>
   </g>
   <g id="line2d_13">
    <path d="M 97.320341 390.127217 
L 114.229432 380.946586 
L 131.138523 375.082063 
L 148.047614 356.673293 
L 164.956705 342.973537 
L 181.865795 306.105572 
L 198.774886 278.827109 
L 215.683977 223.31948 
L 232.593068 179.655427 
L 249.502159 162.920489 
L 266.41125 129.054575 
L 283.320341 134.670678 
L 300.229432 177.519649 
L 317.138523 200.890734 
L 334.047614 258.22844 
L 350.956705 287.752027 
L 367.865795 321.843515 
L 384.774886 353.385802 
L 401.683977 364.606584 
L 418.593068 380.218664 
L 435.502159 385.995261 
" clip-path="url(#p27ff27d6e7)" style="fill: none; stroke: #009e73; stroke-width: 5; stroke-linecap: round"/>
   </g>
   <g id="line2d_14">
    <path d="M 97.320341 365.293511 
L 114.229432 341.865926 
L 131.138523 312.276205 
L 148.047614 267.470842 
L 164.956705 221.186796 
L 181.865795 167.140909 
L 198.774886 135.531701 
L 215.683977 128.686834 
L 232.593068 175.599828 
L 249.502159 274.845314 
L 266.41125 402.377677 
L 283.320341 270.161768 
L 300.229432 173.571772 
L 317.138523 123.217479 
L 334.047614 129.299308 
L 350.956705 163.381803 
L 367.865795 215.155493 
L 384.774886 268.454789 
L 401.683977 309.452694 
L 418.593068 343.388788 
L 435.502159 364.369226 
" clip-path="url(#p27ff27d6e7)" style="fill: none; stroke: #0072b2; stroke-width: 5; stroke-linecap: round"/>
   </g>
   <g id="line2d_15">
    <path d="M 97.320341 345.834989 
L 114.229432 314.55713 
L 131.138523 299.389046 
L 148.047614 264.168103 
L 164.956705 221.186796 
L 181.865795 167.140909 
L 198.774886 135.531701 
L 215.683977 128.686834 
L 232.593068 175.599828 
L 249.502159 162.920489 
L 266.41125 129.054575 
L 283.320341 134.670678 
L 300.229432 173.571772 
L 317.138523 123.217479 
L 334.047614 129.299308 
L 350.956705 163.381803 
L 367.865795 215.155493 
L 384.774886 268.454789 
L 401.683977 282.00394 
L 418.593068 317.894952 
L 435.502159 338.138163 
" clip-path="url(#p27ff27d6e7)" style="fill: none; stroke-dasharray: 18.5,8; stroke-dashoffset: 0; stroke: #000000; stroke-opacity: 0.8; stroke-width: 5"/>
   </g>
   <g id="patch_3">
    <path d="M 80.41125 418.528 
L 80.41125 63.712 
" style="fill: none; stroke: #262626; stroke-width: 1.875; stroke-linejoin: miter; stroke-linecap: square"/>
   </g>
   <g id="patch_4">
    <path d="M 452.41125 418.528 
L 452.41125 63.712 
" style="fill: none; stroke: #262626; stroke-width: 1.875; stroke-linejoin: miter; stroke-linecap: square"/>
   </g>
   <g id="patch_5">
    <path d="M 80.41125 418.528 
L 452.41125 418.528 
" style="fill: none; stroke: #262626; stroke-width: 1.875; stroke-linejoin: miter; stroke-linecap: square"/>
   </g>
   <g id="patch_6">
    <path d="M 80.41125 63.712 
L 452.41125 63.712 
" style="fill: none; stroke: #262626; stroke-width: 1.875; stroke-linejoin: miter; stroke-linecap: square"/>
   </g>
   <g id="text_14">
    <!-- ULM_L -->
    <g style="fill: #262626" transform="translate(233.083125 57.712) scale(0.2 -0.2)">
     <defs>
      <path id="Arial-BoldMT-55" d="M 459 4581 
L 1384 4581 
L 1384 2100 
Q 1384 1509 1419 1334 
Q 1478 1053 1701 883 
Q 1925 713 2313 713 
Q 2706 713 2906 873 
Q 3106 1034 3147 1268 
Q 3188 1503 3188 2047 
L 3188 4581 
L 4113 4581 
L 4113 2175 
Q 4113 1350 4038 1009 
Q 3963 669 3761 434 
Q 3559 200 3221 61 
Q 2884 -78 2341 -78 
Q 1684 -78 1345 73 
Q 1006 225 809 467 
Q 613 709 550 975 
Q 459 1369 459 2138 
L 459 4581 
z
" transform="scale(0.015625)"/>
      <path id="Arial-BoldMT-4c" d="M 491 0 
L 491 4544 
L 1416 4544 
L 1416 772 
L 3716 772 
L 3716 0 
L 491 0 
z
" transform="scale(0.015625)"/>
      <path id="Arial-BoldMT-4d" d="M 453 0 
L 453 4581 
L 1838 4581 
L 2669 1456 
L 3491 4581 
L 4878 4581 
L 4878 0 
L 4019 0 
L 4019 3606 
L 3109 0 
L 2219 0 
L 1313 3606 
L 1313 0 
L 453 0 
z
" transform="scale(0.015625)"/>
      <path id="Arial-BoldMT-5f" d="M -59 -1266 
L -59 -697 
L 3591 -697 
L 3591 -1266 
L -59 -1266 
z
" transform="scale(0.015625)"/>
     </defs>
     <use xlink:href="#Arial-BoldMT-55"/>
     <use xlink:href="#Arial-BoldMT-4c" transform="translate(72.216797 0)"/>
     <use xlink:href="#Arial-BoldMT-4d" transform="translate(133.300781 0)"/>
     <use xlink:href="#Arial-BoldMT-5f" transform="translate(216.601562 0)"/>
     <use xlink:href="#Arial-BoldMT-4c" transform="translate(272.216797 0)"/>
    </g>
   </g>
  </g>
  <g id="axes_2">
   <g id="patch_7">
    <path d="M 489.61125 418.528 
L 861.61125 418.528 
L 861.61125 63.712 
L 489.61125 63.712 
z
" style="fill: #ffffff"/>
   </g>
   <g id="matplotlib.axis_3">
    <g id="xtick_6">
     <g id="line2d_16">
      <path d="M 514.974886 418.528 
L 514.974886 63.712 
" clip-path="url(#p69db47a986)" style="fill: none; stroke-dasharray: 5.55,2.4; stroke-dashoffset: 0; stroke: #cccccc; stroke-opacity: 0.35; stroke-width: 1.5"/>
     </g>
     <g id="text_15">
      <!-- -20 -->
      <g style="fill: #262626" transform="translate(501.96848 443.912062) scale(0.18 -0.18)">
       <use xlink:href="#ArialMT-2d"/>
       <use xlink:href="#ArialMT-32" transform="translate(33.300781 0)"/>
       <use xlink:href="#ArialMT-30" transform="translate(88.916016 0)"/>
      </g>
     </g>
    </g>
    <g id="xtick_7">
     <g id="line2d_17">
      <path d="M 599.520341 418.528 
L 599.520341 63.712 
" clip-path="url(#p69db47a986)" style="fill: none; stroke-dasharray: 5.55,2.4; stroke-dashoffset: 0; stroke: #cccccc; stroke-opacity: 0.35; stroke-width: 1.5"/>
     </g>
     <g id="text_16">
      <!-- -10 -->
      <g style="fill: #262626" transform="translate(586.513935 443.912062) scale(0.18 -0.18)">
       <use xlink:href="#ArialMT-2d"/>
       <use xlink:href="#ArialMT-31" transform="translate(33.300781 0)"/>
       <use xlink:href="#ArialMT-30" transform="translate(88.916016 0)"/>
      </g>
     </g>
    </g>
    <g id="xtick_8">
     <g id="line2d_18">
      <path d="M 684.065795 418.528 
L 684.065795 63.712 
" clip-path="url(#p69db47a986)" style="fill: none; stroke-dasharray: 5.55,2.4; stroke-dashoffset: 0; stroke: #cccccc; stroke-opacity: 0.35; stroke-width: 1.5"/>
     </g>
     <g id="text_17">
      <!-- 0 -->
      <g style="fill: #262626" transform="translate(679.060952 443.912062) scale(0.18 -0.18)">
       <use xlink:href="#ArialMT-30"/>
      </g>
     </g>
    </g>
    <g id="xtick_9">
     <g id="line2d_19">
      <path d="M 768.61125 418.528 
L 768.61125 63.712 
" clip-path="url(#p69db47a986)" style="fill: none; stroke-dasharray: 5.55,2.4; stroke-dashoffset: 0; stroke: #cccccc; stroke-opacity: 0.35; stroke-width: 1.5"/>
     </g>
     <g id="text_18">
      <!-- 10 -->
      <g style="fill: #262626" transform="translate(758.601563 443.912062) scale(0.18 -0.18)">
       <use xlink:href="#ArialMT-31"/>
       <use xlink:href="#ArialMT-30" transform="translate(55.615234 0)"/>
      </g>
     </g>
    </g>
    <g id="xtick_10">
     <g id="line2d_20">
      <path d="M 853.156705 418.528 
L 853.156705 63.712 
" clip-path="url(#p69db47a986)" style="fill: none; stroke-dasharray: 5.55,2.4; stroke-dashoffset: 0; stroke: #cccccc; stroke-opacity: 0.35; stroke-width: 1.5"/>
     </g>
     <g id="text_19">
      <!-- 20 -->
      <g style="fill: #262626" transform="translate(843.147017 443.912062) scale(0.18 -0.18)">
       <use xlink:href="#ArialMT-32"/>
       <use xlink:href="#ArialMT-30" transform="translate(55.615234 0)"/>
      </g>
     </g>
    </g>
    <g id="text_20">
     <!-- x [mm] -->
     <g style="fill: #262626" transform="translate(646.106719 464.373625) scale(0.18 -0.18)">
      <use xlink:href="#Arial-BoldMT-78"/>
      <use xlink:href="#Arial-BoldMT-20" transform="translate(55.615234 0)"/>
      <use xlink:href="#Arial-BoldMT-5b" transform="translate(83.398438 0)"/>
      <use xlink:href="#Arial-BoldMT-6d" transform="translate(116.699219 0)"/>
      <use xlink:href="#Arial-BoldMT-6d" transform="translate(205.615234 0)"/>
      <use xlink:href="#Arial-BoldMT-5d" transform="translate(294.53125 0)"/>
     </g>
    </g>
   </g>
   <g id="matplotlib.axis_4">
    <g id="ytick_7">
     <g id="line2d_21">
      <path d="M 489.61125 402.4 
L 861.61125 402.4 
" clip-path="url(#p69db47a986)" style="fill: none; stroke-dasharray: 5.55,2.4; stroke-dashoffset: 0; stroke: #cccccc; stroke-opacity: 0.35; stroke-width: 1.5"/>
     </g>
    </g>
    <g id="ytick_8">
     <g id="line2d_22">
      <path d="M 489.61125 334.797534 
L 861.61125 334.797534 
" clip-path="url(#p69db47a986)" style="fill: none; stroke-dasharray: 5.55,2.4; stroke-dashoffset: 0; stroke: #cccccc; stroke-opacity: 0.35; stroke-width: 1.5"/>
     </g>
    </g>
    <g id="ytick_9">
     <g id="line2d_23">
      <path d="M 489.61125 267.195068 
L 861.61125 267.195068 
" clip-path="url(#p69db47a986)" style="fill: none; stroke-dasharray: 5.55,2.4; stroke-dashoffset: 0; stroke: #cccccc; stroke-opacity: 0.35; stroke-width: 1.5"/>
     </g>
    </g>
    <g id="ytick_10">
     <g id="line2d_24">
      <path d="M 489.61125 199.592602 
L 861.61125 199.592602 
" clip-path="url(#p69db47a986)" style="fill: none; stroke-dasharray: 5.55,2.4; stroke-dashoffset: 0; stroke: #cccccc; stroke-opacity: 0.35; stroke-width: 1.5"/>
     </g>
    </g>
    <g id="ytick_11">
     <g id="line2d_25">
      <path d="M 489.61125 131.990135 
L 861.61125 131.990135 
" clip-path="url(#p69db47a986)" style="fill: none; stroke-dasharray: 5.55,2.4; stroke-dashoffset: 0; stroke: #cccccc; stroke-opacity: 0.35; stroke-width: 1.5"/>
     </g>
    </g>
    <g id="ytick_12">
     <g id="line2d_26">
      <path d="M 489.61125 64.387669 
L 861.61125 64.387669 
" clip-path="url(#p69db47a986)" style="fill: none; stroke-dasharray: 5.55,2.4; stroke-dashoffset: 0; stroke: #cccccc; stroke-opacity: 0.35; stroke-width: 1.5"/>
     </g>
    </g>
   </g>
   <g id="FillBetweenPolyCollection_2">
    <defs>
     <path id="m9b55657b52" d="M 506.520341 -117.873273 
L 506.520341 -72.804563 
L 523.429432 -72.804563 
L 540.338523 -72.804563 
L 557.247614 -72.804563 
L 574.156705 -72.804563 
L 591.065795 -72.804563 
L 607.974886 -72.804563 
L 624.883977 -72.804563 
L 641.793068 -72.804563 
L 658.702159 -72.804563 
L 675.61125 -72.804563 
L 692.520341 -72.804563 
L 709.429432 -72.804563 
L 726.338523 -72.804563 
L 743.247614 -72.804563 
L 760.156705 -72.804563 
L 777.065795 -72.804563 
L 793.974886 -72.804563 
L 810.883977 -72.804563 
L 827.793068 -72.804563 
L 844.702159 -72.804563 
L 844.702159 -116.504633 
L 844.702159 -116.504633 
L 827.793068 -139.255512 
L 810.883977 -177.606359 
L 793.974886 -224.935616 
L 777.065795 -287.386618 
L 760.156705 -347.915549 
L 743.247614 -384.249001 
L 726.338523 -395.364563 
L 709.429432 -333.815149 
L 692.520341 -317.663056 
L 675.61125 -323.088868 
L 658.702159 -310.677728 
L 641.793068 -338.527289 
L 624.883977 -392.967819 
L 607.974886 -384.537726 
L 591.065795 -346.004299 
L 574.156705 -283.337041 
L 557.247614 -226.769796 
L 540.338523 -176.025642 
L 523.429432 -139.933853 
L 506.520341 -117.873273 
z
" style="stroke: #b2b2b2; stroke-opacity: 0.15; stroke-width: 1.5"/>
    </defs>
    <g clip-path="url(#p69db47a986)">
     <use xlink:href="#m9b55657b52" x="0" y="475.204563" style="fill: #b2b2b2; fill-opacity: 0.15; stroke: #b2b2b2; stroke-opacity: 0.15; stroke-width: 1.5"/>
    </g>
   </g>
   <g id="line2d_27">
    <path d="M 506.520341 357.331289 
L 523.429432 340.182616 
L 540.338523 315.258078 
L 557.247614 297.710223 
L 574.156705 271.951178 
L 591.065795 256.71243 
L 607.974886 239.406109 
L 624.883977 249.725497 
L 641.793068 278.547229 
L 658.702159 329.574538 
L 675.61125 402.380434 
L 692.520341 335.760761 
L 709.429432 280.325158 
L 726.338523 256.53734 
L 743.247614 246.690365 
L 760.156705 261.651815 
L 777.065795 279.34978 
L 793.974886 295.503392 
L 810.883977 319.176359 
L 827.793068 336.12453 
L 844.702159 358.69993 
" clip-path="url(#p69db47a986)" style="fill: none; stroke: #d55e00; stroke-width: 5; stroke-linecap: round"/>
   </g>
   <g id="line2d_28">
    <path d="M 506.520341 392.784301 
L 523.429432 388.25667 
L 540.338523 379.621607 
L 557.247614 367.930764 
L 574.156705 348.221862 
L 591.065795 321.171928 
L 607.974886 283.500366 
L 624.883977 242.761092 
L 641.793068 200.911574 
L 658.702159 164.526834 
L 675.61125 152.115695 
L 692.520341 157.541506 
L 709.429432 179.576176 
L 726.338523 221.302074 
L 743.247614 262.48555 
L 760.156705 303.998492 
L 777.065795 336.010518 
L 793.974886 358.635023 
L 810.883977 374.841296 
L 827.793068 384.229489 
L 844.702159 391.549435 
" clip-path="url(#p69db47a986)" style="fill: none; stroke: #009e73; stroke-width: 5; stroke-linecap: round"/>
   </g>
   <g id="line2d_29">
    <path d="M 506.520341 360.732007 
L 523.429432 335.27071 
L 540.338523 299.178921 
L 557.247614 248.434766 
L 574.156705 191.867521 
L 591.065795 129.200264 
L 607.974886 90.666836 
L 624.883977 82.236744 
L 641.793068 136.677273 
L 658.702159 253.171835 
L 675.61125 402.380436 
L 692.520341 249.442551 
L 709.429432 141.389413 
L 726.338523 79.84 
L 743.247614 90.955562 
L 760.156705 127.289013 
L 777.065795 187.817944 
L 793.974886 250.268947 
L 810.883977 297.598203 
L 827.793068 335.949051 
L 844.702159 360.312913 
" clip-path="url(#p69db47a986)" style="fill: none; stroke: #0072b2; stroke-width: 5; stroke-linecap: round"/>
   </g>
   <g id="line2d_30">
    <path d="M 506.520341 357.331289 
L 523.429432 335.27071 
L 540.338523 299.178921 
L 557.247614 248.434766 
L 574.156705 191.867521 
L 591.065795 129.200264 
L 607.974886 90.666836 
L 624.883977 82.236744 
L 641.793068 136.677273 
L 658.702159 164.526834 
L 675.61125 152.115695 
L 692.520341 157.541506 
L 709.429432 141.389413 
L 726.338523 79.84 
L 743.247614 90.955562 
L 760.156705 127.289013 
L 777.065795 187.817944 
L 793.974886 250.268947 
L 810.883977 297.598203 
L 827.793068 335.949051 
L 844.702159 358.69993 
" clip-path="url(#p69db47a986)" style="fill: none; stroke-dasharray: 18.5,8; stroke-dashoffset: 0; stroke: #000000; stroke-opacity: 0.8; stroke-width: 5"/>
   </g>
   <g id="patch_8">
    <path d="M 489.61125 418.528 
L 489.61125 63.712 
" style="fill: none; stroke: #262626; stroke-width: 1.875; stroke-linejoin: miter; stroke-linecap: square"/>
   </g>
   <g id="patch_9">
    <path d="M 861.61125 418.528 
L 861.61125 63.712 
" style="fill: none; stroke: #262626; stroke-width: 1.875; stroke-linejoin: miter; stroke-linecap: square"/>
   </g>
   <g id="patch_10">
    <path d="M 489.61125 418.528 
L 861.61125 418.528 
" style="fill: none; stroke: #262626; stroke-width: 1.875; stroke-linejoin: miter; stroke-linecap: square"/>
   </g>
   <g id="patch_11">
    <path d="M 489.61125 63.712 
L 861.61125 63.712 
" style="fill: none; stroke: #262626; stroke-width: 1.875; stroke-linejoin: miter; stroke-linecap: square"/>
   </g>
   <g id="text_21">
    <!-- LM_L -->
    <g style="fill: #262626" transform="translate(649.505 57.712) scale(0.2 -0.2)">
     <use xlink:href="#Arial-BoldMT-4c"/>
     <use xlink:href="#Arial-BoldMT-4d" transform="translate(61.083984 0)"/>
     <use xlink:href="#Arial-BoldMT-5f" transform="translate(144.384766 0)"/>
     <use xlink:href="#Arial-BoldMT-4c" transform="translate(200 0)"/>
    </g>
   </g>
  </g>
  <g id="legend_1">
   <g id="patch_12">
    <path d="M 208.22625 34.82 
L 708.59625 34.82 
Q 711.79625 34.82 711.79625 31.62 
L 711.79625 10.4 
Q 711.79625 7.2 708.59625 7.2 
L 208.22625 7.2 
Q 205.02625 7.2 205.02625 10.4 
L 205.02625 31.62 
Q 205.02625 34.82 208.22625 34.82 
z
" style="fill: #ffffff; opacity: 0.8; stroke: #cccccc; stroke-width: 1.5; stroke-linejoin: miter"/>
   </g>
   <g id="line2d_31">
    <path d="M 211.42625 19.4525 
L 227.42625 19.4525 
L 243.42625 19.4525 
" style="fill: none; stroke: #d55e00; stroke-width: 3.2; stroke-linecap: round"/>
   </g>
   <g id="text_22">
    <!-- XY -->
    <g style="fill: #262626" transform="translate(256.22625 25.0525) scale(0.16 -0.16)">
     <defs>
      <path id="ArialMT-58" d="M 28 0 
L 1800 2388 
L 238 4581 
L 959 4581 
L 1791 3406 
Q 2050 3041 2159 2844 
Q 2313 3094 2522 3366 
L 3444 4581 
L 4103 4581 
L 2494 2422 
L 4228 0 
L 3478 0 
L 2325 1634 
Q 2228 1775 2125 1941 
Q 1972 1691 1906 1597 
L 756 0 
L 28 0 
z
" transform="scale(0.015625)"/>
      <path id="ArialMT-59" d="M 1784 0 
L 1784 1941 
L 19 4581 
L 756 4581 
L 1659 3200 
Q 1909 2813 2125 2425 
Q 2331 2784 2625 3234 
L 3513 4581 
L 4219 4581 
L 2391 1941 
L 2391 0 
L 1784 0 
z
" transform="scale(0.015625)"/>
     </defs>
     <use xlink:href="#ArialMT-58"/>
     <use xlink:href="#ArialMT-59" transform="translate(66.699219 0)"/>
    </g>
   </g>
   <g id="line2d_32">
    <path d="M 309.57125 19.4525 
L 325.57125 19.4525 
L 341.57125 19.4525 
" style="fill: none; stroke: #009e73; stroke-width: 3.2; stroke-linecap: round"/>
   </g>
   <g id="text_23">
    <!-- XZ -->
    <g style="fill: #262626" transform="translate(354.37125 25.0525) scale(0.16 -0.16)">
     <defs>
      <path id="ArialMT-5a" d="M 128 0 
L 128 563 
L 2475 3497 
Q 2725 3809 2950 4041 
L 394 4041 
L 394 4581 
L 3675 4581 
L 3675 4041 
L 1103 863 
L 825 541 
L 3750 541 
L 3750 0 
L 128 0 
z
" transform="scale(0.015625)"/>
     </defs>
     <use xlink:href="#ArialMT-58"/>
     <use xlink:href="#ArialMT-5a" transform="translate(66.699219 0)"/>
    </g>
   </g>
   <g id="line2d_33">
    <path d="M 406.81625 19.4525 
L 422.81625 19.4525 
L 438.81625 19.4525 
" style="fill: none; stroke: #0072b2; stroke-width: 3.2; stroke-linecap: round"/>
   </g>
   <g id="text_24">
    <!-- YZ -->
    <g style="fill: #262626" transform="translate(451.61625 25.0525) scale(0.16 -0.16)">
     <use xlink:href="#ArialMT-59"/>
     <use xlink:href="#ArialMT-5a" transform="translate(66.699219 0)"/>
    </g>
   </g>
   <g id="line2d_34">
    <path d="M 504.06125 19.4525 
L 520.06125 19.4525 
L 536.06125 19.4525 
" style="fill: none; stroke-dasharray: 11.1,4.8; stroke-dashoffset: 0; stroke: #000000; stroke-width: 3"/>
   </g>
   <g id="text_25">
    <!-- Max-pooling envelope -->
    <g style="fill: #262626" transform="translate(548.86125 25.0525) scale(0.16 -0.16)">
     <defs>
      <path id="ArialMT-4d" d="M 475 0 
L 475 4581 
L 1388 4581 
L 2472 1338 
Q 2622 884 2691 659 
Q 2769 909 2934 1394 
L 4031 4581 
L 4847 4581 
L 4847 0 
L 4263 0 
L 4263 3834 
L 2931 0 
L 2384 0 
L 1059 3900 
L 1059 0 
L 475 0 
z
" transform="scale(0.015625)"/>
      <path id="ArialMT-61" d="M 2588 409 
Q 2275 144 1986 34 
Q 1697 -75 1366 -75 
Q 819 -75 525 192 
Q 231 459 231 875 
Q 231 1119 342 1320 
Q 453 1522 633 1644 
Q 813 1766 1038 1828 
Q 1203 1872 1538 1913 
Q 2219 1994 2541 2106 
Q 2544 2222 2544 2253 
Q 2544 2597 2384 2738 
Q 2169 2928 1744 2928 
Q 1347 2928 1158 2789 
Q 969 2650 878 2297 
L 328 2372 
Q 403 2725 575 2942 
Q 747 3159 1072 3276 
Q 1397 3394 1825 3394 
Q 2250 3394 2515 3294 
Q 2781 3194 2906 3042 
Q 3031 2891 3081 2659 
Q 3109 2516 3109 2141 
L 3109 1391 
Q 3109 606 3145 398 
Q 3181 191 3288 0 
L 2700 0 
Q 2613 175 2588 409 
z
M 2541 1666 
Q 2234 1541 1622 1453 
Q 1275 1403 1131 1340 
Q 988 1278 909 1158 
Q 831 1038 831 891 
Q 831 666 1001 516 
Q 1172 366 1500 366 
Q 1825 366 2078 508 
Q 2331 650 2450 897 
Q 2541 1088 2541 1459 
L 2541 1666 
z
" transform="scale(0.015625)"/>
      <path id="ArialMT-78" d="M 47 0 
L 1259 1725 
L 138 3319 
L 841 3319 
L 1350 2541 
Q 1494 2319 1581 2169 
Q 1719 2375 1834 2534 
L 2394 3319 
L 3066 3319 
L 1919 1756 
L 3153 0 
L 2463 0 
L 1781 1031 
L 1600 1309 
L 728 0 
L 47 0 
z
" transform="scale(0.015625)"/>
      <path id="ArialMT-70" d="M 422 -1272 
L 422 3319 
L 934 3319 
L 934 2888 
Q 1116 3141 1344 3267 
Q 1572 3394 1897 3394 
Q 2322 3394 2647 3175 
Q 2972 2956 3137 2557 
Q 3303 2159 3303 1684 
Q 3303 1175 3120 767 
Q 2938 359 2589 142 
Q 2241 -75 1856 -75 
Q 1575 -75 1351 44 
Q 1128 163 984 344 
L 984 -1272 
L 422 -1272 
z
M 931 1641 
Q 931 1000 1190 694 
Q 1450 388 1819 388 
Q 2194 388 2461 705 
Q 2728 1022 2728 1688 
Q 2728 2322 2467 2637 
Q 2206 2953 1844 2953 
Q 1484 2953 1207 2617 
Q 931 2281 931 1641 
z
" transform="scale(0.015625)"/>
      <path id="ArialMT-6f" d="M 213 1659 
Q 213 2581 725 3025 
Q 1153 3394 1769 3394 
Q 2453 3394 2887 2945 
Q 3322 2497 3322 1706 
Q 3322 1066 3130 698 
Q 2938 331 2570 128 
Q 2203 -75 1769 -75 
Q 1072 -75 642 372 
Q 213 819 213 1659 
z
M 791 1659 
Q 791 1022 1069 705 
Q 1347 388 1769 388 
Q 2188 388 2466 706 
Q 2744 1025 2744 1678 
Q 2744 2294 2464 2611 
Q 2184 2928 1769 2928 
Q 1347 2928 1069 2612 
Q 791 2297 791 1659 
z
" transform="scale(0.015625)"/>
      <path id="ArialMT-6c" d="M 409 0 
L 409 4581 
L 972 4581 
L 972 0 
L 409 0 
z
" transform="scale(0.015625)"/>
      <path id="ArialMT-69" d="M 425 3934 
L 425 4581 
L 988 4581 
L 988 3934 
L 425 3934 
z
M 425 0 
L 425 3319 
L 988 3319 
L 988 0 
L 425 0 
z
" transform="scale(0.015625)"/>
      <path id="ArialMT-6e" d="M 422 0 
L 422 3319 
L 928 3319 
L 928 2847 
Q 1294 3394 1984 3394 
Q 2284 3394 2536 3286 
Q 2788 3178 2913 3003 
Q 3038 2828 3088 2588 
Q 3119 2431 3119 2041 
L 3119 0 
L 2556 0 
L 2556 2019 
Q 2556 2363 2490 2533 
Q 2425 2703 2258 2804 
Q 2091 2906 1866 2906 
Q 1506 2906 1245 2678 
Q 984 2450 984 1813 
L 984 0 
L 422 0 
z
" transform="scale(0.015625)"/>
      <path id="ArialMT-67" d="M 319 -275 
L 866 -356 
Q 900 -609 1056 -725 
Q 1266 -881 1628 -881 
Q 2019 -881 2231 -725 
Q 2444 -569 2519 -288 
Q 2563 -116 2559 434 
Q 2191 0 1641 0 
Q 956 0 581 494 
Q 206 988 206 1678 
Q 206 2153 378 2554 
Q 550 2956 876 3175 
Q 1203 3394 1644 3394 
Q 2231 3394 2613 2919 
L 2613 3319 
L 3131 3319 
L 3131 450 
Q 3131 -325 2973 -648 
Q 2816 -972 2473 -1159 
Q 2131 -1347 1631 -1347 
Q 1038 -1347 672 -1080 
Q 306 -813 319 -275 
z
M 784 1719 
Q 784 1066 1043 766 
Q 1303 466 1694 466 
Q 2081 466 2343 764 
Q 2606 1063 2606 1700 
Q 2606 2309 2336 2618 
Q 2066 2928 1684 2928 
Q 1309 2928 1046 2623 
Q 784 2319 784 1719 
z
" transform="scale(0.015625)"/>
      <path id="ArialMT-20" transform="scale(0.015625)"/>
      <path id="ArialMT-65" d="M 2694 1069 
L 3275 997 
Q 3138 488 2766 206 
Q 2394 -75 1816 -75 
Q 1088 -75 661 373 
Q 234 822 234 1631 
Q 234 2469 665 2931 
Q 1097 3394 1784 3394 
Q 2450 3394 2872 2941 
Q 3294 2488 3294 1666 
Q 3294 1616 3291 1516 
L 816 1516 
Q 847 969 1125 678 
Q 1403 388 1819 388 
Q 2128 388 2347 550 
Q 2566 713 2694 1069 
z
M 847 1978 
L 2700 1978 
Q 2663 2397 2488 2606 
Q 2219 2931 1791 2931 
Q 1403 2931 1139 2672 
Q 875 2413 847 1978 
z
" transform="scale(0.015625)"/>
      <path id="ArialMT-76" d="M 1344 0 
L 81 3319 
L 675 3319 
L 1388 1331 
Q 1503 1009 1600 663 
Q 1675 925 1809 1294 
L 2547 3319 
L 3125 3319 
L 1869 0 
L 1344 0 
z
" transform="scale(0.015625)"/>
     </defs>
     <use xlink:href="#ArialMT-4d"/>
     <use xlink:href="#ArialMT-61" transform="translate(83.300781 0)"/>
     <use xlink:href="#ArialMT-78" transform="translate(138.916016 0)"/>
     <use xlink:href="#ArialMT-2d" transform="translate(188.916016 0)"/>
     <use xlink:href="#ArialMT-70" transform="translate(222.216797 0)"/>
     <use xlink:href="#ArialMT-6f" transform="translate(277.832031 0)"/>
     <use xlink:href="#ArialMT-6f" transform="translate(333.447266 0)"/>
     <use xlink:href="#ArialMT-6c" transform="translate(389.0625 0)"/>
     <use xlink:href="#ArialMT-69" transform="translate(411.279297 0)"/>
     <use xlink:href="#ArialMT-6e" transform="translate(433.496094 0)"/>
     <use xlink:href="#ArialMT-67" transform="translate(489.111328 0)"/>
     <use xlink:href="#ArialMT-20" transform="translate(544.726562 0)"/>
     <use xlink:href="#ArialMT-65" transform="translate(572.509766 0)"/>
     <use xlink:href="#ArialMT-6e" transform="translate(628.125 0)"/>
     <use xlink:href="#ArialMT-76" transform="translate(683.740234 0)"/>
     <use xlink:href="#ArialMT-65" transform="translate(733.740234 0)"/>
     <use xlink:href="#ArialMT-6c" transform="translate(789.355469 0)"/>
     <use xlink:href="#ArialMT-6f" transform="translate(811.572266 0)"/>
     <use xlink:href="#ArialMT-70" transform="translate(867.1875 0)"/>
     <use xlink:href="#ArialMT-65" transform="translate(922.802734 0)"/>
    </g>
   </g>
  </g>
 </g>
 <defs>
  <clipPath id="p27ff27d6e7">
   <rect x="80.41125" y="63.712" width="372" height="354.816"/>
  </clipPath>
  <clipPath id="p69db47a986">
   <rect x="489.61125" y="63.712" width="372" height="354.816"/>
  </clipPath>
 </defs>
</svg>
